<svg width="43" height="43" viewBox="0 0 43 43" fill="none" xmlns="http://www.w3.org/2000/svg">
<path d="M7.9401 20.661C7.48699 21.1235 7.49403 21.8654 7.95654 22.3208C10.9804 25.2908 13.9832 28.3827 16.8803 31.5076C17.1034 31.7494 17.4156 31.8832 17.742 31.8832C17.7561 31.8832 17.7701 31.8832 17.7866 31.8832C18.1294 31.8715 18.4463 31.7095 18.6599 31.4419C24.3016 24.3798 30.0325 17.7146 35.6929 11.6386C36.1343 11.1643 36.1084 10.4201 35.6342 9.9787C35.1623 9.53732 34.4157 9.5655 33.9743 10.0374C28.5581 15.8528 23.0784 22.1988 17.6762 28.9157C15.0421 26.1031 12.3327 23.328 9.60231 20.6469C9.13746 20.1914 8.39557 20.1938 7.9401 20.661Z" fill="black"/>
</svg>
