<svg width="43" height="43" viewBox="0 0 43 43" fill="none" xmlns="http://www.w3.org/2000/svg">
<path d="M35.3078 7.53267C34.8359 7.09834 34.0893 7.12651 33.6503 7.60545C29.6239 11.9934 25.4707 16.2334 21.4396 20.342C17.2325 16.1325 13.1403 11.8056 9.19375 7.38946C8.75942 6.90347 8.01518 6.86591 7.53624 7.29555C7.0526 7.72754 7.01034 8.46943 7.44233 8.95306C11.4241 13.4091 15.5538 17.7736 19.7986 22.023C16.0281 25.8663 12.1754 29.8105 8.42134 33.9073C7.98231 34.3863 8.01518 35.1282 8.49177 35.5672C8.71716 35.7738 9.00124 35.8748 9.28531 35.8748C9.60226 35.8748 9.91921 35.7456 10.1493 35.4944C13.8846 31.4234 17.7231 27.4909 21.4795 23.6594C25.1373 27.2679 28.8609 30.8036 32.6642 34.2125C32.8896 34.4145 33.169 34.5131 33.4484 34.5131C33.77 34.5131 34.0893 34.3816 34.3218 34.1233C34.7561 33.6397 34.7138 32.8978 34.2325 32.4658C30.4527 29.078 26.7526 25.5634 23.1183 21.9784C27.1635 17.8581 31.3307 13.6063 35.3782 9.19019C35.8173 8.71359 35.7844 7.9717 35.3078 7.53267Z" fill="black"/>
</svg>
