<svg width="43" height="43" viewBox="0 0 43 43" fill="none" xmlns="http://www.w3.org/2000/svg">
<path fill-rule="evenodd" clip-rule="evenodd" d="M26.9631 7.53385C26.9763 7.54822 26.9879 7.56073 26.9976 7.5705C27.0381 7.61103 27.4812 7.98087 28.0378 8.44556C28.1972 8.57865 28.366 8.71952 28.5373 8.86267C28.5293 8.86551 28.5213 8.86838 28.5133 8.87125C29.9904 10.1723 31.3302 11.615 32.5604 13.1447C32.5621 13.1387 32.5639 13.1328 32.5656 13.1269C32.8742 13.5222 33.0997 13.8144 33.1323 13.8609C33.2413 14.0166 33.6461 14.5615 33.8329 14.8418C33.868 14.8943 33.9074 14.9441 33.9466 14.9937C34.0999 15.1875 34.2512 15.3787 34.1317 15.72C34.1308 15.7213 34.13 15.7226 34.1291 15.7239C34.1176 15.7412 34.1059 15.7585 34.0946 15.7764C34.0535 15.8382 34.0214 15.9022 33.9711 15.9525C33.9597 15.9639 33.9574 15.9777 33.9414 15.9914C30.3905 19.4074 26.9379 23.0132 23.5996 26.5001C22.5341 27.6159 21.2766 28.8803 20.019 30.1447C18.782 31.3886 17.545 32.6347 16.4932 33.7322C16.4749 33.7505 16.4536 33.7629 16.4324 33.7752C16.4164 33.7844 16.4005 33.7936 16.3858 33.8054C16.3538 33.8328 16.3332 33.8717 16.2943 33.8969C16.2669 33.9174 16.2303 33.9197 16.2006 33.9357C16.1342 33.9723 16.0679 33.9975 15.9971 34.018C15.9239 34.0409 15.8507 34.0592 15.7753 34.066C15.7076 34.0728 15.6444 34.0685 15.579 34.0639L15.5763 34.0638C15.4963 34.0569 15.4209 34.0478 15.3454 34.0249C15.2814 34.0043 15.2242 33.9769 15.1625 33.9471C15.0893 33.9106 15.023 33.8694 14.959 33.8168C14.9476 33.8075 14.9347 33.8009 14.922 33.7945C14.9066 33.7867 14.8914 33.779 14.879 33.7665C14.847 33.7345 14.8332 33.6957 14.8058 33.6613C14.7937 33.6463 14.7795 33.6339 14.7652 33.6214C14.7469 33.6055 14.7284 33.5894 14.7143 33.5676C14.3737 33.0486 13.7929 32.3946 13.2327 31.9053C11.5384 30.4214 9.9653 28.7797 8.55911 27.026C8.20014 26.5824 8.2253 25.9445 8.614 25.5306C13.8787 19.9096 20.015 13.4079 26.2365 7.32459C26.5966 7.13559 26.8465 7.40714 26.9631 7.53385ZM26.6548 10.2011C26.6456 10.1869 26.6364 10.1727 26.6269 10.1585C22.7948 13.945 19.0175 17.8457 15.4712 21.5864C15.4769 21.5921 15.4838 21.5956 15.4906 21.599C15.4975 21.6024 15.5043 21.6058 15.51 21.6115L20.4328 26.4772C20.9633 25.9399 21.4801 25.4094 21.9511 24.9178C24.999 21.7327 28.1543 18.4654 31.3943 15.3054C30.0407 13.522 28.5064 11.8643 26.8076 10.394C26.7432 10.3373 26.6992 10.2695 26.6548 10.2011ZM18.8254 28.1006L13.9072 23.2395L13.8404 23.3104C12.8679 24.3409 11.8945 25.3726 10.9691 26.3583C12.126 27.721 13.3905 29.006 14.7372 30.1836C15.0916 30.4969 15.4414 30.8467 15.7616 31.2057C16.603 30.3459 17.4879 29.4496 18.4002 28.5305C18.5429 28.3877 18.6812 28.2472 18.8216 28.1046L18.8254 28.1006Z" fill="black"/>
</svg>
