<svg width="43" height="43" viewBox="0 0 43 43" fill="none" xmlns="http://www.w3.org/2000/svg">
<path d="M37.214 8.66495C34.7414 7.75991 30.3697 5.82763 27.6471 6.86992C25.5081 7.68881 23.6216 10.0009 21.9792 11.4092C18.0026 14.819 14.026 18.2288 10.0493 21.6386C8.28724 23.1496 4.32585 25.4317 4.4107 27.9107C5.17893 31.6681 5.51628 32.28 9.26295 33.575C11.8337 34.4635 15.8007 36.7563 18.6363 35.5754C20.8929 34.6357 22.8089 32.1305 24.5204 30.5731C28.1046 27.3115 31.6888 24.0498 35.273 20.7881C36.6574 19.5283 40.2099 17.3032 40.8695 15.4588C41.779 12.9156 39.5949 9.53639 37.214 8.66495ZM10.0398 22.7832C10.0412 22.7821 10.0425 22.7809 10.0438 22.7798C12.7913 23.7016 15.5352 24.6337 18.2678 25.5937C19.1051 25.8879 19.7131 26.2739 20.1724 26.7293C19.3081 27.4194 18.4225 28.2271 17.465 28.7152C16.2576 29.3307 15.5408 28.8106 14.3091 28.3636C11.7682 27.4414 9.22721 26.5193 6.68621 25.5971C7.71389 24.4632 9.28543 23.4301 10.0398 22.7832ZM11.8699 33.5038C10.679 33.0922 9.26103 32.7971 8.14806 32.2173C6.00197 31.0994 6.12005 29.5775 5.71204 27.5819C5.69855 27.1882 5.84486 26.7875 6.08475 26.3908C9.01594 27.4823 11.9424 28.7099 14.9396 29.5948C15.3357 29.7118 15.7088 29.7619 16.0668 29.7677C16.4105 31.4271 16.7541 33.0864 17.0978 34.7457C15.4878 34.8626 13.8261 34.18 11.8699 33.5038ZM20.2146 33.2997C19.6016 33.8575 19.0031 34.2225 18.4064 34.4521C18.0685 32.8209 17.7306 31.1897 17.3928 29.5585C18.5933 29.156 19.6285 28.2468 20.7053 27.3794C21.4769 28.5593 21.618 30.0693 21.9877 31.6861C21.3967 32.224 20.8057 32.7618 20.2146 33.2997ZM39.5509 14.521C39.3952 16.566 36.6636 18.331 35.267 19.6019C31.2265 23.2788 27.186 26.9557 23.1454 30.6326C22.8002 28.7198 22.543 26.4162 20.7247 25.4612C17.7915 23.9207 14.1076 23.0981 10.8826 22.0606C13.2756 20.0087 15.6686 17.9567 18.0617 15.9048C20.5324 13.7862 23.0031 11.6677 25.4739 9.5491C27.6461 7.68648 29.1213 7.21637 32.1036 8.09298C35.4926 9.08912 39.8757 10.2538 39.5509 14.521Z" fill="black" stroke="black" stroke-width="1.25"/>
</svg>
