<svg width="43" height="43" viewBox="0 0 43 43" fill="none" xmlns="http://www.w3.org/2000/svg">
<path d="M27.9924 9.92801C27.7341 9.92801 27.4389 9.96245 27.2176 10.0313V9.68691C27.2176 8.27477 25.9999 7.10372 24.4502 7.10372C24.1919 7.10372 23.8967 7.13816 23.6753 7.20704V6.86262C23.6753 5.45047 22.4577 4.27942 20.908 4.27942C19.3583 4.27942 18.1406 5.41603 18.1406 6.86262V7.20704C17.8823 7.13816 17.6241 7.10372 17.3658 7.10372C15.853 7.10372 14.5984 8.24032 14.5984 9.68691V15.3355C14.5984 17.5743 14.4508 19.8475 14.1187 22.0863L13.7498 21.3285C13.3808 20.5708 12.4583 18.5731 9.76477 18.7453C9.72787 18.7453 9.72787 18.7453 9.69097 18.7453C8.95301 18.7798 8.28885 19.1931 7.95676 19.813C7.62468 20.3986 7.66158 21.1219 8.03056 21.673C8.62093 22.5685 9.1744 24.325 9.43269 25.5305L9.72787 27.0116C9.98616 28.3548 10.5765 29.6292 11.4621 30.7314C11.4621 30.7658 11.499 30.7658 11.5359 30.8003L14.377 33.7968C14.9305 34.3823 15.2626 35.1745 15.2626 35.9666V37.7921C15.2626 38.3087 15.7054 38.7221 16.2588 38.7221C16.8123 38.7221 17.2551 38.3087 17.2551 37.7921V35.9666C17.2551 34.7267 16.7754 33.5212 15.8898 32.5913L13.0487 29.6292C12.3845 28.7681 11.9049 27.7349 11.6835 26.7016L11.3514 25.2205C11.0931 23.8773 10.4289 21.9141 9.69097 20.743C9.69097 20.7086 9.65407 20.7086 9.69097 20.6741C9.72787 20.6397 9.76477 20.6052 9.83856 20.5708C9.87546 20.5708 9.87546 20.5708 9.91236 20.5708C10.9455 20.5019 11.4252 20.8463 11.9787 22.0518L13.676 25.6683C13.676 25.6683 13.676 25.7027 13.7129 25.7027C13.7498 25.7372 13.7498 25.7716 13.7867 25.8405C13.7867 25.875 13.8236 25.875 13.8605 25.9094C13.8974 25.9438 13.8974 25.9438 13.9342 25.9783C13.9711 26.0127 13.9711 26.0127 14.008 26.0472C14.0449 26.0816 14.0449 26.0816 14.0818 26.1161C14.1187 26.1161 14.1556 26.1505 14.1556 26.1505C14.1925 26.1505 14.1925 26.1849 14.2294 26.1849C14.3032 26.2194 14.3401 26.2194 14.4139 26.2194C14.4508 26.2194 14.4877 26.2194 14.5246 26.2194C14.5615 26.2194 14.5615 26.2194 14.5984 26.2194C14.6353 26.2194 14.6353 26.2194 14.6722 26.2194C14.7091 26.2194 14.746 26.2194 14.7829 26.2194C14.8198 26.2194 14.8198 26.2194 14.8567 26.2194C14.8936 26.2194 14.9305 26.1849 14.9674 26.1849C14.9674 26.1849 14.9674 26.1849 15.0043 26.1849C15.0043 26.1849 15.0412 26.1849 15.0412 26.1505C15.0781 26.1505 15.115 26.1161 15.1519 26.0816C15.1888 26.0816 15.1888 26.0472 15.2257 26.0472C15.2626 26.0127 15.2995 26.0127 15.2995 25.9783L15.3364 25.9438C15.3733 25.9094 15.3733 25.875 15.4102 25.8405L15.4471 25.8061C15.484 25.7716 15.484 25.7372 15.5209 25.6683C15.5209 25.6683 15.5209 25.6683 15.5209 25.6339C15.5578 25.565 15.5578 25.5305 15.5578 25.4616C16.2219 22.1207 16.5909 18.7109 16.5909 15.3011V9.68691C16.5909 9.2736 16.9599 8.96362 17.3658 8.96362C17.8085 8.96362 18.1406 9.30804 18.1406 9.68691V19.0553C18.1406 19.572 18.5834 19.9853 19.1369 19.9853C19.6903 19.9853 20.1331 19.572 20.1331 19.0553V6.89706C20.1331 6.48375 20.5021 6.17376 20.908 6.17376C21.3508 6.17376 21.6828 6.51819 21.6828 6.89706V19.0553C21.6828 19.572 22.1256 19.9853 22.6791 19.9853C23.2326 19.9853 23.6753 19.572 23.6753 19.0553V9.68691C23.6753 9.2736 24.0443 8.96362 24.4502 8.96362C24.893 8.96362 25.2251 9.30804 25.2251 9.68691V19.0553C25.2251 19.572 25.6678 19.9853 26.2213 19.9853C26.7748 19.9853 27.2176 19.572 27.2176 19.0553V12.4768C27.2176 12.0635 27.5865 11.7535 27.9924 11.7535C28.4352 11.7535 28.7673 12.0979 28.7673 12.4768V20.3986V25.875C28.7673 27.666 28.2876 29.457 27.3651 31.0758C26.1844 33.1424 25.5571 35.4845 25.5571 37.8266V37.8954C25.5571 38.4121 25.9999 38.8254 26.5534 38.8254C27.1069 38.8254 27.5496 38.4121 27.5496 37.8954V37.8266C27.5496 35.7944 28.1031 33.7623 29.1363 31.9369C30.2063 30.077 30.7598 27.976 30.7598 25.875V20.3986V12.4768C30.7598 11.0646 29.5052 9.92801 27.9924 9.92801Z" fill="black" stroke="black" stroke-width="0.25"/>
</svg>
