<svg width="43" height="43" viewBox="0 0 43 43" fill="none" xmlns="http://www.w3.org/2000/svg">
<path d="M16.8196 37.5196C16.4318 37.0192 16.3822 34.6684 16.1458 34.2858C16.1117 34.2476 14.1678 32.2246 13.3409 30.7701C11.9153 28.2629 6.96955 18.4547 7.37327 17.6704C7.53289 17.3601 7.79851 17.1274 8.17258 17.0392C8.45933 16.9718 8.74891 16.9377 9.03404 16.9377C10.7862 16.9377 12.3775 18.1614 13.7641 20.5756C13.7641 20.5756 14.877 22.3952 15.4306 23.1507C15.4497 22.1527 15.3364 20.3985 15.2693 20.0188C14.8425 17.5908 13.7016 8.29755 13.6569 7.93038C13.5501 7.29881 13.6597 6.68511 13.9656 6.20219C14.2909 5.68841 14.981 5.1933 15.8595 5.20386C16.9776 5.21767 17.8651 6.0113 18.0686 7.21636L19.8613 18.2313L20.1936 4.66368C20.168 3.28844 21.1111 2.20969 22.3876 2.20969C24.2397 2.20969 24.6613 4.02479 24.6714 4.57879L24.8018 16.3626L26.5235 6.26637C26.7262 5.0674 27.7334 4.10196 29.1306 4.2957C30.8905 4.53939 31.0936 6.16848 30.9376 7.05674L29.6883 16.1254L30.9624 10.9721C31.2881 9.85394 32.139 8.89744 33.6341 9.27841C35.3326 9.71138 35.214 11.4903 35.0519 12.236C33.3749 19.9392 32.6605 24.9796 32.6349 25.1664C32.0541 29.4595 29.4637 35.8186 29.4409 36.5278C29.4409 36.5375 29.4048 37.5022 28.9755 37.9445C28.5547 38.379 27.8175 38.4201 27.5953 38.4225H18.3395C18.3094 38.4229 17.4025 38.2718 16.8196 37.5196ZM32.1386 11.2893L29.9064 20.3218C29.8373 20.5911 29.5672 20.8165 29.2902 20.7893C27.9203 20.6548 27.9247 20.0005 27.9483 19.8291L29.7333 6.87276C29.7918 6.52752 29.8105 5.64211 28.9275 5.49792C28.1148 5.36511 27.8057 5.99181 27.7249 6.47107L25.5723 19.0948C25.5195 19.4051 25.2388 19.6082 24.9334 19.6004C23.8717 19.5745 23.6215 19.2069 23.611 18.8357L23.4534 4.59788C23.4428 4.01586 23.1232 3.42896 22.4112 3.42896H22.41C21.7049 3.44196 21.4003 4.04795 21.4112 4.66855L21.055 19.2475C21.0514 19.4022 20.88 20.0379 19.5807 19.9668C18.9605 19.9327 18.8407 19.5448 18.8187 19.4124L16.8663 7.417C16.7518 6.73832 16.2648 6.31957 15.6637 6.44061C14.8851 6.59698 14.8014 7.39385 14.862 7.75574C14.8737 7.852 16.0475 17.4121 16.4691 19.8088C16.5646 20.3535 16.7477 23.1312 16.5837 23.9609C16.4537 24.6152 15.4501 24.6681 15.4403 24.6681C15.1775 24.6681 15.0143 24.5547 14.9241 24.4593C14.2503 23.7514 12.7077 21.1832 12.7077 21.1832C11.5542 19.1752 10.0068 17.7927 8.58402 18.1956C8.58402 18.1956 12.9953 27.698 14.4002 30.1686C15.1524 31.4907 17.1015 33.5202 17.1515 33.597C17.5929 34.2728 17.6421 36.592 17.783 36.7739C18.0194 37.0789 18.3062 37.1789 18.4044 37.2057H27.5864C27.7814 37.202 28.0389 37.1464 28.0799 37.1228C28.1307 37.044 28.2151 36.7292 28.2233 36.4896C28.2529 35.5624 30.8677 29.1443 31.4278 25.0043C31.4514 24.8293 31.9631 19.6853 33.8757 11.9213C33.9777 11.5716 34.121 10.6707 33.2933 10.4494C32.5378 10.2463 32.2117 11.0403 32.1386 11.2893Z" fill="black" stroke="black" stroke-width="0.4"/>
</svg>
