<svg width="43" height="43" viewBox="0 0 43 43" fill="none" xmlns="http://www.w3.org/2000/svg">
<path d="M20.1374 20.0475C20.8517 20.267 21.5871 20.3702 22.3198 20.3702C25.3593 20.3702 28.3512 18.6031 29.4702 15.881C29.8538 14.9499 30.0522 13.8917 30.0575 12.7384C30.0813 9.36291 28.1343 6.24405 25.0974 4.79969C22.1849 3.40824 18.9285 3.82091 16.3995 5.90545C14.4896 7.47414 13.5426 9.71474 13.8018 12.0532C14.2198 15.807 16.7646 19.0211 20.1374 20.0475ZM18.0793 7.94765C19.1401 7.07469 20.3517 6.63027 21.5844 6.63027C22.378 6.63027 23.1822 6.8128 23.9599 7.18315C26.0709 8.19102 27.428 10.3629 27.4121 12.7172C27.4068 13.5293 27.2772 14.2542 27.0232 14.8705C26.145 17.0027 23.288 18.2407 20.9072 17.5159C18.5687 16.8016 16.7276 14.434 16.4313 11.7569C16.2144 9.80204 17.3704 8.53227 18.0793 7.94765Z" fill="black"/>
<path d="M11.4047 37.1178C11.4417 37.1178 11.4761 37.1178 11.5132 37.1151C14.9786 36.8347 18.4969 36.6892 21.9676 36.6813C24.4092 36.7078 27.0096 36.7422 29.9036 36.8771C30.6734 36.9141 31.549 36.848 32.1892 36.9617C32.5833 37.0358 32.9748 36.9247 33.2738 36.6707C33.5727 36.4168 33.7446 36.0438 33.742 35.6496C33.7129 32.0969 32.9272 28.5971 31.6416 26.2877C29.8084 23.0022 26.1657 21.3462 21.1501 21.4388C17.7509 21.5155 14.6849 23.1054 12.5157 25.9121C10.5476 28.4569 9.59792 32.4091 10.0952 35.9777C10.1878 36.6363 10.7513 37.1178 11.4047 37.1178ZM14.6082 27.5284C16.2801 25.3645 18.6238 24.1424 21.2083 24.0842C21.3565 24.0815 21.4993 24.0789 21.6448 24.0789C25.4488 24.0789 28.036 25.2534 29.3296 27.576C30.3692 29.4384 30.8744 32.0414 31.0384 34.2502C30.6919 34.2555 30.3559 34.2502 30.0279 34.2344C27.0889 34.0995 24.4965 34.073 21.9623 34.036C18.8593 34.0413 15.7219 34.155 12.611 34.3772C12.5369 31.843 13.275 29.2585 14.6082 27.5284Z" fill="black"/>
</svg>
