<svg width="43" height="43" viewBox="0 0 43 43" fill="none" xmlns="http://www.w3.org/2000/svg">
<path d="M28.4001 6.20773C28.3247 6.3217 28.2871 6.43567 28.2871 6.54964C22.374 12.5141 16.461 18.4786 10.5479 24.443C10.4349 24.519 10.322 24.633 10.2466 24.747C10.209 24.8229 10.1713 24.8989 10.1336 24.9749C8.13752 29.0399 6.36737 33.2568 4.63488 37.4737C4.25826 38.3475 5.38814 38.8413 6.02841 38.5374C9.75702 36.9038 13.561 35.3462 17.1766 33.4467C18.2688 33.1808 19.248 31.7752 19.926 31.0913C25.5754 25.5448 31.1871 19.9982 36.8365 14.4896C36.8742 14.4516 36.8742 14.4136 36.9118 14.4136C37.9664 14.0337 38.7197 13.2739 38.456 12.0962C37.7404 9.17096 31.1494 1.30698 28.4001 6.20773ZM30.0196 7.15748C31.2624 4.95405 35.5936 10.3107 36.1963 11.3364C36.9495 12.5521 35.7066 13.046 34.6521 12.894C33.7858 12.742 33.1079 12.0202 32.543 11.4124C31.4884 10.2727 30.6222 8.94302 29.7183 7.68934C29.7936 7.57537 29.8312 7.49939 29.8312 7.38542C29.9066 7.30944 29.9819 7.23346 30.0196 7.15748ZM8.47648 34.5105C8.43882 34.4725 8.43882 34.4725 8.40116 34.4345C8.36349 34.3965 8.32583 34.3585 8.32583 34.3205C8.28817 34.2445 8.25051 34.1685 8.21284 34.0926C8.21284 34.0546 8.17518 33.9786 8.17518 33.9406C9.04142 31.8891 9.94533 29.8377 10.9246 27.7862C11.6025 29.4198 12.5817 30.9014 13.9752 32.1171C14.1636 32.269 14.3895 32.459 14.5778 32.6109C12.7324 33.5227 10.8492 34.3585 8.9661 35.1943C8.89077 34.9283 8.70246 34.7004 8.47648 34.5105ZM28.4377 9.05699C28.5884 9.28493 28.7767 9.55087 28.965 9.8168C23.8805 15.8193 17.9298 20.9479 12.3557 26.4185C12.2428 26.1526 12.1674 25.8487 12.0921 25.5448C17.5155 20.0742 22.9766 14.5656 28.4377 9.05699ZM13.7493 29.2298C13.5233 28.9259 13.335 28.584 13.1467 28.2801C18.8337 22.6955 24.8974 17.5288 30.0572 11.4504C30.3585 11.8683 30.6975 12.2862 31.0365 12.6661C29.4923 13.9957 27.9481 15.2874 26.4793 16.693C25.0481 18.0607 23.8429 19.6563 22.487 21.0999C19.813 24.0631 16.8376 26.7604 13.7493 29.2298ZM19.6623 28.6979C18.9467 29.3818 17.1389 31.9651 15.9714 31.3193C15.6324 31.1293 15.2934 30.9014 15.0298 30.6354C18.1558 28.1281 21.0935 25.3928 23.8429 22.4675C25.1987 21.0239 26.4416 19.4663 27.8351 18.0607C29.2663 16.6171 30.9235 15.2874 32.4676 13.9577C32.8819 14.2237 33.2962 14.4516 33.7482 14.6036C33.8235 14.6416 33.8988 14.6416 33.9741 14.6416C30.2455 18.2886 26.5546 21.9357 22.826 25.5827C21.7714 26.6085 20.7169 27.6722 19.6623 28.6979Z" fill="black"/>
</svg>
