<svg width="43" height="43" viewBox="0 0 43 43" fill="none" xmlns="http://www.w3.org/2000/svg">
<path d="M32.2817 25.822C31.3567 26.2343 30.3806 26.3078 29.518 26.3725C29.2729 26.3925 29.0255 26.4126 28.7826 26.4371C28.0738 26.5151 27.1489 26.7268 26.7722 27.2929C26.5204 27.6718 26.4669 28.2669 26.4313 28.8419L26.4067 29.2876C26.3555 30.275 26.302 31.298 26.0056 32.3232C25.5732 33.8164 24.655 34.9887 23.4826 35.5392C21.9181 36.2747 19.9768 35.7621 19.1544 34.3825C18.7711 33.7362 18.6842 33.0185 18.6218 32.4926L18.1248 28.4296C18.0512 27.8278 17.9688 27.1481 17.6657 26.7335C17.4316 26.4103 17.0015 26.1518 16.3507 25.9423C14.5699 25.3628 12.573 25.5144 10.8547 25.744C10.6474 25.7685 10.4713 25.8086 10.3131 25.842C9.65782 25.9824 8.43425 26.2432 7.76786 24.5895C7.45361 23.8094 7.39121 22.8778 7.33772 22.0532C7.32211 21.7835 7.30428 21.525 7.27754 21.2887C7.04575 19.1982 6.93209 17.0809 6.93432 14.89C6.9254 8.30414 7.16833 8.01218 8.20692 7.84057C11.2514 7.33242 14.3292 7.49957 17.3024 7.65781C19.3327 7.76479 21.4344 7.874 23.4581 7.76925C24.1602 7.72913 24.8622 7.66673 25.5643 7.60432C26.6942 7.5018 27.851 7.39482 29.0188 7.39482C29.703 7.39482 30.3895 7.43271 31.0804 7.52631C31.8426 7.62884 32.9369 7.86508 33.659 8.72537C34.1716 9.33159 34.3388 10.076 34.4502 10.5685C34.9517 12.7839 35.3172 15.0505 35.5423 17.3015C35.6805 18.6811 35.7919 20.2858 35.3841 21.866C34.9138 23.6891 33.7549 25.1689 32.2817 25.822ZM9.29231 9.93111C9.23214 10.5797 9.15859 11.9927 9.16305 14.997C9.16082 17.0006 9.27003 19.0377 9.4929 21.0413C9.52187 21.3088 9.54193 21.6007 9.56199 21.9083C9.59988 22.4789 9.64222 23.1163 9.82052 23.6668C9.83167 23.6645 9.84281 23.6623 9.85395 23.6601C10.059 23.6155 10.293 23.5687 10.5627 23.5308C11.7929 23.3681 13.1569 23.2678 14.5432 23.3726C14.6435 18.8349 14.6346 14.266 14.4964 9.76173C12.7268 9.70378 11.0017 9.71047 9.29231 9.93111ZM31.9518 10.1584C31.7 9.85757 31.0091 9.76396 30.7817 9.73276C29.1614 9.51211 27.5122 9.66367 25.7649 9.82414C25.0338 9.88877 24.305 9.95563 23.5785 9.99352C22.9433 10.0292 22.3059 10.0426 21.6707 10.0426C20.1596 10.0426 18.6552 9.96232 17.1842 9.88431C17.0282 9.8754 16.8789 9.86871 16.7229 9.86202C16.8611 14.4599 16.8722 19.1246 16.7652 23.7604C16.8566 23.7849 16.9502 23.7916 17.0416 23.8206C18.156 24.1838 18.9494 24.7054 19.4687 25.423C20.1106 26.3056 20.2421 27.3754 20.3357 28.1599L20.8349 32.2273C20.8795 32.5928 20.9285 33.0074 21.0712 33.2481C21.3029 33.6359 22.0139 33.7652 22.5332 33.5267C23.1238 33.2481 23.6097 32.5839 23.8638 31.7058C24.0889 30.928 24.1334 30.0766 24.1802 29.1717L24.2048 28.7104C24.2538 27.8702 24.3541 26.9007 24.9135 26.0604C25.5999 25.0308 26.8191 24.4134 28.5374 24.224C28.8048 24.195 29.0768 24.1749 29.3464 24.1526C30.0953 24.0969 30.804 24.0412 31.3768 23.7871C32.2326 23.406 32.9235 22.4811 33.2244 21.311C33.3024 21.0057 33.3559 20.6914 33.3893 20.3727L31.6866 20.4463C31.1071 20.4373 30.5544 19.9916 30.5277 19.3765C30.5009 18.7613 30.9801 18.2398 31.5952 18.2153L33.3782 18.1395C33.3604 17.9323 33.3448 17.7228 33.3247 17.5244C33.2378 16.6574 33.1152 15.7904 32.9837 14.9235L31.3099 14.7028C30.6993 14.6204 30.2714 14.061 30.3516 13.4481C30.4274 12.8886 30.9043 12.4808 31.4548 12.4808C31.5038 12.4808 31.5529 12.483 31.6019 12.4897L32.5759 12.619C32.4756 12.0974 32.3909 11.5737 32.2728 11.0566C32.2104 10.7602 32.1167 10.3523 31.9518 10.1584Z" fill="black"/>
</svg>
