<svg width="43" height="43" viewBox="0 0 43 43" fill="none" xmlns="http://www.w3.org/2000/svg">
<path d="M35.3691 15.7429C34.4441 15.3306 33.468 15.2571 32.6054 15.1925C32.3603 15.1724 32.1129 15.1523 31.87 15.1278C31.1612 15.0498 30.2363 14.8381 29.8596 14.272C29.6078 13.8931 29.5543 13.298 29.5187 12.723L29.4941 12.2773C29.4429 11.2899 29.3894 10.267 29.093 9.24174C28.6606 7.74849 27.7424 6.57618 26.57 6.02568C25.0055 5.2902 23.0643 5.80281 22.2418 7.18239C21.8585 7.82873 21.7716 8.54638 21.7092 9.07236L21.2122 13.1353C21.1386 13.7371 21.0562 14.4169 20.7531 14.8314C20.519 15.1546 20.0889 15.4131 19.4381 15.6226C17.6573 16.2021 15.6604 16.0505 13.9421 15.821C13.7348 15.7964 13.5587 15.7563 13.4005 15.7229C12.7452 15.5825 11.5217 15.3217 10.8553 16.9754C10.541 17.7555 10.4786 18.6871 10.4251 19.5117C10.4095 19.7814 10.3917 20.0399 10.3649 20.2762C10.1332 22.3667 10.0195 24.484 10.0217 26.6749C10.0128 33.2608 10.2557 33.5527 11.2943 33.7243C14.3388 34.2325 17.4166 34.0653 20.3898 33.9071C22.4201 33.8001 24.5218 33.6909 26.5455 33.7957C27.2476 33.8358 27.9496 33.8982 28.6517 33.9606C29.7816 34.0631 30.9384 34.1701 32.1062 34.1701C32.7904 34.1701 33.4769 34.1322 34.1678 34.0386C34.93 33.9361 36.0243 33.6998 36.7464 32.8395C37.259 32.2333 37.4262 31.4889 37.5376 30.9964C38.0391 28.781 38.4046 26.5144 38.6297 24.2634C38.7679 22.8838 38.8793 21.2791 38.4715 19.6989C38.0012 17.8758 36.8423 16.396 35.3691 15.7429ZM12.3797 31.6338C12.3195 30.9852 12.246 29.5722 12.2504 26.5679C12.2482 24.5643 12.3574 22.5272 12.5803 20.5236C12.6093 20.2561 12.6293 19.9642 12.6494 19.6566C12.6873 19.086 12.7296 18.4486 12.9079 17.8981C12.9191 17.9004 12.9302 17.9026 12.9414 17.9048C13.1464 17.9494 13.3804 17.9962 13.6501 18.0341C14.8804 18.1968 16.2443 18.2971 17.6306 18.1923C17.7309 22.73 17.722 27.2989 17.5838 31.8032C15.8142 31.8611 14.0892 31.8544 12.3797 31.6338ZM35.0392 31.4065C34.7874 31.7073 34.0965 31.801 33.8691 31.8322C32.2488 32.0528 30.5996 31.9012 28.8523 31.7408C28.1212 31.6761 27.3924 31.6093 26.6659 31.5714C26.0307 31.5357 25.3933 31.5224 24.7581 31.5224C23.247 31.5224 21.7426 31.6026 20.2717 31.6806C20.1156 31.6895 19.9663 31.6962 19.8103 31.7029C19.9485 27.105 19.9596 22.4403 19.8526 17.8045C19.944 17.78 20.0376 17.7733 20.129 17.7443C21.2434 17.3811 22.0368 16.8595 22.5561 16.1419C23.198 15.2593 23.3295 14.1895 23.4231 13.405L23.9223 9.33758C23.9669 8.97207 24.0159 8.55752 24.1586 8.31682C24.3903 7.92902 25.1013 7.79975 25.6206 8.03823C26.2112 8.31682 26.6971 8.98098 26.9512 9.8591C27.1763 10.6369 27.2208 11.4883 27.2676 12.3932L27.2922 12.8545C27.3412 13.6947 27.4415 14.6642 28.0009 15.5045C28.6873 16.5341 29.9065 17.1515 31.6248 17.3409C31.8923 17.3699 32.1642 17.39 32.4338 17.4123C33.1827 17.468 33.8914 17.5237 34.4642 17.7778C35.32 18.1589 36.0109 19.0838 36.3118 20.2539C36.3898 20.5592 36.4433 20.8735 36.4768 21.1922L34.774 21.1186C34.1945 21.1276 33.6418 21.5733 33.6151 22.1884C33.5883 22.8036 34.0675 23.3251 34.6826 23.3496L36.4656 23.4254C36.4478 23.6327 36.4322 23.8422 36.4121 24.0405C36.3252 24.9075 36.2026 25.7745 36.0711 26.6414L34.3973 26.8621C33.7867 26.9445 33.3588 27.504 33.439 28.1169C33.5148 28.6763 33.9917 29.0841 34.5422 29.0841C34.5912 29.0841 34.6403 29.0819 34.6893 29.0752L35.6633 28.9459C35.563 29.4675 35.4783 29.9912 35.3602 30.5083C35.2978 30.8047 35.2041 31.2126 35.0392 31.4065Z" fill="black"/>
</svg>
