<svg width="43" height="43" viewBox="0 0 43 43" fill="none" xmlns="http://www.w3.org/2000/svg">
<path d="M25.128 7.7413C21.6018 5.0113 17.8057 5.51391 14.5599 6.36836C12.105 7.01383 9.95962 8.23598 8.35654 9.8999C5.52867 12.8362 4.29594 17.1005 5.13451 21.0315C5.98896 25.018 8.99672 28.4358 12.7981 29.7426C14.1287 30.2003 15.6418 30.441 17.2925 30.4542C17.3428 30.4542 17.3878 30.4542 17.438 30.4542C19.5252 30.4542 21.3822 30.0839 22.9588 29.3511C23.8556 28.9332 24.6783 28.3591 25.4322 27.6872C29.0246 30.769 32.4451 34.0969 35.5692 37.6363C35.8311 37.9326 36.1935 38.0834 36.5612 38.0834C36.8734 38.0834 37.1829 37.9749 37.4368 37.7527C37.9844 37.2686 38.0373 36.4327 37.5532 35.8851C34.355 32.261 30.8552 28.8591 27.1835 25.7032C28.6992 23.5658 29.6383 20.8728 29.6965 18.0343C29.7759 13.9261 28.0273 9.9819 25.128 7.7413ZM21.8452 26.9518C20.5886 27.5338 19.0199 27.8062 17.3163 27.8089C15.9513 27.7983 14.7212 27.6052 13.6578 27.2428C10.7162 26.2296 8.38564 23.5763 7.72431 20.4786C7.07355 17.4444 8.07085 14.0134 10.2638 11.7358C11.5468 10.4025 13.2187 9.45812 15.2344 8.92641C18.4194 8.08784 21.041 7.92382 23.5117 9.83376C25.7603 11.5718 27.1147 14.6933 27.0512 17.9814C26.9692 21.9362 24.8794 25.5392 21.8452 26.9518Z" fill="black"/>
<path d="M20.8184 16.6244C20.0036 16.7804 19.1809 16.8281 18.3582 16.8148C18.3027 15.8916 18.2603 14.9684 18.1413 14.0557C18.0619 13.4314 17.5487 12.95 16.9218 12.905C16.316 12.8521 15.7208 13.2648 15.5541 13.8732L15.4378 14.2965C15.3293 14.6933 15.4139 15.1006 15.6335 15.4128C15.6705 15.7805 15.6705 16.1535 15.697 16.5238C14.9166 16.381 14.0595 16.2646 13.1522 16.4577C12.4353 16.6111 11.9776 17.3122 12.1311 18.0264C12.2845 18.7433 12.9987 19.1983 13.6998 19.0475C14.2288 18.9364 14.869 19.0554 15.5489 19.1824L15.8002 19.2274C15.8002 20.0951 15.7896 20.9627 15.7261 21.8278C15.6758 22.5552 16.2234 23.1901 16.9509 23.2404C16.9853 23.243 17.017 23.2457 17.0488 23.2457C17.7366 23.2457 18.3159 22.714 18.3662 22.0182C18.427 21.1744 18.4138 20.3252 18.4217 19.4761C18.4614 19.4761 18.5037 19.4866 18.5434 19.4866C19.4693 19.4866 20.3925 19.3993 21.3104 19.2247C22.0273 19.0898 22.5008 18.3967 22.3633 17.6799C22.2257 16.9577 21.5194 16.4895 20.8184 16.6244Z" fill="black"/>
</svg>
