<svg xmlns="http://www.w3.org/2000/svg" xmlns:xlink="http://www.w3.org/1999/xlink" version="1.1" x="0px" y="0px" viewBox="0 0 16 20" style="enable-background:new 0 0 16 16;" xml:space="preserve"><path d="M13.917,2.078c-0.201-0.185-0.519-0.173-0.706,0.031C11.496,3.978,9.727,5.784,8.01,7.534  C6.218,5.741,4.475,3.898,2.794,2.017c-0.185-0.207-0.502-0.223-0.706-0.04c-0.206,0.184-0.224,0.5-0.04,0.706  C3.744,4.581,5.503,6.44,7.311,8.25c-1.606,1.637-3.247,3.317-4.846,5.062c-0.187,0.204-0.173,0.52,0.03,0.707  c0.096,0.088,0.217,0.131,0.338,0.131c0.135,0,0.27-0.055,0.368-0.162c1.591-1.734,3.226-3.409,4.826-5.041  c1.558,1.537,3.144,3.043,4.764,4.495c0.096,0.086,0.215,0.128,0.334,0.128c0.137,0,0.273-0.056,0.372-0.166  c0.185-0.206,0.167-0.522-0.038-0.706c-1.61-1.443-3.186-2.94-4.734-4.467c1.723-1.755,3.498-3.566,5.222-5.447  C14.134,2.581,14.12,2.265,13.917,2.078z"/><text x="0" y="31" fill="#000000" font-size="5px" font-weight="bold" font-family="'Helvetica Neue', Helvetica, Arial-Unicode, Arial, Sans-serif">Created by Igé Maulana</text><text x="0" y="36" fill="#000000" font-size="5px" font-weight="bold" font-family="'Helvetica Neue', Helvetica, Arial-Unicode, Arial, Sans-serif">from the Noun Project</text></svg>