<svg xmlns="http://www.w3.org/2000/svg" xmlns:xlink="http://www.w3.org/1999/xlink" version="1.1" x="0px" y="0px" viewBox="0 0 16 20" style="enable-background:new 0 0 16 16;" xml:space="preserve"><path d="M2.237,12.173l2.936,0.154c0.129,0.006,0.257,0.009,0.384,0.009c0.348,0,0.69-0.021,1.025-0.042  c0.317-0.02,0.636-0.04,0.954-0.04c0.004,0,0.007,0,0.01,0c0.452,0,0.911,0.02,1.366,0.039c0.31,0.013,0.618,0.026,0.921,0.033  c0.717,0.016,1.432-0.001,2.15-0.019c0.28-0.007,0.573-0.029,0.866-0.051c0.278-0.021,0.557-0.042,0.823-0.048  c0.248-0.006,0.454-0.192,0.484-0.438c0.313-2.498,0.339-5.037,0.078-7.545c-0.025-0.247-0.229-0.438-0.477-0.448  c-2.502-0.101-5.154-0.185-7.67-0.024c-0.3,0.02-0.6,0.042-0.899,0.065c-0.958,0.074-1.95,0.15-2.904,0.091  C2.152,3.905,2.01,3.952,1.909,4.047c-0.101,0.096-0.156,0.23-0.154,0.369c0.018,1.198-0.014,2.422-0.044,3.605  c-0.03,1.171-0.062,2.381-0.046,3.578c-0.016,0.098-0.005,0.2,0.037,0.29C1.739,11.969,1.889,12.214,2.237,12.173z M13.215,11.229  c-0.146,0.009-0.293,0.02-0.44,0.031c-0.275,0.021-0.552,0.042-0.817,0.048c-0.699,0.018-1.399,0.037-2.101,0.019  c-0.297-0.007-0.599-0.02-0.902-0.033c-0.469-0.02-0.942-0.04-1.408-0.04c-0.348-0.017-0.684,0.021-1.026,0.042  c-0.447,0.028-0.873,0.054-1.294,0.032l-2.564-0.135c-0.005-1.05,0.022-2.113,0.049-3.146c0.023-0.897,0.041-1.82,0.044-2.74  c1.59,1.04,3.142,2.161,4.615,3.355C7.46,8.738,7.571,8.775,7.684,8.775c0.082,0,0.164-0.02,0.238-0.061  c1.038-0.564,1.955-1.313,2.841-2.037c0.839-0.686,1.637-1.331,2.526-1.838C13.475,6.966,13.451,9.111,13.215,11.229z M5.266,4.816  c0.296-0.022,0.592-0.045,0.888-0.064c1.796-0.116,3.671-0.102,5.513-0.048c-0.531,0.384-1.04,0.794-1.536,1.199  c-0.799,0.653-1.559,1.274-2.397,1.77c-1.22-0.977-2.499-1.893-3.8-2.769C4.381,4.882,4.827,4.85,5.266,4.816z"/><path d="M10.453,8.014C10.242,7.837,9.926,7.868,9.75,8.082C9.574,8.295,9.604,8.61,9.818,8.785l1.642,1.353  c0.094,0.077,0.206,0.114,0.318,0.114c0.144,0,0.287-0.062,0.386-0.182c0.176-0.213,0.146-0.528-0.067-0.704L10.453,8.014z"/><path d="M5.256,8.313C4.753,8.757,4.263,9.226,3.799,9.704c-0.192,0.198-0.188,0.515,0.01,0.707  c0.098,0.094,0.223,0.141,0.349,0.141c0.13,0,0.261-0.051,0.358-0.152c0.447-0.46,0.919-0.91,1.402-1.338  c0.207-0.183,0.227-0.499,0.043-0.706S5.461,8.13,5.256,8.313z"/><text x="0" y="31" fill="#000000" font-size="5px" font-weight="bold" font-family="'Helvetica Neue', Helvetica, Arial-Unicode, Arial, Sans-serif">Created by Igé Maulana</text><text x="0" y="36" fill="#000000" font-size="5px" font-weight="bold" font-family="'Helvetica Neue', Helvetica, Arial-Unicode, Arial, Sans-serif">from the Noun Project</text></svg>