<svg xmlns="http://www.w3.org/2000/svg" xmlns:xlink="http://www.w3.org/1999/xlink" version="1.1" x="0px" y="0px" viewBox="0 0 50 62.5" style="enable-background:new 0 0 50 50;" xml:space="preserve"><path d="M40.5976563,10.1060181c-2.7530518-1.0689087-7.6205444-3.3510742-10.6518555-2.1200562  c-2.3815918,0.9671631-4.4819946,3.697937-6.31073,5.3612671c-4.4275513,4.0272217-8.8551636,8.0544434-13.2827759,12.081665  c-1.9619141,1.7845459-6.3725586,4.4798584-6.2780762,7.4077148c0.8553467,4.4378662,1.230957,5.1604614,5.4025269,6.6900024  c2.8623047,1.0494385,7.2791748,3.7573242,10.4363403,2.3626709c2.5125732-1.1099243,4.645874-4.0687256,6.5513916-5.9081421  c3.9907227-3.8522339,7.9813843-7.7045288,11.9721069-11.5567627c1.5413818-1.4879761,5.4967041-4.1159058,6.2310791-6.2943115  C45.6803589,15.1263428,43.2485962,11.1352539,40.5976563,10.1060181z M10.3417358,26.7807007  c0.0014648-0.0013428,0.0029907-0.0026855,0.0044556-0.0040283c3.059021,1.0887451,6.1140747,2.1896362,9.1566162,3.3234863  c0.932251,0.3474121,1.6092529,0.8033447,2.1206055,1.3411255c-0.9622803,0.8150635-1.9483032,1.769104-3.0144653,2.3455811  c-1.3442993,0.7268677-2.142395,0.1126099-3.5137329-0.4152832c-2.8291016-1.0891724-5.6582642-2.1782837-8.4874268-3.2674561  C7.7520142,28.7649536,9.50177,27.5447388,10.3417358,26.7807007z M12.3793945,39.4425049  c-1.3259888-0.486145-2.9047852-0.8346558-4.1439819-1.5194092c-2.3894653-1.3203735-2.2579956-3.1177979-2.7122803-5.4747314  c-0.0150146-0.4650879,0.1478882-0.9382324,0.414978-1.4067993c3.2636108,1.2890625,6.5219116,2.7390137,9.8590698,3.7841797  c0.44104,0.1381226,0.8563843,0.1972656,1.2550049,0.2042236c0.3826904,1.9597778,0.7652588,3.9195557,1.1479492,5.8792725  C16.4075928,41.0473633,14.5574341,40.2411499,12.3793945,39.4425049z M21.6704102,39.201416  c-0.6825562,0.6588745-1.348938,1.0899048-2.0133057,1.361145c-0.3761597-1.9265747-0.7523804-3.8532104-1.12854-5.7797852  c1.3366089-0.4752808,2.4892578-1.5491333,3.6882324-2.5736694c0.8590088,1.3935547,1.0161133,3.177002,1.4277954,5.0866089  C22.9865112,37.9309692,22.3284912,38.5661621,21.6704102,39.201416z M43.1995239,17.0223999  c-0.1732788,2.4152832-3.2146606,4.4998779-4.7696533,6.0009155c-4.4987793,4.3427124-8.9974976,8.6853638-13.4962769,13.0280762  c-0.3843384-2.2591553-0.6707764-4.9798584-2.6952515-6.1077881c-3.2658081-1.819458-7.3674927-2.7910156-10.958313-4.0163574  c2.6644287-2.4234619,5.3288574-4.8469849,7.9932861-7.2704468c2.7509155-2.5021973,5.5018311-5.0043335,8.2528076-7.5065308  c2.4185791-2.1998901,4.0610962-2.755127,7.3815918-1.7197876C38.6810303,10.6069946,43.5612183,11.9825439,43.1995239,17.0223999z"/><text x="0" y="65" fill="#000000" font-size="5px" font-weight="bold" font-family="'Helvetica Neue', Helvetica, Arial-Unicode, Arial, Sans-serif">Created by ATOM</text><text x="0" y="70" fill="#000000" font-size="5px" font-weight="bold" font-family="'Helvetica Neue', Helvetica, Arial-Unicode, Arial, Sans-serif">from the Noun Project</text></svg>