<svg xmlns="http://www.w3.org/2000/svg" xmlns:xlink="http://www.w3.org/1999/xlink" version="1.1" x="0px" y="0px" viewBox="0 0 100 125" enable-background="new 0 0 100 100" xml:space="preserve"><g display="none"><g display="inline" opacity="0.2"><path fill="none" stroke="#000000" stroke-width="3" stroke-linecap="round" stroke-linejoin="round" stroke-miterlimit="10" d="    M75.291,65.174c0,13.969-11.322,25.294-25.291,25.294S24.709,79.143,24.709,65.174C24.709,51.208,50,9.532,50,9.532    S75.291,51.208,75.291,65.174z"/><path fill="none" stroke="#000000" stroke-width="3" stroke-linecap="round" stroke-linejoin="round" stroke-miterlimit="10" d="    M65.176,65.174c0,8.369-6.807,15.176-15.176,15.176"/></g></g><g><g><g><path d="M46.909,9.486c-4.668,10.489-10.805,20.231-15.578,30.668c-3.697,8.083-8.356,16.76-8.283,25.847     c0.114,14.454,14.17,24.737,27.573,26.099c17.483,1.775,26.582-13.547,26.908-29.512c0.186-9.114-6.67-18.891-10.751-26.625     c-2.871-5.439-6.188-10.636-9.018-16.096c-2.037-3.932-2.804-8.139-5.89-11.488c-2.627-2.852-6.859,1.402-4.242,4.242     c2.299,2.496,3.055,6.01,4.402,9.041c1.649,3.708,3.859,7.177,5.874,10.695c4.354,7.61,8.917,15.543,12.126,23.72     c3.334,8.497,0.395,17.593-4.372,24.908c-3.213,4.932-10.005,5.82-15.336,5.066c-13.175-1.863-23.929-12.589-20.546-26.393     c1.904-7.774,6.299-15.912,9.886-23.012c4.084-8.083,8.74-15.849,12.428-24.133C53.649,9.012,48.48,5.957,46.909,9.486     L46.909,9.486z"/></g></g><g><g><path d="M49.452,82.393c10.676,1.539,20.897-8.688,18.69-19.44c-0.777-3.789-6.561-2.182-5.785,1.595     c1.215,5.921-5.244,12.934-11.31,12.06C47.265,76.062,45.635,81.842,49.452,82.393L49.452,82.393z"/></g></g></g><text x="0" y="115" fill="#000000" font-size="5px" font-weight="bold" font-family="'Helvetica Neue', Helvetica, Arial-Unicode, Arial, Sans-serif">Created by Linseed Studio</text><text x="0" y="120" fill="#000000" font-size="5px" font-weight="bold" font-family="'Helvetica Neue', Helvetica, Arial-Unicode, Arial, Sans-serif">from the Noun Project</text></svg>