<svg xmlns="http://www.w3.org/2000/svg" xmlns:xlink="http://www.w3.org/1999/xlink" version="1.1" x="0px" y="0px" viewBox="0 0 16 20" style="enable-background:new 0 0 16 16;" xml:space="preserve"><path d="M3.616,3.389C2.468,4.4,1.836,5.762,1.788,7.327c-0.058,1.898,0.76,3.881,2.188,5.305c1.153,1.148,2.629,1.764,4.169,1.764  c0.368,0,0.739-0.035,1.11-0.106c1.979-0.379,3.652-1.744,4.478-3.652c1.012-2.339,0.393-5.317-1.542-7.412  C9.939,0.787,5.939,1.342,3.616,3.389z M12.814,10.24c-0.693,1.604-2.095,2.75-3.748,3.067c-1.596,0.305-3.195-0.198-4.385-1.385  C3.464,10.71,2.738,8.96,2.788,7.358c0.04-1.282,0.554-2.396,1.489-3.22c1.969-1.735,5.324-2.244,7.179-0.236  C13.126,5.712,13.672,8.259,12.814,10.24z"/><path d="M8.065,6.562c-0.253,0.021-0.508,0.204-0.519,0.48l-0.15,3.812c-0.011,0.276,0.204,0.509,0.48,0.52c0.007,0,0.013,0,0.02,0  c0.267,0,0.489-0.211,0.499-0.48l0.15-3.812C8.556,6.806,8.341,6.573,8.065,6.562z"/><path d="M8,6.063c0.276,0,0.5-0.224,0.5-0.5V5.104c0-0.276-0.224-0.5-0.5-0.5s-0.5,0.224-0.5,0.5v0.458  C7.5,5.839,7.724,6.063,8,6.063z"/><text x="0" y="31" fill="#000000" font-size="5px" font-weight="bold" font-family="'Helvetica Neue', Helvetica, Arial-Unicode, Arial, Sans-serif">Created by Igé Maulana</text><text x="0" y="36" fill="#000000" font-size="5px" font-weight="bold" font-family="'Helvetica Neue', Helvetica, Arial-Unicode, Arial, Sans-serif">from the Noun Project</text></svg>