<svg xmlns="http://www.w3.org/2000/svg" xmlns:xlink="http://www.w3.org/1999/xlink" version="1.1" x="0px" y="0px" viewBox="0 0 100 125" enable-background="new 0 0 100 100" xml:space="preserve"><g><path d="M39.106,92.356c-0.955-1.232-1.077-7.02-1.659-7.962c-0.084-0.094-4.87-5.075-6.906-8.656   c-3.51-6.173-15.687-30.322-14.693-32.253c0.393-0.764,1.047-1.337,1.968-1.554c0.706-0.166,1.419-0.25,2.121-0.25   c4.314,0,8.232,3.013,11.646,8.957c0,0,2.74,4.48,4.103,6.34c0.047-2.457-0.232-6.776-0.397-7.711   c-1.051-5.978-3.86-28.859-3.97-29.763c-0.263-1.555,0.007-3.066,0.76-4.255c0.801-1.265,2.5-2.484,4.663-2.458   c2.753,0.034,4.938,1.988,5.439,4.955l4.414,27.12l0.818-33.405c-0.063-3.386,2.259-6.042,5.402-6.042   c4.56,0,5.598,4.469,5.623,5.833l0.321,29.013l4.239-24.858c0.499-2.952,2.979-5.329,6.419-4.852   c4.333,0.6,4.833,4.611,4.449,6.798L70.79,39.681l3.137-12.688c0.802-2.753,2.897-5.108,6.578-4.17   c4.182,1.066,3.89,5.446,3.491,7.282c-4.129,18.966-5.888,31.376-5.951,31.836c-1.43,10.57-7.808,26.227-7.864,27.973   c0,0.024-0.089,2.399-1.146,3.488c-1.036,1.07-2.851,1.171-3.398,1.177H42.848C42.774,94.58,40.541,94.208,39.106,92.356z    M76.823,27.774l-5.496,22.239c-0.17,0.663-0.835,1.218-1.517,1.151c-3.373-0.331-3.362-1.942-3.304-2.364l4.395-31.9   c0.144-0.85,0.19-3.03-1.984-3.385c-2.001-0.327-2.762,1.216-2.961,2.396l-5.3,31.081c-0.13,0.764-0.821,1.264-1.573,1.245   c-2.614-0.064-3.23-0.969-3.256-1.883l-0.388-35.055c-0.026-1.433-0.813-2.878-2.566-2.878H52.87   c-1.736,0.032-2.486,1.524-2.459,3.052l-0.877,35.895c-0.009,0.381-0.431,1.946-3.63,1.771c-1.527-0.084-1.822-1.039-1.876-1.365   L39.221,18.24c-0.282-1.671-1.481-2.702-2.961-2.404c-1.917,0.385-2.123,2.347-1.974,3.238c0.029,0.237,2.919,23.775,3.957,29.676   c0.235,1.341,0.686,8.18,0.282,10.223c-0.32,1.611-2.791,1.741-2.815,1.741c-0.647,0-1.049-0.279-1.271-0.514   c-1.659-1.743-5.457-8.066-5.457-8.066c-2.84-4.944-6.65-8.348-10.153-7.356c0,0,10.861,23.396,14.32,29.479   c1.852,3.255,6.651,8.252,6.774,8.441c1.087,1.664,1.208,7.374,1.555,7.822c0.582,0.751,1.288,0.997,1.53,1.063h22.607   c0.48-0.009,1.114-0.146,1.215-0.204c0.125-0.194,0.333-0.969,0.353-1.559c0.073-2.283,6.511-18.085,7.89-28.278   c0.058-0.431,1.318-13.096,6.027-32.212c0.251-0.861,0.604-3.079-1.434-3.624C77.806,25.206,77.003,27.161,76.823,27.774z"/></g><text x="0" y="115" fill="#000000" font-size="5px" font-weight="bold" font-family="'Helvetica Neue', Helvetica, Arial-Unicode, Arial, Sans-serif">Created by H Alberto Gongora</text><text x="0" y="120" fill="#000000" font-size="5px" font-weight="bold" font-family="'Helvetica Neue', Helvetica, Arial-Unicode, Arial, Sans-serif">from the Noun Project</text></svg>