<svg xmlns="http://www.w3.org/2000/svg" xmlns:xlink="http://www.w3.org/1999/xlink" version="1.1" x="0px" y="0px" viewBox="0 0 120 150" style="enable-background:new 0 0 120 120;" xml:space="preserve"><path d="M83.7,26.6c-0.7,0-1.5,0.1-2.1,0.3v-1c0-4.1-3.3-7.5-7.5-7.5c-0.7,0-1.5,0.1-2.1,0.3v-1c0-4.1-3.3-7.5-7.5-7.5  s-7.5,3.3-7.5,7.5v1c-0.7-0.2-1.4-0.3-2.1-0.3c-4.1,0-7.5,3.3-7.5,7.5v16.4c0,6.5-0.4,13.1-1.3,19.6l-1-2.2c-1-2.2-3.5-8-10.8-7.5  c-0.1,0-0.1,0-0.2,0c-2,0.1-3.8,1.3-4.7,3.1c-0.9,1.7-0.8,3.8,0.2,5.4c1.6,2.6,3.1,7.7,3.8,11.2l0.8,4.3c0.7,3.9,2.3,7.6,4.7,10.8  c0,0.1,0.1,0.1,0.2,0.2l7.7,8.7c1.5,1.7,2.4,4,2.4,6.3v5.3c0,1.5,1.2,2.7,2.7,2.7s2.7-1.2,2.7-2.7v-5.3c0-3.6-1.3-7.1-3.7-9.8  l-7.7-8.6c-1.8-2.5-3.1-5.5-3.7-8.5L38.6,71c-0.7-3.9-2.5-9.6-4.5-13c0-0.1-0.1-0.1,0-0.2c0.1-0.1,0.2-0.2,0.4-0.3  c0.1,0,0.1,0,0.2,0c2.8-0.2,4.1,0.8,5.6,4.3l4.6,10.5c0,0,0,0,0,0l0,0c0,0,0,0.1,0.1,0.1c0.1,0.1,0.1,0.2,0.2,0.4  c0,0.1,0.1,0.1,0.2,0.2c0.1,0.1,0.1,0.1,0.2,0.2c0.1,0.1,0.1,0.1,0.2,0.2c0.1,0.1,0.1,0.1,0.2,0.2c0.1,0,0.2,0.1,0.2,0.1  c0.1,0,0.1,0.1,0.2,0.1c0.2,0.1,0.3,0.1,0.5,0.1c0,0,0,0,0,0c0,0,0,0,0,0c0.1,0,0.2,0,0.3,0c0.1,0,0.1,0,0.2,0c0,0,0,0,0,0  c0.1,0,0.1,0,0.2,0c0.1,0,0.2,0,0.3,0c0.1,0,0.1,0,0.2,0c0.1,0,0.2-0.1,0.3-0.1c0,0,0,0,0.1,0c0,0,0.1,0,0.1-0.1  c0.1,0,0.2-0.1,0.3-0.2c0.1,0,0.1-0.1,0.2-0.1c0.1-0.1,0.2-0.1,0.2-0.2c0,0,0.1-0.1,0.1-0.1c0.1-0.1,0.1-0.2,0.2-0.3  c0,0,0.1-0.1,0.1-0.1c0.1-0.1,0.1-0.2,0.2-0.4c0,0,0,0,0-0.1c0.1-0.2,0.1-0.3,0.1-0.5c0,0,0,0,0,0c0,0,0,0,0,0  c1.8-9.7,2.8-19.6,2.8-29.5V25.9c0-1.2,1-2.1,2.1-2.1c1.2,0,2.1,1,2.1,2.1v27.2c0,1.5,1.2,2.7,2.7,2.7c0,0,0,0,0,0c0,0,0,0,0,0  c1.5,0,2.7-1.2,2.7-2.7V17.8c0-1.2,1-2.1,2.1-2.1c1.2,0,2.1,1,2.1,2.1v35.3c0,1.5,1.2,2.7,2.7,2.7s2.7-1.2,2.7-2.7V25.9  c0-1.2,1-2.1,2.1-2.1c1.2,0,2.1,1,2.1,2.1v27.2c0,1.5,1.2,2.7,2.7,2.7s2.7-1.2,2.7-2.7V34c0-1.2,1-2.1,2.1-2.1c1.2,0,2.1,1,2.1,2.1  V57v15.9c0,5.2-1.3,10.4-3.8,15.1c-3.2,6-4.9,12.8-4.9,19.6v0.2c0,1.5,1.2,2.7,2.7,2.7c1.5,0,2.7-1.2,2.7-2.7v-0.2  c0-5.9,1.5-11.8,4.3-17.1c2.9-5.4,4.4-11.5,4.4-17.6V57V34C91.2,29.9,87.8,26.6,83.7,26.6z"/><text x="0" y="135" fill="#000000" font-size="5px" font-weight="bold" font-family="'Helvetica Neue', Helvetica, Arial-Unicode, Arial, Sans-serif">Created by Symbolon</text><text x="0" y="140" fill="#000000" font-size="5px" font-weight="bold" font-family="'Helvetica Neue', Helvetica, Arial-Unicode, Arial, Sans-serif">from the Noun Project</text></svg>