<svg xmlns="http://www.w3.org/2000/svg" xmlns:xlink="http://www.w3.org/1999/xlink" version="1.1" x="0px" y="0px" viewBox="0 0 16 20" style="enable-background:new 0 0 16 16;" xml:space="preserve"><path d="M9.416,2.654C8.083,1.622,6.648,1.812,5.421,2.135C4.493,2.379,3.682,2.841,3.076,3.47C2.007,4.58,1.541,6.192,1.858,7.678  c0.323,1.507,1.46,2.799,2.897,3.293c0.503,0.173,1.075,0.264,1.699,0.269c0.019,0,0.036,0,0.055,0c0.789,0,1.491-0.14,2.087-0.417  c0.339-0.158,0.65-0.375,0.935-0.629c1.358,1.165,2.651,2.423,3.832,3.761c0.099,0.112,0.236,0.169,0.375,0.169  c0.118,0,0.235-0.041,0.331-0.125c0.207-0.183,0.227-0.499,0.044-0.706c-1.209-1.37-2.532-2.656-3.92-3.849  c0.573-0.808,0.928-1.826,0.95-2.899C11.173,4.992,10.512,3.501,9.416,2.654z M8.175,9.916C7.7,10.136,7.107,10.239,6.463,10.24  c-0.516-0.004-0.981-0.077-1.383-0.214C3.968,9.643,3.087,8.64,2.837,7.469c-0.246-1.147,0.131-2.444,0.96-3.305  C4.282,3.66,4.914,3.303,5.676,3.102C6.88,2.785,7.871,2.723,8.805,3.445c0.85,0.657,1.362,1.837,1.338,3.08  C10.112,8.02,9.322,9.382,8.175,9.916z"/><path d="M7.787,6.012c-0.308,0.059-0.619,0.077-0.93,0.072C6.836,5.735,6.82,5.386,6.775,5.041c-0.03-0.236-0.224-0.418-0.461-0.435  C6.085,4.586,5.86,4.742,5.797,4.972l-0.044,0.16c-0.041,0.15-0.009,0.304,0.074,0.422c0.014,0.139,0.014,0.28,0.024,0.42  C5.556,5.92,5.232,5.876,4.889,5.949C4.618,6.007,4.445,6.272,4.503,6.542c0.058,0.271,0.328,0.443,0.593,0.386  c0.2-0.042,0.442,0.003,0.699,0.051L5.89,6.996C5.89,7.324,5.886,7.652,5.862,7.979C5.843,8.254,6.05,8.494,6.325,8.513  C6.338,8.514,6.35,8.515,6.362,8.515c0.26,0,0.479-0.201,0.498-0.464c0.023-0.319,0.018-0.64,0.021-0.961  c0.015,0,0.031,0.004,0.046,0.004c0.35,0,0.699-0.033,1.046-0.099c0.271-0.051,0.45-0.313,0.398-0.584  C8.319,6.138,8.052,5.961,7.787,6.012z"/><text x="0" y="31" fill="#000000" font-size="5px" font-weight="bold" font-family="'Helvetica Neue', Helvetica, Arial-Unicode, Arial, Sans-serif">Created by Igé Maulana</text><text x="0" y="36" fill="#000000" font-size="5px" font-weight="bold" font-family="'Helvetica Neue', Helvetica, Arial-Unicode, Arial, Sans-serif">from the Noun Project</text></svg>