<svg xmlns="http://www.w3.org/2000/svg" xmlns:xlink="http://www.w3.org/1999/xlink" version="1.1" x="0px" y="0px" viewBox="0 0 16 20" style="enable-background:new 0 0 16 16;" xml:space="preserve"><path d="M14.133,1.898c-0.101-0.102-0.238-0.153-0.384-0.149c-0.423,0.023-0.821,0.011-1.218,0.001  c-0.405-0.011-0.808-0.021-1.237-0.001C10.473,1.787,9.59,1.78,8.684,1.768C8.209,1.761,7.737,1.771,7.266,1.782  C6.83,1.792,6.394,1.8,5.957,1.797C5.451,1.792,4.946,1.784,4.441,1.774C3.702,1.761,2.963,1.748,2.224,1.748  c-0.138,0-0.269,0.057-0.363,0.157c-0.095,0.1-0.144,0.234-0.136,0.372c0.208,3.668,0.222,11.241,0.222,11.313  c0,0.271,0.216,0.494,0.487,0.501l6.214,0.16c0.342,0.009,0.686,0.013,1.031,0.013c1.126,0,2.263-0.041,3.37-0.081l0.542-0.02  c0.133-0.004,0.258-0.062,0.349-0.159c0.09-0.097,0.139-0.227,0.133-0.359c-0.143-3.771-0.076-7.593,0.2-11.359  C14.285,2.141,14.233,2,14.133,1.898z M13.057,13.181l-0.043,0.001c-1.431,0.052-2.911,0.105-4.339,0.067l-5.736-0.147  c0.016-0.636,0.001-1.762-0.024-3.805C2.89,7.318,2.842,4.657,2.751,2.75c0.557,0.004,1.115,0.014,1.672,0.024  c0.508,0.009,1.016,0.018,1.524,0.023C6.394,2.8,6.841,2.792,7.288,2.782c0.46-0.01,0.92-0.022,1.382-0.014  c0.887,0.012,1.824,0.02,2.671-0.02c0.403-0.02,0.783-0.008,1.164,0.002c0.243,0.006,0.468,0.007,0.734,0.012  C13.004,6.22,12.943,9.72,13.057,13.181z"/><text x="0" y="31" fill="#000000" font-size="5px" font-weight="bold" font-family="'Helvetica Neue', Helvetica, Arial-Unicode, Arial, Sans-serif">Created by Igé Maulana</text><text x="0" y="36" fill="#000000" font-size="5px" font-weight="bold" font-family="'Helvetica Neue', Helvetica, Arial-Unicode, Arial, Sans-serif">from the Noun Project</text></svg>