<svg xmlns="http://www.w3.org/2000/svg" xmlns:xlink="http://www.w3.org/1999/xlink" version="1.1" x="0px" y="0px" viewBox="0 0 16 20" style="enable-background:new 0 0 16 16;" xml:space="preserve"><path d="M14.106,4.658c-0.615-0.767-1.303-1.485-2.044-2.134c-0.245-0.214-0.499-0.5-0.648-0.727  c-0.011-0.017-0.028-0.026-0.04-0.041c-0.012-0.015-0.018-0.032-0.032-0.046c-0.01-0.01-0.024-0.013-0.035-0.022  c-0.028-0.023-0.057-0.041-0.089-0.057c-0.027-0.013-0.052-0.025-0.08-0.034c-0.033-0.01-0.066-0.014-0.101-0.017  c-0.029-0.002-0.057-0.004-0.087-0.001c-0.033,0.003-0.065,0.011-0.097,0.021c-0.031,0.009-0.06,0.02-0.089,0.036  c-0.013,0.007-0.029,0.008-0.041,0.017c-0.017,0.011-0.026,0.028-0.04,0.04c-0.015,0.012-0.033,0.018-0.047,0.032  c-0.46,0.48-1.001,1.025-1.542,1.569c-0.55,0.553-1.1,1.106-1.566,1.594c-1.46,1.525-2.97,3.102-4.523,4.596  C2.998,9.49,2.997,9.496,2.992,9.501C2.97,9.523,2.956,9.551,2.938,9.578c-0.019,0.03-0.04,0.057-0.053,0.089  C2.884,9.673,2.879,9.676,2.877,9.682c-0.326,0.945-0.558,1.934-0.781,2.891c-0.097,0.413-0.193,0.825-0.297,1.232  c-0.042,0.165,0.002,0.338,0.117,0.463c0.096,0.104,0.229,0.161,0.367,0.161c0.028,0,0.057-0.002,0.085-0.007  c0.847-0.146,1.653-0.379,2.434-0.604l0.559-0.161c0.118-0.033,0.237-0.075,0.355-0.117c0.135-0.047,0.269-0.097,0.403-0.125  c0.093-0.02,0.179-0.065,0.247-0.132c2.724-2.663,5.411-5.51,7.716-7.971C14.252,5.131,14.263,4.852,14.106,4.658z M5.089,12.694  l-0.564,0.162c-0.533,0.154-1.047,0.302-1.568,0.424c0.038-0.16,0.075-0.32,0.113-0.48c0.161-0.689,0.338-1.388,0.539-2.071  c0.538,0.669,1.124,1.3,1.77,1.869C5.281,12.633,5.185,12.667,5.089,12.694z M6.204,12.035c-0.024-0.036-0.045-0.073-0.079-0.103  c-0.743-0.643-1.414-1.368-2.006-2.148c1.417-1.382,2.797-2.811,4.13-4.204c0.206-0.215,0.432-0.447,0.664-0.682l2.153,2.128  c0.005,0.005,0.012,0.006,0.017,0.011C9.532,8.673,7.88,10.379,6.204,12.035z M11.767,6.314L9.616,4.188  C9.678,4.125,9.739,4.063,9.802,4c0.399-0.402,0.786-0.794,1.154-1.17c0.14,0.157,0.293,0.31,0.448,0.447  c0.589,0.515,1.142,1.077,1.648,1.673C12.638,5.391,12.202,5.853,11.767,6.314z"/><text x="0" y="31" fill="#000000" font-size="5px" font-weight="bold" font-family="'Helvetica Neue', Helvetica, Arial-Unicode, Arial, Sans-serif">Created by Igé Maulana</text><text x="0" y="36" fill="#000000" font-size="5px" font-weight="bold" font-family="'Helvetica Neue', Helvetica, Arial-Unicode, Arial, Sans-serif">from the Noun Project</text></svg>