<svg xmlns="http://www.w3.org/2000/svg" xmlns:xlink="http://www.w3.org/1999/xlink" version="1.1" x="0px" y="0px" viewBox="0 0 16 20" style="enable-background:new 0 0 16 16;" xml:space="preserve"><path d="M7.351,7.808C7.621,7.891,7.899,7.93,8.176,7.93c1.149,0,2.28-0.668,2.703-1.697c0.145-0.352,0.22-0.752,0.222-1.188  c0.009-1.276-0.727-2.455-1.875-3.001C8.125,1.518,6.894,1.674,5.938,2.462c-0.722,0.593-1.08,1.44-0.982,2.324  C5.114,6.205,6.076,7.42,7.351,7.808z M6.573,3.234L6.573,3.234c0.401-0.33,0.859-0.498,1.325-0.498c0.3,0,0.604,0.069,0.898,0.209  c0.798,0.381,1.311,1.202,1.305,2.092c-0.002,0.307-0.051,0.581-0.147,0.814c-0.332,0.806-1.412,1.274-2.312,1  c-0.884-0.27-1.58-1.165-1.692-2.177C5.868,3.935,6.305,3.455,6.573,3.234z"/><path d="M4.05,14.261c0.014,0,0.027,0,0.041-0.001c1.31-0.106,2.64-0.161,3.952-0.164c0.923,0.01,1.906,0.023,3,0.074  c0.291,0.014,0.622-0.011,0.864,0.032c0.149,0.028,0.297-0.014,0.41-0.11c0.113-0.096,0.178-0.237,0.177-0.386  c-0.011-1.343-0.308-2.666-0.794-3.539C11.007,8.925,9.63,8.299,7.734,8.334C6.449,8.363,5.29,8.964,4.47,10.025  c-0.744,0.962-1.103,2.456-0.915,3.805C3.59,14.079,3.803,14.261,4.05,14.261z M5.261,10.636c0.632-0.818,1.518-1.28,2.495-1.302  c0.056-0.001,0.11-0.002,0.165-0.002c1.438,0,2.416,0.444,2.905,1.322c0.393,0.704,0.584,1.688,0.646,2.523  c-0.131,0.002-0.258,0-0.382-0.006c-1.111-0.051-2.091-0.061-3.049-0.075c-1.173,0.002-2.359,0.045-3.535,0.129  C4.478,12.267,4.757,11.29,5.261,10.636z"/><text x="0" y="31" fill="#000000" font-size="5px" font-weight="bold" font-family="'Helvetica Neue', Helvetica, Arial-Unicode, Arial, Sans-serif">Created by Igé Maulana</text><text x="0" y="36" fill="#000000" font-size="5px" font-weight="bold" font-family="'Helvetica Neue', Helvetica, Arial-Unicode, Arial, Sans-serif">from the Noun Project</text></svg>