<svg xmlns="http://www.w3.org/2000/svg" xmlns:xlink="http://www.w3.org/1999/xlink" version="1.1" x="0px" y="0px" viewBox="0 0 16 20" style="enable-background:new 0 0 16 16;" xml:space="preserve"><path d="M14.288,9.47c-0.146-0.71-0.359-1.285-0.654-1.757c-0.698-1.12-2.005-1.896-3.584-2.127C8.991,5.43,7.746,5.42,6.494,5.557  c0.008-0.5-0.022-1.002-0.092-1.499C6.378,3.878,6.258,3.727,6.09,3.66C5.921,3.596,5.73,3.625,5.591,3.739  c-0.41,0.336-0.828,0.665-1.247,0.996c-0.88,0.694-1.79,1.412-2.628,2.188C1.521,7.104,1.501,7.404,1.67,7.608  c0.095,0.114,0.188,0.237,0.283,0.363c0.213,0.28,0.434,0.57,0.692,0.813c0.462,0.432,0.943,0.902,1.425,1.372  c0.48,0.469,0.961,0.938,1.422,1.369c0.145,0.134,0.353,0.172,0.532,0.097c0.181-0.074,0.302-0.247,0.31-0.443  c0.013-0.331,0.033-0.737,0.055-1.145C6.4,9.809,6.413,9.582,6.423,9.368c0.137-0.003,0.25-0.01,0.294-0.013  c1.16-0.089,2.013-0.058,3.093,0.025c0.692,0.052,1.973,0.276,2.768,1.183c0.371,0.422,0.622,0.979,0.865,1.517  c0.082,0.181,0.262,0.294,0.456,0.294c0.027,0,0.056-0.002,0.083-0.007c0.225-0.038,0.395-0.222,0.415-0.448  C14.469,11.119,14.478,10.396,14.288,9.47z M13.329,9.903c-0.764-0.869-1.986-1.409-3.443-1.521  C8.759,8.299,7.865,8.268,6.642,8.357C6.496,8.369,6.146,8.38,6.01,8.36c-0.141-0.019-0.28,0.023-0.388,0.114  C5.516,8.565,5.451,8.697,5.445,8.838C5.433,9.169,5.412,9.575,5.391,9.982c-0.001,0.02-0.002,0.04-0.004,0.061  c-0.205-0.199-0.411-0.4-0.618-0.603c-0.486-0.475-0.974-0.95-1.44-1.387C3.132,7.87,2.938,7.614,2.75,7.366  C2.745,7.36,2.74,7.354,2.735,7.349c0.716-0.635,1.482-1.24,2.228-1.828c0.176-0.14,0.353-0.278,0.527-0.417  c0.011,0.328,0.004,0.657-0.021,0.984c-0.013,0.151,0.045,0.3,0.156,0.404c0.11,0.103,0.264,0.146,0.413,0.13  C7.397,6.426,8.77,6.409,9.905,6.576c1.288,0.188,2.338,0.795,2.881,1.666c0.232,0.374,0.398,0.828,0.521,1.429  c0.019,0.09,0.035,0.179,0.05,0.266C13.349,9.926,13.339,9.915,13.329,9.903z"/><text x="0" y="31" fill="#000000" font-size="5px" font-weight="bold" font-family="'Helvetica Neue', Helvetica, Arial-Unicode, Arial, Sans-serif">Created by Igé Maulana</text><text x="0" y="36" fill="#000000" font-size="5px" font-weight="bold" font-family="'Helvetica Neue', Helvetica, Arial-Unicode, Arial, Sans-serif">from the Noun Project</text></svg>