<svg xmlns="http://www.w3.org/2000/svg" xmlns:xlink="http://www.w3.org/1999/xlink" version="1.1" x="0px" y="0px" viewBox="0 0 16 20" style="enable-background:new 0 0 16 16;" xml:space="preserve"><path d="M14.038,13.287c0.094-0.1,0.143-0.233,0.135-0.37c-0.116-2.095-0.129-3.978-0.143-5.971  c-0.009-1.272-0.018-2.562-0.055-3.928c-0.004-0.137-0.064-0.267-0.167-0.359c-0.102-0.092-0.241-0.14-0.375-0.125  c-0.958,0.079-1.901,0.071-2.854,0.08c-0.542-0.004-1.063,0-1.622,0.012c-0.891,0.02-1.774-0.01-2.63-0.039  C4.956,2.54,3.537,2.492,2.084,2.649C1.825,2.677,1.631,2.9,1.638,3.161C1.686,4.747,1.698,6.354,1.71,7.96  c0.012,1.608,0.024,3.217,0.071,4.804c0.005,0.157,0.083,0.303,0.211,0.394c0.364,0.257,0.859,0.312,1.336,0.312  c0.185,0,0.366-0.008,0.536-0.016l0.243-0.009c1.891-0.05,3.689-0.033,5.593-0.015c1.304,0.012,2.619,0.023,3.978,0.015  C13.814,13.444,13.944,13.387,14.038,13.287z M9.709,12.43c-1.913-0.019-3.72-0.036-5.628,0.015l-0.261,0.01  c-0.299,0.014-0.755,0.033-1.048-0.033c-0.04-1.479-0.051-2.974-0.062-4.469C2.699,6.497,2.688,5.041,2.651,3.6  c1.22-0.097,2.401-0.057,3.643-0.015c0.871,0.03,1.771,0.061,2.687,0.04c0.551-0.012,1.085-0.005,1.599-0.012  c0.817-0.014,1.602,0,2.409-0.046c0.026,1.168,0.034,2.283,0.042,3.386c0.013,1.839,0.024,3.584,0.117,5.495  C11.98,12.45,10.839,12.441,9.709,12.43z"/><path d="M12.427,10.685l-0.152-0.196c-0.149-0.201-0.309-0.395-0.468-0.587l-1.229-1.485c-0.094-0.114-0.234-0.18-0.382-0.181  C10.04,8.221,9.907,8.299,9.811,8.412C9.535,8.736,9.179,9.064,8.802,9.375c-0.059-0.078-0.118-0.15-0.178-0.229  c-0.51-0.678-1.038-1.379-1.675-1.973C6.845,7.075,6.702,7.024,6.563,7.04c-0.142,0.013-0.271,0.086-0.356,0.2  c-1.001,1.35-2.056,2.679-3.134,3.949c-0.12,0.142-0.152,0.339-0.082,0.511s0.229,0.292,0.415,0.31  c0.335,0.033,0.669,0.042,0.999,0.042c0.188,0,0.376-0.003,0.561-0.005l0.309-0.004c1.557-0.016,3.123-0.055,4.656-0.115  c0.442,0.017,0.885,0.015,1.328,0.013c0.364-0.002,0.727-0.004,1.086,0.005c0.004,0,0.009,0,0.013,0  c0.176,0,0.339-0.092,0.429-0.243c0.093-0.155,0.095-0.348,0.005-0.505C12.687,11.014,12.558,10.849,12.427,10.685z M5.264,11.042  L4.95,11.047c-0.155,0.002-0.307,0.005-0.458,0.005c0.741-0.897,1.467-1.818,2.17-2.751C7.07,8.743,7.439,9.234,7.826,9.747  c0.307,0.408,0.621,0.824,0.96,1.221C7.619,11.006,6.438,11.031,5.264,11.042z M11.252,10.94c-0.371,0.003-0.743,0-1.115-0.01  c-0.25-0.238-0.49-0.488-0.716-0.761c0.266-0.218,0.522-0.441,0.751-0.673l0.864,1.044c0.109,0.132,0.219,0.264,0.324,0.399  C11.324,10.939,11.288,10.94,11.252,10.94z"/><path d="M10.272,7.914C10.437,7.971,10.604,8,10.769,8c0.008,0,0.016,0,0.023,0c0.738-0.013,1.379-0.672,1.371-1.41  c-0.002-0.191-0.042-0.385-0.123-0.593c-0.06-0.155-0.13-0.283-0.214-0.392c-0.327-0.427-0.898-0.667-1.456-0.61  C9.887,5.042,9.493,5.309,9.29,5.724C9.103,6.107,9.098,6.583,9.279,6.997C9.467,7.427,9.829,7.762,10.272,7.914z M10.188,6.164  L10.188,6.164c0.019-0.039,0.076-0.154,0.283-0.175c0.02-0.002,0.04-0.003,0.06-0.003c0.194,0,0.398,0.09,0.504,0.228  c0.024,0.032,0.049,0.08,0.074,0.144c0.036,0.093,0.055,0.174,0.056,0.242c0.002,0.191-0.198,0.396-0.388,0.4  c-0.057,0-0.115-0.009-0.178-0.031c-0.177-0.061-0.327-0.2-0.402-0.371C10.132,6.451,10.129,6.285,10.188,6.164z"/><text x="0" y="31" fill="#000000" font-size="5px" font-weight="bold" font-family="'Helvetica Neue', Helvetica, Arial-Unicode, Arial, Sans-serif">Created by Igé Maulana</text><text x="0" y="36" fill="#000000" font-size="5px" font-weight="bold" font-family="'Helvetica Neue', Helvetica, Arial-Unicode, Arial, Sans-serif">from the Noun Project</text></svg>