<svg xmlns="http://www.w3.org/2000/svg" xmlns:xlink="http://www.w3.org/1999/xlink" version="1.1" x="0px" y="0px" viewBox="0 0 16 20" style="enable-background:new 0 0 16 16;" xml:space="preserve"><path d="M12.927,6.122c-0.415-0.185-0.853-0.218-1.24-0.247c-0.11-0.009-0.221-0.018-0.33-0.029  c-0.318-0.035-0.733-0.13-0.902-0.384c-0.113-0.17-0.137-0.437-0.153-0.695l-0.011-0.2c-0.023-0.443-0.047-0.902-0.18-1.362  c-0.194-0.67-0.606-1.196-1.132-1.443c-0.702-0.33-1.573-0.1-1.942,0.519c-0.172,0.29-0.211,0.612-0.239,0.848L6.575,4.952  c-0.033,0.27-0.07,0.575-0.206,0.761c-0.105,0.145-0.298,0.261-0.59,0.355c0,0,0,0,0,0C4.98,6.328,4.084,6.26,3.313,6.157  C3.22,6.146,3.141,6.128,3.07,6.113c-0.294-0.063-0.843-0.18-1.142,0.562C1.787,7.025,1.759,7.443,1.735,7.813  C1.728,7.934,1.72,8.05,1.708,8.156c-0.104,0.938-0.155,1.888-0.154,2.871c-0.004,2.955,0.105,3.086,0.571,3.163  c1.366,0.228,2.747,0.153,4.081,0.082c0.911-0.048,1.854-0.097,2.762-0.05c0.315,0.018,0.63,0.046,0.945,0.074  c0.507,0.046,1.026,0.094,1.55,0.094c0.307,0,0.615-0.017,0.925-0.059c0.342-0.046,0.833-0.152,1.157-0.538  c0.23-0.272,0.305-0.606,0.355-0.827c0.225-0.994,0.389-2.011,0.49-3.021c0.062-0.619,0.112-1.339-0.071-2.048  C14.108,7.079,13.588,6.415,12.927,6.122z M2.612,13.252c-0.027-0.291-0.06-0.925-0.058-2.273c-0.001-0.899,0.048-1.813,0.148-2.712  c0.013-0.12,0.022-0.251,0.031-0.389C2.75,7.622,2.769,7.336,2.849,7.089c0.005,0.001,0.01,0.002,0.015,0.003  c0.092,0.02,0.197,0.041,0.318,0.058c0.552,0.073,1.164,0.118,1.786,0.071c0.045,2.036,0.041,4.086-0.021,6.107  C4.153,13.354,3.379,13.351,2.612,13.252z M12.779,13.15c-0.113,0.135-0.423,0.177-0.525,0.191  c-0.727,0.099-1.467,0.031-2.251-0.041c-0.328-0.029-0.655-0.059-0.981-0.076c-0.285-0.016-0.571-0.022-0.856-0.022  c-0.678,0-1.353,0.036-2.013,0.071c-0.07,0.004-0.137,0.007-0.207,0.01c0.062-2.063,0.067-4.156,0.019-6.236  C6.006,7.036,6.048,7.033,6.089,7.02c0.5-0.163,0.856-0.397,1.089-0.719c0.288-0.396,0.347-0.876,0.389-1.228l0.224-1.825  c0.02-0.164,0.042-0.35,0.106-0.458C8.001,2.616,8.32,2.558,8.553,2.665C8.818,2.79,9.036,3.088,9.15,3.482  c0.101,0.349,0.121,0.731,0.142,1.137l0.011,0.207c0.022,0.377,0.067,0.812,0.318,1.189c0.308,0.462,0.855,0.739,1.626,0.824  c0.12,0.013,0.242,0.022,0.363,0.032c0.336,0.025,0.654,0.05,0.911,0.164c0.384,0.171,0.694,0.586,0.829,1.111  c0.035,0.137,0.059,0.278,0.074,0.421l-0.764-0.033C12.4,8.538,12.152,8.738,12.14,9.014c-0.012,0.276,0.203,0.51,0.479,0.521  l0.8,0.034c-0.008,0.093-0.015,0.187-0.024,0.276c-0.039,0.389-0.094,0.778-0.153,1.167l-0.751,0.099  c-0.274,0.037-0.466,0.288-0.43,0.563c0.034,0.251,0.248,0.434,0.495,0.434c0.022,0,0.044-0.001,0.066-0.004l0.437-0.058  c-0.045,0.234-0.083,0.469-0.136,0.701C12.895,12.88,12.853,13.063,12.779,13.15z"/><text x="0" y="31" fill="#000000" font-size="5px" font-weight="bold" font-family="'Helvetica Neue', Helvetica, Arial-Unicode, Arial, Sans-serif">Created by Igé Maulana</text><text x="0" y="36" fill="#000000" font-size="5px" font-weight="bold" font-family="'Helvetica Neue', Helvetica, Arial-Unicode, Arial, Sans-serif">from the Noun Project</text></svg>