<svg xmlns="http://www.w3.org/2000/svg" data-name="hand completed" viewBox="0 0 100 125" x="0px" y="0px"><title>Artboard 1</title><path d="M75.69,44.35c-3.71-.47-5.28,3-7.33,5.39C67,51.29,65.5,52.67,64.27,54.3c-1.11,1.47-1.86,3.52-3.28,4.76a173.56,173.56,0,0,0-1.35-21.94c-.74-5.61-.79-12.9-3.24-18.08-1.28-2.71-4-3.9-6.81-2.19a4.43,4.43,0,0,0-.77.62,7.29,7.29,0,0,0-2.12-3.8c-5.7-5.15-8.87,1.18-10.26,6.75-2.34-2.93-6.34-2.79-8,1.53a19.51,19.51,0,0,0-.95,7.53c-2.13-.95-4.77.93-5.88,4.83-1.44,5-1.14,10.8-1.06,16A114.59,114.59,0,0,0,22,67.86h0c1,5,2,11.75,6,15.23,5,4.33,13.06,4.93,19.31,4.6,7.57-.15,11.89-2.7,15.83-9.06,4.43-7.15,9.33-14,13.94-21C79.26,54.24,82.35,45.19,75.69,44.35ZM77,52.19c-.7,2.8-3.27,5.62-4.84,8-3.24,4.88-6.6,9.68-9.76,14.61-1.45,2.26-2.73,5.07-4.67,7C54.89,84.49,51,85,47.28,85,41.9,85.31,35.7,84.91,31,82c-4.32-2.72-6.4-14.22-6.42-14.28S23.12,54.2,23.15,47.49c0-2.78,0-5.59.31-8.36a21,21,0,0,1,.88-4.81c.88-2.57,2.77-2.33,3.32.42v.08c.1,5,.2,10,.53,14.92.11,1.71,2.79,1.73,2.67,0-.47-7.09-.66-14.26-.58-21.37a21.61,21.61,0,0,1,.17-4.13c.15-.69.35-1.85.83-2.22,3.67-2.8,4.14,3.18,4.31,4.72.78,7.19,1,14.44,1.82,21.65.2,1.66,2.77,1.75,2.67,0,0-.14-1.26-10.74-1.54-14.93-.18-2.62.07-5.44-.28-8.11.18-2.47.75-7.92,2.69-9.86,5.27-5.26,5.42,8.16,5.4,10.29,0,7.27-.27,14.47.3,21.74.13,1.7,2.81,1.72,2.67,0-.46-5.93-.42-11.81-.35-17.74.21-.21.32-14.09,4.64-10.34,2.21,1.92,2.11,9.71,2.54,12.38a179.56,179.56,0,0,1,2.16,29.42A1.35,1.35,0,0,0,60,62.55c4.19-1.14,6.56-6.76,9.25-9.79.79-.89,2.11-3.32,3.13-3.81C75.61,47.39,77.94,48.36,77,52.19Z"/><text x="0" y="115" fill="#000000" font-size="5px" font-weight="bold" font-family="'Helvetica Neue', Helvetica, Arial-Unicode, Arial, Sans-serif">Created by W. X. Chee</text><text x="0" y="120" fill="#000000" font-size="5px" font-weight="bold" font-family="'Helvetica Neue', Helvetica, Arial-Unicode, Arial, Sans-serif">from the Noun Project</text></svg>