<svg xmlns="http://www.w3.org/2000/svg" xmlns:xlink="http://www.w3.org/1999/xlink" version="1.1" x="0px" y="0px" viewBox="0 0 65 81.25" style="enable-background:new 0 0 65 65;" xml:space="preserve"><style type="text/css">
	.st0{fill:none;}
</style><path class="st0" d="M5,32.5c0,14.3,11,26.1,25,27.4V5.1C16,6.4,5,18.2,5,32.5z"/><path d="M57.2,11.3c-0.5-0.6-1.1-1.2-1.7-1.8c-0.6-0.6-1.2-1.2-1.8-1.7C40.9-3.1,21.6-2.6,9.5,9.5  S-3.1,40.9,7.8,53.6c0.5,0.6,1.1,1.2,1.7,1.8s1.2,1.2,1.8,1.7c12.8,10.9,32.1,10.4,44.1-1.7S68.1,24.1,57.2,11.3z M13,13  C23.2,2.9,39.3,2.3,50.1,11.4L11.4,50.1C2.3,39.3,2.9,23.2,13,13z M14.9,53.6l38.7-38.7c9,10.8,8.4,26.9-1.7,37.1  S25.7,62.6,14.9,53.6z"/><text x="0" y="80" fill="#000000" font-size="5px" font-weight="bold" font-family="'Helvetica Neue', Helvetica, Arial-Unicode, Arial, Sans-serif">Created by Yeasir Ahmed</text><text x="0" y="85" fill="#000000" font-size="5px" font-weight="bold" font-family="'Helvetica Neue', Helvetica, Arial-Unicode, Arial, Sans-serif">from the Noun Project</text></svg>