<svg width="108" height="32" viewBox="0 0 108 32" fill="none" xmlns="http://www.w3.org/2000/svg">
<path d="M91.9715 0C96.447 0 100.237 1.5525 103.343 4.6575C106.447 7.7435 108 11.524 108 16C108 20.477 106.475 24.2285 103.427 27.257C100.209 30.419 96.3895 32 91.9715 32C87.647 32 83.895 30.4285 80.7145 27.2855C77.572 24.143 76 20.382 76 16.0005C76 11.639 77.572 7.858 80.7145 4.658C83.819 1.5525 87.5715 0 91.9715 0ZM92.0285 2.886C88.3905 2.886 85.3145 4.172 82.8 6.7435C80.19 9.3915 78.8855 12.477 78.8855 16C78.8855 19.5625 80.1805 22.6285 82.7705 25.2C85.361 27.791 88.4465 29.0855 92.0275 29.0855C95.589 29.0855 98.6945 27.781 101.342 25.1715C103.856 22.7335 105.114 19.6765 105.114 16C105.114 12.3435 103.837 9.2575 101.285 6.7435C98.752 4.171 95.666 2.886 92.0285 2.886ZM84.8855 13.7425C85.19 11.7805 85.98 10.2615 87.2565 9.1855C88.5325 8.1095 90.0845 7.5715 91.9135 7.5715C94.427 7.5715 96.428 8.3815 97.9135 9.9995C99.399 11.6185 100.142 13.695 100.142 16.228C100.142 18.6855 99.3705 20.728 97.8285 22.356C96.2845 23.984 94.2855 24.799 91.8275 24.799C90.018 24.799 88.456 24.2565 87.142 23.1705C85.8275 22.0845 85.0375 20.542 84.7705 18.542H88.8C88.895 20.485 90.0665 21.4565 92.3145 21.4565C93.4375 21.4565 94.343 20.9705 95.0285 19.9995C95.715 19.0285 96.058 17.7325 96.058 16.114C96.058 14.4185 95.7435 13.1285 95.1155 12.2425C94.4865 11.357 93.5825 10.914 92.4005 10.914C90.2665 10.914 89.067 11.8565 88.8005 13.742H89.972L86.801 16.9135L83.6295 13.742L84.8855 13.7425Z" fill="white"/>
<path d="M53.9715 0C58.4655 0 62.2565 1.5425 65.3425 4.6285C68.4465 7.7335 70 11.524 70 16C70 20.4955 68.4755 24.238 65.4275 27.228C62.1895 30.4095 58.371 32 53.9715 32C49.647 32 45.895 30.428 42.7145 27.285C39.572 24.142 38 20.381 38 16C38 11.6195 39.572 7.829 42.7145 4.629C45.8005 1.5425 49.552 0 53.9715 0ZM54.0285 2.886C50.3905 2.886 47.3145 4.1625 44.8 6.7145C42.19 9.3815 40.8855 12.477 40.8855 16.0005C40.8855 19.5435 42.1805 22.6105 44.7705 25.1995C47.361 27.7905 50.4465 29.085 54.0275 29.085C57.589 29.085 60.6945 27.7815 63.342 25.171C65.8565 22.752 67.1135 19.695 67.1135 15.9995C67.1135 12.3615 65.837 9.267 63.2855 6.714C60.7335 4.162 57.6475 2.886 54.0285 2.886ZM58.3145 12.0285V18.571H56.4865V26.342H51.5145V18.5715H49.6865V12.0285C49.6865 11.7425 49.7865 11.5 49.986 11.3C50.1865 11.1005 50.4295 11 50.7145 11H57.2865C57.553 11 57.7915 11.1 58.0005 11.3C58.209 11.5 58.3145 11.743 58.3145 12.0285ZM51.771 7.9145C51.771 6.4105 52.5135 5.6575 54 5.6575C55.4865 5.6575 56.2285 6.4095 56.2285 7.9145C56.2285 9.4 55.4855 10.143 54 10.143C52.5145 10.143 51.771 9.4 51.771 7.9145Z" fill="white"/>
<path d="M15.9705 0C20.446 0 24.2565 1.5625 27.399 4.686C28.903 6.1905 30.0465 7.91 30.8275 9.843C31.608 11.7765 31.9995 13.8285 31.9995 16C31.9995 18.1905 31.613 20.243 30.8425 22.1565C30.071 24.0705 28.9325 25.7615 27.4285 27.228C25.867 28.7705 24.0955 29.952 22.114 30.771C20.1335 31.59 18.0855 31.9995 15.9715 31.9995C13.8575 31.9995 11.8335 31.5955 9.9 30.785C7.967 29.976 6.2335 28.8045 4.7 27.2715C3.1665 25.7385 2 24.0095 1.2 22.0855C0.4 20.1615 0 18.1335 0 16C0 13.8855 0.4045 11.8525 1.214 9.9C2.0235 7.9475 3.2 6.2 4.7425 4.657C7.79 1.553 11.5325 0 15.9705 0ZM16.0285 2.886C12.3715 2.886 9.295 4.1625 6.7995 6.7145C5.542 7.991 4.5755 9.424 3.8995 11.0145C3.2225 12.605 2.885 14.267 2.885 16.0005C2.885 17.715 3.2225 19.3675 3.8995 20.957C4.576 22.5485 5.542 23.9675 6.7995 25.215C8.0565 26.463 9.475 27.4145 11.057 28.0725C12.6375 28.7295 14.295 29.058 16.0285 29.058C17.7425 29.058 19.4035 28.7255 21.015 28.0585C22.6245 27.391 24.0755 26.43 25.3715 25.173C27.8665 22.735 29.1135 19.678 29.1135 16.001C29.1135 14.2295 28.7895 12.5535 28.142 10.9725C27.4955 9.3915 26.552 7.9825 25.315 6.7435C22.742 4.172 19.6475 2.886 16.0285 2.886ZM15.828 13.3435L13.6845 14.458C13.4555 13.9825 13.175 13.6485 12.842 13.458C12.5085 13.268 12.199 13.1725 11.913 13.1725C10.485 13.1725 9.77 14.115 9.77 16.001C9.77 16.858 9.951 17.543 10.3125 18.0575C10.6745 18.572 11.208 18.8295 11.913 18.8295C12.8465 18.8295 13.5035 18.372 13.885 17.458L15.856 18.458C15.437 19.2395 14.856 19.8535 14.113 20.301C13.371 20.749 12.5515 20.9725 11.656 20.9725C10.2275 20.9725 9.0745 20.535 8.1985 19.658C7.3225 18.782 6.8845 17.563 6.8845 16.0015C6.8845 14.4775 7.3275 13.2685 8.213 12.373C9.0985 11.478 10.2175 11.03 11.5705 11.03C13.552 11.029 14.9705 11.8005 15.828 13.3435ZM25.0565 13.3435L22.942 14.458C22.7135 13.9825 22.432 13.6485 22.099 13.458C21.765 13.268 21.4455 13.1725 21.142 13.1725C19.7135 13.1725 18.9985 14.115 18.9985 16.001C18.9985 16.858 19.18 17.543 19.5415 18.0575C19.903 18.572 20.436 18.8295 21.142 18.8295C22.0745 18.8295 22.732 18.372 23.1125 17.458L25.1125 18.458C24.675 19.2395 24.084 19.8535 23.342 20.301C22.599 20.749 21.7895 20.9725 20.9135 20.9725C19.4655 20.9725 18.309 20.535 17.443 19.658C16.575 18.782 16.142 17.563 16.142 16.0015C16.142 14.4775 16.5845 13.2685 17.471 12.373C18.356 11.478 19.475 11.03 20.8275 11.03C22.8085 11.029 24.219 11.8005 25.0565 13.3435Z" fill="white"/>
</svg>
