<svg width="128" height="128" viewBox="0 0 128 128" fill="none" xmlns="http://www.w3.org/2000/svg">
<path d="M106.796 108.8C108.205 104.856 111.209 95.6813 110.263 91.488C109.999 90.3245 109.028 88.7015 107.516 87.8887C107.101 87.6659 106.67 87.5277 106.24 87.4573V55.04H65.28V96.0026L80.1523 95.9706C81.1802 98.7533 82.5869 101.367 84.3956 103.738L88.2829 108.8H84.48V121.6H111.36V108.8H106.796ZM67.84 57.6H103.68V86.0224C103.523 85.9533 103.365 85.8829 103.196 85.8304C102.001 85.4541 100.716 85.5309 99.6749 86.0007C98.2976 85.033 97.0291 84.905 96.1562 84.9843C96.1203 84.9882 96.0845 84.992 96.0487 84.9971C96.0295 83.9206 96.0141 82.4269 96 80.7859C99.2013 79.1322 101.242 75.8618 101.242 72.1958C101.242 66.839 96.8845 62.4819 91.529 62.4819C86.1722 62.4819 81.8151 66.839 81.8151 72.1958C81.8151 75.8042 83.8106 79.0567 86.9453 80.7424V87.9117L85.4131 84.9075C84.3546 82.8403 81.8855 82.007 79.7965 83.008C77.8906 83.9194 76.9395 86.1248 77.5834 88.1357L79.2743 93.4131L67.84 93.4374V57.6ZM86.9453 72.8102V77.696C85.3415 76.3571 84.3751 74.3578 84.3751 72.1946C84.3751 68.2496 87.584 65.0406 91.529 65.0406C95.4727 65.0406 98.6816 68.2496 98.6816 72.1946C98.6816 74.423 97.6602 76.4582 95.9795 77.7882C95.9693 76.0333 95.9603 74.2822 95.9565 72.8102C95.9565 70.327 93.9354 68.3046 91.4509 68.3046C88.9664 68.3046 86.9453 70.3258 86.9453 72.8102ZM86.4282 102.181C84.5325 99.6967 83.0887 96.928 82.1351 93.9533L80.0218 87.3549C79.7658 86.5549 80.1447 85.6794 80.9024 85.3171C81.7319 84.9178 82.7136 85.2506 83.1335 86.071L86.7187 93.0957C87.0285 93.7063 87.7108 94.0173 88.3764 93.8599C89.042 93.6999 89.5066 93.1098 89.5066 92.4262V72.8102C89.5066 71.7376 90.3796 70.8646 91.4522 70.8646C92.5248 70.8646 93.3978 71.7376 93.3978 72.8128C93.4451 87.7632 93.4451 87.7632 94.4474 88.0896C94.9683 88.2573 95.4714 88.1638 95.7991 87.7171C95.8106 87.7094 97.0151 86.9453 98.7098 88.503C99.1859 88.9459 99.9207 88.9562 100.412 88.5299C100.859 88.1446 101.691 88.0371 102.432 88.2714C103 88.4506 103.4 88.7859 103.498 89.1699C103.588 89.5232 103.826 89.8214 104.15 89.9891C104.474 90.1568 104.853 90.1786 105.193 90.0493C105.564 89.9072 105.92 89.9367 106.308 90.1427C107.031 90.5319 107.629 91.4368 107.768 92.0499C108.545 95.4918 105.605 104.635 104.074 108.799H91.5123L86.4282 102.181ZM108.8 119.04H87.04V111.36H108.8V119.04Z" fill="black"/>
<path d="M16.64 47.36H57.6V6.39999H16.64V47.36V47.36ZM19.2 8.95999H55.04V44.8H19.2V8.95999V8.95999Z" fill="black"/>
<path d="M106.24 6.39999H65.28V47.36H106.24V6.39999ZM103.68 44.8H67.84V8.95999H103.68V44.8Z" fill="black"/>
<path d="M16.64 96H57.6V55.04H16.64V96V96ZM19.2 57.6H55.04V93.44H19.2V57.6V57.6Z" fill="black"/>
</svg>
