<svg width="78" height="90" viewBox="0 0 78 90" fill="none" xmlns="http://www.w3.org/2000/svg">
<path d="M76.9375 45.7041L65.0375 1.10405C64.9375 0.604052 64.5375 0.204052 64.0375 0.104052C63.5375 -0.0959482 63.0375 0.00405204 62.6375 0.304052C62.5375 0.404052 54.8375 6.20405 46.0375 8.50405C41.8375 9.60405 37.3375 8.40405 32.5375 7.00405C27.6375 5.60405 22.5375 4.20405 17.5375 5.50405C8.0375 8.10405 0.6375 16.7041 0.3375 17.0041C0.0375001 17.4041 -0.0625 17.9041 0.0375 18.4041L18.9375 88.8041C19.1375 89.5041 19.7375 89.9041 20.3375 89.9041C20.4375 89.9041 20.6375 89.9041 20.7375 89.8041C21.5375 89.6041 22.0375 88.8041 21.8375 88.0041L3.2375 18.5041C5.0375 16.6041 11.1375 10.5041 18.4375 8.50405C22.6375 7.40405 27.1375 8.60405 31.9375 10.0041C36.8375 11.4041 41.9375 12.8041 46.9375 11.5041C53.7375 9.70405 59.8375 6.00405 62.7375 4.00405L73.8375 45.5041C71.6375 47.0041 65.1375 51.204 58.0375 53.104C53.8375 54.204 49.3375 53.004 44.5375 51.604C39.6375 50.204 34.5375 48.804 29.5375 50.104C26.0375 51.004 22.4375 52.9041 18.7375 55.7041C18.0375 56.2041 17.9375 57.1041 18.4375 57.8041C18.9375 58.5041 19.8375 58.604 20.5375 58.104C23.8375 55.604 27.1375 53.9041 30.2375 53.0041C34.4375 51.9041 38.9375 53.1041 43.7375 54.5041C48.6375 55.9041 53.8375 57.3041 58.7375 56.0041C68.1375 53.5041 76.0375 47.5041 76.3375 47.3041C76.9375 46.9041 77.1375 46.2041 76.9375 45.7041Z" fill="black"/>
<path d="M25.4504 27.7105L25.4503 27.7103L25.1561 28.6575L24.9151 28.7242L24.9153 28.7247L28.8128 42.8044L28.8128 42.8045C28.8726 43.0204 29.0182 43.2012 29.215 43.3083C29.4115 43.4153 29.6429 43.4404 29.8587 43.3807L51.9885 37.2547C52.0962 37.2262 52.1976 37.1774 52.287 37.1108C52.3767 37.0439 52.4527 36.9601 52.5102 36.8641C52.5676 36.7681 52.6054 36.6617 52.6208 36.551C52.6362 36.4402 52.6289 36.3277 52.5991 36.2199C52.5692 36.1122 52.5176 36.0119 52.4475 35.9249C52.3773 35.8378 52.2902 35.766 52.1916 35.7132C52.0929 35.6604 51.9847 35.6276 51.8733 35.6164C51.7625 35.6052 51.6504 35.6155 51.5433 35.6464L30.2369 41.5445L27.0122 29.8955L40.0163 34.3461C40.1817 34.4028 40.3609 34.4077 40.5296 34.361C40.6982 34.3143 40.8495 34.218 40.9621 34.0843L49.8264 23.58L53.2732 36.0316C53.3016 36.139 53.3515 36.2394 53.42 36.3269C53.4889 36.415 53.575 36.488 53.6728 36.5422C53.7707 36.5964 53.8785 36.6307 53.9897 36.6435C54.101 36.6562 54.2138 36.6473 54.3218 36.6174C54.4298 36.5875 54.5312 36.5371 54.6201 36.469C54.7089 36.4008 54.7837 36.316 54.8398 36.2192C54.8959 36.1224 54.9321 36.0154 54.9459 35.9045C54.9596 35.7942 54.9509 35.6825 54.9199 35.5758L51.0227 21.4971C50.9629 21.2812 50.8173 21.1004 50.6205 20.9933C50.424 20.8863 50.1926 20.8612 49.9768 20.9209L25.5209 27.6908C25.4971 27.6964 25.4736 27.703 25.4504 27.7105ZM40.0343 32.5717L28.46 28.6087L47.9231 23.2209L40.0343 32.5717Z" fill="black" stroke="black" stroke-width="0.5"/>
</svg>
