<svg width="43" height="43" viewBox="0 0 43 43" fill="none" xmlns="http://www.w3.org/2000/svg">
<path d="M20.3679 31.9814C19.3261 31.9791 18.2951 31.7707 17.3343 31.368C13.7789 29.8915 13.1384 25.9635 13.6708 23.048C14.3681 19.2272 15.8507 16.5852 20.8219 16.1136C20.8344 16.1136 20.8465 16.1136 20.8596 16.1136C26.2023 15.8688 29.0835 17.5299 29.4515 21.0245C29.5901 22.7913 29.283 24.5647 28.5584 26.182C27.8337 27.7994 26.7147 29.209 25.3039 30.2816C23.8866 31.3688 22.1541 31.9655 20.3679 31.9814V31.9814ZM20.947 17.6169C16.8823 18.0085 15.7753 19.9235 15.1559 23.319C14.725 25.6819 15.1886 28.8432 17.914 29.9744C18.977 30.4215 20.141 30.5734 21.2831 30.4141C22.4253 30.2548 23.5033 29.7903 24.4034 29.0695C25.6082 28.1564 26.5645 26.9555 27.1845 25.5769C27.8046 24.1982 28.0686 22.686 27.9523 21.1788C27.6788 18.5897 25.3878 17.4218 20.947 17.6169Z" fill="white"/>
<path d="M6.70673 35.4503C6.51611 35.4499 6.33274 35.3772 6.1935 35.2471C6.05426 35.1169 5.96948 34.9388 5.95623 34.7486C5.94298 34.5585 6.00224 34.3703 6.12208 34.2221C6.24192 34.0739 6.41345 33.9765 6.60216 33.9496C9.75368 33.5768 12.9241 33.3863 16.0976 33.379C16.7511 33.3644 17.3987 33.3498 18.0306 33.3327C19.926 33.28 21.5921 33.3006 23.2029 33.3182C24.682 33.3358 26.2114 33.3529 27.9313 33.3182C29.164 33.292 30.8547 33.3232 32.4897 33.3529C33.8134 33.3775 35.0607 33.4031 36.0315 33.3936H36.0371C36.2371 33.3928 36.4292 33.4716 36.5711 33.6125C36.7131 33.7534 36.7932 33.9449 36.794 34.1449C36.7947 34.3449 36.7159 34.537 36.575 34.679C36.4341 34.8209 36.2426 34.9011 36.0426 34.9018C35.0552 34.9084 33.7948 34.8857 32.4615 34.8611C30.8417 34.8314 29.1675 34.8003 27.9639 34.8264C26.2189 34.8631 24.6765 34.846 23.1878 34.8264C21.5916 34.8088 19.9406 34.7892 18.0739 34.84C17.4399 34.8576 16.7914 34.8727 16.1333 34.8867C13.0192 34.8946 9.90812 35.0808 6.81533 35.4443C6.77932 35.4489 6.74303 35.4509 6.70673 35.4503V35.4503Z" fill="white"/>
<path d="M6.70822 35.4503C6.69716 35.4503 6.68559 35.4503 6.67453 35.4503C6.47473 35.4415 6.28663 35.3536 6.15162 35.206C6.0166 35.0585 5.94574 34.8633 5.9546 34.6635C6.04861 32.557 6.18938 30.3771 6.32563 28.2691C6.63683 23.4513 6.95808 18.469 6.77559 13.7261C6.77179 13.6271 6.78754 13.5282 6.82193 13.4353C6.85632 13.3424 6.90868 13.2571 6.97602 13.1844C7.04337 13.1117 7.12437 13.0529 7.21441 13.0115C7.30445 12.9701 7.40177 12.9469 7.5008 12.9431C7.59983 12.9393 7.69864 12.955 7.79159 12.9894C7.88454 13.0238 7.9698 13.0762 8.04251 13.1435C8.11522 13.2108 8.17396 13.2918 8.21536 13.3819C8.25677 13.4719 8.28004 13.5692 8.28383 13.6683C8.46935 18.4886 8.14507 23.5101 7.83136 28.3661C7.69511 30.4671 7.55535 32.6395 7.46134 34.7304C7.45254 34.9243 7.36936 35.1073 7.22909 35.2413C7.08882 35.3754 6.90227 35.4503 6.70822 35.4503V35.4503Z" fill="white"/>
<path d="M7.52813 14.45C7.33926 14.4494 7.15751 14.3779 7.01881 14.2497C6.88012 14.1215 6.79457 13.946 6.77909 13.7577C6.76361 13.5695 6.81932 13.3823 6.93521 13.2332C7.0511 13.0841 7.21873 12.9838 7.40495 12.9524C9.9575 12.5369 12.5295 12.2517 15.1111 12.0977C15.3098 12.0882 15.5045 12.1563 15.6539 12.2876C15.8033 12.4189 15.8959 12.6032 15.912 12.8015C15.9248 13.0011 15.8578 13.1975 15.7258 13.3477C15.5939 13.4979 15.4076 13.5895 15.2081 13.6024C12.6775 13.752 10.1561 14.0306 7.65381 14.437C7.61236 14.4448 7.57031 14.4492 7.52813 14.45V14.45Z" fill="white"/>
<path d="M36.0375 34.8978H36.0049C35.9059 34.8936 35.8087 34.87 35.7189 34.8282C35.629 34.7864 35.5483 34.7274 35.4813 34.6544C35.4143 34.5814 35.3624 34.496 35.3284 34.4029C35.2945 34.3098 35.2792 34.211 35.2834 34.112C35.4704 29.7758 35.4448 25.3642 35.4207 21.0949C35.4056 18.6068 35.391 16.0337 35.4207 13.4978C35.4259 13.2992 35.508 13.1104 35.6497 12.9711C35.7914 12.8318 35.9816 12.753 36.1803 12.7513C36.2793 12.7522 36.3772 12.7727 36.4683 12.8115C36.5595 12.8503 36.642 12.9067 36.7114 12.9774C36.7807 13.0482 36.8354 13.1319 36.8724 13.2237C36.9094 13.3156 36.9279 13.4139 36.9269 13.5129C36.8997 16.0372 36.9143 18.6032 36.9269 21.0858C36.9515 25.3717 36.9772 29.803 36.7891 34.1764C36.7807 34.3702 36.6979 34.5534 36.5579 34.6877C36.418 34.8221 36.2316 34.8973 36.0375 34.8978V34.8978Z" fill="white"/>
<path d="M36.1733 14.2595C36.1552 14.2595 36.1366 14.2595 36.1185 14.2595C33.8646 14.0981 30.5641 13.8809 27.9367 13.8503C27.8377 13.8491 27.7398 13.8285 27.6488 13.7896C27.5577 13.7507 27.4752 13.6942 27.406 13.6233C27.3367 13.5525 27.2821 13.4688 27.2453 13.3768C27.2084 13.2849 27.19 13.1866 27.1912 13.0876C27.1911 12.9882 27.211 12.8898 27.2495 12.7981C27.2881 12.7065 27.3446 12.6235 27.4157 12.5541C27.4868 12.4846 27.5711 12.43 27.6636 12.3936C27.7561 12.3572 27.8549 12.3397 27.9543 12.342C30.6224 12.3732 33.9526 12.5934 36.2255 12.7548C36.4255 12.7614 36.6147 12.8473 36.7514 12.9934C36.8881 13.1396 36.9612 13.334 36.9545 13.534C36.9479 13.734 36.862 13.9232 36.7159 14.0599C36.5697 14.1966 36.3753 14.2697 36.1753 14.263L36.1733 14.2595Z" fill="white"/>
<path d="M15.1589 13.6069C15.0248 13.6068 14.8932 13.571 14.7776 13.5031C14.662 13.4352 14.5666 13.3377 14.5012 13.2207C14.4358 13.1037 14.4027 12.9713 14.4055 12.8373C14.4083 12.7033 14.4467 12.5724 14.5168 12.4582C15.1081 11.4949 15.6732 10.6392 16.2724 9.73326C16.5741 9.28078 16.8757 8.81926 17.1869 8.33964C17.2957 8.17177 17.4666 8.05397 17.6622 8.01215C17.8578 7.97034 18.062 8.00793 18.2299 8.11667C18.3978 8.22541 18.5156 8.39638 18.5574 8.59197C18.5992 8.78756 18.5616 8.99175 18.4529 9.15962C18.1391 9.64377 17.833 10.1068 17.5308 10.5643C16.9391 11.4597 16.3805 12.3058 15.8019 13.2475C15.7344 13.3574 15.6398 13.4481 15.5272 13.5111C15.4147 13.574 15.2878 13.607 15.1589 13.6069V13.6069Z" fill="white"/>
<path d="M17.8195 9.50399C17.6195 9.50846 17.4259 9.43329 17.2813 9.29502C17.1367 9.15676 17.053 8.96672 17.0485 8.76671C17.0441 8.5667 17.1192 8.37312 17.2575 8.22853C17.3958 8.08395 17.5858 8.00021 17.7858 7.99575C20.7234 7.86352 23.7756 7.84492 25.9489 7.94195C26.1486 7.95121 26.3364 8.03932 26.4711 8.18694C26.6058 8.33456 26.6764 8.52962 26.6674 8.72926C26.6642 8.8286 26.6412 8.92632 26.5997 9.01662C26.5582 9.10693 26.499 9.18799 26.4256 9.25501C26.3522 9.32204 26.2661 9.37367 26.1724 9.40684C26.0787 9.44002 25.9793 9.45408 25.8801 9.44819C23.7494 9.35116 20.752 9.37127 17.8537 9.50248C17.8426 9.50399 17.8301 9.50399 17.8195 9.50399Z" fill="white"/>
<path d="M27.9458 13.8482C27.8061 13.8483 27.6692 13.8095 27.5502 13.7363C27.4313 13.663 27.335 13.5582 27.2721 13.4335C26.8549 12.6049 26.4436 11.6874 26.0459 10.8006C25.7724 10.1897 25.5015 9.58492 25.233 9.01932C25.1905 8.92983 25.1661 8.83285 25.1611 8.73391C25.1561 8.63497 25.1706 8.53602 25.2038 8.44269C25.2371 8.34937 25.2884 8.26351 25.3548 8.19001C25.4212 8.11651 25.5015 8.05682 25.5909 8.01433C25.6804 7.97185 25.7774 7.9474 25.8764 7.9424C25.9753 7.9374 26.0743 7.95193 26.1676 7.98517C26.2609 8.01841 26.3468 8.0697 26.4203 8.13612C26.4938 8.20255 26.5535 8.28279 26.5959 8.37229C26.8689 8.94743 27.1444 9.5628 27.4225 10.1822C27.8131 11.0539 28.2168 11.9554 28.619 12.7532C28.6769 12.8682 28.7045 12.9961 28.699 13.1247C28.6935 13.2533 28.6552 13.3783 28.5877 13.4879C28.5202 13.5976 28.4258 13.6881 28.3135 13.7509C28.2011 13.8137 28.0745 13.8467 27.9458 13.8467V13.8482Z" fill="white"/>
</svg>
