<svg width="43" height="43" viewBox="0 0 43 43" fill="none" xmlns="http://www.w3.org/2000/svg">
<path d="M10.682 30.8516C10.499 30.8516 10.3233 30.7798 10.1928 30.6516C10.0622 30.5233 9.9872 30.349 9.98391 30.166C9.95599 28.6274 9.91875 27.1028 9.88199 25.5851C9.78658 21.6292 9.68792 17.5337 9.75633 13.4224C9.75926 13.2392 9.8341 13.0645 9.96471 12.9359C10.0953 12.8074 10.2712 12.7354 10.4544 12.7354H10.4661C10.5578 12.7369 10.6483 12.7564 10.7325 12.7929C10.8167 12.8293 10.8928 12.882 10.9566 12.9479C11.0204 13.0139 11.0706 13.0917 11.1043 13.177C11.138 13.2623 11.1545 13.3535 11.153 13.4452C11.085 17.5291 11.1791 21.4258 11.2786 25.5511C11.315 27.0721 11.3522 28.599 11.3806 30.1409C11.3822 30.2326 11.3658 30.3237 11.3323 30.409C11.2987 30.4944 11.2487 30.5722 11.185 30.6382C11.1214 30.7042 11.0453 30.757 10.9613 30.7936C10.8772 30.8302 10.7867 30.8499 10.695 30.8516H10.682Z" fill="white"/>
<path d="M10.682 30.8516C10.5048 30.8507 10.3345 30.7825 10.2057 30.6607C10.077 30.539 9.99931 30.3728 9.98854 30.1959C9.97776 30.019 10.0347 29.8447 10.1477 29.7082C10.2608 29.5717 10.4215 29.4833 10.5973 29.461C13.0583 29.2154 15.531 29.1043 18.0041 29.1282C20.4422 29.1518 22.8797 29.0418 25.3058 28.7987C25.3979 28.7848 25.4918 28.7895 25.5821 28.8126C25.6724 28.8356 25.7572 28.8764 25.8314 28.9327C25.9056 28.989 25.9679 29.0596 26.0144 29.1403C26.0609 29.221 26.0909 29.3102 26.1024 29.4027C26.1139 29.4951 26.1068 29.5889 26.0815 29.6786C26.0562 29.7683 26.0132 29.852 25.9551 29.9247C25.8969 29.9975 25.8248 30.0579 25.7429 30.1024C25.6611 30.1469 25.5711 30.1745 25.4784 30.1837C22.9992 30.4344 20.508 30.5477 18.0162 30.523C15.596 30.5002 13.1762 30.6082 10.7676 30.8465C10.7392 30.85 10.7106 30.8517 10.682 30.8516Z" fill="white"/>
<path d="M10.4539 14.1316C10.2688 14.1358 10.0895 14.0663 9.95566 13.9384C9.82177 13.8104 9.7442 13.6345 9.74 13.4494C9.73581 13.2642 9.80533 13.085 9.93328 12.9511C10.0612 12.8172 10.2371 12.7396 10.4223 12.7354C16.3668 12.4641 21.2507 12.425 25.356 12.6149C25.5411 12.6234 25.7153 12.7051 25.8402 12.8421C25.9651 12.979 26.0305 13.16 26.022 13.3451C26.0135 13.5303 25.9318 13.7044 25.7948 13.8293C25.6579 13.9542 25.4769 14.0196 25.2918 14.0111C21.2279 13.8249 16.3859 13.8626 10.486 14.1312L10.4539 14.1316Z" fill="white"/>
<path d="M25.3918 30.1908C25.2081 30.1908 25.0318 30.1184 24.9011 29.9893C24.7705 29.8601 24.6959 29.6847 24.6937 29.501C24.6598 26.5332 24.6523 22.857 24.6444 19.3027C24.6402 17.1726 24.6356 15.11 24.6258 13.3172C24.6252 13.2256 24.6428 13.1347 24.6773 13.0498C24.7119 12.9649 24.7629 12.8876 24.8273 12.8224C24.8917 12.7572 24.9684 12.7053 25.0529 12.6697C25.1374 12.6341 25.228 12.6155 25.3197 12.615H25.3239C25.5084 12.615 25.6854 12.688 25.8162 12.8181C25.947 12.9482 26.021 13.1248 26.022 13.3093C26.0318 15.1034 26.036 17.1684 26.0406 19.3C26.0485 22.8514 26.056 26.5234 26.0899 29.4847C26.092 29.6698 26.0206 29.8482 25.8912 29.9805C25.7619 30.1129 25.5853 30.1885 25.4002 30.1908H25.3918Z" fill="white"/>
<path d="M19.5269 26.0845C19.4301 26.0845 19.3344 26.0644 19.2458 26.0255C19.1571 25.9865 19.0776 25.9296 19.0122 25.8583C18.4607 25.257 17.8487 24.671 17.2004 24.0507C16.2666 23.1957 15.3894 22.2809 14.5741 21.3123C14.4585 21.1676 14.4051 20.9829 14.4257 20.7989C14.4462 20.6149 14.5391 20.4466 14.6837 20.331C14.8284 20.2154 15.013 20.162 15.1971 20.1825C15.3811 20.2031 15.5494 20.2959 15.665 20.4406C16.4426 21.3599 17.2778 22.2288 18.1656 23.0422C18.8013 23.65 19.4585 24.2796 20.0412 24.9145C20.1326 25.0142 20.1931 25.1383 20.2154 25.2717C20.2376 25.4052 20.2205 25.5423 20.1663 25.6662C20.1121 25.7902 20.023 25.8957 19.9099 25.9699C19.7968 26.0442 19.6645 26.084 19.5292 26.0845H19.5269Z" fill="white"/>
<path d="M19.5246 26.0845C19.4009 26.0844 19.2795 26.0514 19.1728 25.989C19.0661 25.9266 18.9778 25.837 18.9171 25.7293C18.8564 25.6216 18.8253 25.4997 18.8271 25.3761C18.829 25.2525 18.8636 25.1315 18.9275 25.0257C22.5869 18.7994 26.9501 13.0145 31.9312 7.78498C32.0597 7.65167 32.2358 7.57487 32.421 7.57147C32.6061 7.56806 32.785 7.63834 32.9183 7.76683C33.0516 7.89532 33.1284 8.07151 33.1318 8.25663C33.1352 8.44175 33.0649 8.62064 32.9364 8.75394C28.029 13.9089 23.7302 19.6107 20.1245 25.7471C20.0621 25.8503 19.9741 25.9357 19.869 25.9948C19.7639 26.054 19.6452 26.0848 19.5246 26.0845Z" fill="white"/>
</svg>
