<svg width="43" height="43" viewBox="0 0 43 43" fill="none" xmlns="http://www.w3.org/2000/svg">
<path d="M30.2221 27.8246C30.3415 27.7925 30.4502 27.7292 30.5372 27.6413C30.6241 27.5534 30.6861 27.444 30.7169 27.3243C30.7477 27.2045 30.7462 27.0788 30.7124 26.9598C30.6787 26.8409 30.6139 26.733 30.5248 26.6473C25.3786 21.5803 19.6668 17.1218 13.502 13.3597C13.3434 13.2642 13.1533 13.2356 12.9736 13.2802C12.7939 13.3248 12.6393 13.439 12.5438 13.5976C12.4483 13.7563 12.4197 13.9463 12.4643 14.126C12.509 14.3057 12.6231 14.4603 12.7818 14.5558C18.8561 18.265 24.4842 22.6599 29.5553 27.6539C29.6422 27.7376 29.7493 27.7972 29.8662 27.8271C29.9831 27.857 30.1057 27.8562 30.2221 27.8246Z" fill="white"/>
<path d="M28.3278 10.8128C28.4515 10.8129 28.5729 10.8459 28.6796 10.9083C28.7863 10.9707 28.8746 11.0603 28.9353 11.168C28.996 11.2757 29.0271 11.3976 29.0253 11.5212C29.0234 11.6448 28.9888 11.7658 28.9249 11.8716C25.2655 18.0979 20.9022 23.8828 15.9212 29.1123C15.7927 29.2456 15.6165 29.3224 15.4314 29.3258C15.2463 29.3292 15.0674 29.259 14.9341 29.1305C14.8008 29.002 14.724 28.8258 14.7206 28.6407C14.7172 28.4556 14.7875 28.2767 14.916 28.1434C19.8234 22.9884 24.1222 17.2866 27.7279 11.1503C27.7903 11.047 27.8783 10.9616 27.9834 10.9025C28.0885 10.8433 28.2072 10.8125 28.3278 10.8128Z" fill="white"/>
</svg>
