<svg width="43" height="43" viewBox="0 0 43 43" fill="none" xmlns="http://www.w3.org/2000/svg">
<path d="M36.178 20.0865C36.1505 19.4668 36.1093 18.8471 36.0818 18.2274C36.0131 16.9457 35.862 15.6781 35.6834 14.4246C35.6422 14.1289 35.5872 13.8331 35.5323 13.5514C35.4773 13.2556 35.4224 12.9739 35.3537 12.6782C35.3124 12.5233 35.2712 12.3683 35.23 12.1993C35.1751 12.0303 35.1201 11.8754 35.0651 11.7205C34.8591 11.143 34.5293 10.6078 34.1172 10.1571C33.6913 9.69233 33.1005 9.39656 32.5097 9.22755C32.18 9.12896 31.8228 9.10079 31.4931 9.05854C30.8886 8.98812 30.2703 9.0022 29.6658 8.98812C29.0888 8.98812 28.5255 8.98812 27.9485 8.97403C27.3303 8.95995 26.6983 8.94586 26.08 8.93178C25.4481 8.91769 24.8161 8.88953 24.1704 8.88953C23.9505 8.88953 23.7307 8.88953 23.4972 8.88953C23.1262 8.88953 22.7553 8.88953 22.3981 8.90361C21.1753 8.93178 19.9388 8.94586 18.7161 9.08671C18.0429 9.15713 17.3834 9.25572 16.7102 9.35431C16.1195 9.45289 15.5287 9.57965 14.9379 9.69233C14.306 9.81908 13.6602 9.94584 13.0283 10.0726C12.4375 10.1994 11.8467 10.312 11.256 10.4247C10.9812 10.481 10.7064 10.5374 10.4454 10.636C10.0744 10.7768 9.71724 10.9317 9.40125 11.1571C9.18143 11.312 8.97535 11.4951 8.78301 11.6923C8.72805 11.7486 8.68684 11.805 8.64562 11.8613C8.50823 12.0303 8.38459 12.2134 8.28842 12.4106C8.13729 12.7345 8.05486 13.0866 7.94495 13.4246C7.76634 14.0443 7.61522 14.6641 7.574 15.3119C7.53279 15.9316 7.53279 16.5513 7.574 17.157C7.60148 17.5091 7.62896 17.8471 7.67017 18.1992C7.71139 18.5231 7.76634 18.8611 7.8213 19.1851C7.91747 19.7766 8.01364 20.3682 8.13729 20.9456C8.26094 21.5371 8.41206 22.1287 8.63188 22.7061C8.86544 23.3258 9.11274 23.9315 9.41499 24.523C9.57985 24.8469 9.74472 25.199 9.96454 25.4948C10.1569 25.7624 10.363 26.03 10.6103 26.2413C10.9262 26.523 11.2972 26.7342 11.6956 26.8469C12.0528 26.9455 12.4238 27.0159 12.781 27.0582C13.1657 27.1145 13.5778 27.1708 13.9488 27.2976C13.99 27.3117 14.0312 27.3398 14.0587 27.368L14.0724 27.3821C14.0999 27.4103 14.1136 27.4525 14.1274 27.4807C14.1411 27.5089 14.1411 27.537 14.1548 27.5652C14.1686 27.706 14.1686 27.8469 14.1548 28.0018C14.1274 28.1849 14.0861 28.368 14.0175 28.5511C13.8801 28.8469 13.7015 29.1145 13.5091 29.3821C13.303 29.6497 13.0832 29.9032 12.8634 30.1426C12.6298 30.4102 12.3551 30.6356 12.0803 30.875C11.8467 31.0581 11.5994 31.2412 11.3521 31.382C11.0499 31.551 10.7476 31.6919 10.4317 31.8327C10.3904 31.8468 10.3355 31.875 10.2943 31.889C10.253 31.9031 10.1981 31.9313 10.1569 31.9454C10.0744 32.0017 10.0058 32.0721 9.9508 32.1566C9.93706 32.1848 9.92332 32.2271 9.90958 32.2552L9.89584 32.2693C9.74472 32.4102 9.7035 32.6496 9.74472 32.8468C9.7722 32.9454 9.82715 33.0299 9.89584 33.1003C9.96454 33.1707 10.047 33.227 10.1431 33.2552C10.1569 33.2552 10.1569 33.2552 10.1706 33.2693C10.2668 33.3116 10.3767 33.2975 10.4866 33.2693C10.5416 33.2693 10.5965 33.2693 10.6515 33.2552C10.8301 33.2411 11.0224 33.213 11.201 33.1848C11.4208 33.1425 11.6544 33.1003 11.8742 33.058C12.3963 32.9594 12.9321 32.8468 13.4404 32.7059C14.0037 32.551 14.5395 32.3538 15.0753 32.1426C15.6386 31.9172 16.1882 31.6778 16.6965 31.3538C17.301 30.9736 17.8643 30.5229 18.3726 30.0018C18.6199 29.7482 18.8397 29.4666 19.0733 29.1849C19.2794 28.9314 19.4992 28.706 19.7465 28.4947C19.8014 28.4525 19.8427 28.4243 19.8976 28.3821C19.9663 28.3257 20.0487 28.2976 20.1312 28.2553C20.351 28.1708 20.5571 28.1145 20.7769 28.0863C21.3402 28.03 21.9172 28.0581 22.4942 28.0581C23.0987 28.0581 23.7032 28.0722 24.294 28.0722C25.4893 28.0722 26.6983 28.1004 27.8935 28.0581C29.13 28.0159 30.3665 27.9032 31.5893 27.7342C32.2075 27.6497 32.812 27.537 33.389 27.3117C33.9935 27.0722 34.5843 26.7061 35.0239 26.2131C35.3949 25.7906 35.6834 25.3117 35.8345 24.7624C35.9169 24.4526 35.9856 24.1427 36.0406 23.8329C36.1368 23.185 36.178 22.523 36.1917 21.8752C36.2329 21.3118 36.2192 20.7062 36.178 20.0865ZM14.0312 27.368L14.0175 27.3539C14.0175 27.368 14.0175 27.368 14.0312 27.368ZM35.0789 22.3259C35.0651 22.7343 35.0239 23.1287 34.9827 23.5371C34.914 23.9596 34.8453 24.3681 34.6942 24.7624C34.6118 24.9455 34.5156 25.1145 34.3919 25.2836C34.2408 25.4666 34.076 25.6357 33.8974 25.7906C33.7737 25.8892 33.6363 25.9737 33.4989 26.0582C33.3753 26.1286 33.2379 26.199 33.1142 26.2554C32.812 26.368 32.496 26.4666 32.18 26.523C31.9052 26.5793 31.6442 26.6215 31.3694 26.6638C30.2016 26.8187 29.0201 26.9314 27.8386 26.9455C26.6433 26.9737 25.4481 26.9455 24.239 26.9455C23.6345 26.9455 23.03 26.9455 22.4255 26.9314C22.1233 26.9314 21.821 26.9314 21.5188 26.9314C21.1753 26.9314 20.8456 26.9596 20.5021 27.0018C20.1861 27.0441 19.8976 27.1568 19.6091 27.2835C19.2656 27.4384 18.9496 27.706 18.6886 27.9736C18.2765 28.3962 17.9192 28.8891 17.5071 29.3116C17.301 29.5229 17.0949 29.706 16.8751 29.8891C16.3668 30.2834 15.831 30.6074 15.2402 30.875C14.5258 31.1848 13.7976 31.4524 13.042 31.6496C13.3443 31.3961 13.619 31.1144 13.8801 30.8186C14.2785 30.3539 14.6769 29.8609 14.9654 29.3116C15.1165 29.0299 15.2127 28.7201 15.2677 28.3962C15.2952 28.2131 15.3226 28.03 15.3226 27.8469C15.3226 27.7765 15.3226 27.6919 15.3089 27.6215C15.2952 27.537 15.2952 27.4525 15.2814 27.3821C15.2539 27.2272 15.199 27.0863 15.1303 26.9455C15.1028 26.8891 15.0616 26.8328 15.0204 26.7765C14.9517 26.692 14.8967 26.6075 14.8143 26.537C14.7044 26.4525 14.5945 26.368 14.4708 26.3117C14.2922 26.2272 14.0999 26.1709 13.9075 26.1286C13.6602 26.0723 13.4267 26.03 13.1794 26.0018C12.7123 25.9314 12.2452 25.8751 11.7918 25.7061C11.6681 25.6357 11.5445 25.5652 11.4208 25.4807C11.2835 25.3681 11.1598 25.2272 11.0362 25.0864C10.8163 24.7765 10.624 24.4667 10.4591 24.1286C10.2805 23.7625 10.1019 23.3822 9.93706 23.0019C9.78593 22.6075 9.63481 22.1991 9.51116 21.7907C9.38751 21.3681 9.2776 20.9456 9.20891 20.509C9.04404 19.6639 8.89292 18.8048 8.78301 17.9457C8.72805 17.4527 8.70058 16.9598 8.70058 16.4668C8.68684 15.988 8.71432 15.5232 8.75553 15.0584C8.78301 14.9035 8.81049 14.7486 8.83796 14.5936C8.87918 14.4105 8.93413 14.2274 8.97535 14.0443C9.07152 13.7063 9.15395 13.3542 9.2776 13.0303C9.33256 12.9176 9.40125 12.8049 9.46994 12.6923C9.60733 12.5233 9.74472 12.3824 9.90958 12.2416C10.1157 12.0866 10.3355 11.974 10.569 11.8613C10.6789 11.819 10.7751 11.7768 10.885 11.7486C11.0362 11.7064 11.201 11.6641 11.3659 11.6219C11.6544 11.5514 11.9429 11.4951 12.2314 11.4388C12.8359 11.3261 13.4267 11.1993 14.0312 11.0726C14.6632 10.9458 15.2952 10.8191 15.9271 10.6923C16.5042 10.5796 17.0812 10.467 17.6719 10.3825C17.7406 10.3684 17.8093 10.3684 17.878 10.3543C18.4825 10.2839 19.087 10.2134 19.6915 10.1712C20.2823 10.1289 20.8731 10.1149 21.4638 10.1008C22.6866 10.0726 23.9093 10.0585 25.1183 10.1008C26.2724 10.1289 27.4264 10.1712 28.5805 10.1853C29.6658 10.1994 30.7375 10.1712 31.8228 10.2979C32.0838 10.3402 32.3311 10.4106 32.5784 10.5092C32.757 10.5937 32.9219 10.6782 33.0868 10.805C33.2516 10.9458 33.4028 11.1007 33.5401 11.2698C33.6638 11.4529 33.7874 11.65 33.8836 11.8472C33.9111 11.9176 33.9523 12.0021 33.9798 12.0726C34.0622 12.2838 34.1309 12.5092 34.1859 12.7345C34.2546 13.0021 34.3095 13.2556 34.3645 13.5232C34.4744 14.0584 34.5568 14.5936 34.6392 15.1288C34.7079 15.6781 34.7766 16.2274 34.8316 16.7767C34.8865 17.3964 34.9278 18.0161 34.9552 18.6499C34.9827 19.2696 35.0239 19.8893 35.0514 20.509C35.0651 20.8329 35.0651 21.1428 35.0789 21.4667C35.0789 21.7343 35.0926 22.0301 35.0789 22.3259Z" fill="white" stroke="white" stroke-width="0.25"/>
</svg>
