<svg width="43" height="43" viewBox="0 0 43 43" fill="none" xmlns="http://www.w3.org/2000/svg">
<path d="M32.2588 11.8295C30.3758 11.1403 27.0466 9.6688 24.9733 10.4625C23.3443 11.0861 21.9077 12.8469 20.657 13.9194C17.6287 16.516 14.6003 19.1127 11.572 21.7094C10.2301 22.86 7.21341 24.5979 7.27803 26.4857C7.86306 29.3472 8.11996 29.8131 10.9732 30.7993C12.9309 31.4759 15.9519 33.2219 18.1113 32.3227C19.8298 31.607 21.2889 29.6993 22.5922 28.5132C25.3217 26.0294 28.0512 23.5455 30.7807 21.0617C31.8349 20.1023 34.5402 18.4078 35.0425 17.0032C35.7352 15.0665 34.0719 12.4931 32.2588 11.8295ZM11.5648 22.581C11.5658 22.5801 11.5668 22.5793 11.5678 22.5784C13.6601 23.2804 15.7496 23.9902 17.8306 24.7213C18.4683 24.9453 18.9313 25.2393 19.2811 25.586C18.6229 26.1116 17.9485 26.7267 17.2193 27.0984C16.2998 27.5671 15.7539 27.171 14.816 26.8307C12.881 26.1284 10.9459 25.4261 9.0109 24.7239C9.79351 23.8604 10.9903 23.0736 11.5648 22.581ZM12.9585 30.7451C12.0515 30.4316 10.9717 30.2069 10.1241 29.7654C8.48983 28.914 8.57975 27.7551 8.26904 26.2354C8.25877 25.9355 8.37019 25.6304 8.55287 25.3283C10.7851 26.1595 13.0136 27.0944 15.2961 27.7683C15.5978 27.8573 15.8819 27.8955 16.1545 27.8999C16.4162 29.1636 16.6779 30.4272 16.9397 31.6908C15.7136 31.7798 14.4482 31.26 12.9585 30.7451ZM19.3132 30.5896C18.8464 31.0144 18.3906 31.2924 17.9362 31.4672C17.6789 30.225 17.4216 28.9828 17.1643 27.7406C18.0785 27.4341 18.8669 26.7417 19.6869 26.0811C20.2744 26.9797 20.3819 28.1296 20.6635 29.3609C20.2134 29.7705 19.7633 30.18 19.3132 30.5896ZM34.0383 16.289C33.9198 17.8464 31.8396 19.1905 30.7761 20.1583C27.6991 22.9584 24.6221 25.7585 21.5451 28.5585C21.2822 27.1019 21.0863 25.3476 19.7016 24.6204C17.4679 23.4472 14.6625 22.8208 12.2065 22.0307C14.0289 20.4681 15.8513 18.9055 17.6737 17.3429C19.5552 15.7295 21.4367 14.1162 23.3183 12.5028C24.9725 11.0844 26.0959 10.7264 28.367 11.3939C30.9479 12.1525 34.2857 13.0395 34.0383 16.289Z" fill="white" stroke="white" stroke-width="0.4"/>
</svg>
