<svg width="43" height="43" viewBox="0 0 43 43" fill="none" xmlns="http://www.w3.org/2000/svg">
<path d="M9.69321 18.7575C11.4028 18.5549 12.1262 20.051 13.0709 21.0815C13.6976 21.7498 14.3888 22.3448 14.9555 23.0476C15.467 23.6814 15.8126 24.5653 16.4669 25.0999C16.4605 21.9376 16.6683 18.778 17.089 15.6402C17.43 13.2214 17.4531 10.0782 18.582 7.84477C19.1718 6.67632 20.4252 6.16324 21.7201 6.90053C21.8486 6.97697 21.9676 7.06663 22.0749 7.16785C22.2146 6.54139 22.5555 5.96978 23.0518 5.52943C25.6783 3.30894 27.139 6.0382 27.7796 8.43978C28.8578 7.17647 30.701 7.23683 31.4659 9.09946C31.8376 10.1444 31.9863 11.2475 31.9037 12.3461C32.8852 11.9365 34.1017 12.7471 34.6132 14.4286C35.2768 16.5845 35.1385 19.0852 35.1016 21.3272C35.0867 23.8619 34.8633 26.3916 34.4335 28.8942C33.9727 31.05 33.5119 33.9603 31.6687 35.4608C29.3647 37.3277 25.6507 37.5864 22.7707 37.4441C19.2824 37.3795 17.2918 36.28 15.4762 33.5378C13.4349 30.455 11.177 27.5015 9.0527 24.4834C8.04816 23.0217 6.62429 19.1197 9.69321 18.7575ZM9.08957 22.1378C9.41212 23.3451 10.5964 24.561 11.3198 25.5871C12.8128 27.6912 14.3611 29.7608 15.8172 31.8864C16.4854 32.8609 17.0752 34.0724 17.9692 34.9046C19.2778 36.0644 21.0703 36.2843 22.7845 36.2843C25.2636 36.418 28.1205 36.2455 30.2863 34.9908C32.277 33.818 33.2354 28.8597 33.2446 28.8338C33.2538 28.8079 33.9174 23.0045 33.9036 20.1114C33.9036 18.9127 33.9036 17.7012 33.7607 16.5068C33.7123 15.8031 33.5762 15.1071 33.3552 14.4329C32.9497 13.3249 32.0788 13.4283 31.8254 14.614V14.6485C31.7793 16.8043 31.7332 18.9602 31.5811 21.0815C31.5305 21.8188 30.2955 21.8274 30.3508 21.0815C30.5674 18.0245 30.6549 14.9331 30.6181 11.8675C30.6528 11.273 30.6266 10.6767 30.5397 10.0868C30.4706 9.78932 30.3785 9.28917 30.1573 9.12964C28.4661 7.92238 28.2496 10.5007 28.1712 11.1647C27.8118 14.2648 27.7104 17.3907 27.3326 20.4994C27.2404 21.2151 26.0562 21.254 26.1023 20.4994C26.1023 20.4391 26.6829 15.8687 26.8119 14.0621C26.8948 12.9325 26.7796 11.7166 26.9409 10.5654C26.858 9.50044 26.5953 7.1506 25.7014 6.31414C23.2729 4.04623 23.2038 9.83244 23.213 10.7508C23.213 13.8854 23.3375 16.9897 23.0748 20.1243C23.0149 20.8573 21.78 20.8659 21.8445 20.1243C22.0564 17.5675 22.038 15.0323 22.0057 12.4755C21.909 12.3849 21.8583 6.40038 19.8676 8.01724C18.8493 8.84507 18.8954 12.2038 18.6972 13.355C17.9942 17.5506 17.6613 21.7932 17.7019 26.0399C17.7021 26.1289 17.6805 26.2168 17.6388 26.2969C17.597 26.3769 17.5362 26.4469 17.4609 26.5014C17.3857 26.556 17.2981 26.5937 17.2049 26.6116C17.1116 26.6295 17.0153 26.6271 16.9231 26.6047C14.9924 26.1132 13.9003 23.69 12.6608 22.3836C12.2967 21.9999 11.6885 20.9521 11.2185 20.7409C9.73008 20.0683 8.65641 20.4865 9.08957 22.1378Z" fill="white"/>
</svg>
