<svg width="43" height="43" viewBox="0 0 43 43" fill="none" xmlns="http://www.w3.org/2000/svg">
<path d="M16.1625 37.9755C15.7746 37.4751 15.725 35.1243 15.4887 34.7417C15.4545 34.7035 13.5107 32.6805 12.6837 31.226C11.2581 28.7188 6.31238 18.9106 6.7161 18.1263C6.87572 17.816 7.14135 17.5833 7.51541 17.4951C7.80216 17.4277 8.09175 17.3936 8.37687 17.3936C10.129 17.3936 11.7203 18.6173 13.107 21.0315C13.107 21.0315 14.2198 22.8511 14.7734 23.6066C14.7925 22.6086 14.6792 20.8544 14.6122 20.4747C14.1853 18.0467 13.0444 8.75345 12.9997 8.38629C12.8929 7.75472 13.0026 7.14101 13.3084 6.6581C13.6337 6.14431 14.3238 5.64921 15.2023 5.65977C16.3205 5.67358 17.2079 6.4672 17.4114 7.67227L19.2042 18.6872L19.5364 5.11958C19.5108 3.74434 20.4539 2.66559 21.7304 2.66559C23.5825 2.66559 24.0041 4.4807 24.0143 5.03469L24.1446 16.8185L25.8663 6.72227C26.069 5.5233 27.0763 4.55787 28.4734 4.7516C30.2333 4.9953 30.4364 6.62439 30.2804 7.51265L29.0311 16.5813L30.3052 11.428C30.6309 10.3098 31.4818 9.35334 32.9769 9.73432C34.6754 10.1673 34.5568 11.9462 34.3948 12.6919C32.7178 20.3951 32.0033 25.4355 31.9778 25.6223C31.3969 29.9154 28.8065 36.2745 28.7837 36.9837C28.7837 36.9934 28.7476 37.9581 28.3183 38.4004C27.8975 38.8349 27.1603 38.876 26.9382 38.8784H17.6823C17.6522 38.8788 16.7453 38.7277 16.1625 37.9755ZM31.4814 11.7452L29.2492 20.7777C29.1802 21.047 28.9101 21.2724 28.6331 21.2452C27.2631 21.1107 27.2676 20.4564 27.2911 20.285L29.0762 7.32866C29.1347 6.98343 29.1533 6.09801 28.2704 5.95382C27.4576 5.82101 27.1486 6.44771 27.0677 6.92697L24.9151 19.5507C24.8623 19.861 24.5817 20.0641 24.2762 20.0564C23.2145 20.0304 22.9643 19.6628 22.9538 19.2916L22.7962 5.05378C22.7856 4.47176 22.466 3.88487 21.754 3.88487H21.7528C21.0477 3.89786 20.7431 4.50385 20.7541 5.12445L20.3979 19.7034C20.3942 19.8581 20.2228 20.4938 18.9235 20.4227C18.3033 20.3886 18.1835 20.0007 18.1616 19.8683L16.2092 7.87291C16.0946 7.19422 15.6077 6.77548 15.0065 6.89651C14.2279 7.05288 14.1443 7.84976 14.2048 8.21164C14.2166 8.3079 15.3904 17.868 15.812 20.2647C15.9074 20.8094 16.0906 23.5871 15.9265 24.4168C15.7965 25.0712 14.7929 25.124 14.7832 25.124C14.5204 25.124 14.3571 25.0106 14.2669 24.9152C13.5931 24.2073 12.0505 21.6391 12.0505 21.6391C10.8971 19.6311 9.34961 18.2486 7.92685 18.6515C7.92685 18.6515 12.3381 28.1539 13.743 30.6245C14.4952 31.9466 16.4443 33.9761 16.4943 34.0529C16.9358 34.7287 16.9849 37.0479 17.1259 37.2298C17.3622 37.5348 17.649 37.6348 17.7473 37.6616H26.9292C27.1242 37.6579 27.3817 37.6023 27.4227 37.5787C27.4735 37.4999 27.558 37.1851 27.5661 36.9455C27.5957 36.0183 30.2106 29.6002 30.7707 25.4602C30.7942 25.2852 31.306 20.1412 33.2186 12.3772C33.3205 12.0275 33.4639 11.1266 32.6361 10.9053C31.8807 10.7022 31.5545 11.4962 31.4814 11.7452Z" fill="white"/>
</svg>
