<svg width="43" height="43" viewBox="0 0 43 43" fill="none" xmlns="http://www.w3.org/2000/svg">
<path d="M18.353 31.5495C18.1949 31.5493 18.0426 31.4901 17.9258 31.3834C17.8091 31.2768 17.7364 31.1304 17.722 30.973C17.6608 30.0499 17.5124 29.1347 17.2787 28.2395C17.0078 27.4406 16.6484 26.6746 16.207 25.9557C15.963 25.5509 15.6927 25.1567 15.4064 24.7393C14.6874 23.6887 13.94 22.6026 13.6131 21.2974C12.6936 17.6272 14.1917 13.7268 17.2559 11.8135C18.8036 10.8873 20.5545 10.3541 22.3557 10.2604C24.0618 10.1365 26.2467 10.1031 28.0231 10.9659C28.8689 11.3812 29.5995 11.9984 30.1502 12.7631C30.7009 13.5277 31.0548 14.4162 31.1807 15.3501C31.4904 17.1415 31.2059 18.9851 30.3708 20.6C29.9047 21.3803 29.3746 22.1206 28.786 22.8132C28.0757 23.6144 27.4789 24.5094 27.0122 25.4731C26.4578 26.7664 26.2509 28.4497 26.0674 29.9338C26.0357 30.1944 26.0044 30.449 25.9718 30.6951C25.9499 30.862 25.8627 31.0133 25.7292 31.1158C25.5958 31.2183 25.4271 31.2636 25.2602 31.2418C25.0934 31.2199 24.942 31.1326 24.8395 30.9992C24.737 30.8657 24.6917 30.697 24.7136 30.5302C24.7457 30.2854 24.7773 30.0345 24.8083 29.7773C25.0016 28.2087 25.2202 26.4311 25.8458 24.9715C26.3566 23.9011 27.0133 22.9066 27.7972 22.0164C28.3419 21.378 28.8327 20.6956 29.2648 19.9762C29.9623 18.6089 30.1947 17.0513 29.9267 15.54C29.8302 14.8099 29.5556 14.1149 29.127 13.5161C28.6983 12.9173 28.1289 12.4332 27.469 12.1066C25.9655 11.3766 23.9967 11.4121 22.4483 11.5259C20.8531 11.6046 19.3014 12.0722 17.9284 12.8881C15.3247 14.5135 14.0564 17.8441 14.8439 20.9874C15.1154 22.071 15.765 23.0175 16.451 24.0199C16.7352 24.4344 17.0288 24.8624 17.2923 25.2997C17.7824 26.0993 18.1814 26.9513 18.4816 27.8399C18.7525 28.8255 18.9208 29.8365 18.984 30.8567C18.9917 30.9397 18.983 31.0233 18.9583 31.1029C18.9336 31.1826 18.8935 31.2565 18.8403 31.3206C18.787 31.3847 18.7216 31.4377 18.6479 31.4765C18.5742 31.5154 18.4935 31.5393 18.4105 31.5469C18.3923 31.5486 18.3724 31.5495 18.353 31.5495Z" fill="white"/>
<path d="M19.5038 31.5541C18.9718 31.5541 18.4389 31.5469 17.9051 31.5325C17.8218 31.5314 17.7395 31.5139 17.663 31.481C17.5864 31.4481 17.5171 31.4004 17.459 31.3407C17.4009 31.281 17.3551 31.2105 17.3242 31.1331C17.2934 31.0557 17.2781 30.973 17.2792 30.8897C17.2803 30.8064 17.2978 30.7241 17.3307 30.6475C17.3636 30.571 17.4113 30.5017 17.471 30.4435C17.5307 30.3854 17.6012 30.3396 17.6786 30.3088C17.756 30.2779 17.8387 30.2626 17.922 30.2637H17.9398C20.5024 30.3419 23.0672 30.2315 25.6136 29.9334C25.6963 29.9229 25.7802 29.9288 25.8606 29.9508C25.941 29.9728 26.0162 30.0104 26.0821 30.0614C26.148 30.1125 26.2031 30.176 26.2444 30.2484C26.2857 30.3207 26.3124 30.4005 26.3229 30.4832C26.3333 30.5659 26.3274 30.6498 26.3055 30.7302C26.2835 30.8106 26.2459 30.8859 26.1948 30.9517C26.1438 31.0176 26.0803 31.0728 26.0079 31.1141C25.9355 31.1554 25.8557 31.182 25.773 31.1925C23.6927 31.4411 21.599 31.5619 19.5038 31.5541Z" fill="white"/>
<path d="M18.0954 36.6979C17.9371 36.6978 17.7846 36.6385 17.6678 36.5317C17.5509 36.4249 17.4782 36.2782 17.464 36.1206C17.3068 34.3785 17.2482 32.629 17.2885 30.8804C17.2892 30.7966 17.3068 30.7139 17.3402 30.6371C17.3737 30.5603 17.4223 30.491 17.4832 30.4335C17.544 30.376 17.6159 30.3313 17.6944 30.3022C17.773 30.2731 17.8566 30.2601 17.9402 30.2641C18.1084 30.2689 18.2677 30.3402 18.3833 30.4624C18.4988 30.5847 18.5611 30.7478 18.5564 30.9159C18.5177 32.6143 18.575 34.3136 18.7282 36.0055C18.7357 36.0885 18.7269 36.1722 18.7021 36.2518C18.6773 36.3314 18.637 36.4053 18.5836 36.4693C18.5303 36.5334 18.4648 36.5862 18.391 36.6249C18.3171 36.6636 18.2364 36.6874 18.1534 36.6949C18.1339 36.697 18.1149 36.6979 18.0954 36.6979Z" fill="white"/>
<path d="M25.7494 36.0525C25.5878 36.0528 25.4322 35.9914 25.3143 35.8809C25.1964 35.7704 25.1251 35.6191 25.115 35.4578C25.0202 33.9382 25.0185 31.8459 25.0574 30.545C25.0625 30.3767 25.1342 30.2173 25.2567 30.1019C25.3792 29.9865 25.5426 29.9245 25.7109 29.9296C25.8791 29.9346 26.0385 30.0063 26.1539 30.1288C26.2693 30.2514 26.3313 30.4148 26.3262 30.583C26.2882 31.8552 26.2895 33.8989 26.3817 35.3783C26.3922 35.546 26.3358 35.711 26.2248 35.8372C26.1138 35.9634 25.9572 36.0403 25.7895 36.0512C25.7773 36.052 25.7629 36.0525 25.7494 36.0525Z" fill="white"/>
<path d="M21.3254 36.8861C20.4271 36.8861 19.5034 36.8117 18.6047 36.7389L18.0476 36.6966C17.9638 36.6913 17.8819 36.6694 17.8066 36.6321C17.7313 36.5948 17.6642 36.543 17.6091 36.4796C17.554 36.4162 17.512 36.3425 17.4857 36.2628C17.4593 36.183 17.449 36.0988 17.4554 36.0151C17.4618 35.9313 17.4848 35.8497 17.523 35.7749C17.5612 35.7001 17.6139 35.6336 17.678 35.5793C17.7421 35.5251 17.8164 35.484 17.8964 35.4587C17.9765 35.4333 18.0608 35.4241 18.1445 35.4316L18.7062 35.4739C19.7518 35.5794 20.8028 35.6236 21.8537 35.6063C23.1172 35.5091 24.3619 35.2424 25.5544 34.8133C25.7139 34.7634 25.8867 34.7785 26.0352 34.8553C26.1836 34.9321 26.2958 35.0643 26.3473 35.2234C26.3988 35.3824 26.3854 35.5553 26.3101 35.7045C26.2348 35.8538 26.1037 35.9673 25.9452 36.0203C24.6434 36.4867 23.2844 36.7742 21.9053 36.8747C21.7137 36.8836 21.52 36.8861 21.3254 36.8861Z" fill="white"/>
<path d="M20.3425 37.5628C20.1982 37.5627 20.0582 37.5135 19.9456 37.4231C19.833 37.3328 19.7546 37.2067 19.7233 37.0658C19.684 36.8878 19.6032 36.5528 19.5592 36.3849C19.5358 36.3037 19.5288 36.2186 19.5387 36.1346C19.5486 36.0507 19.5752 35.9695 19.617 35.896C19.6587 35.8225 19.7146 35.758 19.7816 35.7064C19.8486 35.6548 19.9252 35.6171 20.007 35.5956C20.0887 35.574 20.1739 35.569 20.2576 35.5808C20.3413 35.5927 20.4218 35.6211 20.4944 35.6645C20.567 35.7079 20.6301 35.7654 20.6801 35.8335C20.7302 35.9017 20.7661 35.9791 20.7858 36.0614C20.8331 36.2407 20.9198 36.6002 20.9625 36.7905C20.9807 36.8719 20.9826 36.9561 20.9682 37.0382C20.9538 37.1204 20.9233 37.1989 20.8785 37.2692C20.8337 37.3396 20.7755 37.4004 20.7072 37.4482C20.6389 37.4961 20.5618 37.53 20.4804 37.548C20.4351 37.5577 20.3889 37.5626 20.3425 37.5628Z" fill="white"/>
<path d="M23.9032 37.2993C23.7994 37.2992 23.6972 37.2737 23.6056 37.2249C23.514 37.1762 23.4358 37.1057 23.3777 37.0196C23.3197 36.9336 23.2837 36.8346 23.2728 36.7314C23.2619 36.6282 23.2765 36.5239 23.3153 36.4276C23.3418 36.3408 23.3622 36.2522 23.3762 36.1624C23.4024 36.0002 23.4428 35.8405 23.4972 35.6854C23.5594 35.5309 23.6798 35.407 23.8325 35.3406C23.9851 35.2741 24.1579 35.2703 24.3133 35.33C24.4687 35.3898 24.5945 35.5082 24.6633 35.6598C24.7322 35.8115 24.7387 35.9841 24.6814 36.1405C24.6561 36.225 24.6365 36.3112 24.6226 36.3984C24.5954 36.5703 24.5515 36.7392 24.4915 36.9026C24.4442 37.0198 24.3628 37.1202 24.258 37.1909C24.1532 37.2616 24.0296 37.2993 23.9032 37.2993Z" fill="white"/>
<path d="M20.3425 37.5628C20.1742 37.5677 20.0109 37.5055 19.8885 37.39C19.7661 37.2745 19.6946 37.115 19.6897 36.9468C19.6848 36.7785 19.747 36.6152 19.8625 36.4928C19.978 36.3704 20.1374 36.2988 20.3057 36.294C20.6534 36.2732 20.9858 36.2584 21.3102 36.2436C22.1451 36.2219 22.9782 36.1535 23.8055 36.0389C23.9693 36.0181 24.1348 36.062 24.2668 36.1613C24.3988 36.2605 24.4869 36.4074 24.5123 36.5705C24.5378 36.7337 24.4986 36.9004 24.4031 37.0351C24.3076 37.1699 24.1633 37.2621 24.0009 37.2921C23.1278 37.4143 22.2486 37.4872 21.3673 37.5103C21.0484 37.5247 20.7214 37.5395 20.3801 37.5594C20.3679 37.5602 20.3548 37.5628 20.3425 37.5628Z" fill="white"/>
<path d="M20.5523 31.5638H20.5189C20.4357 31.5595 20.3542 31.5388 20.2789 31.503C20.2037 31.4671 20.1363 31.4168 20.0806 31.3549C20.0248 31.293 19.9818 31.2208 19.9539 31.1422C19.9261 31.0637 19.914 30.9805 19.9183 30.8973C20.0464 28.9843 20.0664 27.0656 19.9784 25.1504C19.8267 23.2513 19.5202 21.3677 19.0619 19.5185C19.0413 19.4366 19.0373 19.3515 19.0502 19.268C19.063 19.1845 19.0923 19.1045 19.1365 19.0325C19.1806 18.9605 19.2387 18.8981 19.3073 18.8489C19.3759 18.7996 19.4536 18.7646 19.5359 18.7458C19.6182 18.727 19.7035 18.7248 19.7867 18.7393C19.8698 18.7539 19.9493 18.7849 20.0203 18.8306C20.0913 18.8762 20.1525 18.9356 20.2003 19.0052C20.2481 19.0749 20.2815 19.1533 20.2985 19.236C20.7732 21.1523 21.0896 23.1044 21.2447 25.0726C21.3363 27.0351 21.3165 29.0013 21.1854 30.9616C21.1772 31.124 21.1069 31.277 20.9891 31.3891C20.8713 31.5012 20.7149 31.5637 20.5523 31.5638Z" fill="white"/>
<path d="M22.7177 31.4725H22.6983C22.5301 31.4674 22.3709 31.3957 22.2556 31.2733C22.1403 31.1508 22.0783 30.9876 22.0833 30.8195C22.1263 28.4846 22.3327 26.1555 22.7008 23.8494C23.0391 21.9334 23.5886 20.0608 24.3393 18.2658C24.4041 18.112 24.527 17.9899 24.6812 17.926C24.8355 17.8622 25.0087 17.8617 25.1633 17.9247C25.3179 17.9877 25.4414 18.1091 25.5071 18.2626C25.5728 18.416 25.5753 18.5892 25.5142 18.7446C24.7988 20.453 24.2748 22.2354 23.9519 24.0592C23.5936 26.308 23.393 28.5791 23.3513 30.8558C23.3467 31.0208 23.2779 31.1775 23.1596 31.2927C23.0413 31.4078 22.8828 31.4723 22.7177 31.4725Z" fill="white"/>
<path d="M21.5365 20.8398C21.3071 20.8349 21.0814 20.7814 20.8742 20.6829C20.4809 20.5198 20.0689 20.4061 19.6476 20.3445C19.564 20.332 19.4838 20.3029 19.4116 20.2589C19.3394 20.2149 19.2767 20.1569 19.2272 20.0883C19.1777 20.0198 19.1425 19.942 19.1235 19.8596C19.1045 19.7773 19.1022 19.6919 19.1166 19.6086C19.1311 19.5253 19.162 19.4457 19.2077 19.3746C19.2533 19.3034 19.3128 19.2421 19.3824 19.1942C19.4521 19.1464 19.5307 19.1129 19.6135 19.0958C19.6963 19.0787 19.7817 19.0784 19.8646 19.0947C20.3883 19.1734 20.8999 19.3182 21.3872 19.5257C21.4313 19.5477 21.4783 19.5633 21.5268 19.5722C21.5196 19.5684 21.5745 19.5299 21.6959 19.3785L21.7446 19.3168C21.9082 19.0746 22.1373 18.8839 22.4052 18.767C22.6342 18.6898 22.8804 18.6798 23.1149 18.7382C23.1458 18.7441 23.1766 18.7505 23.2075 18.7539C23.4329 18.778 23.7188 18.7961 23.9963 18.8105C24.2078 18.8232 24.4146 18.8351 24.5884 18.8499C24.6714 18.8567 24.7523 18.8799 24.8264 18.918C24.9005 18.9562 24.9663 19.0085 25.0202 19.0721C25.074 19.1357 25.1148 19.2093 25.1402 19.2886C25.1656 19.368 25.1751 19.4516 25.1683 19.5346C25.1524 19.7015 25.0719 19.8556 24.944 19.964C24.816 20.0724 24.6508 20.1263 24.4835 20.1144C24.3173 20.1005 24.1211 20.0891 23.9206 20.0772C23.6245 20.0599 23.3145 20.0413 23.0709 20.0151C23.0066 20.0087 22.944 19.9973 22.8814 19.9859C22.8662 19.9829 22.851 19.9791 22.8353 19.9766C22.8163 20.0053 22.7748 20.0582 22.7452 20.0967L22.6822 20.1762C22.5553 20.3676 22.3859 20.5271 22.1871 20.6422C21.9884 20.7574 21.7657 20.825 21.5365 20.8398Z" fill="white"/>
<path d="M31.0949 13.3343C30.9644 13.3344 30.8371 13.2942 30.7302 13.2193C30.6234 13.1443 30.5423 13.0382 30.4979 12.9155C30.4536 12.7928 30.4482 12.6594 30.4824 12.5334C30.5167 12.4075 30.5889 12.2952 30.6893 12.2118C31.8245 11.27 33.111 10.2016 34.346 9.12862C34.4731 9.0183 34.6388 8.96299 34.8067 8.97484C34.8898 8.98072 34.971 9.0029 35.0455 9.04014C35.1201 9.07737 35.1865 9.12892 35.2412 9.19185C35.2958 9.25478 35.3375 9.32785 35.3639 9.40689C35.3903 9.48593 35.4008 9.5694 35.3949 9.65252C35.3891 9.73564 35.3669 9.81679 35.3297 9.89134C35.2924 9.96589 35.2409 10.0324 35.1779 10.087C33.932 11.1689 32.6403 12.2414 31.4984 13.1884C31.385 13.2826 31.2423 13.3342 31.0949 13.3343Z" fill="white"/>
<path d="M32.2385 18.6151C32.0748 18.615 31.9175 18.5515 31.7994 18.4381C31.6814 18.3246 31.6118 18.1699 31.6052 18.0063C31.5986 17.8427 31.6555 17.6829 31.764 17.5603C31.8725 17.4377 32.0242 17.3618 32.1873 17.3484C33.6232 17.2296 34.9013 17.1577 36.0953 17.1276C36.2635 17.1235 36.4266 17.1863 36.5485 17.3024C36.6704 17.4184 36.7412 17.5781 36.7453 17.7464C36.7495 17.9146 36.6866 18.0777 36.5706 18.1996C36.4545 18.3215 36.2948 18.3923 36.1266 18.3965C34.9576 18.4256 33.7027 18.4967 32.2914 18.613C32.2736 18.6151 32.2563 18.6151 32.2385 18.6151Z" fill="white"/>
<path d="M19.5943 10.0971C19.4399 10.097 19.2909 10.0406 19.1751 9.93845C19.0593 9.8363 18.9848 9.69543 18.9654 9.54225C18.8187 8.37367 18.6224 7.1315 18.3661 5.74764C18.3485 5.66476 18.3477 5.57919 18.3637 5.49598C18.3797 5.41278 18.4122 5.33362 18.4593 5.26318C18.5064 5.19274 18.5671 5.13245 18.6379 5.08586C18.7087 5.03928 18.7881 5.00735 18.8714 4.99195C18.9547 4.97655 19.0403 4.978 19.123 4.99621C19.2058 5.01442 19.284 5.04902 19.3532 5.09798C19.4224 5.14693 19.481 5.20924 19.5257 5.28123C19.5704 5.35323 19.6002 5.43344 19.6134 5.51714C19.8743 6.92595 20.0739 8.19054 20.2245 9.38365C20.2357 9.47299 20.2278 9.56371 20.2013 9.64976C20.1747 9.7358 20.1302 9.81521 20.0705 9.88271C20.0109 9.9502 19.9376 10.0042 19.8555 10.0412C19.7734 10.0782 19.6844 10.0972 19.5943 10.0971Z" fill="white"/>
<path d="M34.2686 25.6177C34.1777 25.6176 34.0879 25.5981 34.0051 25.5606L30.2025 23.8198C30.1245 23.7866 30.054 23.738 29.9952 23.6771C29.9363 23.6161 29.8902 23.544 29.8596 23.465C29.8291 23.3859 29.8147 23.3016 29.8173 23.2169C29.8199 23.1322 29.8394 23.0489 29.8747 22.9718C29.91 22.8948 29.9604 22.8256 30.0229 22.7684C30.0854 22.7112 30.1587 22.6671 30.2386 22.6386C30.3184 22.6102 30.4031 22.5981 30.4877 22.6029C30.5723 22.6078 30.6551 22.6295 30.7311 22.6669L34.5321 24.4064C34.6638 24.4667 34.7709 24.5702 34.8356 24.6997C34.9004 24.8293 34.9188 24.9771 34.8879 25.1186C34.8571 25.2601 34.7787 25.3867 34.6659 25.4775C34.5531 25.5683 34.4126 25.6178 34.2677 25.6177H34.2686Z" fill="white"/>
<path d="M14.6172 12.3243C14.484 12.3245 14.3542 12.2824 14.2463 12.2042C13.0048 11.2672 11.667 10.4653 10.2555 9.81208C10.1791 9.77875 10.11 9.73071 10.0522 9.6707C9.99443 9.61068 9.94901 9.53987 9.91857 9.46231C9.88813 9.38474 9.87327 9.30194 9.87484 9.21863C9.8764 9.13533 9.89436 9.05314 9.92768 8.97677C9.961 8.9004 10.009 8.83134 10.0691 8.77354C10.1291 8.71574 10.1999 8.67032 10.2774 8.63989C10.4341 8.57842 10.6087 8.58169 10.763 8.64899C12.2584 9.33732 13.6755 10.1844 14.9898 11.1756C15.0986 11.2542 15.1796 11.3652 15.2213 11.4927C15.2631 11.6202 15.2633 11.7576 15.222 11.8853C15.1807 12.0129 15.1 12.1242 14.9914 12.203C14.8829 12.2819 14.7522 12.3244 14.6181 12.3243H14.6172Z" fill="white"/>
<path d="M12.4408 18.0898C12.4146 18.0898 12.3885 18.0882 12.3625 18.0852C10.9843 17.9491 9.59874 17.901 8.21436 17.941L7.49536 17.9456H7.49282C7.40951 17.9458 7.32698 17.9295 7.24995 17.8978C7.17292 17.8661 7.10289 17.8195 7.04386 17.7607C6.92465 17.642 6.85748 17.4807 6.85715 17.3125C6.85698 17.2292 6.87323 17.1466 6.90495 17.0696C6.93668 16.9926 6.98327 16.9225 7.04207 16.8635C7.10086 16.8045 7.1707 16.7576 7.24761 16.7256C7.32451 16.6936 7.40698 16.677 7.49029 16.6768L8.2059 16.6722C9.64568 16.6312 11.0866 16.6824 12.5199 16.8253C12.681 16.8439 12.8288 16.9236 12.933 17.0479C13.0372 17.1722 13.0898 17.3317 13.0801 17.4936C13.0703 17.6555 12.9989 17.8075 12.8806 17.9184C12.7622 18.0293 12.6059 18.0906 12.4437 18.0898H12.4408Z" fill="white"/>
<path d="M26.6976 9.76175C26.5934 9.7616 26.4908 9.73577 26.399 9.68656C26.3071 9.63735 26.2288 9.56627 26.1709 9.4796C26.1131 9.39294 26.0774 9.29335 26.0672 9.18964C26.057 9.08594 26.0725 8.98131 26.1123 8.885L26.3876 8.2138C26.9032 6.87317 27.5046 5.56712 28.188 4.30373C28.2281 4.22915 28.2827 4.16335 28.3486 4.1102C28.4145 4.05705 28.4904 4.01762 28.5718 3.99425C28.6531 3.97088 28.7384 3.96404 28.8224 3.97412C28.9065 3.9842 28.9877 4.01101 29.0612 4.05296C29.1348 4.09491 29.1992 4.15115 29.2506 4.21838C29.3021 4.28561 29.3396 4.36246 29.3609 4.4444C29.3822 4.52634 29.3869 4.61172 29.3747 4.6955C29.3625 4.77928 29.3336 4.85977 29.2898 4.93222C28.6344 6.14901 28.057 7.40626 27.5612 8.69637L27.2838 9.37307C27.2353 9.48846 27.1538 9.58692 27.0495 9.65608C26.9452 9.72525 26.8228 9.76201 26.6976 9.76175Z" fill="white"/>
<path d="M10.6048 27.713C10.4693 27.7131 10.3374 27.6698 10.2284 27.5896C10.1193 27.5093 10.0387 27.3963 9.99851 27.267C9.95829 27.1377 9.9605 26.9989 10.0048 26.8709C10.0491 26.7429 10.1333 26.6325 10.2448 26.5558C11.2908 25.8368 12.4225 25.1047 13.7045 24.3142C13.8477 24.2279 14.0192 24.2017 14.1817 24.2412C14.3442 24.2807 14.4845 24.3828 14.5722 24.5252C14.6598 24.6676 14.6876 24.8389 14.6497 25.0017C14.6117 25.1646 14.5109 25.3059 14.3693 25.3948C13.1056 26.173 11.9916 26.895 10.9634 27.6009C10.858 27.6738 10.7329 27.7129 10.6048 27.713Z" fill="white"/>
</svg>
