<svg width="43" height="43" viewBox="0 0 43 43" fill="none" xmlns="http://www.w3.org/2000/svg">
<path d="M5.49428 33.1591H5.47659C5.38487 33.1569 5.29449 33.1366 5.21061 33.0994C5.12673 33.0622 5.05101 33.0088 4.98778 32.9423C4.92454 32.8759 4.87503 32.7976 4.84207 32.7119C4.80912 32.6263 4.79336 32.535 4.79572 32.4433C4.8739 29.2944 4.94278 25.8872 5.01259 22.4838C5.08147 19.1045 5.15221 15.7266 5.22714 12.602C5.23171 12.4168 5.30964 12.2411 5.44379 12.1134C5.57793 11.9857 5.75731 11.9165 5.94246 11.9211C6.12761 11.9256 6.30336 12.0036 6.43105 12.1377C6.55873 12.2719 6.6279 12.4513 6.62334 12.6364C6.54608 15.7592 6.4772 19.1352 6.40832 22.5126C6.33898 25.9203 6.2687 29.3293 6.19191 32.4805C6.18682 32.6622 6.1111 32.8347 5.98083 32.9614C5.85056 33.0881 5.67601 33.159 5.49428 33.1591Z" fill="white"/>
<path d="M5.49334 33.159C5.30819 33.1639 5.12872 33.0949 4.99439 32.9674C4.86007 32.8399 4.78191 32.6642 4.77709 32.4791C4.77228 32.2939 4.84121 32.1145 4.96873 31.9801C5.09624 31.8458 5.27189 31.7677 5.45704 31.7628C15.2993 31.2444 25.4543 31.0647 35.2742 30.8921L37.5668 30.8516H37.5807C37.7659 30.85 37.9441 30.922 38.0761 31.0518C38.2082 31.1816 38.2833 31.3585 38.2849 31.5436C38.2865 31.7288 38.2145 31.907 38.0847 32.039C37.9549 32.1711 37.778 32.2462 37.5928 32.2478L35.3007 32.2883C25.492 32.4609 15.3496 32.6401 5.53197 33.1576L5.49334 33.159Z" fill="white"/>
<path d="M5.92555 13.3149C5.74852 13.3145 5.57828 13.2467 5.44929 13.1255C5.3203 13.0042 5.24219 12.8385 5.23078 12.6618C5.21936 12.4852 5.27549 12.3108 5.38781 12.1739C5.50012 12.0371 5.66023 11.948 5.83573 11.9248C13.1644 10.9665 20.8276 10.9242 28.2419 10.8818C31.4611 10.8641 34.7896 10.8455 38.0004 10.7501C38.0922 10.7464 38.1839 10.761 38.27 10.7932C38.3562 10.8253 38.435 10.8744 38.5019 10.9374C38.5689 11.0004 38.6225 11.0762 38.6598 11.1602C38.6971 11.2443 38.7172 11.3349 38.719 11.4268C38.7245 11.6118 38.6563 11.7914 38.5294 11.9262C38.4025 12.0609 38.2273 12.1398 38.0423 12.1454C34.8143 12.2413 31.4769 12.2599 28.2498 12.278C20.8798 12.3194 13.2593 12.3623 6.01677 13.3089C5.98654 13.313 5.95606 13.315 5.92555 13.3149Z" fill="white"/>
<path d="M37.5808 32.2483C37.3967 32.2483 37.2201 32.1757 37.0894 32.0461C36.9587 31.9166 36.8844 31.7407 36.8827 31.5567C36.8296 25.6126 36.7635 18.2142 37.3262 11.3905C37.3414 11.206 37.4292 11.035 37.5704 10.9153C37.7117 10.7955 37.8947 10.7368 38.0792 10.752C38.2637 10.7672 38.4347 10.855 38.5544 10.9963C38.6742 11.1375 38.7329 11.3205 38.7177 11.505C38.1592 18.2659 38.2258 25.628 38.2789 31.5442C38.2805 31.7292 38.2085 31.9074 38.0788 32.0394C37.9492 32.1714 37.7723 32.2466 37.5873 32.2483H37.5808Z" fill="white"/>
<path d="M5.75674 24.2606C5.62149 24.2605 5.48917 24.2211 5.37588 24.1473C5.26258 24.0734 5.17319 23.9682 5.11857 23.8444C5.06395 23.7207 5.04645 23.5838 5.0682 23.4503C5.08995 23.3168 5.15001 23.1925 5.24108 23.0925L5.63527 22.6587C7.49687 20.6049 9.60513 18.2784 12.0471 18.2784H12.0587C13.3078 18.2821 14.4969 18.9053 15.5934 20.1293C15.658 20.1969 15.7084 20.2769 15.7415 20.3644C15.7746 20.4519 15.7897 20.5452 15.7861 20.6387C15.7824 20.7322 15.76 20.824 15.7201 20.9086C15.6803 20.9933 15.6238 21.0691 15.5541 21.1315C15.4844 21.1939 15.4029 21.2416 15.3144 21.2719C15.2258 21.3022 15.1321 21.3143 15.0388 21.3077C14.9455 21.301 14.8544 21.2757 14.7711 21.2331C14.6878 21.1906 14.6139 21.1317 14.5537 21.0601C13.7202 20.1293 12.9029 19.676 12.0545 19.6736H12.0475C10.2241 19.6736 8.33598 21.7563 6.66939 23.5951L6.27287 24.0321C6.20749 24.104 6.12781 24.1615 6.03893 24.2009C5.95005 24.2402 5.85394 24.2606 5.75674 24.2606Z" fill="white"/>
<path d="M23.8687 23.4872C23.7603 23.4872 23.6534 23.4619 23.5565 23.4135C23.4596 23.365 23.3752 23.2946 23.3102 23.2079C21.1964 20.3904 19.8225 19.2371 18.5766 19.2371H18.5562C17.3028 19.2502 15.8317 20.4905 13.9264 23.1404C13.8741 23.2177 13.8068 23.2837 13.7286 23.3346C13.6503 23.3854 13.5627 23.42 13.4709 23.4364C13.379 23.4528 13.2848 23.4506 13.1938 23.43C13.1028 23.4093 13.0169 23.3707 12.9411 23.3162C12.8653 23.2618 12.8012 23.1928 12.7525 23.1131C12.7039 23.0335 12.6717 22.945 12.6579 22.8527C12.644 22.7604 12.6488 22.6663 12.672 22.5759C12.6951 22.4855 12.7362 22.4007 12.7927 22.3265C15.0387 19.2018 16.7579 17.8586 18.5413 17.8423H18.5762C20.61 17.8423 22.3873 19.6532 24.4272 22.3711C24.505 22.4749 24.5523 22.5982 24.564 22.7273C24.5756 22.8564 24.5511 22.9862 24.4931 23.1022C24.4351 23.2182 24.346 23.3157 24.2357 23.3838C24.1254 23.452 23.9983 23.4881 23.8687 23.4881V23.4872Z" fill="white"/>
<path d="M34.3648 32.2637C34.2498 32.2637 34.1365 32.2353 34.0351 32.1809C33.9337 32.1266 33.8473 32.0481 33.7835 31.9523C32.9672 30.7269 32.2286 29.5364 31.5771 28.486C29.4926 25.1272 27.987 22.6988 26.2529 22.6359C24.6054 22.5745 22.2798 24.66 18.9736 29.1981C18.9197 29.2722 18.8517 29.335 18.7735 29.3828C18.6953 29.4307 18.6084 29.4627 18.5178 29.477C18.4273 29.4912 18.3348 29.4875 18.2457 29.4661C18.1565 29.4446 18.0725 29.4058 17.9984 29.3519C17.9242 29.2979 17.8614 29.2299 17.8136 29.1517C17.7657 29.0735 17.7338 28.9867 17.7195 28.8961C17.7052 28.8056 17.7089 28.7131 17.7303 28.6239C17.7518 28.5348 17.7906 28.4508 17.8445 28.3766C21.5975 23.2233 24.0344 21.1476 26.3046 21.2397C28.7814 21.3328 30.4517 24.0238 32.7634 27.7488C33.4089 28.7904 34.1419 29.9706 34.9452 31.1779C35.0151 31.283 35.0552 31.4051 35.0613 31.5311C35.0673 31.6572 35.0391 31.7826 34.9795 31.8939C34.92 32.0052 34.8314 32.0983 34.7231 32.1633C34.6149 32.2282 34.4911 32.2626 34.3648 32.2627V32.2637Z" fill="white"/>
<path d="M32.3459 21.4771C30.8152 21.4193 29.3591 20.8012 28.2542 19.7402C27.7703 19.336 27.4112 18.8028 27.2184 18.2026C27.0256 17.6023 27.0071 16.9597 27.1651 16.3493C27.3781 15.6732 27.7687 15.0666 28.2962 14.5929C28.8236 14.1192 29.4686 13.7958 30.1637 13.6565C30.8764 13.5156 31.6146 13.5804 32.2919 13.8433C32.9692 14.1062 33.5577 14.5563 33.9888 15.1412C34.0055 15.1625 34.0211 15.1847 34.0353 15.2077C36.239 18.7238 35.0336 20.2973 34.4128 20.8106C33.8226 21.267 33.0915 21.5027 32.3459 21.4771ZM30.9255 14.9731C30.7643 14.9733 30.6035 14.99 30.4457 15.0229C30.002 15.1112 29.5894 15.315 29.2498 15.6139C28.9102 15.9127 28.6555 16.296 28.5115 16.7249C28.4218 17.0884 28.4394 17.47 28.5623 17.8237C28.6851 18.1773 28.9079 18.4877 29.2036 18.7173C30.7003 20.107 32.7178 20.4006 33.5229 19.7351C34.221 19.1585 33.9776 17.7581 32.8751 15.9854C32.6477 15.6803 32.3542 15.4308 32.0165 15.2554C31.6789 15.0801 31.3059 14.9836 30.9255 14.9731Z" fill="white"/>
</svg>
