<svg width="43" height="43" viewBox="0 0 43 43" fill="none" xmlns="http://www.w3.org/2000/svg">
<path d="M12.4584 23.3643C12.4083 23.3647 12.3582 23.36 12.3091 23.3502C12.2188 23.3308 12.1333 23.2939 12.0574 23.2414C11.9815 23.1889 11.9166 23.122 11.8666 23.0445C11.8166 22.967 11.7823 22.8803 11.7657 22.7896C11.7492 22.6988 11.7507 22.6056 11.7701 22.5154C12.8939 17.2924 14.2709 11.1054 15.9509 4.81674C15.9902 4.66771 16.0775 4.53576 16.1993 4.44125C16.321 4.34673 16.4705 4.2949 16.6246 4.29374L27.212 4.21555H27.2167C27.3327 4.21553 27.4469 4.24426 27.5491 4.29916C27.6513 4.35406 27.7384 4.43343 27.8024 4.53017C27.8664 4.62691 27.9055 4.73802 27.9162 4.85355C27.9268 4.96908 27.9086 5.08545 27.8633 5.19225C25.9436 9.71524 24.251 13.9208 22.3716 18.8287C22.3409 18.9178 22.2926 18.9999 22.2296 19.07C22.1666 19.1401 22.0901 19.1968 22.0046 19.2367C21.9192 19.2766 21.8266 19.2989 21.7324 19.3023C21.6382 19.3057 21.5443 19.29 21.4562 19.2563C21.3682 19.2226 21.2878 19.1715 21.2199 19.1061C21.1521 19.0407 21.098 18.9622 21.0611 18.8755C21.0242 18.7887 21.0051 18.6954 21.005 18.6012C21.0049 18.5069 21.0238 18.4135 21.0605 18.3267C22.8089 13.7597 24.398 9.79905 26.1548 5.62816L17.171 5.69465C15.5613 11.7787 14.2348 17.7494 13.1444 22.8118C13.1102 22.9683 13.0235 23.1084 12.8988 23.2089C12.774 23.3094 12.6186 23.3642 12.4584 23.3643V23.3643Z" fill="white"/>
<path d="M28.5955 19.3554C27.7125 19.3554 26.842 19.3226 25.9894 19.2903C24.5813 19.2128 23.17 19.2081 21.7614 19.2763C21.6693 19.2824 21.577 19.2704 21.4896 19.2409C21.4022 19.2113 21.3215 19.1648 21.2521 19.1041C21.1826 19.0434 21.1258 18.9695 21.0849 18.8869C21.044 18.8042 21.0198 18.7142 21.0136 18.6222C21.0075 18.5301 21.0195 18.4378 21.0491 18.3504C21.0786 18.263 21.1251 18.1823 21.1858 18.1128C21.2466 18.0434 21.3204 17.9866 21.4031 17.9457C21.4858 17.9048 21.5757 17.8806 21.6677 17.8744C23.1246 17.8036 24.5841 17.8078 26.0404 17.8871C27.3945 17.9381 28.7959 17.991 30.1884 17.9063C30.2813 17.8991 30.3746 17.9106 30.463 17.9398C30.5514 17.9691 30.6331 18.0157 30.7034 18.0769C30.7736 18.138 30.831 18.2125 30.8722 18.2961C30.9133 18.3796 30.9375 18.4705 30.9432 18.5635C30.9489 18.6564 30.9361 18.7496 30.9055 18.8375C30.8748 18.9255 30.827 19.0065 30.7648 19.0758C30.7025 19.1451 30.6272 19.2013 30.543 19.2412C30.4588 19.2811 30.3676 19.3038 30.2745 19.3081C29.7117 19.3428 29.1508 19.3554 28.5955 19.3554Z" fill="white"/>
<path d="M12.4565 23.3643C12.2759 23.3636 12.1025 23.2933 11.9723 23.1681C11.8422 23.0429 11.7653 22.8724 11.7575 22.6919C11.7498 22.5115 11.8119 22.335 11.9309 22.1992C12.0499 22.0633 12.2167 21.9785 12.3965 21.9624C14.1069 21.8131 15.8913 21.7564 17.6167 21.7012C19.0644 21.6543 20.5618 21.6075 21.9861 21.5054C22.0788 21.4975 22.1722 21.508 22.2608 21.5365C22.3494 21.5649 22.4314 21.6107 22.5022 21.6711C22.5729 21.7315 22.631 21.8054 22.673 21.8884C22.7149 21.9715 22.74 22.0621 22.7466 22.1549C22.7533 22.2477 22.7415 22.3409 22.7118 22.4291C22.6821 22.5173 22.6353 22.5987 22.5739 22.6686C22.5125 22.7385 22.4378 22.7955 22.3542 22.8364C22.2706 22.8772 22.1797 22.901 22.0868 22.9063C20.6353 23.0108 19.123 23.059 17.6617 23.1053C15.9555 23.1597 14.1907 23.2158 12.5183 23.3615C12.4977 23.3633 12.4771 23.3643 12.4565 23.3643Z" fill="white"/>
<path d="M18.783 33.3111C18.6489 33.311 18.5175 33.2725 18.4045 33.2002C18.2916 33.1278 18.2017 33.0246 18.1455 32.9027C18.0894 32.7808 18.0693 32.6454 18.0877 32.5125C18.1061 32.3796 18.1621 32.2548 18.2493 32.1527C20.1198 29.961 22.1533 27.4293 24.1193 24.9806C25.9861 22.6558 27.917 20.2515 29.6981 18.1525C29.8196 18.0138 29.9908 17.9284 30.1747 17.9148C30.3585 17.9012 30.5404 17.9604 30.681 18.0797C30.8216 18.199 30.9096 18.3689 30.9261 18.5525C30.9425 18.7362 30.8861 18.9189 30.769 19.0613C29.0005 21.1468 27.0761 23.5431 25.215 25.8603C23.2419 28.3166 21.2018 30.8572 19.3154 33.0648C19.2497 33.1418 19.168 33.2037 19.0762 33.2462C18.9843 33.2887 18.8843 33.3108 18.783 33.3111V33.3111Z" fill="white"/>
<path d="M16.309 33.2446C16.2045 33.2449 16.1012 33.2215 16.007 33.1763C15.9237 33.1366 15.8491 33.0808 15.7874 33.0123C15.7257 32.9437 15.678 32.8637 15.6473 32.7767C15.6165 32.6898 15.6031 32.5976 15.608 32.5055C15.6128 32.4134 15.6358 32.3231 15.6755 32.2398C16.9444 29.5836 18.9418 26.1413 20.5496 23.3751C20.8577 22.8446 21.1541 22.3347 21.4304 21.8552C21.5235 21.6938 21.6769 21.576 21.857 21.5277C22.037 21.4794 22.2288 21.5046 22.3902 21.5977C22.5516 21.6908 22.6695 21.8443 22.7178 22.0243C22.7661 22.2043 22.7409 22.3961 22.6477 22.5575C22.3701 23.0384 22.0737 23.5492 21.7647 24.0816C20.1727 26.8254 18.1884 30.2405 16.9453 32.8457C16.8879 32.9656 16.7976 33.0668 16.6849 33.1374C16.5723 33.208 16.4419 33.2452 16.309 33.2446V33.2446Z" fill="white"/>
<path d="M14.1646 33.253C13.7493 33.253 13.2946 33.253 12.7843 33.2446C12.598 33.2424 12.4202 33.1664 12.29 33.0331C12.1599 32.8999 12.088 32.7204 12.0901 32.5341C12.0923 32.3478 12.1684 32.17 12.3016 32.0399C12.4349 31.9097 12.6144 31.8378 12.8007 31.84C13.842 31.8526 14.6482 31.8488 15.3642 31.8437C15.6919 31.8437 16.0042 31.84 16.309 31.84C16.4953 31.84 16.6739 31.9139 16.8056 32.0457C16.9374 32.1774 17.0113 32.356 17.0113 32.5423C17.0113 32.7285 16.9374 32.9072 16.8056 33.0389C16.6739 33.1706 16.4953 33.2446 16.309 33.2446C16.0066 33.2446 15.7003 33.2446 15.3726 33.2484C15.0008 33.2507 14.6033 33.253 14.1646 33.253Z" fill="white"/>
<path d="M21.7956 33.5279C21.3032 33.5186 20.8117 33.4798 20.324 33.4118C19.8248 33.3371 19.3205 33.3031 18.8158 33.3102C18.6296 33.3188 18.4475 33.2531 18.3097 33.1275C18.1719 33.0019 18.0896 32.8267 18.081 32.6404C18.0723 32.4541 18.138 32.2721 18.2637 32.1343C18.3893 31.9964 18.5645 31.9142 18.7507 31.9055C19.3326 31.8936 19.9144 31.9303 20.4902 32.0151C21.0257 32.0975 21.5678 32.1289 22.1093 32.1088C22.2951 32.0949 22.4788 32.1555 22.62 32.2771C22.7612 32.3987 22.8483 32.5714 22.8622 32.7572C22.876 32.9431 22.8155 33.1268 22.6939 33.268C22.5722 33.4092 22.3995 33.4963 22.2137 33.5101C22.0742 33.5237 21.9346 33.5279 21.7956 33.5279Z" fill="white"/>
<path d="M17.2043 39.1156C17.1093 39.1158 17.0152 39.0966 16.9279 39.0593C16.8405 39.0219 16.7617 38.9672 16.6962 38.8984C16.4509 38.6418 16.199 38.395 15.9471 38.1492C15.3616 37.6037 14.8191 37.0139 14.3242 36.385C13.8049 35.6418 13.3248 34.8719 12.8859 34.0785C12.6363 33.6473 12.3999 33.239 12.1971 32.9164C12.1038 32.7589 12.0757 32.5712 12.1188 32.3933C12.1618 32.2153 12.2726 32.0613 12.4276 31.9638C12.5826 31.8664 12.7695 31.8333 12.9485 31.8717C13.1275 31.91 13.2845 32.0168 13.3859 32.1691C13.5957 32.5025 13.8415 32.9267 14.1009 33.3743C14.5129 34.1189 14.9622 34.8423 15.447 35.5417C15.8993 36.1132 16.3948 36.6491 16.9289 37.1449C17.1916 37.4024 17.4552 37.6599 17.7109 37.9287C17.8057 38.0282 17.8693 38.1533 17.8937 38.2886C17.9181 38.4238 17.9023 38.5633 17.8482 38.6896C17.7941 38.816 17.7041 38.9237 17.5894 38.9994C17.4747 39.0751 17.3403 39.1155 17.2029 39.1156H17.2043Z" fill="white"/>
<path d="M17.2038 39.1156C17.0687 39.1155 16.9364 39.0764 16.8229 39.003C16.7094 38.9296 16.6196 38.825 16.564 38.7018C16.5085 38.5785 16.4898 38.4419 16.51 38.3083C16.5302 38.1746 16.5885 38.0497 16.678 37.9484L18.0054 36.4431C19.2162 35.0684 20.487 33.6239 21.6388 32.3438C21.6991 32.271 21.7734 32.2111 21.8574 32.1677C21.9414 32.1242 22.0333 32.0982 22.1276 32.0912C22.2218 32.0842 22.3166 32.0962 22.4061 32.1267C22.4956 32.1571 22.578 32.2054 22.6484 32.2684C22.7188 32.3315 22.7758 32.4081 22.8159 32.4938C22.856 32.5794 22.8784 32.6722 22.8817 32.7667C22.8851 32.8612 22.8693 32.9554 22.8354 33.0436C22.8015 33.1318 22.7501 33.2123 22.6843 33.2802C21.5372 34.5575 20.2678 35.9982 19.0594 37.3701L17.7306 38.8769C17.6649 38.9519 17.5839 39.012 17.493 39.0532C17.4022 39.0944 17.3036 39.1157 17.2038 39.1156Z" fill="white"/>
</svg>
