<svg width="43" height="43" viewBox="0 0 43 43" fill="none" xmlns="http://www.w3.org/2000/svg">
<path d="M12.1669 21.5995C12.0289 21.5994 11.8961 21.5462 11.7961 21.4511C11.6961 21.3559 11.6364 21.226 11.6293 21.0881C11.6223 20.9502 11.6684 20.8149 11.7582 20.71C11.848 20.6052 11.9746 20.5388 12.1119 20.5245C12.7244 20.4611 13.337 20.3954 13.9497 20.3277C15.5528 20.1534 17.2106 19.973 18.8496 19.8505C21.3833 19.6612 23.9698 19.6174 26.4021 19.5886C27.6539 19.5724 29.2678 19.6712 30.5648 19.7496L30.996 19.7751C31.1387 19.7836 31.2721 19.8484 31.367 19.9553C31.4619 20.0622 31.5105 20.2024 31.502 20.3451C31.4935 20.4878 31.4287 20.6213 31.3218 20.7162C31.2149 20.8111 31.0747 20.8596 30.932 20.8511L30.5009 20.8253C29.2207 20.7484 27.6305 20.6507 26.4158 20.6665C24.0003 20.6948 21.4329 20.7383 18.9308 20.9255C17.3097 21.0466 15.6613 21.2259 14.0668 21.399C13.4527 21.4664 12.8385 21.5322 12.2244 21.5967C12.2046 21.5984 12.1856 21.5995 12.1669 21.5995Z" fill="white"/>
<path d="M30.7427 24.3754H30.733C30.6622 24.3742 30.5924 24.359 30.5275 24.3308C30.4625 24.3026 30.4038 24.2619 30.3546 24.2109C30.3055 24.16 30.2668 24.0999 30.2408 24.0341C30.2149 23.9682 30.2022 23.8979 30.2034 23.8271C30.2257 22.4924 30.3791 20.7836 30.5142 19.2757C30.5746 18.6017 30.6324 17.9546 30.6759 17.3765C30.6866 17.234 30.7536 17.1015 30.862 17.0083C30.9704 16.9151 31.1114 16.8688 31.254 16.8796C31.3965 16.8904 31.529 16.9573 31.6221 17.0658C31.7153 17.1742 31.7616 17.3152 31.7509 17.4577C31.707 18.0401 31.6485 18.6922 31.5877 19.3716C31.4541 20.8612 31.3028 22.5498 31.2813 23.8454C31.2789 23.9867 31.2212 24.1215 31.1204 24.2206C31.0197 24.3197 30.884 24.3753 30.7427 24.3754V24.3754Z" fill="white"/>
<path d="M36.5678 21.6405C36.4483 21.6406 36.3323 21.6009 36.2379 21.5277C35.4497 20.9169 34.4527 20.2623 33.488 19.6296C32.5858 19.0378 31.6531 18.4256 30.8882 17.8468C30.7767 17.7597 30.704 17.6322 30.6857 17.4919C30.6674 17.3517 30.705 17.2098 30.7904 17.097C30.8757 16.9842 31.002 16.9095 31.142 16.889C31.2819 16.8685 31.4244 16.9038 31.5385 16.9874C32.2747 17.5443 33.1912 18.1461 34.0794 18.7285C35.0613 19.3727 36.0766 20.0388 36.8983 20.6758C36.9871 20.7447 37.0521 20.8396 37.0843 20.9473C37.1164 21.0549 37.1141 21.1699 37.0777 21.2762C37.0413 21.3825 36.9726 21.4748 36.8811 21.5401C36.7897 21.6054 36.6801 21.6405 36.5678 21.6405V21.6405Z" fill="white"/>
<path d="M30.7427 24.3753C30.6228 24.3756 30.5063 24.3359 30.4115 24.2625C30.3168 24.1891 30.2492 24.0862 30.2195 23.9701C30.1898 23.8539 30.1996 23.7312 30.2475 23.6213C30.2953 23.5114 30.3784 23.4206 30.4836 23.3632C32.3724 22.3314 34.3391 21.4705 36.3561 20.6061C36.4868 20.5534 36.633 20.554 36.7632 20.6078C36.8935 20.6616 36.9975 20.7642 37.053 20.8937C37.1085 21.0233 37.111 21.1694 37.0601 21.3008C37.0091 21.4322 36.9088 21.5384 36.7805 21.5966C34.7871 22.4503 32.847 23.2996 31.0006 24.3092C30.9216 24.3527 30.8329 24.3754 30.7427 24.3753Z" fill="white"/>
<path d="M12.2041 17.4338L12.2138 17.4338C12.2846 17.435 12.3544 17.4501 12.4194 17.4783C12.4843 17.5066 12.543 17.5473 12.5922 17.5982C12.6414 17.6491 12.68 17.7092 12.706 17.7751C12.7319 17.8409 12.7447 17.9113 12.7434 17.982C12.7211 19.3168 12.5677 21.0255 12.4326 22.5335C12.3723 23.2075 12.3144 23.8545 12.271 24.4326C12.2602 24.5752 12.1932 24.7076 12.0848 24.8008C11.9764 24.894 11.8354 24.9403 11.6929 24.9295C11.5503 24.9188 11.4179 24.8518 11.3247 24.7434C11.2315 24.635 11.1852 24.494 11.196 24.3514C11.2398 23.769 11.2984 23.1169 11.3591 22.4375C11.4927 20.9479 11.644 19.2593 11.6656 17.9637C11.6679 17.8224 11.7257 17.6877 11.8264 17.5886C11.9272 17.4894 12.0628 17.4338 12.2041 17.4338V17.4338Z" fill="white"/>
<path d="M6.37908 20.1687C6.49851 20.1686 6.61457 20.2083 6.7089 20.2815C7.49717 20.8923 8.49419 21.5469 9.45887 22.1796C10.361 22.7714 11.2937 23.3836 12.0587 23.9624C12.1701 24.0495 12.2428 24.177 12.2611 24.3172C12.2794 24.4575 12.2418 24.5994 12.1565 24.7122C12.0711 24.825 11.9448 24.8997 11.8049 24.9202C11.6649 24.9407 11.5225 24.9054 11.4083 24.8218C10.6722 24.2649 9.75564 23.6631 8.86749 23.0807C7.88556 22.4365 6.87022 21.7704 6.04854 21.1334C5.95977 21.0645 5.89475 20.9696 5.86259 20.8619C5.83042 20.7543 5.8327 20.6392 5.86913 20.5329C5.90555 20.4266 5.97428 20.3344 6.06572 20.2691C6.15715 20.2038 6.26671 20.1687 6.37908 20.1687V20.1687Z" fill="white"/>
<path d="M12.2042 17.4338C12.324 17.4336 12.4405 17.4733 12.5353 17.5467C12.63 17.6201 12.6976 17.723 12.7273 17.8391C12.7571 17.9552 12.7472 18.0779 12.6994 18.1878C12.6515 18.2977 12.5684 18.3885 12.4632 18.4459C10.5744 19.4778 8.60772 20.3386 6.59069 21.2031C6.45999 21.2557 6.31386 21.2551 6.1836 21.2014C6.05334 21.1476 5.94932 21.0449 5.89383 20.9154C5.83834 20.7859 5.8358 20.6398 5.88674 20.5084C5.93769 20.377 6.03807 20.2708 6.16638 20.2125C8.15969 19.3588 10.0998 18.5095 11.9462 17.4999C12.0252 17.4565 12.114 17.4338 12.2042 17.4338Z" fill="white"/>
<path d="M22.2937 30.3838C22.2935 30.5219 22.2404 30.6546 22.1452 30.7546C22.0501 30.8547 21.9202 30.9144 21.7823 30.9214C21.6444 30.9285 21.5091 30.8823 21.4042 30.7925C21.2993 30.7027 21.2329 30.5761 21.2187 30.4388C21.1552 29.8263 21.0896 29.2137 21.0218 28.601C20.8476 26.9979 20.6672 25.3402 20.5447 23.7011C20.3553 21.1674 20.3115 18.5809 20.2828 16.1486C20.2666 14.8968 20.3654 13.2829 20.4437 11.9859L20.4692 11.5548C20.4777 11.4121 20.5425 11.2786 20.6494 11.1837C20.7563 11.0888 20.8965 11.0402 21.0392 11.0487C21.1819 11.0572 21.3154 11.122 21.4103 11.2289C21.5052 11.3358 21.5538 11.476 21.5453 11.6187L21.5194 12.0499C21.4425 13.33 21.3448 14.9202 21.3606 16.1349C21.389 18.5504 21.4325 21.1178 21.6197 23.6199C21.7407 25.241 21.92 26.8894 22.0932 28.4839C22.1605 29.098 22.2264 29.7122 22.2908 30.3263C22.2926 30.3461 22.2937 30.3651 22.2937 30.3838Z" fill="white"/>
<path d="M25.0696 11.808L25.0696 11.8177C25.0683 11.8885 25.0532 11.9583 25.025 12.0233C24.9968 12.0882 24.956 12.1469 24.9051 12.1961C24.8542 12.2453 24.7941 12.2839 24.7283 12.3099C24.6624 12.3358 24.5921 12.3485 24.5213 12.3473C23.1865 12.325 21.4778 12.1716 19.9699 12.0365C19.2959 11.9762 18.6488 11.9183 18.0707 11.8748C17.9281 11.8641 17.7957 11.7971 17.7025 11.6887C17.6093 11.5803 17.563 11.4393 17.5738 11.2967C17.5846 11.1542 17.6515 11.0218 17.7599 10.9286C17.8683 10.8354 18.0093 10.7891 18.1519 10.7999C18.7343 10.8437 19.3864 10.9023 20.0658 10.963C21.5554 11.0966 23.244 11.2479 24.5396 11.2694C24.6809 11.2718 24.8157 11.3296 24.9148 11.4303C25.0139 11.531 25.0695 11.6667 25.0696 11.808V11.808Z" fill="white"/>
<path d="M22.3346 5.98296C22.3348 6.10239 22.2951 6.21845 22.2218 6.31278C21.611 7.10105 20.9564 8.09807 20.3237 9.06275C19.732 9.96491 19.1197 10.8976 18.5409 11.6625C18.4538 11.774 18.3264 11.8467 18.1861 11.865C18.0458 11.8833 17.904 11.8457 17.7912 11.7604C17.6784 11.675 17.6036 11.5487 17.5831 11.4088C17.5626 11.2688 17.598 11.1264 17.6815 11.0122C18.2384 10.2761 18.8402 9.35952 19.4226 8.47137C20.0668 7.48944 20.7329 6.4741 21.3699 5.65242C21.4388 5.56365 21.5337 5.49864 21.6414 5.46647C21.7491 5.4343 21.8641 5.43659 21.9704 5.47301C22.0767 5.50943 22.1689 5.57816 22.2342 5.6696C22.2996 5.76103 22.3346 5.8706 22.3346 5.98296V5.98296Z" fill="white"/>
<path d="M25.0695 11.808C25.0698 11.9279 25.0301 12.0444 24.9566 12.1392C24.8832 12.2339 24.7804 12.3015 24.6642 12.3312C24.5481 12.3609 24.4254 12.3511 24.3155 12.3033C24.2056 12.2554 24.1148 12.1723 24.0574 12.0671C23.0256 10.1783 22.1647 8.2116 21.3003 6.19457C21.2476 6.06387 21.2482 5.91774 21.302 5.78748C21.3557 5.65722 21.4584 5.5532 21.5879 5.49771C21.7175 5.44223 21.8636 5.43968 21.995 5.49063C22.1263 5.54157 22.2326 5.64195 22.2908 5.77026C23.1445 7.76357 23.9938 9.70371 25.0034 11.5501C25.0468 11.6291 25.0696 11.7179 25.0695 11.808Z" fill="white"/>
<path d="M18.1279 30.3466L18.1279 30.3369C18.1291 30.2661 18.1443 30.1963 18.1725 30.1314C18.2007 30.0664 18.2414 30.0077 18.2923 29.9585C18.3433 29.9093 18.4034 29.8707 18.4692 29.8447C18.5351 29.8188 18.6054 29.8061 18.6762 29.8073C20.0109 29.8296 21.7197 29.983 23.2276 30.1181C23.9016 30.1784 24.5487 30.2363 25.1268 30.2798C25.2693 30.2905 25.4018 30.3575 25.495 30.4659C25.5881 30.5743 25.6344 30.7153 25.6237 30.8579C25.6129 31.0004 25.546 31.1328 25.4375 31.226C25.3291 31.3192 25.1881 31.3655 25.0456 31.3547C24.4632 31.3109 23.8111 31.2523 23.1317 31.1916C21.6421 31.058 19.9534 30.9067 18.6579 30.8852C18.5166 30.8828 18.3818 30.825 18.2827 30.7243C18.1836 30.6236 18.128 30.4879 18.1279 30.3466V30.3466Z" fill="white"/>
<path d="M20.8629 36.1716C20.8627 36.0522 20.9024 35.9361 20.9757 35.8418C21.5865 35.0535 22.2411 34.0565 22.8738 33.0919C23.4655 32.1897 24.0777 31.257 24.6565 30.4921C24.7437 30.3806 24.8711 30.3079 25.0114 30.2896C25.1517 30.2713 25.2935 30.3089 25.4063 30.3942C25.5191 30.4796 25.5938 30.6059 25.6144 30.7458C25.6349 30.8858 25.5995 31.0282 25.516 31.1424C24.9591 31.8785 24.3573 32.7951 23.7749 33.6832C23.1307 34.6652 22.4646 35.6805 21.8275 36.5022C21.7586 36.591 21.6637 36.656 21.5561 36.6881C21.4484 36.7203 21.3334 36.718 21.2271 36.6816C21.1208 36.6452 21.0285 36.5764 20.9632 36.485C20.8979 36.3936 20.8628 36.284 20.8629 36.1716V36.1716Z" fill="white"/>
<path d="M18.1279 30.3466C18.1277 30.2267 18.1674 30.1102 18.2408 30.0154C18.3142 29.9207 18.4171 29.8531 18.5332 29.8234C18.6494 29.7937 18.7721 29.8035 18.882 29.8513C18.9919 29.8992 19.0827 29.9823 19.1401 30.0875C20.1719 31.9763 21.0328 33.943 21.8972 35.96C21.9499 36.0907 21.9493 36.2369 21.8955 36.3671C21.8417 36.4974 21.7391 36.6014 21.6096 36.6569C21.48 36.7124 21.3339 36.7149 21.2025 36.664C21.0711 36.613 20.9649 36.5126 20.9067 36.3843C20.053 34.391 19.2036 32.4509 18.1941 30.6045C18.1506 30.5255 18.1279 30.4367 18.1279 30.3466Z" fill="white"/>
</svg>
