<svg width="43" height="43" viewBox="0 0 43 43" fill="none" xmlns="http://www.w3.org/2000/svg">
<path d="M26.4424 8.04648C26.3834 8.13576 26.3539 8.22503 26.3539 8.31431C21.7221 12.9865 17.0902 17.6586 12.4583 22.3308C12.3698 22.3903 12.2813 22.4795 12.2223 22.5688C12.1928 22.6283 12.1633 22.6879 12.1338 22.7474C10.5702 25.9316 9.18358 29.2348 7.82647 32.538C7.53144 33.2225 8.41651 33.6094 8.91805 33.3713C11.8388 32.0917 14.8185 30.8716 17.6508 29.3836C18.5063 29.1753 19.2734 28.0742 19.8044 27.5386C24.2298 23.1938 28.6256 18.849 33.051 14.5339C33.0805 14.5042 33.0805 14.4744 33.11 14.4744C33.936 14.1768 34.5261 13.5816 34.3196 12.6591C33.759 10.3677 28.5961 4.20758 26.4424 8.04648ZM27.7111 8.79045C28.6846 7.06444 32.0774 11.2604 32.5494 12.0639C33.1395 13.0162 32.1659 13.4031 31.3398 13.284C30.6613 13.165 30.1302 12.5996 29.6877 12.1234C28.8616 11.2307 28.1831 10.1891 27.475 9.20708C27.534 9.1178 27.5635 9.05828 27.5635 8.96901C27.6225 8.90949 27.6815 8.84997 27.7111 8.79045ZM10.8357 30.2169C10.8062 30.1871 10.8062 30.1871 10.7767 30.1573C10.7472 30.1276 10.7177 30.0978 10.7177 30.0681C10.6882 30.0085 10.6587 29.949 10.6292 29.8895C10.6292 29.8597 10.5997 29.8002 10.5997 29.7705C11.2782 28.1635 11.9863 26.5565 12.7534 24.9495C13.2844 26.2292 14.0515 27.3898 15.1431 28.342C15.2906 28.4611 15.4676 28.6099 15.6151 28.7289C14.1695 29.4431 12.6944 30.0978 11.2192 30.7525C11.1602 30.5442 11.0127 30.3657 10.8357 30.2169ZM26.472 10.2784C26.59 10.457 26.7375 10.6653 26.885 10.8736C22.9022 15.5755 18.2408 19.5929 13.8744 23.8782C13.7859 23.6699 13.7269 23.4318 13.6679 23.1938C17.9163 18.9085 22.1941 14.5934 26.472 10.2784ZM14.966 26.0804C14.789 25.8423 14.6415 25.5745 14.494 25.3364C18.9489 20.9618 23.6987 16.9146 27.7406 12.1532C27.9766 12.4806 28.2421 12.8079 28.5076 13.1055C27.298 14.1471 26.0884 15.1589 24.9378 16.2599C23.8167 17.3313 22.8727 18.5811 21.8106 19.712C19.7159 22.0332 17.3852 24.146 14.966 26.0804ZM19.5979 25.6637C19.0374 26.1994 17.6212 28.223 16.7067 27.7171C16.4412 27.5683 16.1756 27.3898 15.9691 27.1814C18.4178 25.2174 20.719 23.0747 22.8727 20.7833C23.9347 19.6525 24.9083 18.4323 25.9999 17.3313C27.121 16.2004 28.4191 15.1589 29.6287 14.1173C29.9532 14.3256 30.2778 14.5042 30.6318 14.6232C30.6908 14.653 30.7498 14.653 30.8088 14.653C27.8881 17.5098 24.9968 20.3667 22.0761 23.2235C21.25 24.027 20.424 24.8603 19.5979 25.6637Z" fill="white"/>
</svg>
