<svg width="43" height="43" viewBox="0 0 43 43" fill="none" xmlns="http://www.w3.org/2000/svg">
<path d="M27.4573 37.0649C27.4336 37.0649 27.4108 37.0649 27.3842 37.0612C27.293 37.0517 27.2046 37.0244 27.124 36.9807C27.0434 36.9371 26.9721 36.878 26.9144 36.8068C26.8566 36.7356 26.8134 36.6538 26.7872 36.5659C26.7611 36.478 26.7525 36.3859 26.762 36.2947C27.199 32.0944 27.65 27.7513 27.2949 23.5036C27.2463 22.5012 27.0482 21.5117 26.7071 20.5679C26.3506 19.6428 25.7057 18.857 24.8678 18.327C23.8269 17.7592 22.6448 17.5019 21.462 17.5856C20.5942 17.5967 19.7397 17.8002 18.96 18.1813C18.1936 18.6161 17.5452 19.2319 17.0715 19.975C15.7013 21.9446 14.9632 24.4112 14.7477 27.7383C14.6477 29.2802 14.6081 30.8565 14.5648 32.383C14.5304 33.6931 14.4941 35.0474 14.4219 36.3822C14.4095 36.5662 14.3257 36.7382 14.1883 36.8613C14.051 36.9845 13.8709 37.0492 13.6866 37.0416C13.5018 37.0315 13.3285 36.9485 13.205 36.8106C13.0814 36.6728 13.0176 36.4916 13.0276 36.3068C13.0988 34.9911 13.1346 33.6461 13.1672 32.3458C13.2086 30.8071 13.251 29.2164 13.3534 27.6485C13.5861 24.0561 14.4029 21.3656 15.9242 19.1782C16.5263 18.2527 17.344 17.4873 18.3071 16.9476C19.2701 16.4679 20.3282 16.2096 21.4039 16.1913C22.8618 16.0931 24.3169 16.4203 25.5924 17.1333C26.6906 17.8167 27.5365 18.839 28.0023 20.0457C28.3981 21.1189 28.6291 22.2459 28.6874 23.3882C29.0532 27.7667 28.5943 32.1759 28.1521 36.4399C28.1341 36.6115 28.0531 36.7704 27.9247 36.8858C27.7964 37.0012 27.6299 37.065 27.4573 37.0649Z" fill="white"/>
<path d="M21.934 15.664C21.1416 15.6594 20.3539 15.5416 19.5949 15.3141C18.6937 15.0876 17.8679 14.6284 17.1999 13.9825C16.5118 13.2514 16.1023 12.3018 16.0429 11.2995C15.9886 10.3443 16.1809 9.39118 16.6014 8.5318C17.0709 7.55507 17.7699 6.70652 18.6386 6.05865C19.5073 5.41077 20.52 4.98284 21.59 4.81139C21.7729 4.78332 21.9595 4.82903 22.1087 4.93847C22.258 5.0479 22.3576 5.21211 22.3859 5.39501C22.3963 5.46473 22.3963 5.53564 22.3859 5.60537C22.6757 5.52371 22.9713 5.46382 23.2701 5.42619C24.1203 5.30279 24.9875 5.46379 25.7367 5.88414C27.1511 6.73117 27.5239 8.39729 27.6202 9.3132C27.8113 10.7431 27.4789 12.1939 26.6843 13.398C25.8819 14.4821 24.7093 15.2338 23.3893 15.5105C22.9112 15.6144 22.4232 15.6659 21.934 15.664ZM20.6904 6.49707C19.455 6.99444 18.4474 7.93143 17.8617 9.12751C17.5447 9.76999 17.3977 10.4831 17.4349 11.1985C17.4739 11.8741 17.7454 12.5154 18.2033 13.0136C18.7052 13.4833 19.32 13.8152 19.9881 13.977C20.9908 14.2929 22.0567 14.352 23.0881 14.1487C24.07 13.948 24.9443 13.3947 25.5459 12.5933C26.1438 11.6652 26.3876 10.5529 26.2328 9.4598C26.177 8.93018 25.948 7.63823 25.0228 7.08254C24.5389 6.82233 23.9831 6.72784 23.4405 6.81354C22.8135 6.91325 22.2029 7.09752 21.6254 7.36132C21.502 7.41244 21.3666 7.42712 21.2352 7.4036C21.1037 7.38008 20.9818 7.31936 20.8838 7.22863C20.7858 7.13791 20.7159 7.02098 20.6824 6.89173C20.6488 6.76247 20.6531 6.62631 20.6946 6.4994L20.6904 6.49707Z" fill="white"/>
</svg>
