<svg width="43" height="43" viewBox="0 0 43 43" fill="none" xmlns="http://www.w3.org/2000/svg">
<path d="M30.6607 21.7907C30.9113 21.4267 31.0587 20.9867 31.0587 20.5124V20.3794C31.0587 19.1326 30.0444 18.1182 28.7975 18.1182H28.3985H24.6741H23.7431C23.3815 18.1182 23.0998 18.002 22.8819 17.7628C22.4731 17.314 22.3757 16.5566 22.4103 16.1847C22.4693 15.5521 22.7628 14.6761 23.0737 13.7488C23.3055 13.0568 23.5451 12.3418 23.7234 11.6291C24.1682 9.84993 23.3712 8.86564 22.5537 8.56317C21.5678 8.19872 20.0852 8.65122 19.148 10.5264C19.1252 10.5767 16.8328 15.5862 15.8674 17.0948C15.0912 18.3084 13.3596 20.1136 11.7723 20.1136C11.4049 20.1136 11.1072 20.4113 11.1072 20.7787C11.1072 21.1461 11.4049 21.4438 11.7723 21.4438C14.055 21.4438 16.1247 19.1608 16.9879 17.8117C18.0033 16.2246 20.2621 11.2886 20.3478 11.1002C20.8783 10.0399 21.6425 9.64456 22.0921 9.81055C22.4896 9.95767 22.6236 10.5448 22.4329 11.3067C22.2677 11.9685 22.0363 12.6586 21.8125 13.3261C21.4765 14.3287 21.1589 15.2757 21.086 16.0618C21.0325 16.6365 21.1435 17.8301 21.899 18.659C22.1344 18.9171 22.4108 19.1142 22.7207 19.2469C22.5268 19.5805 22.4135 19.9668 22.4135 20.3797V20.5127C22.4135 21.1352 22.6665 21.6994 23.0745 22.1088C22.6665 22.5182 22.4135 23.0825 22.4135 23.705V23.838C22.4135 24.6443 22.8394 25.3514 23.4765 25.752C23.2259 26.1159 23.0785 26.5559 23.0785 27.0303V27.1633C23.0785 27.9425 23.4746 28.6309 24.0764 29.0377C23.9003 29.33 23.7968 29.6708 23.7968 30.0363V30.1427C23.7968 30.3798 23.8415 30.6059 23.9197 30.816C23.7079 30.8246 23.5302 30.8328 23.3762 30.8403C22.6561 30.8735 22.564 30.8783 21.8548 30.7631C21.3374 30.6793 20.6569 30.4769 19.9365 30.2627C18.6149 29.8695 17.1167 29.4245 15.7629 29.4245H11.7725C11.4052 29.4245 11.1075 29.7222 11.1075 30.0895C11.1075 30.4569 11.4052 30.7546 11.7725 30.7546H15.7629C16.9233 30.7546 18.3228 31.1707 19.5577 31.5378C20.3201 31.7644 21.0403 31.9783 21.642 32.0759C22.1693 32.1613 22.4374 32.1906 22.7715 32.1906C22.9556 32.1906 23.1599 32.1818 23.4387 32.1688C24.1091 32.1374 25.2309 32.0847 27.7339 32.0847H28.4522C29.523 32.0847 30.3942 31.2138 30.3942 30.1427V30.0363C30.3942 29.6594 30.2846 29.3085 30.0981 29.0105C30.6786 28.6009 31.0592 27.9262 31.0592 27.1635V27.0305C31.0592 26.5565 30.9119 26.1162 30.6613 25.7523C31.2987 25.3517 31.7243 24.6446 31.7243 23.8382V23.7052C31.7238 22.8984 31.2979 22.1913 30.6607 21.7907ZM23.7431 20.3794C23.7431 19.866 24.1607 19.4483 24.6741 19.4483H27.6975H28.7975C29.3109 19.4483 29.7286 19.866 29.7286 20.3794V20.5124C29.7286 21.0258 29.3109 21.4435 28.7975 21.4435H24.6741C24.1607 21.4435 23.7431 21.0258 23.7431 20.5124V20.3794ZM29.0635 30.1427C29.0635 30.4803 28.7893 30.7546 28.4517 30.7546H26.3232H25.7382C25.4007 30.7546 25.1264 30.4803 25.1264 30.1427V30.0363C25.1264 29.6987 25.4007 29.4245 25.7382 29.4245H26.3232H28.4517C28.7893 29.4245 29.0635 29.6987 29.0635 30.0363V30.1427ZM29.7286 27.1633C29.7286 27.6767 29.3109 28.0944 28.7975 28.0944H28.4517H25.7382H25.3392C24.8258 28.0944 24.4081 27.6767 24.4081 27.1633V27.0303C24.4081 26.5168 24.8258 26.0992 25.3392 26.0992H28.7975C29.3109 26.0992 29.7286 26.5168 29.7286 27.0303V27.1633ZM30.3937 23.838C30.3937 24.3514 29.976 24.7691 29.4626 24.7691H28.7975H25.3392H24.6741C24.1607 24.7691 23.7431 24.3514 23.7431 23.838V23.705C23.7431 23.1915 24.1607 22.7739 24.6741 22.7739H28.7975H29.4626C29.976 22.7739 30.3937 23.1915 30.3937 23.705V23.838Z" fill="white"/>
</svg>
