<svg width="43" height="43" viewBox="0 0 43 43" fill="none" xmlns="http://www.w3.org/2000/svg">
<path d="M37.8884 27.0564C37.8925 27.2313 37.8305 27.4014 37.7147 27.5326C37.5989 27.6638 37.4379 27.7465 37.2638 27.7641C37.0897 27.7817 36.9153 27.733 36.7756 27.6277C36.6359 27.5223 36.541 27.3681 36.5101 27.1959C35.5249 21.6461 32.5124 17.0888 28.2466 14.6929C27.1113 14.1303 25.8952 13.7481 24.6421 13.56C23.1373 13.2561 21.5985 13.1563 20.067 13.2634C16.6028 13.538 14.0515 14.4837 12.4839 16.0753C10.5109 18.0782 10.1006 21.3169 9.77026 23.9192L9.75733 24.0229C9.7341 24.2057 9.63921 24.3718 9.49353 24.4846C9.34785 24.5974 9.16331 24.6478 8.9805 24.6246C8.7977 24.6013 8.6316 24.5065 8.51876 24.3608C8.40592 24.2151 8.35557 24.0305 8.37879 23.8477L8.3922 23.7445C8.74842 20.9349 9.1934 17.4377 11.4927 15.1006C13.3015 13.2638 16.1493 12.1799 19.9556 11.8783C21.6119 11.7614 23.2764 11.868 24.9043 12.1953C26.3038 12.4087 27.6606 12.8429 28.9239 13.4818C33.5525 16.082 36.8142 20.992 37.874 26.9525C37.8815 26.9867 37.8863 27.0214 37.8884 27.0564Z" fill="white"/>
<path d="M13.7019 24.8161C13.7036 24.875 13.6978 24.9339 13.6844 24.9913C13.664 25.0802 13.6262 25.1643 13.5733 25.2386C13.5203 25.3129 13.4532 25.3761 13.3758 25.4245C13.2985 25.4729 13.2123 25.5056 13.1223 25.5207C13.0323 25.5358 12.9402 25.533 12.8512 25.5125C10.1232 24.8835 7.72269 24.34 5.51506 23.8511C5.33821 23.8084 5.18518 23.6981 5.08883 23.5437C4.99248 23.3894 4.96051 23.2035 4.99978 23.0258C5.03905 22.8482 5.14644 22.6931 5.29886 22.5937C5.45129 22.4944 5.63659 22.4589 5.81495 22.4947C8.02769 22.9839 10.43 23.5273 13.1632 24.158C13.3132 24.1926 13.4475 24.2759 13.545 24.395C13.6425 24.5141 13.6977 24.6622 13.7019 24.8161Z" fill="white"/>
<path d="M8.76972 29.644C8.77529 29.8066 8.72364 29.9659 8.62376 30.0943C8.52388 30.2227 8.38211 30.312 8.22316 30.3466C8.0642 30.3812 7.89815 30.3589 7.75393 30.2837C7.60972 30.2084 7.49649 30.0849 7.43399 29.9347C6.83203 28.5194 6.302 27.023 5.7895 25.5747C5.53202 24.8482 5.276 24.1241 5.01203 23.414C4.98025 23.3285 4.96563 23.2375 4.969 23.1464C4.97237 23.0552 4.99367 22.9655 5.03168 22.8826C5.06969 22.7996 5.12367 22.725 5.19053 22.6629C5.2574 22.6008 5.33583 22.5525 5.42137 22.5207C5.5069 22.4889 5.59786 22.4743 5.68904 22.4777C5.78023 22.4811 5.86985 22.5024 5.95281 22.5404C6.03576 22.5784 6.11041 22.6324 6.17251 22.6992C6.2346 22.7661 6.28291 22.8445 6.31469 22.9301C6.58071 23.647 6.83968 24.3775 7.09921 25.1113C7.60467 26.539 8.1272 28.0153 8.71281 29.3916C8.74754 29.4714 8.76685 29.557 8.76972 29.644Z" fill="white"/>
<path d="M13.7019 24.8166C13.7067 24.9942 13.6433 25.1669 13.5246 25.2991C12.7152 26.2015 11.8342 27.0104 10.9808 27.7948C10.1731 28.5378 9.33778 29.3051 8.58882 30.1303C8.46511 30.2669 8.29222 30.3487 8.10817 30.3578C8.01704 30.3623 7.92591 30.3488 7.84 30.3181C7.75408 30.2874 7.67505 30.2401 7.60743 30.1788C7.5398 30.1176 7.4849 30.0436 7.44587 29.9611C7.40683 29.8786 7.38442 29.7893 7.37992 29.6982C7.37082 29.5141 7.43521 29.334 7.55892 29.1974C8.34923 28.3252 9.2085 27.5355 10.0412 26.7719C10.8738 26.0084 11.7281 25.2216 12.4907 24.3714C12.5835 24.2679 12.7053 24.1947 12.8402 24.1611C12.9751 24.1275 13.117 24.1352 13.2475 24.1832C13.378 24.2311 13.4911 24.3171 13.5722 24.43C13.6533 24.543 13.6986 24.6776 13.7024 24.8166L13.7019 24.8166Z" fill="white"/>
</svg>
