<svg width="43" height="43" viewBox="0 0 43 43" fill="none" xmlns="http://www.w3.org/2000/svg">
<path d="M16.4252 23.3327C13.0529 23.3327 9.17438 21.5924 7.79859 18.0396C7.06375 16.2017 7.01676 14.1603 7.66626 12.2905C8.26506 10.5829 9.15896 8.99356 10.3073 7.59498C10.8839 6.85809 11.5758 6.21923 12.3563 5.70311C13.2158 5.18735 14.179 4.86879 15.1766 4.7704C17.0174 4.5587 18.8799 4.89269 20.5325 5.73085C23.2614 7.0503 25.1503 8.58361 26.1466 10.2889C27.3956 12.4263 26.8318 15.1309 25.8875 16.9481C25.0727 18.6428 23.8851 20.1313 22.4137 21.3021C20.8739 22.4621 19.0348 23.1581 17.1128 23.308C16.8869 23.3242 16.6577 23.3324 16.4252 23.3327ZM16.2459 5.99807C15.9312 5.99815 15.6168 6.01425 15.3038 6.04631C14.4967 6.12753 13.7172 6.38439 13.02 6.79888C12.359 7.24694 11.7727 7.79637 11.2827 8.42695C10.2344 9.70907 9.41814 11.1645 8.87088 12.7276C8.33459 14.3084 8.37771 16.0284 8.99254 17.5803C10.2386 20.7959 13.9771 22.2528 17.0211 22.0325C18.6945 21.8939 20.2951 21.2874 21.6402 20.2823C22.9581 19.2253 24.0208 17.8847 24.7491 16.3603C25.5004 14.9136 26.0267 12.6256 25.0393 10.9356C24.1856 9.47277 22.4299 8.07051 19.9639 6.88041L19.9447 6.87059C18.8007 6.2843 17.5313 5.98486 16.2459 5.99807Z" fill="white"/>
<path d="M21.1741 24.3487C21.0675 24.3488 20.9625 24.3223 20.8687 24.2715C20.7749 24.2207 20.6953 24.1473 20.6371 24.058C20.3626 23.6358 19.8739 22.8948 19.4807 22.3031C19.3867 22.1616 19.3527 21.9886 19.3863 21.822C19.4199 21.6555 19.5183 21.5091 19.6598 21.4151C19.8013 21.321 19.9744 21.2871 20.1409 21.3207C20.3075 21.3542 20.4539 21.4526 20.5479 21.5941C20.9436 22.1917 21.4349 22.9345 21.7111 23.3592C21.7739 23.4558 21.8096 23.5676 21.8142 23.6827C21.8188 23.7979 21.7923 23.9121 21.7374 24.0134C21.6825 24.1148 21.6012 24.1994 21.5023 24.2584C21.4033 24.3174 21.2902 24.3486 21.175 24.3487H21.1741Z" fill="white"/>
<path d="M24.9309 21.6308C24.8335 21.6309 24.7373 21.6087 24.6497 21.5659C24.5621 21.5231 24.4854 21.461 24.4255 21.3841L23.906 20.7126C23.6226 20.3455 23.3225 19.9566 23.1009 19.6758C23.0464 19.61 23.0056 19.534 22.9809 19.4523C22.9561 19.3705 22.948 19.2846 22.957 19.1997C22.966 19.1147 22.9919 19.0324 23.0331 18.9576C23.0744 18.8828 23.1302 18.8171 23.1973 18.7642C23.2644 18.7113 23.3414 18.6723 23.4237 18.6496C23.5061 18.627 23.5921 18.621 23.6768 18.6321C23.7615 18.6431 23.8431 18.6711 23.9169 18.7142C23.9906 18.7573 24.055 18.8147 24.1062 18.8831C24.3303 19.1665 24.6334 19.5592 24.9198 19.9302L25.4368 20.5969C25.5105 20.6915 25.5561 20.8049 25.5686 20.9242C25.581 21.0434 25.5597 21.1638 25.507 21.2715C25.4544 21.3793 25.3726 21.4701 25.2709 21.5336C25.1692 21.5971 25.0517 21.6308 24.9318 21.6308H24.9309Z" fill="white"/>
<path d="M21.1741 24.3486C21.0414 24.3485 20.9121 24.3072 20.8039 24.2304C20.6957 24.1536 20.6141 24.0451 20.5702 23.9198C20.5264 23.7946 20.5226 23.6588 20.5593 23.5313C20.5959 23.4038 20.6713 23.2909 20.775 23.2081C21.5433 22.5951 22.2857 22.0786 23.0032 21.5787C23.5014 21.2312 24.017 20.8718 24.5485 20.4765C24.616 20.4263 24.6926 20.3899 24.7742 20.3693C24.8557 20.3488 24.9405 20.3445 25.0237 20.3567C25.1069 20.3689 25.1869 20.3974 25.2591 20.4405C25.3313 20.4836 25.3943 20.5405 25.4445 20.608C25.4947 20.6755 25.5311 20.7522 25.5517 20.8337C25.5722 20.9152 25.5765 21 25.5643 21.0832C25.5521 21.1664 25.5236 21.2464 25.4805 21.3186C25.4374 21.3908 25.3805 21.4538 25.313 21.504C24.7658 21.9112 24.242 22.2762 23.7336 22.6292C23.0011 23.1415 22.3083 23.6221 21.5715 24.2086C21.4588 24.2991 21.3186 24.3485 21.1741 24.3486Z" fill="white"/>
<path d="M23.0079 25.7266C22.9067 25.7267 22.8069 25.7029 22.7166 25.6569C22.6264 25.611 22.5483 25.5443 22.4889 25.4624C22.3997 25.339 22.2221 25.082 22.0236 24.7943C21.7342 24.376 21.3743 23.8552 21.2271 23.6635C21.1237 23.5288 21.0781 23.3584 21.1003 23.1901C21.1225 23.0217 21.2107 22.869 21.3455 22.7656C21.4803 22.6623 21.6506 22.6167 21.819 22.6389C21.9874 22.6611 22.1401 22.7493 22.2434 22.8841C22.4099 23.1014 22.7642 23.614 23.0767 24.0661C23.2688 24.344 23.4399 24.5916 23.5262 24.7102C23.5955 24.8058 23.6371 24.9186 23.6463 25.0363C23.6555 25.154 23.632 25.272 23.5784 25.3771C23.5247 25.4823 23.4431 25.5706 23.3424 25.6323C23.2418 25.694 23.126 25.7266 23.0079 25.7266Z" fill="white"/>
<path d="M25.552 23.3716C25.4488 23.3716 25.3471 23.3466 25.2556 23.2988C25.1641 23.251 25.0855 23.1818 25.0266 23.0971C24.8503 22.844 24.5143 22.4017 24.2403 22.0461L23.9782 21.7017C23.9255 21.6347 23.8868 21.558 23.8642 21.4759C23.8416 21.3938 23.8356 21.308 23.8465 21.2236C23.8575 21.1391 23.8852 21.0577 23.928 20.9841C23.9708 20.9105 24.0278 20.8461 24.0958 20.7948C24.1637 20.7435 24.2412 20.7063 24.3238 20.6853C24.4063 20.6643 24.4922 20.66 24.5764 20.6727C24.6606 20.6853 24.7414 20.7146 24.8142 20.7588C24.887 20.803 24.9502 20.8614 25.0001 20.9303L25.2562 21.2684C25.5354 21.6342 25.8829 22.0888 26.0754 22.365C26.1422 22.4609 26.1816 22.5732 26.1891 22.6898C26.1967 22.8065 26.1722 22.9229 26.1183 23.0266C26.0644 23.1303 25.9831 23.2173 25.8833 23.2781C25.7835 23.3389 25.6689 23.3712 25.552 23.3716Z" fill="white"/>
<path d="M22.634 26.0753C22.5056 26.0752 22.3802 26.0365 22.2741 25.9643C22.168 25.892 22.086 25.7895 22.0389 25.6701C21.9918 25.5506 21.9816 25.4198 22.0098 25.2945C22.038 25.1693 22.1032 25.0554 22.1969 24.9676C22.8215 24.3834 23.4485 23.8013 24.0777 23.2213C24.5657 22.77 25.0528 22.3185 25.5388 21.8668C25.6634 21.7511 25.8288 21.6895 25.9987 21.6957C26.1686 21.7019 26.3291 21.7754 26.4449 21.8999C26.5606 22.0245 26.6222 22.1899 26.616 22.3598C26.6098 22.5297 26.5363 22.6902 26.4118 22.806C25.9243 23.2599 25.4361 23.7123 24.9472 24.1634C24.3211 24.7425 23.6959 25.323 23.0715 25.905C22.9527 26.0154 22.7962 26.0763 22.634 26.0753Z" fill="white"/>
<path d="M34.9094 35.7836C34.81 35.7838 34.7119 35.7607 34.6229 35.7162C34.534 35.6718 34.4567 35.6071 34.3972 35.5274C31.401 31.5106 28.0526 26.7101 25.4368 22.6843C25.3886 22.6138 25.3551 22.5344 25.3381 22.4508C25.321 22.3672 25.3209 22.281 25.3377 22.1974C25.3544 22.1137 25.3877 22.0342 25.4356 21.9636C25.4836 21.893 25.5451 21.8327 25.6167 21.7862C25.6882 21.7397 25.7683 21.708 25.8523 21.6929C25.9363 21.6778 26.0225 21.6797 26.1057 21.6983C26.189 21.717 26.2677 21.7522 26.3372 21.8017C26.4066 21.8512 26.4655 21.9142 26.5104 21.9868C29.1104 25.9904 32.4438 30.7657 35.4204 34.7604C35.4917 34.8555 35.5352 34.9686 35.5458 35.087C35.5565 35.2055 35.534 35.3245 35.4808 35.4309C35.4276 35.5372 35.3459 35.6267 35.2447 35.6892C35.1436 35.7517 35.027 35.7848 34.9081 35.7848L34.9094 35.7836Z" fill="white"/>
<path d="M31.5244 38.6961C31.4305 38.6961 31.3377 38.6755 31.2526 38.6357C31.1676 38.5958 31.0923 38.5378 31.0322 38.4656C28.8606 35.7539 26.8335 32.9296 24.9596 30.0042C24.029 28.6067 23.0669 27.1613 22.1107 25.8043C22.0622 25.7355 22.0278 25.6579 22.0093 25.5758C21.9909 25.4938 21.9888 25.4089 22.0031 25.326C22.0175 25.2431 22.048 25.1638 22.093 25.0928C22.1379 25.0217 22.1965 24.9602 22.2652 24.9117C22.334 24.8632 22.4116 24.8288 22.4937 24.8103C22.5757 24.7919 22.6606 24.7897 22.7435 24.8041C22.8264 24.8184 22.9056 24.849 22.9767 24.894C23.0478 24.9389 23.1093 24.9975 23.1578 25.0662C24.1238 26.4377 25.0902 27.8899 26.0259 29.2943C27.8748 32.1818 29.8743 34.97 32.0162 37.6473C32.094 37.7408 32.1436 37.8545 32.1592 37.9752C32.1748 38.0958 32.1556 38.2184 32.104 38.3286C32.0524 38.4388 31.9705 38.532 31.8679 38.5973C31.7652 38.6626 31.6461 38.6973 31.5244 38.6974V38.6961Z" fill="white"/>
<path d="M31.5243 38.6961C31.3943 38.6965 31.2672 38.6573 31.16 38.5837C31.0528 38.51 30.9705 38.4055 30.9242 38.284C30.8778 38.1625 30.8696 38.0297 30.9005 37.9034C30.9315 37.7771 31.0002 37.6632 31.0975 37.5769C31.3391 37.3634 31.5781 37.15 31.8172 36.9332C32.676 36.1614 33.5643 35.3631 34.5188 34.6332C34.5857 34.5821 34.662 34.5446 34.7433 34.523C34.8247 34.5013 34.9095 34.4959 34.9929 34.5071C35.0764 34.5182 35.1568 34.5457 35.2296 34.5879C35.3025 34.6301 35.3663 34.6863 35.4174 34.7531C35.4685 34.82 35.506 34.8963 35.5276 34.9777C35.5492 35.059 35.5546 35.1438 35.5435 35.2273C35.5324 35.3107 35.5049 35.3911 35.4627 35.464C35.4205 35.5368 35.3643 35.6006 35.2974 35.6517C34.3835 36.3513 33.5528 37.0975 32.6739 37.8872C32.4331 38.1032 32.1913 38.3195 31.9482 38.536C31.8312 38.6393 31.6804 38.6962 31.5243 38.6961Z" fill="white"/>
<path d="M16.391 19.0824H16.3667C16.2826 19.0792 16.1999 19.0596 16.1234 19.0244C16.0469 18.9893 15.9781 18.9395 15.9209 18.8778C15.8637 18.816 15.8192 18.7436 15.79 18.6647C15.7608 18.5858 15.7475 18.5018 15.7507 18.4177C15.8506 15.7972 15.9881 12.6943 16.2527 9.55512C16.267 9.38587 16.3479 9.22921 16.4777 9.11962C16.6074 9.01003 16.7754 8.95647 16.9447 8.97074C17.1139 8.985 17.2706 9.06592 17.3802 9.19569C17.4898 9.32545 17.5433 9.49344 17.5291 9.66269C17.2665 12.7763 17.1299 15.8604 17.0305 18.4668C17.0241 18.6322 16.9539 18.7886 16.8347 18.9034C16.7155 19.0181 16.5565 19.0823 16.391 19.0824Z" fill="white"/>
<path d="M12.536 14.8692C12.3662 14.8725 12.2021 14.8082 12.0797 14.6904C11.9573 14.5726 11.8866 14.4111 11.8834 14.2413C11.8801 14.0714 11.9444 13.9073 12.0621 13.7849C12.1799 13.6625 12.3415 13.5919 12.5113 13.5886C14.6883 13.5032 17.0053 13.4306 20.0241 13.3529C20.1085 13.3497 20.1926 13.3634 20.2716 13.3931C20.3505 13.4229 20.4227 13.4682 20.4839 13.5263C20.5451 13.5844 20.5941 13.6542 20.6278 13.7316C20.6616 13.8089 20.6796 13.8922 20.6807 13.9766C20.6851 14.1462 20.6221 14.3107 20.5054 14.4339C20.3887 14.557 20.2279 14.6289 20.0583 14.6336C17.0467 14.7112 14.7348 14.7838 12.5638 14.8688L12.536 14.8692Z" fill="white"/>
</svg>
