<svg width="43" height="43" viewBox="0 0 43 43" fill="none" xmlns="http://www.w3.org/2000/svg">
<path d="M15.043 22.9378C11.6708 22.9378 7.79227 21.1975 6.41648 17.6447C5.68164 15.8067 5.63465 13.7654 6.28415 11.8956C6.88295 10.1879 7.77685 8.59865 8.92518 7.20007C9.50179 6.46318 10.1937 5.82432 10.9741 5.3082C11.8337 4.79244 12.7969 4.47388 13.7945 4.37549C15.6353 4.16368 17.4978 4.49768 19.1504 5.33594C21.8793 6.65539 23.7682 8.1887 24.7645 9.89403C26.0135 12.0314 25.4496 14.736 24.5054 16.5532C23.6906 18.2479 22.503 19.7364 21.0316 20.9072C19.4918 22.0672 17.6527 22.7632 15.7307 22.9131C15.5048 22.9293 15.2755 22.9375 15.043 22.9378ZM14.8638 5.60316C14.5491 5.60323 14.2347 5.61933 13.9217 5.6514C13.1146 5.73261 12.3351 5.98948 11.6379 6.40396C10.9769 6.85203 10.3906 7.40146 9.90057 8.03204C8.85224 9.31415 8.03603 10.7696 7.48877 12.3327C6.95248 13.9135 6.9956 15.6334 7.61043 17.1854C8.85688 20.4009 12.5967 21.8578 15.6389 21.6376C17.3123 21.499 18.913 20.8925 20.2581 19.8874C21.576 18.8304 22.6387 17.4898 23.367 15.9654C24.1182 14.5187 24.6446 12.2307 23.6572 10.5407C22.8035 9.07786 21.0478 7.6756 18.5818 6.4855L18.5626 6.47568C17.4186 5.88938 16.1492 5.58995 14.8638 5.60316Z" fill="white"/>
<path d="M19.792 23.9538C19.6853 23.9539 19.5804 23.9274 19.4866 23.8766C19.3928 23.8258 19.3132 23.7524 19.255 23.6631C18.9805 23.2409 18.4917 22.4999 18.0986 21.9083C18.0046 21.7667 17.9706 21.5937 18.0042 21.4271C18.0378 21.2606 18.1361 21.1142 18.2777 21.0202C18.4192 20.9261 18.5922 20.8922 18.7588 20.9258C18.9253 20.9593 19.0717 21.0577 19.1658 21.1992C19.5615 21.7968 20.0528 22.5396 20.329 22.9643C20.3918 23.0609 20.4274 23.1727 20.432 23.2878C20.4367 23.403 20.4101 23.5172 20.3552 23.6185C20.3003 23.7199 20.2191 23.8045 20.1201 23.8635C20.0211 23.9225 19.9081 23.9537 19.7928 23.9538H19.792Z" fill="white"/>
<path d="M23.5488 21.2359C23.4514 21.236 23.3552 21.2138 23.2676 21.171C23.18 21.1282 23.1033 21.0661 23.0434 20.9892L22.5239 20.3177C22.2405 19.9506 21.9404 19.5617 21.7189 19.2809C21.6643 19.2151 21.6235 19.1391 21.5988 19.0574C21.5741 18.9756 21.5659 18.8897 21.5749 18.8048C21.5839 18.7198 21.6098 18.6375 21.6511 18.5627C21.6923 18.4879 21.7481 18.4222 21.8152 18.3693C21.8823 18.3164 21.9593 18.2774 22.0416 18.2547C22.124 18.2321 22.21 18.2261 22.2947 18.2372C22.3794 18.2482 22.4611 18.2762 22.5348 18.3193C22.6086 18.3624 22.6729 18.4198 22.7241 18.4882C22.9482 18.7716 23.2513 19.1643 23.5378 19.5353L24.0547 20.202C24.1284 20.2966 24.1741 20.41 24.1865 20.5293C24.1989 20.6485 24.1776 20.7689 24.125 20.8766C24.0723 20.9844 23.9905 21.0752 23.8888 21.1387C23.7871 21.2022 23.6696 21.2359 23.5497 21.2359H23.5488Z" fill="white"/>
<path d="M19.792 23.9538C19.6593 23.9537 19.5299 23.9124 19.4218 23.8355C19.3136 23.7587 19.2319 23.6502 19.1881 23.525C19.1443 23.3997 19.1405 23.264 19.1771 23.1365C19.2138 23.009 19.2892 22.896 19.3929 22.8132C20.1612 22.2002 20.9036 21.6837 21.6211 21.1838C22.1193 20.8364 22.6349 20.4769 23.1664 20.0817C23.2338 20.0315 23.3105 19.995 23.3921 19.9745C23.4736 19.9539 23.5584 19.9496 23.6416 19.9618C23.7248 19.974 23.8048 20.0025 23.877 20.0456C23.9492 20.0888 24.0122 20.1457 24.0624 20.2131C24.1126 20.2806 24.149 20.3573 24.1696 20.4388C24.1901 20.5204 24.1944 20.6052 24.1822 20.6884C24.17 20.7716 24.1415 20.8515 24.0984 20.9237C24.0553 20.9959 23.9984 21.0589 23.9309 21.1091C23.3837 21.5164 22.8599 21.8813 22.3515 22.2344C21.619 22.7466 20.9262 23.2272 20.1894 23.8138C20.0767 23.9042 19.9365 23.9536 19.792 23.9538Z" fill="white"/>
<path d="M21.6258 25.3317C21.5245 25.3318 21.4247 25.308 21.3345 25.262C21.2442 25.2161 21.1662 25.1494 21.1067 25.0675C21.0175 24.9441 20.8399 24.6871 20.6414 24.3994C20.352 23.9811 19.9922 23.4603 19.8449 23.2687C19.7415 23.1339 19.6959 22.9636 19.7182 22.7952C19.7404 22.6268 19.8286 22.4741 19.9633 22.3707C20.0981 22.2674 20.2684 22.2218 20.4368 22.244C20.6052 22.2662 20.7579 22.3544 20.8613 22.4892C21.0277 22.7065 21.382 23.2191 21.6945 23.6712C21.8866 23.9491 22.0578 24.1967 22.144 24.3153C22.2133 24.4109 22.2549 24.5237 22.2641 24.6414C22.2733 24.7591 22.2498 24.8771 22.1962 24.9822C22.1426 25.0874 22.0609 25.1757 21.9603 25.2374C21.8596 25.2991 21.7438 25.3317 21.6258 25.3317Z" fill="white"/>
<path d="M24.1699 22.9767C24.0667 22.9767 23.965 22.9517 23.8735 22.9039C23.782 22.8561 23.7034 22.7869 23.6445 22.7022C23.4682 22.4491 23.1322 22.0068 22.8582 21.6512L22.5961 21.3068C22.5434 21.2398 22.5047 21.1631 22.4821 21.081C22.4595 20.9989 22.4535 20.9131 22.4644 20.8287C22.4754 20.7442 22.5031 20.6628 22.5459 20.5892C22.5886 20.5156 22.6457 20.4512 22.7137 20.3999C22.7816 20.3486 22.8591 20.3114 22.9417 20.2904C23.0242 20.2694 23.1101 20.2651 23.1943 20.2778C23.2785 20.2904 23.3593 20.3197 23.4321 20.3639C23.5048 20.4081 23.568 20.4665 23.618 20.5354L23.8741 20.8735C24.1533 21.2393 24.5008 21.6939 24.6933 21.9701C24.7601 22.066 24.7995 22.1783 24.807 22.2949C24.8146 22.4116 24.7901 22.5281 24.7362 22.6317C24.6822 22.7354 24.601 22.8224 24.5012 22.8832C24.4014 22.944 24.2868 22.9763 24.1699 22.9767Z" fill="white"/>
<path d="M21.2519 25.6804C21.1235 25.6803 20.9981 25.6416 20.8919 25.5694C20.7858 25.4971 20.7039 25.3946 20.6568 25.2752C20.6096 25.1557 20.5995 25.0249 20.6277 24.8996C20.6558 24.7744 20.721 24.6605 20.8148 24.5727C21.4394 23.9885 22.0663 23.4064 22.6955 22.8264C23.1836 22.3751 23.6706 21.9236 24.1567 21.4719C24.2812 21.3562 24.4466 21.2946 24.6166 21.3008C24.7865 21.307 24.947 21.3805 25.0627 21.505C25.1785 21.6296 25.24 21.795 25.2338 21.9649C25.2276 22.1348 25.1542 22.2953 25.0296 22.4111C24.5422 22.865 24.054 23.3174 23.5651 23.7685C22.939 24.3476 22.3138 24.9281 21.6894 25.5101C21.5705 25.6205 21.4141 25.6814 21.2519 25.6804Z" fill="white"/>
<path d="M33.5273 35.3887C33.4278 35.3889 33.3297 35.3659 33.2408 35.3214C33.1519 35.2769 33.0745 35.2123 33.015 35.1326C30.0189 31.1158 26.6705 26.3152 24.0547 22.2894C24.0065 22.219 23.973 22.1396 23.956 22.056C23.9389 21.9724 23.9388 21.8862 23.9556 21.8025C23.9723 21.7189 24.0056 21.6394 24.0535 21.5688C24.1014 21.4981 24.163 21.4378 24.2345 21.3913C24.3061 21.3448 24.3862 21.3131 24.4702 21.298C24.5542 21.283 24.6404 21.2848 24.7236 21.3035C24.8069 21.3222 24.8856 21.3573 24.9551 21.4069C25.0245 21.4564 25.0834 21.5193 25.1282 21.5919C27.7283 25.5955 31.0617 30.3709 34.0382 34.3655C34.1096 34.4606 34.153 34.5738 34.1637 34.6922C34.1744 34.8106 34.1519 34.9297 34.0987 35.0361C34.0455 35.1424 33.9638 35.2319 33.8626 35.2944C33.7615 35.3569 33.6449 35.39 33.526 35.39L33.5273 35.3887Z" fill="white"/>
<path d="M30.1422 38.3012C30.0483 38.3012 29.9555 38.2806 29.8705 38.2408C29.7854 38.2009 29.7102 38.1429 29.6501 38.0707C27.4784 35.359 25.4514 32.5347 23.5774 29.6093C22.6469 28.2118 21.6847 26.7664 20.7285 25.4094C20.6801 25.3406 20.6456 25.263 20.6272 25.1809C20.6087 25.0989 20.6066 25.014 20.6209 24.9311C20.6353 24.8482 20.6658 24.769 20.7108 24.6979C20.7558 24.6268 20.8143 24.5653 20.8831 24.5168C20.9518 24.4683 21.0294 24.4339 21.1115 24.4154C21.1936 24.397 21.2785 24.3949 21.3613 24.4092C21.4442 24.4235 21.5235 24.4541 21.5946 24.4991C21.6656 24.544 21.7272 24.6026 21.7756 24.6713C22.7416 26.0428 23.7081 27.4951 24.6438 28.8994C26.4926 31.7869 28.4921 34.5751 30.634 37.2524C30.7119 37.3459 30.7615 37.4596 30.777 37.5803C30.7926 37.7009 30.7735 37.8235 30.7219 37.9337C30.6703 38.0439 30.5883 38.1371 30.4857 38.2024C30.383 38.2677 30.2639 38.3024 30.1422 38.3025V38.3012Z" fill="white"/>
<path d="M30.1422 38.3012C30.0122 38.3016 29.8851 38.2624 29.7779 38.1888C29.6707 38.1151 29.5884 38.0106 29.5421 37.8891C29.4957 37.7676 29.4875 37.6348 29.5184 37.5085C29.5494 37.3822 29.6181 37.2683 29.7154 37.182C29.957 36.9685 30.196 36.7551 30.4351 36.5383C31.2939 35.7665 32.1822 34.9682 33.1367 34.2383C33.2036 34.1872 33.2799 34.1497 33.3612 34.1281C33.4426 34.1064 33.5274 34.101 33.6108 34.1122C33.6943 34.1233 33.7747 34.1508 33.8475 34.193C33.9203 34.2352 33.9841 34.2914 34.0353 34.3582C34.0864 34.4251 34.1238 34.5014 34.1455 34.5828C34.1671 34.6641 34.1725 34.7489 34.1614 34.8324C34.1502 34.9158 34.1228 34.9962 34.0806 35.0691C34.0383 35.1419 33.9822 35.2057 33.9153 35.2568C33.0014 35.9564 32.1707 36.7026 31.2918 37.4923C31.051 37.7083 30.8091 37.9246 30.5661 38.1411C30.4491 38.2444 30.2983 38.3013 30.1422 38.3012Z" fill="white"/>
<path d="M11.1539 14.4743C10.984 14.4776 10.8199 14.4133 10.6975 14.2955C10.5751 14.1778 10.5045 14.0162 10.5012 13.8464C10.4979 13.6766 10.5622 13.5124 10.68 13.39C10.7977 13.2676 10.9593 13.197 11.1291 13.1937C13.3061 13.1084 15.6232 13.0358 18.642 12.9581C18.8118 12.9537 18.9764 13.0169 19.0996 13.1339C19.2228 13.2508 19.2945 13.4119 19.2989 13.5818C19.3033 13.7516 19.2401 13.9162 19.1232 14.0394C19.0062 14.1626 18.8451 14.2343 18.6753 14.2387C15.6637 14.3164 13.3518 14.389 11.1808 14.4739L11.1539 14.4743Z" fill="white"/>
</svg>
