<svg xmlns="http://www.w3.org/2000/svg" xmlns:xlink="http://www.w3.org/1999/xlink" version="1.1" x="0px" y="0px" viewBox="0 0 100 125" enable-background="new 0 0 100 100" xml:space="preserve"><g><path d="M53.24,0C42.992,0,38.935,9.125,41.078,17.116c2.91,10.88-7.905,16.932-10.362,18.472   c-9.459,5.909-8.355,12.554-9.302,13.964c-1.199-2.972-4.112-5.074-7.514-5.074c-4.479,0-8.114,3.629-8.114,8.108v32.321   c0,4.477,3.635,8.114,8.114,8.114c4.018,0,7.343-2.928,7.983-6.769C26.079,92.189,38.039,100,48.384,100h15.305   c7.46,0,13.515-6.052,13.515-13.515c0-1.045-0.128-2.054-0.354-3.024c0.229-0.416,0.447-0.843,0.651-1.268   c6.267-1.176,11.014-6.665,11.014-13.272c0-2.602-0.743-5.009-2.009-7.074c4.554-2.172,7.708-6.802,7.708-12.185   c0-7.466-6.052-13.514-13.518-13.514H61.233c4.729-4.727,4.389-12.346,4.389-18.923C65.622,9.763,60.698,0,53.24,0 M53.24,6.58   c2.395,0,5.803,5.506,5.803,10.645v1.265c0.016,5.166,0.034,10.508-2.461,13.003c-1.885,1.881-2.445,4.712-1.432,7.172   c1.02,2.46,3.421,4.062,6.083,4.062h19.463c3.824,0,6.938,3.111,6.938,6.935c0,2.687-1.521,5.08-3.96,6.247   c-1.683,0.8-2.947,2.278-3.479,4.067c-0.528,1.789-0.276,3.719,0.698,5.306c0.689,1.128,1.039,2.351,1.039,3.64   c0,3.328-2.375,6.191-5.646,6.805c-2.062,0.385-3.812,1.73-4.719,3.618c-0.154,0.321-0.317,0.637-0.488,0.948   c-0.779,1.419-1.009,3.076-0.645,4.654c0.126,0.533,0.188,1.038,0.188,1.539c0,3.823-3.11,6.935-6.935,6.935H48.384   c-8.042,0-18.043-6.6-21.127-10.966c-1.25-1.769-3.269-2.779-5.374-2.779c-0.487,0-0.978,0.051-1.468,0.163   c-2.601,0.598-4.584,2.702-5.022,5.333c-0.106,0.63-0.651,1.27-1.493,1.27c-0.844,0-1.533-0.688-1.533-1.532V52.587   c0-0.841,0.688-1.528,1.533-1.528c0.756,0,1.234,0.517,1.411,0.957c0.914,2.259,2.998,3.829,5.421,4.083l0.681,0.032   c2.178,0,4.232-1.079,5.462-2.908c0.96-1.43,1.241-2.9,1.468-4.079c0.417-2.185,0.938-4.9,5.868-7.981l0.338-0.208   c13.996-8.611,14.73-18.639,12.883-25.542c-0.677-2.539-0.303-5.156,0.979-6.829C49.446,7.238,51.024,6.58,53.24,6.58"/><path d="M45.909,69.25H32.228c-1.396,0-2.53-1.135-2.53-2.531c0-1.397,1.134-2.532,2.53-2.532h13.681   c1.396,0,2.532,1.135,2.532,2.532C48.441,68.115,47.306,69.25,45.909,69.25"/><path d="M32.355,61.481c-1.117,0-2.137-0.744-2.443-1.87c-0.365-1.351,0.433-2.741,1.781-3.105l13.436-3.636   c1.356-0.378,2.736,0.434,3.105,1.782c0.365,1.351-0.433,2.739-1.782,3.104l-13.436,3.637L32.355,61.481z"/><path d="M45.791,81.119l-0.662-0.088l-13.436-3.634c-1.349-0.365-2.146-1.755-1.781-3.104c0.364-1.346,1.755-2.154,3.104-1.783   l13.436,3.634c1.349,0.365,2.147,1.755,1.783,3.104C47.931,80.376,46.909,81.119,45.791,81.119"/></g><text x="0" y="115" fill="#000000" font-size="5px" font-weight="bold" font-family="'Helvetica Neue', Helvetica, Arial-Unicode, Arial, Sans-serif">Created by Slava Strizh</text><text x="0" y="120" fill="#000000" font-size="5px" font-weight="bold" font-family="'Helvetica Neue', Helvetica, Arial-Unicode, Arial, Sans-serif">from the Noun Project</text></svg>