<svg xmlns="http://www.w3.org/2000/svg" data-name="Your Icon" viewBox="0 0 100 125" x="0px" y="0px"><title>Noun_Project_MASTERFILE_10px_grid</title><g data-name="STROKE E20BAC6D-4275-4A50-9B26-3304E9D09021"><path d="M38.389,53.809c-7.9,0-16.986-4.077-20.209-12.4a19.257,19.257,0,0,1-.31-13.468,36.223,36.223,0,0,1,6.187-11,20.344,20.344,0,0,1,4.8-4.432,15.868,15.868,0,0,1,6.607-2.185,22.145,22.145,0,0,1,12.547,2.25c6.393,3.091,10.818,6.683,13.152,10.678,2.926,5.007,1.605,11.343-.607,15.6a29.212,29.212,0,0,1-8.138,10.2A23.7,23.7,0,0,1,40,53.751Q39.206,53.808,38.389,53.809ZM37.969,13.2a21.709,21.709,0,0,0-2.207.113,13.021,13.021,0,0,0-5.35,1.763,17.808,17.808,0,0,0-4.07,3.814,33.3,33.3,0,0,0-5.65,10.075,16.485,16.485,0,0,0,.285,11.368c2.919,7.533,11.677,10.946,18.808,10.43a20.968,20.968,0,0,0,10.821-4.1,26.326,26.326,0,0,0,7.283-9.188c1.76-3.389,2.993-8.749.68-12.708-2-3.427-6.113-6.712-11.89-9.5l-.045-.023A18.58,18.58,0,0,0,37.969,13.2Z"/></g><g data-name="STROKE 258E0151-9792-45C8-92A5-F482D5D9E34A"><path d="M49.514,56.189a1.5,1.5,0,0,1-1.258-.681c-.643-.989-1.788-2.725-2.709-4.111a1.5,1.5,0,0,1,2.5-1.661c.927,1.4,2.078,3.14,2.725,4.135a1.5,1.5,0,0,1-1.256,2.318Z"/></g><g data-name="STROKE C33F4BFA-B576-46C9-B215-2645C68B7972"><path d="M58.315,49.822a1.5,1.5,0,0,1-1.184-.578l-1.217-1.573c-.664-.86-1.367-1.771-1.886-2.429a1.5,1.5,0,1,1,2.355-1.857c.525.664,1.235,1.584,1.906,2.453L59.5,47.4a1.5,1.5,0,0,1-1.183,2.422Z"/></g><g data-name="STROKE C41CC50D-FC6E-4D25-8B2B-44C6CF0DB032"><path d="M49.514,56.189a1.5,1.5,0,0,1-.935-2.672c1.8-1.436,3.539-2.646,5.22-3.817,1.167-.814,2.375-1.656,3.62-2.582a1.5,1.5,0,0,1,1.791,2.407c-1.282.954-2.509,1.809-3.7,2.636-1.716,1.2-3.339,2.326-5.065,3.7A1.49,1.49,0,0,1,49.514,56.189Z"/></g><g data-name="STROKE F9DDF040-8C82-43B4-805D-CFCBAE7D4211"><path d="M53.81,59.417a1.5,1.5,0,0,1-1.216-.619c-.209-.289-.625-.891-1.09-1.565-.678-.98-1.521-2.2-1.866-2.649a1.5,1.5,0,1,1,2.381-1.826c.39.509,1.22,1.71,1.952,2.769.45.651.851,1.231,1.053,1.509a1.5,1.5,0,0,1-1.214,2.381Z"/></g><g data-name="STROKE 91DB9345-8C35-49E2-AD22-EB2D215D6B6E"><path d="M59.77,53.9a1.5,1.5,0,0,1-1.231-.643c-.413-.593-1.2-1.629-1.842-2.462l-.614-.807a1.5,1.5,0,1,1,2.394-1.807l.6.792c.654.857,1.468,1.922,1.919,2.569A1.5,1.5,0,0,1,59.77,53.9Z"/></g><g data-name="STROKE 24C0B867-BE18-4551-A339-83DC991941F2"><path d="M52.934,60.234a1.5,1.5,0,0,1-1.024-2.595q2.195-2.053,4.406-4.091,1.715-1.586,3.423-3.173a1.5,1.5,0,1,1,2.045,2.2q-1.713,1.595-3.431,3.18-2.2,2.035-4.394,4.08A1.494,1.494,0,0,1,52.934,60.234Z"/></g><g data-name="STROKE 7DEC89D9-C678-47AA-BA6B-79E52AD9EDDC"><path d="M81.691,82.977a1.494,1.494,0,0,1-1.2-.6C73.472,72.967,65.628,61.721,59.5,52.29a1.5,1.5,0,1,1,2.515-1.634c6.091,9.379,13.9,20.566,20.873,29.924a1.5,1.5,0,0,1-1.2,2.4Z"/></g><g data-name="STROKE 2FA8417D-52C1-4A3D-9671-2AB610BB6B48"><path d="M73.761,89.8a1.5,1.5,0,0,1-1.153-.54A231.275,231.275,0,0,1,58.382,69.438c-2.18-3.274-4.434-6.66-6.674-9.839a1.5,1.5,0,1,1,2.453-1.729c2.263,3.213,4.527,6.615,6.719,9.905A228.936,228.936,0,0,0,74.913,87.343a1.5,1.5,0,0,1-1.152,2.46Z"/></g><g data-name="STROKE BCAE9E1B-BBBD-412B-855E-2E2436B6B96C"><path d="M73.761,89.8a1.5,1.5,0,0,1-1-2.622c.566-.5,1.126-1,1.686-1.508,2.012-1.808,4.093-3.678,6.329-5.388A1.5,1.5,0,1,1,82.6,82.668c-2.141,1.639-4.087,3.387-6.146,5.237q-.846.759-1.7,1.52A1.5,1.5,0,0,1,73.761,89.8Z"/></g><g data-name="STROKE AE32538A-479E-4876-8254-1FD51DCD6CEE"><path d="M38.309,43.852h-.057a1.5,1.5,0,0,1-1.443-1.557c.234-6.139.556-13.408,1.176-20.762a1.5,1.5,0,0,1,2.99.252c-.615,7.294-.935,14.519-1.168,20.625A1.5,1.5,0,0,1,38.309,43.852Z"/></g><g data-name="STROKE ADCEA1E0-FD3E-4207-84AA-E7238CE89077"><path d="M29.278,33.982a1.5,1.5,0,0,1-.058-3c5.1-.2,10.528-.37,17.6-.552a1.481,1.481,0,0,1,1.538,1.461A1.5,1.5,0,0,1,46.9,33.43c-7.055.182-12.471.352-17.557.551Z"/></g><text x="0" y="115" fill="#000000" font-size="5px" font-weight="bold" font-family="'Helvetica Neue', Helvetica, Arial-Unicode, Arial, Sans-serif">Created by Insticon</text><text x="0" y="120" fill="#000000" font-size="5px" font-weight="bold" font-family="'Helvetica Neue', Helvetica, Arial-Unicode, Arial, Sans-serif">from the Noun Project</text></svg>