<svg xmlns="http://www.w3.org/2000/svg" xmlns:xlink="http://www.w3.org/1999/xlink" width="100" height="100" viewBox="0 0 100 100"><g><rect width="100%" height="100%" fill="#F3F3F3"></rect><g transform="translate(50 50) scale(0.69 0.69) rotate(0) translate(-50 -50)" style="fill:#000000"><svg fill="#000000" xmlns="http://www.w3.org/2000/svg" xmlns:xlink="http://www.w3.org/1999/xlink" version="1.1" x="0px" y="0px" viewBox="0 0 100 100" enable-background="new 0 0 100 100" xml:space="preserve"><g display="none"><g display="inline"><path d="M81.775,48.962c-0.144-0.082-0.293-0.152-0.448-0.209c-0.069-0.026-6.984-2.635-11.027-8.182    c-2.362-3.241-5.873-6.074-9.591-9.073c-4.118-3.323-8.377-6.759-11.229-10.891c-1.768-2.558-3.026-5-4.138-7.156    C43.282,9.453,41.503,6,37.732,6c-1.161,0-2.308,0.361-3.507,1.105c-2.508,1.555-4.133,4.244-4.575,7.571    c-0.696,5.228,1.6,11.255,6.144,16.123c2.959,3.17,3.438,5.646,2.948,6.802c-0.51,1.207-2.345,1.957-4.907,2.007    c-0.894,0.018-1.799,0.024-2.7,0.031c-6.439,0.049-12.521,0.094-15.917,3.63c-1.551,1.616-2.295,3.715-2.211,6.238    c0.109,3.292,1.131,5.511,2.56,6.896c-0.546,0.865-0.98,1.873-1.193,3.037c-0.516,2.828,0.424,5.742,2.795,8.688    c-0.722,1.229-1.319,2.854-1.18,4.774c0.188,2.574,1.619,4.892,4.262,6.9c0.042,1.883,0.476,4.744,2.369,7.316    c1.969,2.676,4.956,4.322,8.878,4.895c1.739,0.256,3.571,0.381,5.603,0.381c4.923,0,10.096-0.762,14.659-1.434    c3.879-0.57,7.54-1.109,10.442-1.109h0.679c7.508,0,12.04,0,14.189-6.324c0.221-0.645,0.832-2.024,1.539-3.62    C82.947,70.121,90.208,53.742,81.775,48.962z M78.624,62.664c-1.365,5.107-3.938,10.91-5.64,14.748    c-0.832,1.875-1.432,3.23-1.739,4.135c-0.647,1.91-0.731,2.152-8.365,2.152h-0.679c-3.354,0-7.23,0.572-11.338,1.178    c-4.567,0.67-9.29,1.365-13.764,1.365c-1.729,0-3.271-0.102-4.711-0.314c-4.005-0.584-5.399-2.744-5.835-4.615h3.389    c1.698,0,3.076-1.377,3.076-3.078c0-1.696-1.378-3.075-3.076-3.075h-5.616c-1.339-0.941-2.133-1.9-2.199-2.685    c-0.043-0.492,0.194-1.004,0.462-1.41H35.26c1.699,0,3.077-1.377,3.077-3.075c0-1.699-1.378-3.078-3.077-3.078H22.513    c-1.542-1.705-2.283-3.226-2.089-4.347c0.188-1.094,1.309-1.985,2.038-2.434H38.19c1.699,0,3.077-1.377,3.077-3.076    s-1.378-3.076-3.077-3.076H22.442c-0.188-0.039-0.38-0.065-0.575-0.065c-0.343,0-0.693,0.063-1.039,0.19    c-0.002,0-0.182,0.045-0.419,0.045c-0.287,0-1.158,0-1.253-2.843c-0.035-1.072,0.249-1.511,0.5-1.772    c1.598-1.664,7.102-1.705,11.524-1.738c0.927-0.007,1.856-0.014,2.774-0.031c5.138-0.102,8.948-2.202,10.455-5.763    c1.662-3.93,0.161-8.813-4.118-13.398c-3.886-4.164-4.895-8.47-4.543-11.112c0.113-0.85,0.488-2.39,1.72-3.154    c0.035-0.022,0.068-0.042,0.099-0.059c0.603,0.69,1.537,2.502,2.306,3.995c1.137,2.205,2.552,4.951,4.543,7.834    c3.36,4.864,8.18,8.752,12.43,12.182c3.393,2.738,6.598,5.323,8.481,7.909c4.604,6.319,11.844,9.516,13.521,10.192    C79.494,54.938,80.086,57.193,78.624,62.664z"></path></g></g><g display="none"><g display="inline"><path fill="#000000" d="M15.573,68.955c-0.333,1.031-0.504,2.113-0.504,3.232c0,3.787,1.936,7.028,4.753,8.226    c-0.34,1.031-0.511,2.121-0.511,3.247c0,4.906,3.145,8.751,7.161,8.751h9.244c0.413,0,0.84-0.049,1.266-0.14    c0.218,0.055,0.44,0.077,0.656,0.077h11.521c7.203,0,14.521-4.506,19.677-12.08h11.817c1.671,0,3.031-1.358,3.033-3.029    l0.064-30.552c0.003-0.812-0.313-1.577-0.889-2.151c-0.569-0.573-1.333-0.89-2.146-0.89H67.4    c-2.918-2.17-9.451-7.135-13.622-11.077c-3.505-3.309-6.245-4.995-8.249-6.225c-1.3-0.801-2.237-1.377-2.881-2.071    c-4.288-4.616-3.807-8.956-3.783-9.139c0.123-0.875-0.145-1.769-0.746-2.438c-0.564-0.632-1.407-1.001-2.307-1.009    c-3.55,0.105-10.437,2.63-11.418,11.431c-0.51,4.608,2.004,10.4,7.484,17.241h-9.653c-4.016,0-7.162,3.843-7.162,8.749    c0,1.193,0.196,2.365,0.571,3.452c-2.786,1.217-4.695,4.445-4.695,8.204C10.941,64.544,12.789,67.721,15.573,68.955z     M22.189,68.387h16.25c1.038,0.038,2.18,1.646,2.18,3.799c0,2.178-1.17,3.802-2.216,3.802H22.227    c-1.045,0-2.216-1.624-2.216-3.802C20.011,70.032,21.153,68.425,22.189,68.387z M24.254,83.66c0-2.174,1.171-3.799,2.216-3.799    h9.244c0.075,0,0.154,0.025,0.23,0.043c0.108,0.17,0.246,0.329,0.419,0.457c0.606,0.451,1.063,1.081,1.369,1.802    c0.125,0.452,0.198,0.957,0.198,1.497c0,2.177-1.169,3.805-2.216,3.805H26.47C25.425,87.465,24.254,85.837,24.254,83.66z     M18.102,64.566c-1.049,0-2.219-1.629-2.219-3.802c0-2.178,1.17-3.805,2.219-3.805h22.115c1.046,0,2.218,1.627,2.218,3.805    c0,2.173-1.171,3.802-2.218,3.802h-1.704c-0.038,0-0.074-0.008-0.11-0.008H22.227c-0.038,0-0.075,0.008-0.11,0.008H18.102z     M20.011,49.109c0-2.176,1.168-3.803,2.216-3.803h16.176c1.046,0,2.216,1.627,2.216,3.803c0,2.174-1.17,3.802-2.216,3.802H22.227    C21.182,52.911,20.011,51.283,20.011,49.109z M29.312,23.664c0.477-4.287,2.896-5.961,4.673-6.617    c0.26,2.536,1.321,6.585,5.04,10.592c1.105,1.19,2.407,1.99,3.917,2.918c1.921,1.182,4.313,2.653,7.439,5.606    c4.829,4.56,12.614,10.378,14.883,12.053c0.33,0.242,0.726,0.375,1.135,0.375h12.406l-0.057,26.732H67.122    c-0.85,0-1.568,0.552-1.817,1.316c-3.351,5.264-9.284,10.764-16.145,10.764h-7.822c0.412-1.023,0.632-2.137,0.632-3.276    c0-1.146-0.221-2.259-0.629-3.282c-0.104-0.336-0.224-0.658-0.361-0.967c2.575-1.355,4.309-4.169,4.309-7.423    c0-1.762-0.513-3.434-1.433-4.814c1.299-0.954,2.3-2.332,2.859-3.929c2.178,1.99,5.112,3.484,9.032,4.045    c0.09,0.015,0.182,0.021,0.271,0.021c0.937,0,1.755-0.687,1.888-1.64c0.149-1.048-0.578-2.014-1.62-2.163    c-8.705-1.243-10.85-8.071-11.289-12.664c0.176-0.704,0.289-1.434,0.289-2.188c0-0.729-0.115-1.427-0.281-2.103    c0.052-0.565-0.146-1.097-0.511-1.484c-1.056-2.351-3.095-4.104-5.572-4.554C32.471,33.921,28.888,27.477,29.312,23.664z"></path></g></g><g display="none"><g display="inline"><path d="M33.985,17.047c0.057,2.453,1.132,5.487,2.307,7.37c1.13,1.811,4.206,4.94,7.594,6.725s7.607,6.256,11.857,9.687    c3.393,2.738,7.523,6.243,10.132,7.422s11.927,0.229,12.846,1.025c1.654,1.433,1.365,7.918-0.097,13.389    c-1.365,5.107-5.183,9.229-5.64,14.748c-0.352,4.238-2.375,4.287-9.589,4.287c-0.169,0-0.341,0-0.516,0h-0.679    c-3.354,0-7.23,2.572-11.338,3.178c-2.392,0.351-5.087,0.435-8.538,0.435c-3.14,0-6.904-0.069-11.638-0.069    c-3.125,0-4.134-1.604-4.134-3.93c1.759,0,7.389,0,7.389,0c1.698,0,3.076-1.377,3.076-3.078c0-1.696-1.378-3.075-3.076-3.075    c0,0-7.151,0-9.275,0c-1.472,0-2.531-1.22-2.531-2.533c0-1.004,0.313-1.198,0.677-1.562H37.26c1.699,0,3.077-1.377,3.077-3.075    c0-1.699-1.378-3.078-3.077-3.078c0,0-10.497,0-12.588,0c-2.812,0-4.248-1.608-4.248-3.548s1.031-3.232,1.031-3.232H38.19    c1.699,0,3.077-1.377,3.077-3.076s-1.378-3.076-3.077-3.076c0,0-14.775,0-15.748,0c-1.833,0-3.286-1.213-3.286-3.088    s1.344-3.096,3.286-3.096c2.496,0,6.591,0,11.512,0s6.775-2.565,4.968-4.812c-3.886-4.164-9.519-11.078-9.638-16.421    C29.156,18.844,31.562,17.688,33.985,17.047 M33.984,11.047c-0.512,0-1.027,0.065-1.534,0.199    c-6.244,1.651-9.328,6.176-9.165,13.449c0.098,4.354,2.359,9.416,6.738,15.1h-7.582c-5.294,0-9.286,3.91-9.286,9.096    c0,2.631,1.087,4.967,2.854,6.611c-0.714,1.22-1.586,3.246-1.586,5.861c0,2.736,1.114,5.135,2.964,6.844    c-0.682,1.016-1.252,2.424-1.252,4.419c0,3.259,1.836,6.098,4.528,7.534c-0.072,0.373-0.11,0.758-0.11,1.152    c0,5.939,4.073,9.93,10.134,9.93c2.589,0,4.886,0.021,6.947,0.04c1.712,0.015,3.265,0.029,4.691,0.029    c3.61,0,6.591-0.085,9.409-0.498c2.554-0.377,4.808-1.231,6.796-1.986c1.325-0.503,2.974-1.128,3.671-1.128h0.679h0.262h0.254    c4.045,0,6.967,0,9.466-0.933c3.676-1.373,5.729-4.354,6.103-8.859c0.167-2.02,1.208-4.058,2.413-6.418    c1.081-2.116,2.306-4.515,3.044-7.275c0.856-3.207,1.36-6.631,1.419-9.642c0.092-4.743-0.922-7.867-3.19-9.833    c-2.102-1.82-4.519-1.824-8.905-1.832c-1.604-0.003-4.529-0.008-5.591-0.219c-1.637-0.835-4.989-3.562-7.238-5.392    c-0.478-0.389-0.947-0.771-1.404-1.139c-1.388-1.12-2.839-2.421-4.242-3.679c-2.954-2.648-5.745-5.15-8.586-6.646    c-2.414-1.272-4.7-3.631-5.301-4.594c-0.73-1.171-1.371-3.155-1.398-4.333c-0.043-1.837-0.925-3.553-2.394-4.657    C36.539,11.461,35.271,11.047,33.984,11.047L33.984,11.047z"></path></g></g><g><path d="M32.325,11.214c0.065,2.794,1.29,6.251,2.628,8.395c1.288,2.063,4.791,5.628,8.651,7.661   c3.859,2.034,8.666,7.127,13.507,11.035c3.864,3.119,8.57,7.111,11.541,8.455c2.972,1.343,13.587,0.261,14.634,1.167   c1.884,1.632,1.556,9.019-0.11,15.251c-1.555,5.818-5.903,10.513-6.425,16.802c-0.399,4.828-2.705,4.883-10.926,4.883   c-0.192,0-0.387,0-0.585,0h-0.772c-3.82,0-8.236,2.931-12.916,3.62c-2.725,0.399-5.796,0.495-9.728,0.495   c-3.576,0-7.863-0.079-13.255-0.079c-3.56,0-4.71-1.827-4.71-4.477c2.004,0,8.417,0,8.417,0c1.935,0,3.504-1.568,3.504-3.506   c0-1.933-1.569-3.503-3.504-3.503c0,0-8.146,0-10.567,0c-1.677,0-2.882-1.391-2.882-2.887c0-1.144,0.357-1.364,0.771-1.779h16.458   c1.936,0,3.505-1.567,3.505-3.502c0-1.937-1.57-3.507-3.505-3.507c0,0-11.958,0-14.34,0c-3.204,0-4.84-1.833-4.84-4.041   c0-2.21,1.175-3.683,1.175-3.683h19.064c1.935,0,3.505-1.569,3.505-3.505s-1.57-3.504-3.505-3.504c0,0-16.831,0-17.939,0   c-2.088,0-3.744-1.381-3.744-3.518s1.531-3.526,3.744-3.526c2.843,0,7.508,0,13.114,0s7.718-2.923,5.66-5.483   c-4.427-4.743-10.843-12.619-10.979-18.706C26.824,13.261,29.565,11.943,32.325,11.214 M32.324,5.214   c-0.512,0-1.027,0.065-1.533,0.199c-6.691,1.769-9.995,6.646-9.82,14.495c0.115,5.121,2.992,11.179,8.564,18.055h-10.36   c-5.555,0-9.744,4.095-9.744,9.526c0,3,1.353,5.636,3.508,7.367c-0.743,1.118-2.064,3.565-2.064,6.842   c0,3.192,1.373,5.905,3.649,7.702c-0.867,1.075-1.699,2.67-1.699,5.127c0,3.624,2.179,6.749,5.296,8.13   c-0.172,0.559-0.264,1.151-0.264,1.766c0,6.364,4.204,10.477,10.71,10.477c2.944,0,5.587,0.024,7.92,0.045   c1.947,0.018,3.713,0.034,5.335,0.034c4.077,0,7.439-0.096,10.598-0.559c2.82-0.415,5.344-1.373,7.569-2.218   c1.654-0.627,3.529-1.339,4.477-1.339h0.772h0.297h0.288c4.689,0,7.788,0,10.493-1.01c3.858-1.44,6.016-4.595,6.412-9.378   c0.204-2.465,1.425-4.855,2.838-7.623c1.212-2.374,2.586-5.064,3.404-8.125c0.945-3.536,1.524-7.467,1.588-10.783   c0.1-5.135-0.964-8.488-3.346-10.552c-2.159-1.87-4.646-1.875-9.601-1.883c-1.926-0.003-5.465-0.01-6.642-0.288   c-1.92-0.939-5.715-4.027-8.506-6.297c-0.54-0.439-1.07-0.871-1.587-1.288c-1.6-1.291-3.262-2.781-4.87-4.222   c-3.324-2.98-6.465-5.795-9.608-7.452c-2.884-1.519-5.631-4.364-6.359-5.53c-0.914-1.463-1.685-3.866-1.719-5.357   c-0.043-1.836-0.925-3.553-2.394-4.657C34.879,5.628,33.611,5.214,32.324,5.214L32.324,5.214z"></path></g><g display="none"><path display="inline" fill="none" stroke="#000000" stroke-miterlimit="10" d="M21.271,13.189   c0.592-5.311,3.588-7.386,5.789-8.198c0.322,3.142,1.637,8.158,6.245,13.121c1.369,1.474,2.982,2.466,4.852,3.615   c2.381,1.465,5.344,3.287,9.217,6.945c5.982,5.649,15.625,12.856,18.438,14.932c0.408,0.3,0.898,0.463,1.404,0.463h15.367   l-0.068,33.117H68.111c-1.051,0-1.943,0.684-2.252,1.631c-4.15,6.52-11.5,13.334-20,13.334H36.17   c0.51-1.268,0.783-2.647,0.783-4.059c0-1.421-0.273-2.799-0.779-4.066c-0.129-0.416-0.277-0.815-0.447-1.198   c3.189-1.679,5.338-5.164,5.338-9.193c0-2.183-0.635-4.254-1.775-5.966c1.609-1.182,2.85-2.889,3.541-4.867   c2.699,2.467,6.334,4.317,11.189,5.012c0.111,0.017,0.225,0.025,0.338,0.025c1.16,0,2.172-0.85,2.338-2.031   c0.186-1.296-0.717-2.494-2.008-2.679c-10.781-1.54-13.439-9.999-13.984-15.688c0.219-0.873,0.357-1.777,0.357-2.711   c0-0.903-0.143-1.768-0.348-2.605c0.064-0.7-0.182-1.358-0.633-1.838c-1.309-2.912-3.834-5.085-6.902-5.641   C25.185,25.896,20.746,17.911,21.271,13.189z"></path></g></svg></g></g></svg>