<svg xmlns="http://www.w3.org/2000/svg" data-name="Your Icon" viewBox="0 0 100 125" x="0px" y="0px"><title>Noun_Project_MASTERFILE_10px_grid</title><g data-name="STROKE 6A3CF1F3-CEDB-4528-9B0A-198D3878B5AD"><path d="M64.04,84.662c-.051,0-.1,0-.157-.008a1.5,1.5,0,0,1-1.337-1.647c.939-9.025,1.908-18.357,1.145-27.484a21.644,21.644,0,0,0-1.263-6.308A9.916,9.916,0,0,0,58.476,44.4a13.317,13.317,0,0,0-7.318-1.593,12.607,12.607,0,0,0-5.376,1.28,11.6,11.6,0,0,0-4.058,3.854c-2.944,4.232-4.53,9.532-4.993,16.681-.215,3.313-.3,6.7-.393,9.98-.074,2.815-.152,5.725-.307,8.593a1.521,1.521,0,0,1-1.58,1.417,1.5,1.5,0,0,1-1.416-1.579c.153-2.827.23-5.717.3-8.511.089-3.306.18-6.724.4-10.093.5-7.719,2.255-13.5,5.524-18.2a14.653,14.653,0,0,1,5.12-4.793,15.517,15.517,0,0,1,6.654-1.625,16.213,16.213,0,0,1,9,2.024,12.8,12.8,0,0,1,5.178,6.258,24.341,24.341,0,0,1,1.472,7.182c.786,9.408-.2,18.882-1.15,28.044A1.5,1.5,0,0,1,64.04,84.662Z"/></g><g data-name="STROKE CE50713E-FFBB-4A52-A8D6-48E625170007"><path d="M52.172,38.678a17.87,17.87,0,0,1-5.026-.752A11.4,11.4,0,0,1,42,35.065,9.207,9.207,0,0,1,39.514,29.3a11.981,11.981,0,0,1,1.2-5.947,14.425,14.425,0,0,1,10.719-7.994,1.5,1.5,0,0,1,1.71,1.254,1.522,1.522,0,0,1,0,.452,13,13,0,0,1,1.9-.385,8.374,8.374,0,0,1,5.3.984c3.039,1.82,3.84,5.4,4.047,7.368a12.846,12.846,0,0,1-2.011,8.777,11.826,11.826,0,0,1-7.08,4.539A14.458,14.458,0,0,1,52.172,38.678ZM49.5,18.981a11.585,11.585,0,0,0-6.078,5.652,9,9,0,0,0-.917,4.45,6.3,6.3,0,0,0,1.651,3.9,8.559,8.559,0,0,0,3.835,2.07,13.487,13.487,0,0,0,6.661.369,8.809,8.809,0,0,0,5.281-3.342,9.877,9.877,0,0,0,1.476-6.733c-.12-1.138-.612-3.914-2.6-5.108a5.4,5.4,0,0,0-3.4-.578,15.089,15.089,0,0,0-3.9,1.177,1.5,1.5,0,0,1-2-1.852Z"/></g><text x="0" y="115" fill="#000000" font-size="5px" font-weight="bold" font-family="'Helvetica Neue', Helvetica, Arial-Unicode, Arial, Sans-serif">Created by Insticon</text><text x="0" y="120" fill="#000000" font-size="5px" font-weight="bold" font-family="'Helvetica Neue', Helvetica, Arial-Unicode, Arial, Sans-serif">from the Noun Project</text></svg>