<svg xmlns="http://www.w3.org/2000/svg" xmlns:xlink="http://www.w3.org/1999/xlink" version="1.1" x="0px" y="0px" viewBox="0 0 100 125" enable-background="new 0 0 100 100" xml:space="preserve"><path d="M84.754,55.533c0.942-1.368,1.496-3.022,1.496-4.805v-0.5c0-4.687-3.813-8.5-8.5-8.5h-1.5h-14h-3.5  c-1.359,0-2.418-0.437-3.237-1.336c-1.537-1.687-1.903-4.534-1.773-5.932c0.222-2.378,1.325-5.671,2.494-9.157  c0.871-2.601,1.772-5.289,2.442-7.968c1.672-6.688-1.324-10.388-4.397-11.525c-3.706-1.37-9.279,0.331-12.802,7.38  c-0.086,0.189-8.703,19.02-12.332,24.691c-2.918,4.562-9.427,11.348-15.394,11.348c-1.381,0-2.5,1.119-2.5,2.5  c0,1.381,1.119,2.5,2.5,2.5c8.581,0,16.361-8.582,19.606-13.653c3.817-5.966,12.308-24.521,12.63-25.229  c1.994-3.986,4.867-5.472,6.557-4.848c1.494,0.553,1.998,2.76,1.281,5.624c-0.621,2.488-1.491,5.082-2.332,7.591  c-1.263,3.769-2.457,7.329-2.731,10.284c-0.201,2.16,0.216,6.647,3.056,9.763c0.885,0.97,1.924,1.711,3.089,2.21  c-0.729,1.254-1.155,2.706-1.155,4.258v0.5c0,2.34,0.951,4.461,2.485,6c-1.534,1.539-2.485,3.66-2.485,6v0.5  c0,3.031,1.601,5.689,3.996,7.195c-0.942,1.368-1.496,3.022-1.496,4.805v0.5c0,2.929,1.489,5.517,3.751,7.046  c-0.662,1.099-1.051,2.38-1.051,3.754v0.4c0,0.891,0.168,1.741,0.462,2.531c-0.796,0.032-1.464,0.063-2.043,0.091  c-2.707,0.125-3.053,0.143-5.719-0.29c-1.945-0.315-4.503-1.076-7.211-1.881c-4.968-1.478-10.6-3.151-15.689-3.151h-15  c-1.381,0-2.5,1.119-2.5,2.5s1.119,2.5,2.5,2.5h15c4.362,0,9.623,1.564,14.265,2.944c2.866,0.852,5.573,1.656,7.835,2.023  c1.982,0.321,2.99,0.431,4.246,0.431c0.692,0,1.46-0.033,2.508-0.082c2.52-0.118,6.737-0.316,16.146-0.316h2.7  c4.025,0,7.3-3.274,7.3-7.3v-0.4c0-1.417-0.412-2.736-1.113-3.856c2.182-1.54,3.613-4.076,3.613-6.943v-0.5  c0-1.782-0.554-3.437-1.496-4.805c2.396-1.506,3.996-4.164,3.996-7.195v-0.5C88.75,59.697,87.149,57.039,84.754,55.533z   M58.75,50.228c0-1.93,1.57-3.5,3.5-3.5h11.365h4.135c1.93,0,3.5,1.57,3.5,3.5v0.5c0,1.93-1.57,3.5-3.5,3.5h-15.5  c-1.93,0-3.5-1.57-3.5-3.5V50.228z M78.75,86.929c0,1.269-1.031,2.3-2.3,2.3h-8.001H66.25c-1.269,0-2.3-1.031-2.3-2.3v-0.4  c0-1.269,1.031-2.3,2.3-2.3h2.199h8.001c1.269,0,2.3,1.031,2.3,2.3V86.929z M81.25,75.729c0,1.93-1.57,3.5-3.5,3.5h-1.3h-10.2h-1.5  c-1.93,0-3.5-1.57-3.5-3.5v-0.5c0-1.93,1.57-3.5,3.5-3.5h13c1.93,0,3.5,1.57,3.5,3.5V75.729z M83.75,63.229c0,1.93-1.57,3.5-3.5,3.5  h-2.5h-13h-2.5c-1.93,0-3.5-1.57-3.5-3.5v-0.5c0-1.93,1.57-3.5,3.5-3.5h15.5h2.5c1.93,0,3.5,1.57,3.5,3.5V63.229z"/><text x="0" y="115" fill="#000000" font-size="5px" font-weight="bold" font-family="'Helvetica Neue', Helvetica, Arial-Unicode, Arial, Sans-serif">Created by Arthur Shlain</text><text x="0" y="120" fill="#000000" font-size="5px" font-weight="bold" font-family="'Helvetica Neue', Helvetica, Arial-Unicode, Arial, Sans-serif">from the Noun Project</text></svg>