<svg xmlns="http://www.w3.org/2000/svg" data-name="Your Icon" viewBox="0 0 100 125" x="0px" y="0px"><title>Noun_Project_MASTERFILE_10px_grid</title><g data-name="STROKE 722BDC39-2447-4BBF-A577-BAA4FEE046E4"><path d="M22.583,35.058a1.5,1.5,0,0,1-.115-2.995c10.741-.832,21.924-.764,32.739-.7q4.824.027,9.583.035c1.727-.044,3.713.079,5.646.157,2.406.1,4.892.2,6.943.147a1.5,1.5,0,1,1,.073,3c-2.149.046-4.684-.05-7.137-.15-1.968-.079-3.828-.154-5.467-.154h-.861c-2.91,0-5.847-.018-8.8-.035-10.754-.069-21.874-.135-32.487.686A1.177,1.177,0,0,1,22.583,35.058Z"/></g><g data-name="STROKE C6F0D454-524D-41DF-A6EF-053761FD66E8"><path d="M77.074,68.67h-.012a1.5,1.5,0,0,1-1.488-1.511c.049-5.982.117-12.366.185-18.709.057-5.194.113-10.361.157-15.257a1.5,1.5,0,0,1,1.5-1.487h.013a1.5,1.5,0,0,1,1.487,1.514c-.044,4.9-.1,10.066-.157,15.262-.068,6.341-.137,12.722-.185,18.7A1.5,1.5,0,0,1,77.074,68.67Z"/></g><g data-name="STROKE 92255FD9-243C-4AA9-8B32-53E0AEC6D81D"><path d="M77.076,68.67a1.673,1.673,0,0,1-.2-.012,139.806,139.806,0,0,0-17.794-.814l-2.564-.011c-2-.011-3.969-.047-5.926-.082-4.744-.085-9.226-.165-13.943.076-1.622.083-3.216.108-4.758.132a71.194,71.194,0,0,0-8.024.425,1.5,1.5,0,1,1-.377-2.976,74.683,74.683,0,0,1,8.355-.449c1.515-.023,3.082-.048,4.65-.128,4.82-.248,9.564-.163,14.152-.08,1.944.035,3.9.071,5.889.082l2.555.011a142.245,142.245,0,0,1,18.179.839,1.5,1.5,0,0,1-.2,2.987Z"/></g><g data-name="STROKE 1E4F7F43-C161-4B81-A3D9-B96032E01B54"><path d="M23.68,68.4h-.049a1.5,1.5,0,0,1-1.451-1.547c.222-7,.191-12.676-.1-17.865-.158-2.827-.344-5.539-.532-8.261-.159-2.326-.319-4.658-.463-7.075A1.5,1.5,0,0,1,22.5,32.061a1.482,1.482,0,0,1,1.586,1.408c.143,2.407.3,4.731.461,7.047.189,2.734.375,5.459.535,8.3.294,5.279.326,11.039.1,18.128A1.5,1.5,0,0,1,23.68,68.4Z"/></g><g data-name="STROKE 53206E65-84C7-4E2A-8FA1-608D9983509C"><path d="M50.561,52.977a1.485,1.485,0,0,1-.769-.213C40.9,47.439,31.728,41.563,21.744,34.8a1.5,1.5,0,1,1,1.681-2.484c9.939,6.731,19.068,12.578,27.908,17.874a1.5,1.5,0,0,1-.772,2.787Z"/></g><g data-name="STROKE C53E5BCB-91D3-4A7F-A44E-2AC6D8DEAA1B"><path d="M50.563,52.977a1.5,1.5,0,0,1-1-2.623l.289-.255A118.5,118.5,0,0,1,62.794,39.67a110.463,110.463,0,0,1,13.981-7.82,1.5,1.5,0,0,1,1.281,2.713,107.423,107.423,0,0,0-13.6,7.6A116.3,116.3,0,0,0,51.845,52.344l-.288.256A1.494,1.494,0,0,1,50.563,52.977Z"/></g><g data-name="STROKE 4EF736DB-79D1-475C-9732-F86957C98E37"><path d="M23.678,68.4a1.5,1.5,0,0,1-1.164-2.445c5.03-6.207,11.919-14.707,18.148-20.9a1.5,1.5,0,0,1,2.115,2.127c-6.114,6.08-12.944,14.509-17.933,20.662A1.5,1.5,0,0,1,23.678,68.4Z"/></g><g data-name="STROKE DEAC1D84-9B6A-4EC1-9555-29E36C384C1D"><path d="M77.075,68.67a1.5,1.5,0,0,1-1.154-.539C69.4,60.314,62.887,51.854,58.049,44.922a1.5,1.5,0,1,1,2.461-1.717c4.79,6.865,11.247,15.249,17.716,23a1.5,1.5,0,0,1-1.151,2.461Z"/></g><text x="0" y="115" fill="#000000" font-size="5px" font-weight="bold" font-family="'Helvetica Neue', Helvetica, Arial-Unicode, Arial, Sans-serif">Created by Insticon</text><text x="0" y="120" fill="#000000" font-size="5px" font-weight="bold" font-family="'Helvetica Neue', Helvetica, Arial-Unicode, Arial, Sans-serif">from the Noun Project</text></svg>