<svg xmlns="http://www.w3.org/2000/svg" data-name="Your Icon" viewBox="0 0 100 125" x="0px" y="0px"><title>Noun_Project_MASTERFILE_10px_grid</title><g data-name="STROKE 68889716-A90F-4B05-AC02-18C0E9DBF47F"><path d="M15.056,74.076h-.038a1.5,1.5,0,0,1-1.463-1.538c.168-6.766.316-14.087.466-21.4.148-7.261.3-14.519.461-21.233a1.5,1.5,0,0,1,3,.074c-.166,6.71-.314,13.964-.462,21.221-.149,7.322-.3,14.647-.465,21.418A1.5,1.5,0,0,1,15.056,74.076Z"/></g><g data-name="STROKE 56151648-D749-4FD3-9C4D-3D3D6E8076F1"><path d="M15.054,74.076a1.5,1.5,0,0,1-.078-3c21.148-1.114,42.968-1.5,64.068-1.871l4.926-.087H84a1.5,1.5,0,0,1,.026,3l-4.925.087c-21.076.371-42.869.756-63.964,1.868Z"/></g><g data-name="STROKE 86FD6A95-4C6A-4CC3-803A-54C7CE434CBD"><path d="M15.98,31.437a1.5,1.5,0,0,1-.193-2.987C31.534,26.391,48,26.3,63.931,26.209c6.917-.038,14.069-.078,20.968-.283a1.484,1.484,0,0,1,1.544,1.454,1.5,1.5,0,0,1-1.454,1.544c-6.936.206-14.107.246-21.041.285-15.836.089-32.21.181-47.772,2.215A1.444,1.444,0,0,1,15.98,31.437Z"/></g><g data-name="STROKE D3DEB33F-0619-4C62-BF4D-A42C7C646631"><path d="M84,72.119a1.5,1.5,0,0,1-1.5-1.486c-.114-12.772-.256-28.669.953-43.331a1.5,1.5,0,0,1,2.99.246c-1.2,14.527-1.057,30.346-.943,43.058a1.5,1.5,0,0,1-1.486,1.513Z"/></g><g data-name="STROKE DAA15C4B-5BCB-4503-B462-E1380DD5ACD5"><path d="M15.62,54.956a1.5,1.5,0,0,1-1.108-2.51l.847-.932c4-4.413,8.53-9.412,13.777-9.412h.025c2.684.008,5.239,1.347,7.595,3.977a1.5,1.5,0,1,1-2.234,2c-1.791-2-3.547-2.974-5.37-2.979h-.015c-3.918,0-7.975,4.475-11.556,8.426l-.852.939A1.5,1.5,0,0,1,15.62,54.956Z"/></g><g data-name="STROKE 05EFE2BA-D760-4B4C-BF45-8B75A003C2AE"><path d="M54.537,53.294a1.5,1.5,0,0,1-1.2-.6c-4.542-6.054-7.494-8.532-10.171-8.532h-.044c-2.693.028-5.854,2.693-9.948,8.387A1.5,1.5,0,1,1,30.738,50.8c4.826-6.714,8.52-9.6,12.352-9.635h.075c4.37,0,8.189,3.891,12.572,9.731a1.5,1.5,0,0,1-1.2,2.4Z"/></g><g data-name="STROKE 6644DC5F-E33B-44FE-9C02-C533578B40EF"><path d="M77.09,72.152a1.5,1.5,0,0,1-1.249-.669C74.087,68.85,72.5,66.292,71.1,64.035,66.621,56.818,63.386,51.6,59.66,51.465c-3.54-.132-8.537,4.349-15.641,14.1A1.5,1.5,0,1,1,41.593,63.8c8.064-11.073,13.3-15.533,18.178-15.335,5.322.2,8.911,5.982,13.878,13.986,1.387,2.238,2.962,4.774,4.688,7.368a1.5,1.5,0,0,1-1.247,2.331Z"/></g><g data-name="STROKE F1C8990B-8F64-4064-A5DE-6E73E0953D54"><path d="M72.752,48.975a13.425,13.425,0,0,1-8.792-3.732,7.157,7.157,0,0,1-2.34-7.286,8.508,8.508,0,0,1,6.443-5.786,8.228,8.228,0,0,1,8.219,3.19,1.6,1.6,0,0,1,.1.143c4.735,7.555,2.145,10.936.811,12.039A6.874,6.874,0,0,1,72.752,48.975ZM69.7,35a5.065,5.065,0,0,0-1.031.107,5.519,5.519,0,0,0-4.156,3.657A4.158,4.158,0,0,0,66,43.045c3.216,2.986,7.551,3.617,9.281,2.187,1.5-1.239.977-4.248-1.392-8.057A5.41,5.41,0,0,0,69.7,35Z"/></g><text x="0" y="115" fill="#000000" font-size="5px" font-weight="bold" font-family="'Helvetica Neue', Helvetica, Arial-Unicode, Arial, Sans-serif">Created by Insticon</text><text x="0" y="120" fill="#000000" font-size="5px" font-weight="bold" font-family="'Helvetica Neue', Helvetica, Arial-Unicode, Arial, Sans-serif">from the Noun Project</text></svg>