<svg xmlns="http://www.w3.org/2000/svg" data-name="Your Icon" viewBox="0 0 100 125" x="0px" y="0px"><title>Noun_Project_MASTERFILE_10px_grid</title><g data-name="STROKE B1D17F69-F995-4F19-89A8-4F9529773F04"><path d="M47.48,87.36h-.2a15.585,15.585,0,0,1-11.4-4.479c-2.721-2.827-4.333-6.918-4.789-12.159a32.309,32.309,0,0,1,1.522-12.863,48.578,48.578,0,0,1,5.341-10.415A68.628,68.628,0,0,1,43.368,40.5c1.066-1.258,2.072-2.445,2.874-3.478a1.476,1.476,0,0,1,1.234-.58,1.494,1.494,0,0,1,1.193.659l1.246,1.84c2.153,3.174,4.377,6.458,6.471,9.761a60.744,60.744,0,0,1,6.183,11.67,28.507,28.507,0,0,1,1.681,11.7,15.745,15.745,0,0,1-5.075,11.032A18.007,18.007,0,0,1,47.48,87.36Zm-.158-46.895c-.525.634-1.086,1.3-1.664,1.979a66.285,66.285,0,0,0-5.165,6.6A46.087,46.087,0,0,0,35.459,58.8,29.313,29.313,0,0,0,34.078,70.46c.4,4.541,1.729,8.02,3.962,10.34a12.857,12.857,0,0,0,9.272,3.559,14.79,14.79,0,0,0,9.939-3.548,12.9,12.9,0,0,0,4.005-8.918A25.54,25.54,0,0,0,59.748,61.4a58.359,58.359,0,0,0-5.895-11.086c-2.069-3.265-4.281-6.528-6.421-9.685Z"/></g><g data-name="STROKE 16E574D3-3B68-48D4-A1B8-214C588B8E55"><path d="M26.341,46.491a9.574,9.574,0,0,1-2.918-.458,7.467,7.467,0,0,1-4.936-6.014,17.917,17.917,0,0,1,.394-8.126,37.324,37.324,0,0,1,2.347-6.788,68.855,68.855,0,0,1,7.7-11.885,1.473,1.473,0,0,1,1.221-.58,1.5,1.5,0,0,1,1.191.638c3.067,4.364,6.822,10.91,7.3,17.311.457,6.155-2.39,11.863-7.251,14.54A10.41,10.41,0,0,1,26.341,46.491Zm3.7-29.782a61.391,61.391,0,0,0-6.121,9.715,34.72,34.72,0,0,0-2.143,6.247,14.943,14.943,0,0,0-.347,6.774,4.622,4.622,0,0,0,2.9,3.73,7.009,7.009,0,0,0,5.609-.673c3.837-2.113,6.076-6.7,5.706-11.69C35.281,25.848,32.606,20.648,30.043,16.709Z"/></g><g data-name="STROKE 379EAD17-8172-43DE-AEC2-3FF9F592485E"><path d="M69.962,56.123c-.2,0-.4-.007-.6-.024a6.79,6.79,0,0,1-6.137-5.251c-1.514-5.3.19-10.44,1.693-14.973a48.31,48.31,0,0,1,5.946-11.638A1.5,1.5,0,0,1,73.16,24c4.964,4.862,7.631,9.373,8.392,14.2C82.539,44.442,80.7,50,76.5,53.439A10.485,10.485,0,0,1,69.962,56.123Zm2.389-28.67a42.69,42.69,0,0,0-4.587,9.366c-1.434,4.323-2.916,8.793-1.656,13.206a3.871,3.871,0,0,0,3.5,3.084A7.427,7.427,0,0,0,74.6,51.118c3.352-2.748,4.807-7.288,3.99-12.457C78,34.924,76.005,31.33,72.351,27.453Z"/></g><text x="0" y="115" fill="#000000" font-size="5px" font-weight="bold" font-family="'Helvetica Neue', Helvetica, Arial-Unicode, Arial, Sans-serif">Created by Insticon</text><text x="0" y="120" fill="#000000" font-size="5px" font-weight="bold" font-family="'Helvetica Neue', Helvetica, Arial-Unicode, Arial, Sans-serif">from the Noun Project</text></svg>