<svg xmlns="http://www.w3.org/2000/svg" data-name="Your Icon" viewBox="0 0 100 125" x="0px" y="0px"><title>Noun_Project_MASTERFILE_10px_grid</title><g data-name="STROKE 43C045FE-EE77-4B6A-B94B-62A710C318DB"><path d="M41.846,75.482a1.5,1.5,0,0,1-1.492-1.363,34.646,34.646,0,0,0-1.048-6.463,26.72,26.72,0,0,0-2.534-5.4c-.577-.957-1.216-1.889-1.893-2.876-1.7-2.484-3.467-5.052-4.24-8.138-2.174-8.678,1.368-17.9,8.613-22.424A26.125,26.125,0,0,1,51.31,25.146c4.034-.293,9.2-.372,13.4,1.668A13.567,13.567,0,0,1,72.176,37.18a19.713,19.713,0,0,1-1.915,12.413,38.83,38.83,0,0,1-3.747,5.233,27.638,27.638,0,0,0-4.194,6.289c-1.311,3.058-1.8,7.038-2.234,10.547-.075.616-.149,1.218-.226,1.8a1.5,1.5,0,0,1-2.975-.39q.114-.868.224-1.78c.457-3.709.974-7.912,2.453-11.363a30.355,30.355,0,0,1,4.614-6.987,35.952,35.952,0,0,0,3.47-4.824,16.674,16.674,0,0,0,1.565-10.489A10.609,10.609,0,0,0,63.4,29.511c-3.555-1.726-8.21-1.642-11.871-1.373a23.153,23.153,0,0,0-10.687,3.221c-6.156,3.843-9.155,11.718-7.293,19.15.642,2.562,2.178,4.8,3.8,7.17.672.98,1.366,1.992,1.989,3.026a29.65,29.65,0,0,1,2.812,6.006,35.1,35.1,0,0,1,1.188,7.133,1.5,1.5,0,0,1-1.356,1.632C41.939,75.48,41.892,75.482,41.846,75.482Z"/></g><g data-name="STROKE 6942F30B-71E7-4688-A103-1E8A4943F627"><path d="M44.567,75.493q-1.887,0-3.78-.051a1.5,1.5,0,0,1,.04-3h.042a123.6,123.6,0,0,0,18.144-.781,1.5,1.5,0,1,1,.377,2.977A121.109,121.109,0,0,1,44.567,75.493Z"/></g><g data-name="STROKE 55FDD1B7-B4EA-440B-B281-4873C312E732"><path d="M41.237,87.655a1.5,1.5,0,0,1-1.493-1.365A109.775,109.775,0,0,1,39.329,73.9a1.471,1.471,0,0,1,1.541-1.457,1.5,1.5,0,0,1,1.457,1.541,106.562,106.562,0,0,0,.406,12.034,1.5,1.5,0,0,1-1.359,1.63C41.328,87.653,41.283,87.655,41.237,87.655Z"/></g><g data-name="STROKE 2D938B3D-1EDC-42AA-9C17-9A41388CB04B"><path d="M59.334,86.129a1.5,1.5,0,0,1-1.5-1.406c-.224-3.593-.228-8.54-.136-11.616a1.5,1.5,0,0,1,3,.09c-.09,3.008-.087,7.84.131,11.338a1.5,1.5,0,0,1-1.4,1.591C59.4,86.128,59.366,86.129,59.334,86.129Z"/></g><g data-name="STROKE 184E7025-EEC4-4780-8482-C0784A563C32"><path d="M48.874,88.1c-2.124,0-4.308-.176-6.433-.348l-1.317-.1a1.5,1.5,0,1,1,.229-2.991l1.328.1a63.725,63.725,0,0,0,7.442.313,33.41,33.41,0,0,0,8.75-1.875,1.5,1.5,0,0,1,.924,2.854,36.1,36.1,0,0,1-9.552,2.02C49.792,88.094,49.334,88.1,48.874,88.1Z"/></g><g data-name="STROKE 8AE786DE-7EA3-451C-97A2-E18593710A78"><path d="M46.55,89.7a1.5,1.5,0,0,1-1.464-1.175c-.093-.421-.284-1.213-.388-1.61a1.5,1.5,0,1,1,2.9-.765c.112.424.317,1.274.418,1.724a1.5,1.5,0,0,1-1.14,1.791A1.578,1.578,0,0,1,46.55,89.7Z"/></g><g data-name="STROKE F30E63E0-4A40-49F1-B0A2-D05EBDA79804"><path d="M54.969,89.077a1.5,1.5,0,0,1-1.39-2.061,4.569,4.569,0,0,0,.144-.627,6.574,6.574,0,0,1,.286-1.128,1.5,1.5,0,0,1,2.8,1.076,4.707,4.707,0,0,0-.139.61,6.341,6.341,0,0,1-.31,1.192A1.5,1.5,0,0,1,54.969,89.077Z"/></g><g data-name="STROKE FC0FBDD5-ADDE-4462-B739-28994EDB2ED0"><path d="M46.55,89.7a1.5,1.5,0,0,1-.087-3c.822-.049,1.608-.084,2.375-.119a53.07,53.07,0,0,0,5.9-.484A1.5,1.5,0,0,1,55.2,89.06a55.439,55.439,0,0,1-6.227.516c-.754.034-1.527.069-2.334.116C46.61,89.694,46.579,89.7,46.55,89.7Z"/></g><g data-name="STROKE BF519FF1-4599-493A-B07F-C7B5228CF538"><path d="M47.046,75.516l-.079,0a1.5,1.5,0,0,1-1.42-1.576,120.546,120.546,0,0,0,.142-13.588,82.706,82.706,0,0,0-2.167-13.316,1.5,1.5,0,1,1,2.924-.668,85.249,85.249,0,0,1,2.237,13.8,122.819,122.819,0,0,1-.14,13.924A1.5,1.5,0,0,1,47.046,75.516Z"/></g><g data-name="STROKE 772FBB9D-73D9-45E8-AB75-3CB662F61EFB"><path d="M52.166,75.3H52.12a1.5,1.5,0,0,1-1.454-1.544,118.374,118.374,0,0,1,1.46-16.48A62.278,62.278,0,0,1,56,44.074a1.5,1.5,0,0,1,2.778,1.132,59.305,59.305,0,0,0-3.694,12.566,115.606,115.606,0,0,0-1.42,16.07A1.5,1.5,0,0,1,52.166,75.3Z"/></g><g data-name="STROKE 42E410EC-C91D-4525-9A33-55161635AB7E"><path d="M49.373,50.16a3.839,3.839,0,0,1-1.566-.371,12.158,12.158,0,0,0-2.9-.8,1.5,1.5,0,1,1,.513-2.955,14.8,14.8,0,0,1,3.6,1.019,1.244,1.244,0,0,0,.33.11c-.017-.009.113-.1.4-.458l.115-.146a3.643,3.643,0,0,1,1.562-1.3,2.991,2.991,0,0,1,1.678-.068c.073.014.146.029.219.037.533.057,1.209.1,1.865.134.5.03.989.058,1.4.093a1.5,1.5,0,0,1,1.371,1.619,1.518,1.518,0,0,1-1.619,1.371c-.393-.033-.857-.06-1.331-.088-.7-.041-1.433-.085-2.009-.147-.152-.015-.3-.042-.448-.069-.036-.007-.072-.016-.109-.022-.045.068-.143.193-.213.284l-.149.188A3.523,3.523,0,0,1,49.373,50.16Z"/></g><g data-name="STROKE 888AD073-4E2F-47A9-A342-E334144D743A"><path d="M71.973,32.414a1.5,1.5,0,0,1-.959-2.654c2.684-2.227,5.726-4.753,8.646-7.29a1.5,1.5,0,1,1,1.967,2.266c-2.946,2.558-6,5.094-8.7,7.333A1.494,1.494,0,0,1,71.973,32.414Z"/></g><g data-name="STROKE DFBC517F-6E2E-4096-8B49-657DDDDB4C4F"><path d="M74.677,44.9a1.5,1.5,0,0,1-.121-2.995c3.395-.281,6.417-.451,9.24-.522a1.5,1.5,0,0,1,.074,3c-2.764.069-5.731.237-9.068.512C74.76,44.9,74.719,44.9,74.677,44.9Z"/></g><g data-name="STROKE DFBC517F-6E2E-4096-8B49-657DDDDB4C4F"><path d="M44.781,24.76a1.5,1.5,0,0,1-1.487-1.312c-.347-2.763-.811-5.7-1.417-8.972a1.5,1.5,0,1,1,2.949-.545c.617,3.331,1.089,6.321,1.445,9.142a1.5,1.5,0,0,1-1.49,1.687Z"/></g><g data-name="STROKE 31194767-2B5C-4969-8B08-7AAE6DBE4F44"><path d="M79.477,61.457a1.515,1.515,0,0,1-.623-.135l-8.991-4.116a1.5,1.5,0,1,1,1.25-2.726L80.1,58.593a1.5,1.5,0,0,1-.625,2.864Z"/></g><g data-name="STROKE 31C4F6C5-16F7-4D85-9DD1-4262032B5334"><path d="M33.013,30.026a1.491,1.491,0,0,1-.877-.284A51.723,51.723,0,0,0,22.7,24.086a1.5,1.5,0,1,1,1.2-2.75,54.314,54.314,0,0,1,9.994,5.974,1.5,1.5,0,0,1-.879,2.716Z"/></g><g data-name="STROKE EE780F70-C0D3-4744-B683-2D6BD2D1316B"><path d="M27.867,43.658a1.626,1.626,0,0,1-.185-.011,77.158,77.158,0,0,0-9.808-.341l-1.7.011h-.006a1.5,1.5,0,0,1-.006-3l1.692-.011a79.924,79.924,0,0,1,10.2.362,1.5,1.5,0,0,1-.18,2.99Z"/></g><g data-name="STROKE EE780F70-C0D3-4744-B683-2D6BD2D1316B"><path d="M61.576,23.967a1.5,1.5,0,0,1-1.384-2.073l.651-1.587A79.163,79.163,0,0,1,65.1,11.062a1.5,1.5,0,1,1,2.605,1.486,77.04,77.04,0,0,0-4.087,8.9l-.656,1.6A1.5,1.5,0,0,1,61.576,23.967Z"/></g><g data-name="STROKE 182298CC-F498-45A9-9930-7DEBB2C59423"><path d="M23.526,66.411a1.5,1.5,0,0,1-.851-2.736c2.473-1.7,5.149-3.431,8.18-5.3a1.5,1.5,0,0,1,1.572,2.555c-2.988,1.84-5.622,3.547-8.053,5.216A1.492,1.492,0,0,1,23.526,66.411Z"/></g><text x="0" y="115" fill="#000000" font-size="5px" font-weight="bold" font-family="'Helvetica Neue', Helvetica, Arial-Unicode, Arial, Sans-serif">Created by Insticon</text><text x="0" y="120" fill="#000000" font-size="5px" font-weight="bold" font-family="'Helvetica Neue', Helvetica, Arial-Unicode, Arial, Sans-serif">from the Noun Project</text></svg>