<svg xmlns="http://www.w3.org/2000/svg" data-name="Your Icon" viewBox="0 0 100 125" x="0px" y="0px"><title>Noun_Project_MASTERFILE_10px_grid</title><g data-name="STROKE 864457C7-DDC5-462B-8FC5-9D56C3126F15"><path d="M26.9,75.011a1.5,1.5,0,0,1-1.5-1.473c-.06-3.306-.14-6.582-.219-9.843-.205-8.5-.417-17.3-.27-26.134a1.5,1.5,0,0,1,1.5-1.476h.025a1.5,1.5,0,0,1,1.476,1.525c-.146,8.775.056,17.148.27,26.012.078,3.268.158,6.549.219,9.862a1.5,1.5,0,0,1-1.473,1.527Z"/></g><g data-name="STROKE B229B3CD-2BA9-4316-A0E4-F3460B6A9E45"><path d="M26.9,75.011a1.5,1.5,0,0,1-.182-2.988,146.03,146.03,0,0,1,15.915-.715A143.394,143.394,0,0,0,58.322,70.6a1.5,1.5,0,1,1,.371,2.976,145.108,145.108,0,0,1-16.034.729A144.415,144.415,0,0,0,27.084,75,1.464,1.464,0,0,1,26.9,75.011Z"/></g><g data-name="STROKE A5991012-18E3-46C2-A47C-60FF85912082"><path d="M26.41,39.085a1.5,1.5,0,0,1-.068-3c12.773-.583,23.267-.667,32.088-.259a1.5,1.5,0,0,1-.138,3c-8.732-.4-19.136-.319-31.813.258Z"/></g><g data-name="STROKE 7DD7252A-85BC-434A-9CB5-75C893F20267"><path d="M58.507,73.591a1.5,1.5,0,0,1-1.5-1.482c-.073-6.377-.089-14.276-.106-21.913-.009-4.577-.019-9.009-.04-12.861a1.5,1.5,0,0,1,1.491-1.509h.009a1.5,1.5,0,0,1,1.5,1.492c.021,3.855.03,8.292.04,12.872.017,7.631.033,15.521.106,21.884a1.5,1.5,0,0,1-1.482,1.517Z"/></g><g data-name="STROKE E6069A94-7C3C-4530-B3AC-C22CAD7F3F41"><path d="M45.905,64.768a1.5,1.5,0,0,1-1.106-.486c-1.185-1.292-2.5-2.551-3.893-3.884a62.868,62.868,0,0,1-5.643-5.884,1.5,1.5,0,0,1,2.344-1.873,61.044,61.044,0,0,0,5.373,5.59c1.366,1.306,2.778,2.659,4.03,4.023a1.5,1.5,0,0,1-1.1,2.514Z"/></g><g data-name="STROKE 5BD7968A-8378-43F8-BF15-28E2EBC3A1AE"><path d="M45.9,64.768a1.5,1.5,0,0,1-1.283-2.275A202.444,202.444,0,0,1,72.558,25.448a1.5,1.5,0,0,1,2.16,2.082A199.644,199.644,0,0,0,47.189,64.043,1.5,1.5,0,0,1,45.9,64.768Z"/></g><text x="0" y="115" fill="#000000" font-size="5px" font-weight="bold" font-family="'Helvetica Neue', Helvetica, Arial-Unicode, Arial, Sans-serif">Created by Insticon</text><text x="0" y="120" fill="#000000" font-size="5px" font-weight="bold" font-family="'Helvetica Neue', Helvetica, Arial-Unicode, Arial, Sans-serif">from the Noun Project</text></svg>