<svg xmlns="http://www.w3.org/2000/svg" data-name="Your Icon" viewBox="0 0 100 125" x="0px" y="0px"><title>Noun_Project_MASTERFILE_10px_grid</title><g data-name="STROKE D128EA37-3FF4-4650-AD4D-04E7423C496B"><path d="M16.041,52.708a1.5,1.5,0,0,1-.153-2.992q2.557-.265,5.115-.548c4.462-.485,9.076-.987,13.638-1.328,7.052-.527,14.251-.649,21.021-.729,3.484-.045,7.976.23,11.586.448l1.2.071a1.5,1.5,0,0,1-.178,2.995l-1.2-.072c-3.563-.214-7.989-.486-11.37-.442-6.723.079-13.869.2-20.833.721-4.512.337-9.1.836-13.538,1.318q-2.564.281-5.128.55C16.146,52.705,16.093,52.708,16.041,52.708Z"/></g><g data-name="STROKE BD17012B-5DB6-4AC2-931C-F34412400147"><path d="M67.743,60.434h-.027a1.5,1.5,0,0,1-1.474-1.526c.062-3.715.489-8.471.865-12.668.168-1.876.329-3.677.45-5.286a1.5,1.5,0,0,1,2.992.226c-.122,1.621-.285,3.436-.454,5.327-.372,4.146-.793,8.846-.853,12.452A1.5,1.5,0,0,1,67.743,60.434Z"/></g><g data-name="STROKE C59DF3A0-DB91-42C1-A804-F3C06B60828C"><path d="M83.956,52.822a1.494,1.494,0,0,1-.918-.314c-2.194-1.7-4.969-3.522-7.654-5.283-2.511-1.647-5.107-3.351-7.236-4.962a1.5,1.5,0,0,1,1.81-2.392c2.049,1.55,4.6,3.225,7.072,4.846,2.733,1.793,5.559,3.647,7.846,5.42a1.5,1.5,0,0,1-.92,2.685Z"/></g><g data-name="STROKE D9BB656D-ACA6-43CF-8951-EA7E308BD798"><path d="M67.743,60.434a1.5,1.5,0,0,1-.721-2.817c5.257-2.872,10.731-5.268,16.345-7.674A1.5,1.5,0,0,1,84.548,52.7C79,55.076,73.6,57.44,68.461,60.25A1.49,1.49,0,0,1,67.743,60.434Z"/></g><text x="0" y="115" fill="#000000" font-size="5px" font-weight="bold" font-family="'Helvetica Neue', Helvetica, Arial-Unicode, Arial, Sans-serif">Created by Insticon</text><text x="0" y="120" fill="#000000" font-size="5px" font-weight="bold" font-family="'Helvetica Neue', Helvetica, Arial-Unicode, Arial, Sans-serif">from the Noun Project</text></svg>