<svg xmlns="http://www.w3.org/2000/svg" data-name="Your Icon" viewBox="0 0 100 125" x="0px" y="0px"><title>Noun_Project_MASTERFILE_10px_grid</title><g data-name="STROKE AB67E43A-C3ED-46B1-8296-D43B92634373"><path d="M34.934,79.576a1.5,1.5,0,0,1-.469-.075c-6.548-2.155-11.423-5.127-15.343-9.351a24.926,24.926,0,0,1-6.948-16.217c-.13-5.553,1.759-11.613,5.775-18.528a32.427,32.427,0,0,1,11.6-11.936c5.028-2.951,10.5-4.031,15.675-4.884a1.5,1.5,0,0,1,.488,2.96c-4.9.807-10.061,1.821-14.645,4.511A29.469,29.469,0,0,0,20.543,36.912c-3.73,6.422-5.487,11.967-5.369,16.95a21.827,21.827,0,0,0,6.147,14.247c3.561,3.837,8.035,6.552,14.081,8.542a1.5,1.5,0,0,1-.468,2.925Z"/></g><g data-name="STROKE 4987A385-7603-4F1E-A632-63D0C5503E59"><path d="M32.6,87.3a1.5,1.5,0,0,1-1.438-1.931q1-3.339,1.993-6.681,1.166-3.912,2.336-7.821a1.5,1.5,0,0,1,2.873.865q-1.175,3.9-2.333,7.811-1,3.345-2,6.688A1.5,1.5,0,0,1,32.6,87.3Z"/></g><g data-name="STROKE 1DC53CCD-13D4-422A-9E68-12F6B3F63B64"><path d="M46.928,81.805a1.5,1.5,0,0,1-.993-.376c-1.331-1.177-3.227-2.895-5.114-4.6-1.812-1.641-3.615-3.274-4.892-4.4a1.5,1.5,0,1,1,1.988-2.246c1.284,1.137,3.1,2.778,4.918,4.428,1.877,1.7,3.764,3.408,5.088,4.578a1.5,1.5,0,0,1-1,2.624Z"/></g><g data-name="STROKE 15017A35-778C-43D9-940F-CFCAD530FF64"><path d="M32.6,87.3a1.5,1.5,0,0,1-.609-2.871c2.524-1.118,5.091-2.035,7.575-2.921,2.233-.8,4.542-1.621,6.776-2.58a1.5,1.5,0,0,1,1.184,2.758c-2.322,1-4.675,1.835-6.952,2.647-2.431.868-4.946,1.766-7.368,2.838A1.481,1.481,0,0,1,32.6,87.3Z"/></g><g data-name="STROKE 235F0A1C-F69B-49CD-B093-81B78982A31F"><path d="M53.973,83.522a1.5,1.5,0,0,1-.22-2.983c12.036-1.8,22.049-8.034,27.471-17.1a26.329,26.329,0,0,0,2.657-7.713,36.893,36.893,0,0,0,.909-9.857c-.389-7.493-2.28-13.055-5.623-16.532-4.207-4.376-11.173-5.452-16.77-6.318l-.223-.034a1.5,1.5,0,0,1,.459-2.965l.222.035c6.043.934,13.565,2.1,18.474,7.2,3.858,4.012,6.03,10.222,6.457,18.455a39.939,39.939,0,0,1-.975,10.662,28.875,28.875,0,0,1-3.013,8.6c-5.884,9.837-16.673,16.588-29.6,18.525A1.423,1.423,0,0,1,53.973,83.522Z"/></g><g data-name="STROKE ED97085A-7508-4598-877E-2E5ACC09DC4F"><path d="M60.23,31.452a1.482,1.482,0,0,1-.377-.048,1.5,1.5,0,0,1-1.076-1.829c1.518-5.851,2.832-11,4.017-15.736a1.5,1.5,0,0,1,2.91.727c-1.186,4.747-2.5,9.9-4.022,15.762A1.5,1.5,0,0,1,60.23,31.452Z"/></g><g data-name="STROKE 36862795-99FE-40A4-BC1A-9A268A94D3A3"><path d="M50.1,20.523a1.5,1.5,0,0,1-.549-2.9c3.09-1.216,6.351-2.272,9.507-3.293,1.583-.513,3.161-1.023,4.709-1.551a1.5,1.5,0,1,1,.968,2.84c-1.563.532-3.155,1.048-4.754,1.565-3.111,1.007-6.328,2.048-9.333,3.231A1.488,1.488,0,0,1,50.1,20.523Z"/></g><g data-name="STROKE 3022A172-6753-4451-A3E3-53F1478DF8B3"><path d="M60.229,31.452a1.5,1.5,0,0,1-1.031-.411c-1.9-1.8-3.594-3.749-5.237-5.637-1.556-1.787-3.163-3.635-4.9-5.3a1.5,1.5,0,1,1,2.074-2.168c1.836,1.757,3.49,3.658,5.089,5.5s3.247,3.732,5.037,5.428a1.5,1.5,0,0,1-1.032,2.589Z"/></g><text x="0" y="115" fill="#000000" font-size="5px" font-weight="bold" font-family="'Helvetica Neue', Helvetica, Arial-Unicode, Arial, Sans-serif">Created by Insticon</text><text x="0" y="120" fill="#000000" font-size="5px" font-weight="bold" font-family="'Helvetica Neue', Helvetica, Arial-Unicode, Arial, Sans-serif">from the Noun Project</text></svg>