<svg width="43" height="43" viewBox="0 0 43 43" fill="none" xmlns="http://www.w3.org/2000/svg">
<path d="M17.4466 29.209C17.3498 29.209 17.2541 29.1889 17.1654 29.15C17.0768 29.1111 16.9973 29.0541 16.9319 28.9828C16.3804 28.3815 15.7684 27.7956 15.1201 27.1752C14.1863 26.3202 13.3091 25.4054 12.4938 24.4368C12.3782 24.2921 12.3248 24.1075 12.3454 23.9234C12.3659 23.7394 12.4588 23.5711 12.6034 23.4555C12.7481 23.3399 12.9327 23.2865 13.1168 23.3071C13.3008 23.3276 13.4691 23.4204 13.5847 23.5651C14.3623 24.4844 15.1975 25.3533 16.0853 26.1667C16.721 26.7745 17.3782 27.4042 17.9609 28.039C18.0523 28.1387 18.1128 28.2628 18.1351 28.3963C18.1573 28.5297 18.1402 28.6668 18.086 28.7907C18.0317 28.9147 17.9427 29.0202 17.8296 29.0945C17.7165 29.1687 17.5842 29.2085 17.4489 29.209H17.4466Z" fill="black"/>
<path d="M17.4443 29.209C17.3206 29.2089 17.1992 29.1759 17.0925 29.1135C16.9858 29.0511 16.8975 28.9615 16.8368 28.8538C16.7761 28.7461 16.745 28.6242 16.7468 28.5006C16.7487 28.377 16.7833 28.2561 16.8472 28.1502C20.5066 21.9239 24.8698 16.139 29.8509 10.9095C29.9794 10.7762 30.1555 10.6994 30.3407 10.696C30.5258 10.6926 30.7047 10.7628 30.838 10.8913C30.9713 11.0198 31.0481 11.196 31.0515 11.3811C31.0549 11.5663 30.9846 11.7451 30.8561 11.8785C25.9487 17.0334 21.6499 22.7352 18.0442 28.8716C17.9818 28.9748 17.8938 29.0602 17.7887 29.1193C17.6836 29.1785 17.5649 29.2094 17.4443 29.209V29.209Z" fill="black"/>
</svg>
