<svg width="43" height="43" viewBox="0 0 43 43" fill="none" xmlns="http://www.w3.org/2000/svg">
<path d="M9.74099 22.1297C9.58943 22.1296 9.44372 22.0712 9.33391 21.9668C9.2241 21.8623 9.15857 21.7197 9.15083 21.5683C9.14309 21.417 9.19373 21.2684 9.29231 21.1533C9.3909 21.0382 9.5299 20.9653 9.68065 20.9497C10.353 20.88 11.0254 20.8079 11.698 20.7335C13.4579 20.5423 15.2777 20.3443 17.0769 20.2098C19.8583 20.0019 22.6976 19.9538 25.3677 19.9222C26.7418 19.9045 28.5135 20.013 29.9373 20.0989L30.4106 20.1269C30.5672 20.1363 30.7138 20.2074 30.8179 20.3248C30.9221 20.4421 30.9754 20.596 30.9661 20.7527C30.9568 20.9093 30.8856 21.0558 30.7683 21.16C30.6509 21.2642 30.497 21.3175 30.3404 21.3082L29.8671 21.2798C28.4618 21.1954 26.7162 21.0881 25.3827 21.1055C22.7311 21.1366 19.9127 21.1843 17.1661 21.3898C15.3865 21.5227 13.577 21.7196 11.8266 21.9097C11.1524 21.9835 10.4783 22.0558 9.8041 22.1266C9.7824 22.1285 9.7615 22.1297 9.74099 22.1297Z" fill="black"/>
<path d="M30.1326 25.1769H30.1219C30.0442 25.1756 29.9675 25.159 29.8963 25.128C29.825 25.097 29.7605 25.0523 29.7066 24.9964C29.6526 24.9405 29.6101 24.8746 29.5816 24.8023C29.5532 24.73 29.5392 24.6528 29.5406 24.5751C29.565 23.1099 29.7334 21.2341 29.8817 19.5787C29.948 18.8388 30.0115 18.1285 30.0592 17.4939C30.071 17.3374 30.1445 17.1921 30.2635 17.0898C30.3825 16.9875 30.5373 16.9366 30.6938 16.9485C30.8503 16.9603 30.9957 17.0338 31.098 17.1528C31.2003 17.2718 31.2511 17.4266 31.2393 17.5831C31.1911 18.2224 31.1269 18.9382 31.0602 19.6841C30.9135 21.3193 30.7474 23.173 30.7238 24.5952C30.7212 24.7503 30.6578 24.8982 30.5472 25.007C30.4366 25.1158 30.2877 25.1769 30.1326 25.1769V25.1769Z" fill="black"/>
<path d="M36.5271 22.1747C36.396 22.1748 36.2685 22.1312 36.165 22.0508C35.2997 21.3803 34.2052 20.6617 33.1462 19.9672C32.1559 19.3176 31.132 18.6455 30.2923 18.0101C30.17 17.9145 30.0901 17.7746 30.07 17.6206C30.0499 17.4666 30.0912 17.3109 30.1849 17.1871C30.2786 17.0633 30.4172 16.9812 30.5709 16.9587C30.7245 16.9362 30.8809 16.975 31.0062 17.0667C31.8143 17.6781 32.8204 18.3387 33.7954 18.978C34.8733 19.6852 35.9879 20.4164 36.8899 21.1157C36.9874 21.1913 37.0587 21.2955 37.094 21.4137C37.1293 21.5319 37.1268 21.6581 37.0869 21.7748C37.0469 21.8915 36.9714 21.9928 36.871 22.0645C36.7707 22.1362 36.6504 22.1747 36.5271 22.1747V22.1747Z" fill="black"/>
<path d="M30.1325 25.1769C30.001 25.1772 29.873 25.1336 29.769 25.053C29.665 24.9724 29.5908 24.8595 29.5582 24.732C29.5256 24.6045 29.5364 24.4698 29.5889 24.3492C29.6414 24.2285 29.7326 24.1288 29.8482 24.0659C31.9216 22.9331 34.0805 21.9881 36.2947 21.0392C36.4382 20.9814 36.5986 20.982 36.7416 21.0411C36.8846 21.1001 36.9988 21.2128 37.0597 21.355C37.1206 21.4972 37.1234 21.6576 37.0675 21.8018C37.0116 21.946 36.9014 22.0626 36.7605 22.1266C34.5723 23.0637 32.4426 23.9961 30.4157 25.1043C30.3289 25.152 30.2315 25.177 30.1325 25.1769Z" fill="black"/>
</svg>
