<svg width="43" height="43" viewBox="0 0 43 43" fill="none" xmlns="http://www.w3.org/2000/svg">
<path d="M22.9563 9.0315C24.3333 12.1255 26.1435 14.9991 27.5514 18.0777C28.6419 20.4619 30.0162 23.0214 29.9947 25.7018C29.961 29.9653 25.8149 32.9985 21.8614 33.4003C16.7044 33.9239 14.0205 29.4043 13.9243 24.6951C13.8694 22.0067 15.8918 19.1228 17.0955 16.8415C17.9424 15.2371 18.9208 13.7041 19.7556 12.0936C20.3565 10.9338 20.5827 9.69282 21.493 8.70496C22.2679 7.8637 23.5162 9.11851 22.7443 9.95623C22.0661 10.6925 21.8431 11.729 21.4458 12.6231C20.9594 13.7168 20.3075 14.7401 19.7131 15.7778C18.4288 18.0225 17.0829 20.3625 16.1363 22.7745C15.1529 25.2809 16.0198 27.964 17.4259 30.1217C18.3737 31.5765 20.3771 31.8384 21.9496 31.616C25.8358 31.0665 29.008 27.9026 28.0101 23.8308C27.4485 21.5377 26.1521 19.1372 25.094 17.0429C23.8893 14.6587 22.5159 12.3679 21.4281 9.92438C20.9682 8.89168 22.4929 7.99054 22.9563 9.0315Z" fill="black"/>
<path d="M22.5905 30.1823C19.4413 30.6363 16.4264 27.6196 17.0774 24.4481C17.3066 23.3304 19.0128 23.8045 18.7839 24.9186C18.4255 26.6651 20.3307 28.7337 22.12 28.4759C23.2356 28.3149 23.7164 30.0198 22.5905 30.1823Z" fill="black"/>
</svg>
