<svg width="43" height="43" viewBox="0 0 43 43" fill="none" xmlns="http://www.w3.org/2000/svg">
<path d="M8.4166 14.3545C8.23667 14.3536 8.06402 14.2833 7.93466 14.1582C7.80531 14.0331 7.72925 13.863 7.72235 13.6832C7.71544 13.5034 7.77823 13.3278 7.89761 13.1932C8.01699 13.0586 8.18374 12.9752 8.36308 12.9606C13.3619 12.5734 18.5665 12.605 23.5998 12.6348C25.0965 12.6432 26.5831 12.6486 28.0597 12.6511C28.8634 12.6306 29.7877 12.6879 30.6873 12.7242C31.8071 12.7707 32.9641 12.8172 33.9186 12.7926C34.0103 12.7904 34.1015 12.8062 34.187 12.8392C34.2726 12.8722 34.3508 12.9218 34.4172 12.985C34.4836 13.0483 34.5369 13.124 34.574 13.2078C34.6112 13.2917 34.6315 13.382 34.6337 13.4737C34.6359 13.5654 34.6201 13.6566 34.587 13.7421C34.554 13.8277 34.5045 13.9059 34.4412 13.9723C34.378 14.0387 34.3023 14.092 34.2184 14.1291C34.1346 14.1663 34.0442 14.1865 33.9526 14.1888C32.9524 14.2102 31.7726 14.1655 30.631 14.119C29.7151 14.0822 28.8495 14.0473 28.0867 14.0473H27.686C26.3317 14.0473 24.9648 14.0389 23.5905 14.031C18.5856 13.9989 13.4103 13.9682 8.47105 14.3503C8.45298 14.3526 8.43481 14.354 8.4166 14.3545Z" fill="black"/>
<path d="M33.7749 29.9975H33.7693C33.5843 29.996 33.4074 29.9211 33.2775 29.7892C33.1477 29.6574 33.0755 29.4793 33.0768 29.2943C33.0996 26.5102 33.1313 23.5391 33.1629 20.5871C33.1895 18.1698 33.2155 15.7651 33.236 13.4865C33.2376 13.3024 33.3118 13.1264 33.4426 12.9968C33.5733 12.8672 33.75 12.7945 33.9341 12.7945H33.9401C34.0319 12.7953 34.1225 12.8141 34.207 12.85C34.2914 12.8858 34.3679 12.9379 34.4322 13.0034C34.4965 13.0688 34.5472 13.1463 34.5815 13.2313C34.6158 13.3164 34.6331 13.4074 34.6322 13.4991C34.6117 15.7795 34.5857 18.1838 34.5591 20.602C34.5275 23.5531 34.4954 26.5228 34.473 29.305C34.4716 29.4891 34.3974 29.6653 34.2666 29.795C34.1358 29.9247 33.9591 29.9975 33.7749 29.9975Z" fill="black"/>
<path d="M33.7759 29.9975C33.7448 29.9975 33.7137 29.9956 33.6828 29.9919C30.9332 29.6897 28.1672 29.5632 25.4015 29.613L24.2082 29.6079C23.2774 29.6028 22.361 29.586 21.4502 29.5698C19.2424 29.5302 17.1565 29.493 14.9612 29.6051C14.2063 29.6438 13.4645 29.6554 12.7468 29.6666C11.4993 29.6621 10.2525 29.7282 9.01246 29.8643C8.92095 29.8771 8.82784 29.8715 8.73851 29.8479C8.64918 29.8244 8.56541 29.7834 8.49206 29.7272C8.41871 29.671 8.35723 29.6009 8.31119 29.5208C8.26515 29.4407 8.23547 29.3523 8.22386 29.2606C8.21225 29.169 8.21894 29.0759 8.24356 28.9869C8.26817 28.8978 8.31021 28.8146 8.36724 28.7419C8.42427 28.6692 8.49516 28.6086 8.5758 28.5635C8.65644 28.5185 8.74522 28.4898 8.837 28.4793C10.1282 28.3371 11.4264 28.2673 12.7254 28.2704C13.4305 28.2597 14.1598 28.248 14.8895 28.2108C17.1327 28.0954 19.3406 28.1349 21.4758 28.1736C22.3806 28.1898 23.2909 28.2066 24.2166 28.2117L25.4057 28.2168C28.2313 28.1663 31.0572 28.2967 33.8662 28.6073C34.0419 28.6306 34.2023 28.7199 34.3146 28.8571C34.4269 28.9943 34.4828 29.1691 34.471 29.346C34.4591 29.5229 34.3804 29.6887 34.2508 29.8097C34.1212 29.9307 33.9504 29.9978 33.7731 29.9975H33.7759Z" fill="black"/>
<path d="M8.92546 29.8736H8.90266C8.71764 29.8677 8.54257 29.7885 8.41593 29.6535C8.2893 29.5185 8.22147 29.3387 8.22736 29.1537C8.33068 25.8959 8.31625 23.2543 8.18082 20.8393C8.10729 19.5236 8.02073 18.2615 7.93323 16.9947C7.85923 15.9121 7.78477 14.8268 7.71775 13.702C7.71202 13.61 7.72455 13.5179 7.7546 13.4308C7.78466 13.3437 7.83164 13.2635 7.89286 13.1946C7.95408 13.1258 8.02831 13.0698 8.11128 13.0297C8.19425 12.9897 8.28432 12.9665 8.37629 12.9615C8.46802 12.9549 8.56014 12.9668 8.64722 12.9964C8.73431 13.0259 8.8146 13.0726 8.88337 13.1337C8.95214 13.1947 9.00801 13.2689 9.04769 13.3519C9.08737 13.4349 9.11006 13.5249 9.11441 13.6168C9.18097 14.737 9.25403 15.8186 9.32896 16.8965C9.41692 18.1689 9.50349 19.4371 9.57795 20.7593C9.71478 23.2161 9.72967 25.8968 9.62449 29.196C9.61916 29.3778 9.54313 29.5502 9.41259 29.6768C9.28204 29.8033 9.10728 29.874 8.92546 29.8736V29.8736Z" fill="black"/>
<path d="M21.4358 22.6958C21.3097 22.696 21.1859 22.6617 21.0779 22.5966C16.9396 20.1184 12.671 17.3837 8.02442 14.2362C7.94639 14.1858 7.87922 14.1202 7.82684 14.0435C7.77446 13.9668 7.73792 13.8803 7.71937 13.7893C7.70083 13.6983 7.70064 13.6044 7.71882 13.5133C7.73701 13.4222 7.77319 13.3356 7.82527 13.2587C7.87734 13.1817 7.94425 13.116 8.02207 13.0652C8.0999 13.0145 8.18707 12.9797 8.27848 12.9631C8.36989 12.9465 8.4637 12.9483 8.55442 12.9684C8.64513 12.9885 8.73092 13.0265 8.80675 13.0801C13.4324 16.2127 17.681 18.9339 21.7951 21.3987C21.9262 21.4772 22.0279 21.5965 22.0847 21.7383C22.1414 21.8802 22.1501 22.0368 22.1093 22.184C22.0685 22.3313 21.9805 22.4611 21.8589 22.5535C21.7372 22.6459 21.5886 22.6959 21.4358 22.6958Z" fill="black"/>
<path d="M21.4367 22.6939C21.2948 22.6945 21.1561 22.6517 21.0391 22.5714C20.9221 22.4912 20.8324 22.3771 20.7818 22.2445C20.7313 22.1119 20.7223 21.9671 20.7562 21.8293C20.79 21.6915 20.8651 21.5673 20.9713 21.4732L21.1058 21.3545C22.9975 19.5977 25.0102 17.9758 27.129 16.5009C29.207 15.1319 31.3816 13.9155 33.6358 12.8615C33.8032 12.7824 33.9952 12.7731 34.1695 12.8356C34.2558 12.8665 34.3351 12.9142 34.403 12.9758C34.4709 13.0374 34.526 13.1118 34.5652 13.1947C34.6043 13.2776 34.6267 13.3674 34.6312 13.459C34.6356 13.5505 34.622 13.6421 34.591 13.7284C34.5601 13.8147 34.5125 13.8941 34.4508 13.962C34.3892 14.0298 34.3148 14.0849 34.2319 14.1241C32.0393 15.1483 29.9239 16.3305 27.9025 17.6611C25.8383 19.1021 23.8772 20.6854 22.0334 22.3993L21.8993 22.5185C21.7719 22.6317 21.6072 22.6941 21.4367 22.6939V22.6939Z" fill="black"/>
<path d="M8.92446 29.8718C8.79259 29.8717 8.66344 29.8343 8.55197 29.7639C8.44049 29.6934 8.35124 29.5929 8.29456 29.4738C8.23788 29.3547 8.21608 29.2221 8.23168 29.0911C8.24729 28.9602 8.29966 28.8363 8.38274 28.7339C10.7237 25.8452 13.9298 21.8893 16.8288 19.0071C16.9608 18.8802 17.1374 18.8103 17.3204 18.8124C17.5035 18.8145 17.6784 18.8884 17.8075 19.0182C17.9366 19.1481 18.0095 19.3234 18.0106 19.5065C18.0116 19.6895 17.9407 19.8657 17.8131 19.997C14.9677 22.8266 11.789 26.7495 9.46711 29.6131C9.40165 29.6939 9.31896 29.7591 9.22507 29.8038C9.13118 29.8486 9.02848 29.8718 8.92446 29.8718Z" fill="black"/>
<path d="M33.7754 29.9974C33.6729 29.9976 33.5717 29.9752 33.4789 29.9318C33.3861 29.8885 33.3039 29.8252 33.2383 29.7466C30.2035 26.1086 27.1723 22.1713 24.9207 18.9451C24.8682 18.8699 24.8311 18.7851 24.8114 18.6956C24.7917 18.606 24.7898 18.5135 24.8059 18.4232C24.822 18.3329 24.8557 18.2467 24.9051 18.1694C24.9545 18.0922 25.0186 18.0254 25.0938 17.9729C25.169 17.9205 25.2538 17.8833 25.3434 17.8636C25.433 17.8439 25.5255 17.8421 25.6158 17.8581C25.7061 17.8742 25.7923 17.9079 25.8696 17.9573C25.9468 18.0067 26.0136 18.0708 26.0661 18.1461C28.2953 21.341 31.3004 25.2429 34.3111 28.8502C34.3961 28.9521 34.4503 29.0761 34.4674 29.2077C34.4844 29.3393 34.4636 29.473 34.4074 29.5932C34.3512 29.7134 34.2619 29.8151 34.1499 29.8864C34.038 29.9576 33.9081 29.9955 33.7754 29.9956V29.9974Z" fill="black"/>
</svg>
