<svg width="43" height="43" viewBox="0 0 43 43" fill="none" xmlns="http://www.w3.org/2000/svg">
<path d="M14.1478 14.9191C12.4382 16.4246 11.4971 18.4529 11.4256 20.7834C11.3392 23.6098 12.5574 26.5629 14.6839 28.6834C16.4009 30.393 18.5989 31.3103 20.8922 31.3103C21.4402 31.3103 21.9927 31.2582 22.5452 31.1525C25.4923 30.5881 27.9836 28.5554 29.2137 25.714C30.7207 22.2309 29.7989 17.7962 26.9174 14.6764C23.5638 11.0443 17.6071 11.8708 14.1478 14.9191ZM27.8451 25.1213C26.8131 27.51 24.7253 29.2165 22.2637 29.6886C19.887 30.1428 17.5059 29.3938 15.7338 27.6261C13.9215 25.8213 12.8403 23.2152 12.9148 20.8296C12.9743 18.9205 13.7398 17.2615 15.1321 16.0345C18.0643 13.4508 23.0605 12.6928 25.8228 15.683C28.3098 18.3784 29.1228 22.1713 27.8451 25.1213Z" fill="black"/>
<path d="M20.7729 19.6442C20.3961 19.6755 20.0164 19.948 20 20.359L19.7767 26.0357C19.7603 26.4467 20.0804 26.7937 20.4915 26.8101C20.5019 26.8101 20.5108 26.8101 20.5212 26.8101C20.9188 26.8101 21.2494 26.4959 21.2643 26.0953L21.4877 20.4186C21.5041 20.0076 21.1839 19.6606 20.7729 19.6442Z" fill="black"/>
<path d="M20.6763 18.9011C21.0873 18.9011 21.4208 18.5676 21.4208 18.1566V17.473C21.4208 17.062 21.0873 16.7285 20.6763 16.7285C20.2652 16.7285 19.9317 17.062 19.9317 17.473V18.1551C19.9317 18.5676 20.2652 18.9011 20.6763 18.9011Z" fill="black"/>
</svg>
