<svg width="43" height="43" viewBox="0 0 43 43" fill="none" xmlns="http://www.w3.org/2000/svg">
<path d="M9.67775 17.1282C9.56915 17.1282 9.46204 17.1029 9.36493 17.0543C9.26783 17.0056 9.18341 16.935 9.11839 16.848C9.05337 16.7611 9.00953 16.6601 8.99038 16.5532C8.97122 16.4463 8.97727 16.3364 9.00804 16.2323C9.03224 16.149 9.05458 16.0615 9.08018 15.9721C9.25144 15.335 9.5102 14.373 10.4457 14.0174C11.1194 13.804 11.8216 13.6942 12.5283 13.6917C12.7699 13.6782 13.0077 13.6661 13.2334 13.6428C14.5924 13.5032 15.9695 13.4101 17.3014 13.3198C17.7395 13.2888 18.1775 13.2587 18.6153 13.2295C18.7074 13.2216 18.8002 13.2321 18.8883 13.2604C18.9763 13.2886 19.0579 13.3341 19.1282 13.3942C19.1986 13.4542 19.2563 13.5277 19.298 13.6102C19.3397 13.6928 19.3646 13.7828 19.3712 13.875C19.3778 13.9673 19.3661 14.0599 19.3366 14.1476C19.3071 14.2352 19.2605 14.3162 19.1995 14.3857C19.1385 14.4552 19.0642 14.5118 18.9811 14.5524C18.898 14.593 18.8077 14.6166 18.7153 14.622C18.2754 14.653 17.8357 14.684 17.3964 14.7151C16.0756 14.8044 14.7101 14.897 13.3749 15.0339C13.1287 15.059 12.8681 15.0734 12.6032 15.0874C12.04 15.0878 11.4798 15.1686 10.9394 15.3275C10.6919 15.4206 10.5713 15.8046 10.4275 16.3365C10.4005 16.4375 10.374 16.5357 10.3461 16.6293C10.3032 16.7733 10.215 16.8996 10.0946 16.9895C9.97419 17.0794 9.828 17.128 9.67775 17.1282V17.1282Z" fill="black"/>
<path d="M12.7587 30.0109C9.91977 30.0109 9.05972 28.7166 8.85448 27.5703C8.6469 26.0855 8.61036 24.5817 8.74557 23.0886C8.77303 22.5701 8.80002 22.054 8.81166 21.5444C8.83307 20.608 8.86658 19.6972 8.90008 18.7845C8.92941 17.9999 8.95826 17.2138 8.97967 16.411C8.98454 16.2259 9.06277 16.0502 9.19714 15.9228C9.3315 15.7953 9.511 15.7264 9.69615 15.7313C9.8813 15.7362 10.0569 15.8144 10.1844 15.9488C10.3119 16.0831 10.3807 16.2626 10.3759 16.4478C10.3549 17.2571 10.3256 18.0483 10.2963 18.8376C10.2628 19.7437 10.2297 20.648 10.2088 21.5769C10.1967 22.1005 10.1692 22.6306 10.1408 23.1635C10.0136 24.5496 10.0428 25.9455 10.2279 27.3251C10.294 27.6974 10.4931 28.833 13.5429 28.5817C14.013 28.543 14.476 28.4788 14.9666 28.4113C15.3887 28.3531 15.8117 28.295 16.2362 28.2531C17.4388 28.1353 18.6223 28.1074 19.5191 28.0972C20.2381 28.0883 20.9572 28.0869 21.6762 28.086C22.9793 28.086 24.329 28.0818 25.6498 28.0311C26.6518 27.9925 27.6543 27.9501 28.6553 27.8961C29.5317 27.8496 30.5239 27.7961 31.2434 27.3902C31.6679 27.1506 31.9043 26.661 32.0583 25.7004C32.1802 24.7566 32.2038 23.8027 32.1286 22.854C32.0541 21.3796 31.8959 19.7772 31.6297 17.8109L31.6083 17.6518C31.5242 16.6786 31.3068 15.7217 30.9623 14.8077C30.7394 14.3032 30.3219 14.2232 29.352 14.1501C29.2082 14.1389 29.0635 14.1282 28.9202 14.1138C27.4276 14.0179 25.9294 14.0628 24.4453 14.2478C23.8115 14.3065 23.1557 14.367 22.5107 14.4051C22.4192 14.4106 22.3275 14.3979 22.2408 14.3679C22.1542 14.3379 22.0743 14.2912 22.0057 14.2303C21.9372 14.1694 21.8813 14.0956 21.8412 14.0132C21.8012 13.9307 21.7778 13.8411 21.7723 13.7496C21.7669 13.6581 21.7795 13.5664 21.8095 13.4798C21.8395 13.3931 21.8863 13.3132 21.9472 13.2447C22.008 13.1761 22.0818 13.1202 22.1643 13.0802C22.2468 13.0401 22.3363 13.0167 22.4278 13.0113C23.0501 12.975 23.6942 12.9154 24.3169 12.8577C25.8894 12.6624 27.4769 12.6178 29.0579 12.7246C29.1905 12.7376 29.3241 12.7474 29.4572 12.7576C30.3852 12.8274 31.6562 12.9238 32.2394 14.2432C32.6416 15.2763 32.895 16.3612 32.9919 17.4656L33.0133 17.6234C33.2847 19.6297 33.4466 21.2693 33.5229 22.7842C33.6045 23.8304 33.5758 24.8822 33.4373 25.9224C33.2861 26.8606 32.9784 28.0134 31.9299 28.6059C30.9256 29.1732 29.7085 29.2383 28.7303 29.2905C27.7222 29.3444 26.7123 29.3877 25.7052 29.4264C24.3597 29.478 22.9975 29.4803 21.6804 29.4822C20.9665 29.4822 20.2521 29.4845 19.5396 29.4934C18.6697 29.5036 17.5249 29.5297 16.3749 29.6428C15.9686 29.6823 15.5637 29.7358 15.1597 29.794C14.6724 29.8615 14.1684 29.9308 13.6607 29.9732C13.3391 29.9983 13.0393 30.0109 12.7587 30.0109Z" fill="black"/>
<path d="M20.4201 16.6292C19.9884 16.6315 19.5657 16.5067 19.2044 16.2704C18.926 16.0789 18.6886 15.8337 18.5062 15.5492C18.3238 15.2647 18.2001 14.9466 18.1424 14.6136C18.0127 13.5849 18.0076 12.5444 18.127 11.5145C18.1471 11.2381 18.1661 10.9746 18.1787 10.7354C18.1817 10.6433 18.2032 10.5528 18.242 10.4692C18.2807 10.3856 18.3359 10.3106 18.4043 10.2488C18.4727 10.1871 18.5528 10.1397 18.6399 10.1096C18.727 10.0795 18.8193 10.0673 18.9112 10.0736C19.0961 10.083 19.2696 10.1654 19.3937 10.3027C19.5178 10.44 19.5823 10.6209 19.573 10.8057C19.56 11.0547 19.5405 11.3284 19.5195 11.6155C19.4137 12.525 19.412 13.4436 19.5144 14.3534C19.537 14.5024 19.5889 14.6454 19.6672 14.7741C19.7455 14.9028 19.8486 15.0147 19.9705 15.1032C20.07 15.1666 20.1816 15.2085 20.2981 15.2264C20.4147 15.2443 20.5338 15.2377 20.6476 15.207C21.02 15.1232 21.074 14.023 21.094 13.6083L21.0968 13.5548C21.1032 12.9687 21.0507 12.3833 20.9399 11.8077C20.8864 11.4628 20.8338 11.1189 20.8003 10.7764C20.7904 10.5967 20.8504 10.4201 20.9676 10.2835C21.0848 10.1469 21.2502 10.0609 21.4293 10.0434C21.6085 10.0258 21.7874 10.0782 21.9289 10.1894C22.0704 10.3007 22.1634 10.4623 22.1886 10.6405C22.2193 10.9574 22.2691 11.2753 22.3184 11.5936C22.445 12.2628 22.5024 12.9432 22.4897 13.6242L22.4869 13.6763C22.4464 14.514 22.3617 16.2523 20.9511 16.5692C20.7768 16.6086 20.5987 16.6287 20.4201 16.6292Z" fill="black"/>
<path d="M18.875 11.4689C18.7005 11.4687 18.5324 11.4032 18.4038 11.2852C18.2752 11.1672 18.1955 11.0054 18.1803 10.8316C18.1651 10.6577 18.2156 10.4845 18.3218 10.346C18.428 10.2075 18.5822 10.1139 18.754 10.0834C19.6938 9.8934 20.66 9.87182 21.6074 10.0197C21.6978 10.0344 21.7845 10.0669 21.8625 10.1151C21.9404 10.1634 22.0081 10.2265 22.0617 10.3009C22.1152 10.3754 22.1536 10.4596 22.1745 10.5488C22.1955 10.6381 22.1987 10.7306 22.184 10.8211C22.1692 10.9116 22.1368 10.9983 22.0885 11.0762C22.0403 11.1541 21.9771 11.2218 21.9027 11.2754C21.8283 11.3289 21.744 11.3673 21.6548 11.3883C21.5656 11.4093 21.4731 11.4125 21.3826 11.3977C20.5903 11.2746 19.7824 11.2951 18.9974 11.4582C18.957 11.4652 18.916 11.4688 18.875 11.4689Z" fill="black"/>
<path d="M12.5083 20.3189C12.3373 20.3193 12.1721 20.257 12.0441 20.1437C11.916 20.0304 11.834 19.874 11.8136 19.7042C11.7931 19.5345 11.8357 19.3631 11.9332 19.2227C12.0308 19.0822 12.1764 18.9824 12.3426 18.9423C14.4655 18.4963 16.6268 18.2589 18.7959 18.2335L19.6429 18.1948C19.7348 18.1891 19.827 18.2018 19.9139 18.2323C20.0008 18.2628 20.0807 18.3105 20.1489 18.3725C20.217 18.4345 20.272 18.5095 20.3106 18.5932C20.3492 18.6768 20.3706 18.7674 20.3736 18.8594C20.3823 19.0442 20.3173 19.225 20.1928 19.3619C20.0684 19.4988 19.8947 19.5807 19.7099 19.5896L18.8578 19.6283C16.7802 19.6518 14.7098 19.8763 12.6754 20.2984C12.6208 20.3121 12.5646 20.319 12.5083 20.3189V20.3189Z" fill="black"/>
<path d="M12.5083 22.2057C12.3301 22.2058 12.1586 22.1378 12.0289 22.0155C11.8992 21.8932 11.8212 21.726 11.8109 21.5481C11.8005 21.3702 11.8586 21.1951 11.9732 21.0586C12.0878 20.9221 12.2503 20.8347 12.4273 20.8141C15.5269 20.4474 18.6972 20.3348 21.7628 20.2254L22.2328 20.2086C22.4172 20.2043 22.5959 20.2722 22.7309 20.3979C22.8658 20.5235 22.9463 20.6969 22.9551 20.8811C22.9584 20.9728 22.9436 21.0643 22.9115 21.1502C22.8795 21.2362 22.8308 21.315 22.7682 21.3821C22.7057 21.4492 22.6305 21.5034 22.547 21.5414C22.4635 21.5795 22.3734 21.6007 22.2817 21.6039L21.8112 21.6207C18.774 21.7286 15.6335 21.8403 12.5902 22.2005C12.563 22.204 12.5357 22.2058 12.5083 22.2057Z" fill="black"/>
<path d="M12.6116 24.5415C12.4316 24.541 12.2587 24.4709 12.1291 24.346C11.9995 24.221 11.9232 24.0508 11.9161 23.8709C11.909 23.691 11.9717 23.5153 12.0911 23.3805C12.2104 23.2457 12.3773 23.1623 12.5567 23.1476L14.3601 23.0006C16.2138 22.8484 18.1299 22.6915 20.0198 22.5645C20.2046 22.5521 20.3867 22.6137 20.5261 22.7356C20.6655 22.8576 20.7507 23.0299 20.7631 23.2146C20.7754 23.3994 20.7139 23.5815 20.5919 23.7209C20.47 23.8603 20.2977 23.9455 20.1129 23.9579C18.2336 24.0835 16.3223 24.2404 14.4742 24.3921L12.6679 24.5392C12.6479 24.5406 12.6307 24.5415 12.6116 24.5415Z" fill="black"/>
<path d="M13.0035 26.6577C12.8271 26.6571 12.6574 26.5898 12.5286 26.4693C12.3998 26.3487 12.3214 26.1839 12.3092 26.0079C12.297 25.8319 12.3519 25.6578 12.4628 25.5206C12.5738 25.3834 12.7325 25.2933 12.9072 25.2685C14.5119 25.0423 16.1366 24.9459 17.7082 24.8533C18.956 24.7798 20.246 24.7035 21.5031 24.5625C21.684 24.5476 21.8636 24.6039 22.0038 24.7193C22.1439 24.8346 22.2336 25.0001 22.2538 25.1805C22.274 25.3609 22.2232 25.5421 22.1121 25.6856C22.0009 25.8291 21.8382 25.9237 21.6585 25.9493C20.3652 26.095 19.056 26.1723 17.7906 26.2472C16.2464 26.3403 14.6506 26.4334 13.1017 26.6507C13.0692 26.6553 13.0364 26.6577 13.0035 26.6577V26.6577Z" fill="black"/>
<path d="M27.5077 18.6817C27.4506 18.6817 27.3938 18.6798 27.3373 18.6761C27.0665 18.6613 26.8015 18.5914 26.5586 18.4707C26.3157 18.3499 26.1001 18.1808 25.9248 17.9738C25.7456 17.7511 25.6136 17.4942 25.5371 17.2187C25.4606 16.9433 25.4412 16.6551 25.4799 16.3719C25.6135 15.2149 26.5843 14.4298 28.0126 14.3241C28.1378 14.3159 28.263 14.3411 28.3752 14.3971C28.4875 14.4531 28.5829 14.538 28.6516 14.6429C29.1517 14.6287 29.6383 14.8067 30.011 15.1404C30.1651 15.3029 30.279 15.4992 30.3436 15.7136C30.4083 15.928 30.4219 16.1546 30.3834 16.3751C30.2214 17.7392 28.7689 18.6817 27.5077 18.6817ZM27.3913 15.8893C27.2544 15.9396 27.1336 16.0257 27.0414 16.1387C26.9492 16.2517 26.8891 16.3873 26.8673 16.5315C26.8511 16.6272 26.8544 16.7252 26.877 16.8195C26.8997 16.9139 26.9411 17.0027 26.999 17.0807C27.0538 17.1424 27.1208 17.1921 27.1958 17.2267C27.2708 17.2613 27.3521 17.28 27.4346 17.2817C28.0601 17.3283 28.9239 16.8284 28.9997 16.2062C29.0066 16.169 29.0066 16.1308 28.9997 16.0936C28.6523 16.0041 28.2888 15.9971 27.9382 16.0731C27.8392 16.0842 27.739 16.0736 27.6445 16.042C27.5501 16.0104 27.4637 15.9586 27.3913 15.8902V15.8893Z" fill="black"/>
<path d="M24.9345 26.5046C24.7564 26.5049 24.5849 26.4371 24.4551 26.3151C24.3253 26.1931 24.2471 26.0262 24.2364 25.8484C23.9944 21.8264 25.0555 19.6199 27.3913 19.2895C27.8204 19.2007 28.2646 19.2163 28.6865 19.3348C29.1083 19.4534 29.4956 19.6715 29.8156 19.9708C31.0987 21.2307 30.9721 23.7671 30.7185 25.8349C30.7073 25.9259 30.6783 26.0139 30.6332 26.0937C30.588 26.1735 30.5276 26.2437 30.4554 26.3002C30.3831 26.3567 30.3004 26.3984 30.2121 26.4229C30.1237 26.4474 30.0313 26.4543 29.9403 26.4432C29.8493 26.432 29.7613 26.403 29.6815 26.3579C29.6017 26.3127 29.5315 26.2523 29.475 26.1801C29.4185 26.1078 29.3768 26.0251 29.3523 25.9368C29.3278 25.8484 29.3209 25.756 29.332 25.665C29.4465 24.7342 29.7937 21.905 28.8373 20.9645C28.6672 20.8194 28.465 20.717 28.2475 20.6658C28.0299 20.6146 27.8032 20.616 27.5863 20.6699C26.0766 20.8835 25.4366 22.5492 25.6316 25.7623C25.6427 25.947 25.58 26.1286 25.4572 26.2671C25.3344 26.4057 25.1616 26.4897 24.9768 26.5009C24.9605 26.5041 24.9466 26.5046 24.9345 26.5046Z" fill="black"/>
</svg>
