<svg width="43" height="43" viewBox="0 0 43 43" fill="none" xmlns="http://www.w3.org/2000/svg">
<path d="M6.8613 30.5196C6.90068 30.6902 7.00295 30.8395 7.14768 30.9379C7.29241 31.0363 7.46893 31.0764 7.64197 31.0503C7.815 31.0242 7.97181 30.9337 8.08103 30.797C8.19025 30.6602 8.24385 30.4873 8.23112 30.3128C7.80846 24.6921 9.59603 19.5299 13.1339 16.1505C14.0942 15.3237 15.1774 14.6518 16.3446 14.1587C17.727 13.4909 19.193 13.0124 20.7031 12.7362C24.1271 12.1427 26.8332 12.4257 28.7468 13.5786C31.155 15.0294 32.3561 18.065 33.3218 20.5039L33.36 20.6012C33.4279 20.7725 33.561 20.9098 33.7301 20.983C33.8993 21.0562 34.0905 21.0592 34.2618 20.9913C34.4332 20.9234 34.5705 20.7903 34.6437 20.6212C34.7169 20.4521 34.7199 20.2608 34.652 20.0895L34.6134 19.9928C33.5712 17.3595 32.2724 14.082 29.4651 12.3884C27.2571 11.0579 24.2295 10.7145 20.4673 11.3668C18.8338 11.6645 17.2478 12.1808 15.7521 12.9017C14.4493 13.4556 13.2427 14.213 12.1773 15.1453C8.33865 18.8126 6.39725 24.3783 6.8495 30.4155C6.85066 30.4504 6.85461 30.4853 6.8613 30.5196V30.5196Z" fill="black"/>
<path d="M29.7356 22.3484C29.7486 22.4058 29.7688 22.4614 29.796 22.5137C29.8379 22.5948 29.8953 22.6668 29.9651 22.7257C30.0348 22.7846 30.1155 22.8291 30.2024 22.8568C30.2894 22.8845 30.381 22.8948 30.4719 22.8871C30.5629 22.8794 30.6514 22.8538 30.7325 22.8119C33.2192 21.5256 35.4097 20.4036 37.427 19.3822C37.5877 19.297 37.7086 19.1521 37.7637 18.9787C37.8187 18.8053 37.8035 18.6172 37.7214 18.4549C37.6393 18.2926 37.4968 18.1689 37.3245 18.1105C37.1522 18.0521 36.9639 18.0636 36.8 18.1426C34.7778 19.1656 32.5854 20.288 30.0942 21.5772C29.9574 21.6478 29.848 21.7619 29.7831 21.9015C29.7182 22.0411 29.7015 22.1982 29.7356 22.3484V22.3484Z" fill="black"/>
<path d="M35.7114 25.8014C35.7464 25.9603 35.836 26.1019 35.9646 26.2015C36.0932 26.3011 36.2527 26.3524 36.4152 26.3465C36.5778 26.3406 36.7331 26.2778 36.8542 26.1691C36.9752 26.0604 37.0542 25.9127 37.0775 25.7517C37.3095 24.2313 37.4517 22.6501 37.5888 21.1199C37.658 20.3523 37.7263 19.5873 37.8059 18.834C37.8154 18.7432 37.807 18.6515 37.7811 18.564C37.7552 18.4765 37.7124 18.3949 37.655 18.324C37.5976 18.2531 37.5267 18.1942 37.4466 18.1506C37.3664 18.107 37.2784 18.0797 37.1877 18.0701C37.0969 18.0606 37.0052 18.069 36.9177 18.0949C36.8302 18.1208 36.7487 18.1636 36.6777 18.221C36.6068 18.2784 36.5479 18.3493 36.5043 18.4294C36.4607 18.5096 36.4334 18.5976 36.4238 18.6883C36.344 19.4488 36.2744 20.2208 36.2051 20.9961C36.0696 22.5045 35.9297 24.0643 35.704 25.5429C35.6901 25.6288 35.6926 25.7165 35.7114 25.8014V25.8014Z" fill="black"/>
<path d="M29.7357 22.3488C29.7751 22.522 29.8794 22.6735 30.0272 22.7722C31.0352 23.4456 32.0893 24.0105 33.1107 24.5588C34.0775 25.0781 35.0771 25.6141 36.0073 26.2277C36.1611 26.3293 36.3489 26.3657 36.5294 26.3288C36.6188 26.3106 36.7037 26.2749 36.7794 26.2238C36.855 26.1728 36.9198 26.1073 36.9701 26.0312C37.0204 25.9551 37.0552 25.8698 37.0726 25.7802C37.0899 25.6906 37.0895 25.5985 37.0712 25.5091C37.0344 25.3286 36.9273 25.17 36.7736 25.0684C35.7916 24.4196 34.7632 23.8677 33.7672 23.3347C32.7711 22.8016 31.7483 22.2513 30.7986 21.617C30.683 21.5398 30.5469 21.499 30.4078 21.5C30.2688 21.5009 30.1333 21.5436 30.0188 21.6224C29.9042 21.7012 29.816 21.8126 29.7655 21.9421C29.7149 22.0716 29.7044 22.2133 29.7352 22.3489L29.7357 22.3488Z" fill="black"/>
</svg>
