<svg width="43" height="43" viewBox="0 0 43 43" fill="none" xmlns="http://www.w3.org/2000/svg">
<path d="M32.5323 20.5894C32.7852 20.9565 32.9338 21.4005 32.9338 21.879V22.0132C32.9338 23.2711 31.9105 24.2945 30.6526 24.2945H30.25H26.4926H25.5533C25.1885 24.2945 24.9043 24.4117 24.6845 24.653C24.272 25.1058 24.1738 25.8699 24.2086 26.2451C24.2682 26.8833 24.5643 27.7671 24.878 28.7027C25.1118 29.4007 25.3536 30.1222 25.5334 30.8412C25.9821 32.6361 25.1781 33.6292 24.3533 33.9343C23.3587 34.302 21.863 33.8455 20.9174 31.9536C20.8944 31.9029 18.5817 26.8489 17.6077 25.3269C16.8246 24.1026 15.0777 22.2813 13.4762 22.2813C13.1056 22.2813 12.8052 21.981 12.8052 21.6103C12.8052 21.2397 13.1056 20.9394 13.4762 20.9394C15.7792 20.9394 17.8672 23.2427 18.7382 24.6036C19.7626 26.2048 22.0414 31.1847 22.1279 31.3747C22.663 32.4445 23.4341 32.8433 23.8877 32.6758C24.2886 32.5274 24.4239 31.9351 24.2315 31.1665C24.0648 30.4987 23.8313 29.8025 23.6056 29.1291C23.2666 28.1176 22.9462 27.1621 22.8726 26.3691C22.8187 25.7894 22.9306 24.5851 23.6928 23.7488C23.9303 23.4885 24.2092 23.2896 24.5219 23.1557C24.3262 22.8191 24.2119 22.4294 24.2119 22.0129V21.8787C24.2119 21.2507 24.4671 20.6815 24.8788 20.2684C24.4671 19.8554 24.2119 19.2861 24.2119 18.6581V18.5239C24.2119 17.7104 24.6416 16.9971 25.2843 16.5929C25.0315 16.2257 24.8828 15.7818 24.8828 15.3033V15.1691C24.8828 14.383 25.2825 13.6884 25.8895 13.2781C25.7119 12.9831 25.6075 12.6393 25.6075 12.2705V12.1632C25.6075 11.924 25.6526 11.6959 25.7315 11.4839C25.5178 11.4753 25.3385 11.467 25.1832 11.4595C24.4566 11.4259 24.3638 11.4211 23.6483 11.5373C23.1263 11.6218 22.4397 11.8261 21.7129 12.0421C20.3796 12.4388 18.8681 12.8878 17.5022 12.8878H13.4765C13.1058 12.8878 12.8055 12.5875 12.8055 12.2169C12.8055 11.8462 13.1058 11.5459 13.4765 11.5459H17.5022C18.6729 11.5459 20.0849 11.1261 21.3308 10.7558C22.0999 10.5271 22.8265 10.3113 23.4336 10.2128C23.9655 10.1267 24.236 10.0972 24.5731 10.0972C24.7588 10.0972 24.965 10.106 25.2462 10.1192C25.9226 10.1508 27.0543 10.204 29.5796 10.204H30.3042C31.3845 10.204 32.2634 11.0827 32.2634 12.1632V12.2705C32.2634 12.6508 32.1528 13.0048 31.9647 13.3054C32.5503 13.7187 32.9344 14.3994 32.9344 15.1688V15.303C32.9344 15.7813 32.7857 16.2255 32.5329 16.5926C33.1759 16.9968 33.6053 17.7102 33.6053 18.5236V18.6578C33.6048 19.4718 33.1751 20.1852 32.5323 20.5894ZM25.5533 22.0132C25.5533 22.5312 25.9746 22.9525 26.4926 22.9525H29.5428H30.6526C31.1706 22.9525 31.5919 22.5312 31.5919 22.0132V21.879C31.5919 21.361 31.1706 20.9396 30.6526 20.9396H26.4926C25.9746 20.9396 25.5533 21.361 25.5533 21.879V22.0132ZM30.921 12.1632C30.921 11.8226 30.6443 11.5459 30.3037 11.5459H28.1563H27.5661C27.2256 11.5459 26.9489 11.8226 26.9489 12.1632V12.2705C26.9489 12.6111 27.2256 12.8878 27.5661 12.8878H28.1563H30.3037C30.6443 12.8878 30.921 12.6111 30.921 12.2705V12.1632ZM31.5919 15.1691C31.5919 14.6511 31.1706 14.2297 30.6526 14.2297H30.3037H27.5661H27.1636C26.6456 14.2297 26.2242 14.6511 26.2242 15.1691V15.3033C26.2242 15.8213 26.6456 16.2426 27.1636 16.2426H30.6526C31.1706 16.2426 31.5919 15.8213 31.5919 15.3033V15.1691ZM32.2629 18.5239C32.2629 18.0059 31.8415 17.5846 31.3235 17.5846H30.6526H27.1636H26.4926C25.9746 17.5846 25.5533 18.0059 25.5533 18.5239V18.6581C25.5533 19.1761 25.9746 19.5974 26.4926 19.5974H30.6526H31.3235C31.8415 19.5974 32.2629 19.1761 32.2629 18.6581V18.5239Z" fill="black"/>
</svg>
