<svg width="43" height="43" viewBox="0 0 43 43" fill="none" xmlns="http://www.w3.org/2000/svg">
<path d="M35.4357 4.78677H35.742V5.09309H35.4357V4.78677Z" fill="#F3F3F3"/>
<g clip-path="url(#clip0)">
<path d="M24.1302 11.9243C24.1164 12.5165 23.8568 13.2492 23.5732 13.7035C23.3003 14.1408 22.5578 14.8963 21.7398 15.3272C20.9219 15.7583 19.9031 16.8377 18.8771 17.6659C18.0582 18.327 17.0608 19.173 16.4312 19.4579C15.8013 19.7425 13.5516 19.5132 13.3297 19.7052C12.9304 20.0511 12.9999 21.6167 13.353 22.9374C13.6825 24.1705 14.604 25.1655 14.7147 26.4984C14.7992 27.5217 15.288 27.5333 17.0303 27.5333C17.071 27.5333 17.1123 27.5333 17.1543 27.5333H17.3179C18.1275 27.5333 19.0634 28.1545 20.0553 28.3005C20.6328 28.3851 21.2837 28.4054 22.117 28.4054C22.8749 28.4054 23.7835 28.3887 24.9262 28.3887C25.6807 28.3887 25.9245 28.0015 25.9245 27.4398C25.4997 27.4398 24.1406 27.4398 24.1406 27.4398C23.7305 27.4398 23.398 27.1075 23.398 26.6968C23.398 26.2871 23.7305 25.9544 24.1406 25.9544C24.1406 25.9544 25.867 25.9544 26.3801 25.9544C26.7356 25.9544 26.9909 25.6596 26.9909 25.3425C26.9909 25.1001 26.9153 25.0534 26.8275 24.9655H23.3395C22.9292 24.9655 22.5966 24.6334 22.5966 24.2233C22.5966 23.8128 22.9294 23.48 23.3395 23.48C23.3395 23.48 25.8738 23.48 26.3786 23.48C27.0577 23.48 27.4044 23.0915 27.4044 22.6236C27.4044 22.1552 27.1554 21.843 27.1554 21.843H23.115C22.7049 21.843 22.3722 21.5105 22.3722 21.1002C22.3722 20.6899 22.7049 20.3575 23.115 20.3575C23.115 20.3575 26.6821 20.3575 26.917 20.3575C27.3595 20.3575 27.7105 20.0648 27.7105 19.6119C27.7105 19.159 27.386 18.8646 26.917 18.8646C26.3144 18.8646 25.3257 18.8646 24.1376 18.8646C22.9495 18.8646 22.5019 18.2452 22.9381 17.7026C23.8763 16.6974 25.2361 15.0282 25.2649 13.7381C25.2961 12.3582 24.7152 12.0788 24.1302 11.9243ZM24.1304 10.6527C24.2389 10.6527 24.3481 10.6665 24.4553 10.6949C25.8734 11.0698 26.5736 12.1034 26.5365 13.7669C26.5122 14.8522 25.9024 16.1362 24.7215 17.5934H26.9172C28.0945 17.5934 28.9823 18.4613 28.9823 19.6124C28.9823 20.2482 28.6955 20.8068 28.2388 21.1737C28.3963 21.4107 28.6763 21.9293 28.6763 22.6238C28.6763 23.3003 28.3853 23.8753 27.9029 24.2561C28.0867 24.484 28.263 24.822 28.263 25.3427C28.263 26.1108 27.8012 26.7731 27.1406 27.0658C27.177 27.1843 27.1965 27.3097 27.1965 27.4401C27.1965 28.7888 26.3055 29.6605 24.9267 29.6605C24.3027 29.6605 23.7426 29.6656 23.2481 29.6701C22.8355 29.6739 22.4612 29.6773 22.1174 29.6773C21.2534 29.6773 20.5408 29.6569 19.8713 29.5588C19.2737 29.4708 18.7387 29.2678 18.2672 29.0887C17.9166 28.9558 17.5192 28.8049 17.3183 28.8049H17.1547H17.0918H17.0307C16.037 28.8049 15.3802 28.8049 14.8069 28.5909C13.9892 28.2857 13.5319 27.617 13.4479 26.6033C13.4047 26.0809 13.1459 25.5744 12.8464 24.9877C12.5896 24.4846 12.2984 23.9145 12.125 23.2657C11.9247 22.5163 11.802 21.6832 11.7885 20.9804C11.7673 19.8921 11.9928 19.1815 12.4976 18.7441C12.9552 18.3477 13.4823 18.3467 14.5324 18.345C14.9406 18.3443 15.6906 18.3429 15.9401 18.2839C16.347 18.0849 17.1513 17.4305 17.7428 16.9494C17.8573 16.8563 17.9696 16.7648 18.0792 16.6764C18.4183 16.4028 18.7705 16.087 19.1113 15.7816C19.8158 15.15 20.4815 14.5534 21.1476 14.2022C21.7588 13.8803 22.341 13.2773 22.4953 13.0302C22.689 12.7202 22.8524 12.2109 22.8596 11.8949C22.8688 11.5058 23.0557 11.1419 23.367 10.9079C23.5889 10.7405 23.8577 10.6527 24.1304 10.6527Z" fill="black"/>
</g>
<defs>
<clipPath id="clip0">
<rect width="30.7156" height="30.7156" fill="white" transform="matrix(-0.69 0 0 0.69 30.9811 9.54767)"/>
</clipPath>
</defs>
</svg>
