<svg width="43" height="43" viewBox="0 0 43 43" fill="none" xmlns="http://www.w3.org/2000/svg">
<path d="M8.16348 21.1198C7.71036 21.5824 7.7174 22.3242 8.17991 22.7797C11.2038 25.7496 14.2066 28.8416 17.1037 31.9665C17.3268 32.2083 17.639 32.3421 17.9653 32.3421C17.9794 32.3421 17.9935 32.3421 18.01 32.3421C18.3527 32.3304 18.6697 32.1684 18.8833 31.9007C24.525 24.8387 30.2558 18.1734 35.9163 12.0974C36.3576 11.6232 36.3318 10.8789 35.8576 10.4376C35.3857 9.99619 34.6391 10.0244 34.1977 10.4963C28.7814 16.3116 23.3018 22.6576 17.8996 29.3745C15.2654 26.5619 12.5561 23.7869 9.82569 21.1058C9.36083 20.6503 8.61894 20.6526 8.16348 21.1198Z" fill="white"/>
</svg>
