<svg width="43" height="43" viewBox="0 0 43 43" fill="none" xmlns="http://www.w3.org/2000/svg">
<path d="M11.1872 20.1063C10.7438 20.559 10.7506 21.285 11.2033 21.7307C14.1625 24.6371 17.1011 27.663 19.9363 30.7211C20.1546 30.9578 20.4602 31.0887 20.7795 31.0887C20.7933 31.0887 20.8071 31.0887 20.8232 31.0887C21.1586 31.0772 21.4688 30.9187 21.6779 30.6568C27.1989 23.7457 32.8073 17.2229 38.3467 11.2768C38.7787 10.8127 38.7534 10.0844 38.2893 9.65241C37.8275 9.22047 37.0969 9.24804 36.6649 9.70985C31.3644 15.4009 26.0019 21.6112 20.7152 28.1846C18.1373 25.4321 15.4859 22.7164 12.8139 20.0926C12.3589 19.6468 11.6329 19.6491 11.1872 20.1063Z" fill="white"/>
<path d="M34.7742 7.41634C34.5421 7.18198 34.2274 7.06481 33.8919 7.074C32.92 7.12684 32.0056 7.09927 31.0935 7.0763C30.163 7.05102 29.237 7.02805 28.2514 7.074C26.3651 7.16131 24.3363 7.14522 22.2547 7.11765C21.1634 7.10157 20.0789 7.12454 18.9968 7.14982C17.995 7.17279 16.9933 7.19117 15.9893 7.18428C14.8267 7.17279 13.6664 7.15441 12.5062 7.13144C10.8083 7.10157 9.11035 7.0717 7.41245 7.0717C7.09539 7.0717 6.79441 7.20266 6.57844 7.43242C6.36017 7.66217 6.24759 7.97005 6.26597 8.28711C6.74386 16.7146 6.77603 34.1141 6.77603 34.2795C6.77603 34.9021 7.2723 35.4145 7.89494 35.4306L22.172 35.7982C22.9578 35.8189 23.7482 35.8281 24.5408 35.8281C27.1279 35.8281 29.7402 35.7339 32.2836 35.642L33.5289 35.596C33.8345 35.5868 34.1217 35.4536 34.3307 35.2307C34.5375 35.0078 34.6501 34.7091 34.6363 34.4059C34.3078 25.7417 34.4617 16.9604 35.0958 8.30779C35.1234 7.97464 35.0039 7.65069 34.7742 7.41634ZM32.302 33.3398L32.2032 33.3421C28.9154 33.4616 25.515 33.5833 22.2341 33.496L9.05521 33.1583C9.09197 31.697 9.05751 29.11 9.00007 24.416C8.94263 19.8692 8.83235 13.7553 8.62327 9.37386C9.90302 9.38305 11.1851 9.40603 12.4648 9.429C13.632 9.44968 14.7991 9.47036 15.9663 9.48185C16.9933 9.48874 18.0203 9.47036 19.0473 9.44738C20.1042 9.42441 21.1611 9.39684 22.2226 9.41522C24.2605 9.44279 26.4133 9.46117 28.3594 9.36927C29.2853 9.32332 30.1584 9.35089 31.0337 9.37386C31.5921 9.38765 32.109 9.38995 32.7202 9.40143C32.1802 17.3464 32.0401 25.3879 32.302 33.3398Z" fill="white"/>
</svg>
