<svg width="43" height="43" viewBox="0 0 43 43" fill="none" xmlns="http://www.w3.org/2000/svg">
<path d="M35.5312 7.99153C35.0593 7.5572 34.3127 7.58537 33.8736 8.06431C29.8472 12.4523 25.6941 16.6923 21.663 20.8009C17.4558 16.5914 13.3637 12.2644 9.4171 7.84832C8.98276 7.36234 8.23852 7.32477 7.75958 7.75441C7.27594 8.1864 7.23368 8.92829 7.66567 9.41192C11.6475 13.868 15.7772 18.2324 20.0219 22.4819C16.2514 26.3251 12.3987 30.2694 8.64468 34.3662C8.20565 34.8451 8.23852 35.587 8.71512 36.0261C8.9405 36.2327 9.22458 36.3336 9.50866 36.3336C9.8256 36.3336 10.1426 36.2045 10.3726 35.9533C14.1079 31.8823 17.9465 27.9498 21.7029 24.1183C25.3607 27.7267 29.0842 31.2625 32.8876 34.6714C33.113 34.8733 33.3924 34.9719 33.6717 34.9719C33.9934 34.9719 34.3127 34.8404 34.5451 34.5822C34.9794 34.0986 34.9372 33.3567 34.4559 32.9247C30.676 29.5369 26.9759 26.0223 23.3416 22.4373C27.3868 18.317 31.5541 14.0652 35.6016 9.64905C36.0406 9.17245 36.0078 8.43056 35.5312 7.99153Z" fill="white"/>
</svg>
