<svg width="43" height="43" viewBox="0 0 43 43" fill="none" xmlns="http://www.w3.org/2000/svg">
<path d="M19.074 14.752L22.8416 7.71444L26.7921 12.3624L30.6925 19.9994L31.7274 26.1845L30.0888 31.6274L27.1565 34.2664L21.6371 34.7612L17.0729 33.8883L14.7377 29.4832V22.3085L19.074 14.752Z" fill="#448AFF"/>
<path d="M24.5007 5.68535C26.2517 9.61981 28.5537 13.2741 30.3441 17.189C31.7309 20.221 33.4785 23.4758 33.4511 26.8843C33.4083 32.3061 28.1359 36.1633 23.1084 36.6742C16.5504 37.34 13.1374 31.5926 13.0151 25.6041C12.9453 22.1854 15.517 18.518 17.0478 15.617C18.1247 13.5768 19.369 11.6274 20.4305 9.5793C21.1946 8.10439 21.4823 6.52633 22.6399 5.27011C23.6253 4.20031 25.2127 5.79601 24.231 6.8613C23.3687 7.79756 23.0851 9.11567 22.5798 10.2526C21.9613 11.6435 21.1323 12.9447 20.3765 14.2643C18.7433 17.1189 17.0317 20.0946 15.828 23.1618C14.5774 26.3491 15.6798 29.761 17.4679 32.5049C18.6731 34.3549 21.2208 34.688 23.2205 34.4052C28.1625 33.7063 32.1964 29.683 30.9274 24.5051C30.2132 21.589 28.5646 18.5364 27.2191 15.8732C25.6872 12.8412 23.9407 9.92815 22.5573 6.82079C21.9725 5.50755 23.9115 4.36161 24.5007 5.68535Z" fill="white" stroke="white" stroke-width="0.15"/>
<path d="M24.0355 32.582C20.0309 33.1593 16.1969 29.3231 17.0248 25.29C17.3162 23.8687 19.4858 24.4715 19.1948 25.8883C18.739 28.1093 21.1618 30.7399 23.4372 30.412C24.8558 30.2072 25.4673 32.3753 24.0355 32.582Z" fill="white" stroke="white" stroke-width="0.15"/>
</svg>
