<svg width="43" height="43" viewBox="0 0 43 43" fill="none" xmlns="http://www.w3.org/2000/svg">
<path d="M6.00773 32.9274L13.7745 33.3348C14.1157 33.3507 14.4543 33.3586 14.7903 33.3586C15.7109 33.3586 16.6156 33.303 17.5018 33.2475C18.3403 33.1946 19.1842 33.1417 20.0254 33.1417C20.036 33.1417 20.0439 33.1417 20.0519 33.1417C21.2476 33.1417 22.4618 33.1946 23.6654 33.2448C24.4855 33.2792 25.3002 33.3136 26.1018 33.3321C27.9985 33.3745 29.8899 33.3295 31.7893 33.2819C32.53 33.2634 33.305 33.2052 34.0801 33.147C34.8155 33.0914 35.5536 33.0359 36.2573 33.02C36.9133 33.0041 37.4582 32.5121 37.5376 31.8613C38.3656 25.2533 38.4344 18.5367 37.7439 11.9022C37.6778 11.2488 37.1382 10.7435 36.4821 10.7171C29.8635 10.4499 22.848 10.2277 16.1923 10.6536C15.3987 10.7065 14.6051 10.7647 13.8141 10.8255C11.2799 11.0213 8.65572 11.2223 6.13206 11.0663C5.78287 11.0557 5.40723 11.18 5.14005 11.4313C4.87287 11.6853 4.72738 12.0398 4.73267 12.4075C4.78029 15.5766 4.69563 18.8145 4.61627 21.9439C4.53691 25.0416 4.45226 28.2425 4.49459 31.409C4.45226 31.6682 4.48136 31.938 4.59247 32.1761C4.69034 32.3878 5.08715 33.0359 6.00773 32.9274ZM35.0483 30.4302C34.6621 30.454 34.2732 30.4831 33.8844 30.5122C33.1569 30.5678 32.4241 30.6233 31.7231 30.6392C29.874 30.6868 28.0223 30.7371 26.1653 30.6894C25.3796 30.6709 24.5807 30.6365 23.7792 30.6021C22.5385 30.5492 21.2872 30.4963 20.0545 30.4963C19.1339 30.4514 18.2451 30.5519 17.3404 30.6074C16.1579 30.6815 15.031 30.7503 13.9173 30.6921L7.13464 30.335C7.12142 27.5574 7.19284 24.7454 7.26427 22.0127C7.32511 19.6398 7.37272 17.1982 7.38066 14.7645C11.5868 17.5156 15.6923 20.4811 19.5889 23.6396C19.8244 23.8406 20.118 23.9385 20.4169 23.9385C20.6338 23.9385 20.8508 23.8856 21.0465 23.7772C23.7924 22.2852 26.2182 20.3038 28.5619 18.3886C30.7814 16.5739 32.8924 14.8676 35.2441 13.5264C35.7361 19.1531 35.6726 24.8274 35.0483 30.4302ZM14.0205 13.4656C14.8035 13.4074 15.5865 13.3466 16.3695 13.2963C21.1206 12.9894 26.0806 13.0265 30.9533 13.1693C29.5487 14.1851 28.2022 15.2697 26.8901 16.3411C24.7765 18.0685 22.766 19.7113 20.5492 21.0233C17.3219 18.4388 13.9385 16.0157 10.4969 13.6984C11.6793 13.6402 12.8592 13.5555 14.0205 13.4656Z" fill="white"/>
<path d="M27.7421 21.9255C27.1839 21.4573 26.348 21.5393 25.8824 22.1054C25.4169 22.6689 25.4962 23.5022 26.0623 23.9651L30.406 27.5442C30.6546 27.7479 30.9509 27.8458 31.2472 27.8458C31.6281 27.8458 32.0064 27.6818 32.2683 27.3644C32.7339 26.8009 32.6545 25.9676 32.0911 25.502L27.7421 21.9255Z" fill="white"/>
<path d="M13.9942 22.7164C12.6636 23.8909 11.3673 25.1316 10.1399 26.3961C9.63199 26.9198 9.64257 27.7584 10.1663 28.2663C10.4256 28.515 10.7563 28.6393 11.0896 28.6393C11.4335 28.6393 11.78 28.5044 12.0366 28.2372C13.2191 27.0204 14.4677 25.83 15.7454 24.6978C16.293 24.2137 16.3459 23.3777 15.8591 22.8301C15.3724 22.2826 14.5365 22.2323 13.9942 22.7164Z" fill="white"/>
</svg>
