<svg width="43" height="43" viewBox="0 0 43 43" fill="none" xmlns="http://www.w3.org/2000/svg">
<path d="M9.74995 17.752C11.5116 17.5432 12.2572 19.085 13.2306 20.1469C13.8764 20.8355 14.5887 21.4487 15.1727 22.1729C15.6998 22.826 16.0559 23.7369 16.7302 24.2878C16.7236 21.029 16.9377 17.7731 17.3713 14.5397C17.7227 12.0471 17.7464 8.80808 18.9098 6.50656C19.5176 5.30248 20.8092 4.77375 22.1435 5.53352C22.276 5.6123 22.3986 5.70469 22.5091 5.809C22.6532 5.16344 23.0044 4.5744 23.5158 4.12062C26.2224 1.83243 27.7277 4.6449 28.3878 7.11971C29.4989 5.81788 31.3983 5.88008 32.1865 7.7995C32.5695 8.87634 32.7228 10.0131 32.6376 11.1452C33.6491 10.7231 34.9027 11.5584 35.4298 13.2912C36.1135 15.5127 35.9711 18.0897 35.9331 20.4001C35.9177 23.012 35.6875 25.6189 35.2446 28.1977C34.7697 30.4193 34.2949 33.4184 32.3955 34.9646C30.0212 36.8884 26.194 37.155 23.2261 37.0084C19.6315 36.9418 17.5802 35.8088 15.7093 32.983C13.6057 29.8061 11.279 26.7626 9.08991 23.6525C8.05474 22.1463 6.58746 18.1253 9.74995 17.752ZM9.1279 21.2354C9.46029 22.4795 10.6807 23.7324 11.4262 24.7899C12.9647 26.9581 14.5602 29.0908 16.0607 31.2813C16.7492 32.2854 17.357 33.5339 18.2782 34.3914C19.6268 35.5866 21.474 35.8132 23.2404 35.8132C25.7951 35.9509 28.7391 35.7732 30.9709 34.4803C33.0223 33.2718 34.01 28.1622 34.0195 28.1355C34.029 28.1089 34.7127 22.1285 34.6985 19.1472C34.6985 17.912 34.6985 16.6635 34.5513 15.4327C34.5014 14.7076 34.3612 13.9903 34.1334 13.2956C33.7156 12.1537 32.8181 12.2604 32.5569 13.4822V13.5178C32.5094 15.7393 32.462 17.9609 32.3053 20.1469C32.253 20.9066 30.9804 20.9155 31.0374 20.1469C31.2606 16.9967 31.3508 13.811 31.3128 10.652C31.3486 10.0393 31.3216 9.42482 31.2321 8.81697C31.1609 8.5104 31.0659 7.995 30.838 7.8306C29.0953 6.58654 28.8721 9.24351 28.7914 9.92774C28.421 13.1223 28.3165 16.3436 27.9271 19.547C27.8322 20.2846 26.6118 20.3246 26.6593 19.547C26.6593 19.4848 27.2576 14.7752 27.3906 12.9135C27.476 11.7494 27.3573 10.4965 27.5235 9.31015C27.4381 8.21271 27.1674 5.79122 26.2462 4.92926C23.7437 2.5922 23.6725 8.55483 23.682 9.50121C23.682 12.7313 23.8102 15.9304 23.5395 19.1605C23.4778 19.9158 22.2052 19.9247 22.2717 19.1605C22.4901 16.5257 22.4711 13.9132 22.4379 11.2784C22.3382 11.1851 22.2859 5.01812 20.2346 6.68428C19.1852 7.53736 19.2327 10.9985 19.0285 12.1848C18.304 16.5083 17.961 20.8803 18.0028 25.2564C18.0031 25.3482 17.9808 25.4388 17.9378 25.5213C17.8947 25.6037 17.832 25.6758 17.7545 25.7321C17.677 25.7883 17.5867 25.8271 17.4906 25.8456C17.3946 25.864 17.2952 25.8616 17.2003 25.8385C15.2107 25.3319 14.0853 22.8349 12.808 21.4887C12.4328 21.0932 11.806 20.0136 11.3217 19.7959C9.78794 19.1027 8.68154 19.5337 9.1279 21.2354Z" fill="white" stroke="white" stroke-width="1.2"/>
</svg>
