<svg width="43" height="43" viewBox="0 0 43 43" fill="none" xmlns="http://www.w3.org/2000/svg">
<path d="M36.0637 33.4419C36.2771 33.2148 36.3884 32.9128 36.3702 32.6017C36.1068 27.8445 36.0773 23.5686 36.0455 19.043C36.0251 16.1546 36.0046 13.2253 35.9206 10.1235C35.9115 9.81239 35.7753 9.51719 35.5414 9.30828C35.3098 9.09937 34.9942 8.99038 34.6899 9.02444C32.5145 9.20383 30.3732 9.18566 28.2091 9.2061C26.9784 9.19702 25.7953 9.2061 24.526 9.23335C22.5027 9.27876 20.4976 9.21064 18.5539 9.14479C15.4407 9.03806 12.2185 8.92907 8.91906 9.28557C8.33093 9.34916 7.89041 9.85553 7.9063 10.4482C8.0153 14.0496 8.04255 17.6987 8.0698 21.3456C8.09704 24.9969 8.12429 28.6506 8.23102 32.2543C8.24237 32.6108 8.41949 32.9423 8.71015 33.149C9.5367 33.7325 10.6607 33.8574 11.7439 33.8574C12.164 33.8574 12.575 33.8393 12.961 33.8211L13.5128 33.8007C17.8068 33.6871 21.8896 33.7257 26.2131 33.7666C29.1742 33.7938 32.1602 33.8188 35.2462 33.8007C35.555 33.7984 35.8502 33.669 36.0637 33.4419ZM26.2336 31.4958C21.8896 31.4527 17.7864 31.4141 13.4538 31.5299L12.8611 31.5526C12.1821 31.5844 11.1467 31.6275 10.4813 31.4777C10.3905 28.1192 10.3655 24.7244 10.3406 21.3297C10.3156 18.0234 10.2906 14.7172 10.2066 11.4451C12.9769 11.2248 15.6587 11.3156 18.4789 11.411C20.4568 11.4791 22.5005 11.5495 24.5805 11.5018C25.8316 11.4746 27.0442 11.4905 28.2114 11.4746C30.0666 11.4428 31.8492 11.4746 33.6817 11.3701C33.7407 14.0224 33.7589 16.5543 33.777 19.0589C33.8065 23.2348 33.8315 27.1973 34.0427 31.5367C31.3905 31.5413 28.7995 31.5208 26.2336 31.4958Z" fill="white"/>
<path d="M32.4057 27.5333L32.0605 27.0882C31.7222 26.6318 31.3589 26.1913 30.9978 25.7553L28.207 22.3832C27.9936 22.1244 27.6757 21.9745 27.3396 21.9722C26.9854 21.9382 26.6834 22.1153 26.4654 22.3719C25.8386 23.1076 25.0303 23.8524 24.1742 24.5586C24.0402 24.3815 23.9062 24.218 23.77 24.0386C22.6119 22.499 21.4129 20.9072 19.9665 19.5584C19.7303 19.3359 19.4056 19.2201 19.09 19.2564C18.7675 19.2859 18.4746 19.4517 18.2816 19.7106C16.0085 22.7761 13.6129 25.7939 11.165 28.6778C10.8925 29.0002 10.8199 29.4476 10.9788 29.8381C11.1378 30.2287 11.4988 30.5012 11.9212 30.5421C12.6819 30.617 13.4403 30.6374 14.1897 30.6374C14.6166 30.6374 15.0435 30.6306 15.4636 30.6261L16.1652 30.617C19.7008 30.5807 23.2568 30.4921 26.7379 30.3559C27.7415 30.3945 28.7475 30.3899 29.7534 30.3854C30.58 30.3808 31.4043 30.3763 32.2195 30.3967C32.2286 30.3967 32.2399 30.3967 32.249 30.3967C32.6486 30.3967 33.0188 30.1878 33.2231 29.8449C33.4343 29.493 33.4389 29.0547 33.2345 28.6982C32.9961 28.2804 32.7031 27.9057 32.4057 27.5333ZM16.1403 28.344L15.4272 28.3553C15.0753 28.3599 14.7301 28.3667 14.3872 28.3667C16.0699 26.3298 17.7184 24.2384 19.3148 22.1198C20.2412 23.1235 21.0791 24.2384 21.9579 25.4033C22.6551 26.3298 23.3681 27.2744 24.1379 28.1759C21.4879 28.2622 18.8061 28.319 16.1403 28.344ZM29.7375 28.1124C28.8951 28.1192 28.0504 28.1124 27.2056 28.0896C26.638 27.5492 26.093 26.9815 25.5798 26.3616C26.1838 25.8666 26.7651 25.3602 27.2851 24.8334L29.2471 27.2041C29.4946 27.5038 29.7443 27.8035 29.9828 28.1101C29.901 28.1101 29.8193 28.1124 29.7375 28.1124Z" fill="white"/>
<path d="M27.5124 21.241C27.8871 21.3705 28.2663 21.4363 28.641 21.4363C28.6591 21.4363 28.6773 21.4363 28.6932 21.4363C30.369 21.4068 31.8246 19.9104 31.8064 18.2346C31.8019 17.8008 31.711 17.3603 31.5271 16.888C31.3908 16.536 31.2319 16.2454 31.0412 15.9979C30.2986 15.0282 29.002 14.4833 27.7349 14.6127C26.6382 14.7194 25.7435 15.3257 25.2825 16.2681C24.8579 17.1378 24.8465 18.2187 25.2575 19.1588C25.6844 20.1352 26.5065 20.8959 27.5124 21.241ZM27.3217 17.2672C27.3648 17.1787 27.4942 16.9175 27.9643 16.8698C28.0097 16.8653 28.0551 16.863 28.1005 16.863C28.541 16.863 29.0043 17.0674 29.245 17.3808C29.2995 17.4534 29.3563 17.5624 29.413 17.7077C29.4948 17.9189 29.5379 18.1029 29.5402 18.2573C29.5447 18.691 29.0906 19.1565 28.6591 19.1656C28.5297 19.1656 28.398 19.1451 28.2549 19.0952C27.853 18.9567 27.5124 18.641 27.3421 18.2527C27.1945 17.9189 27.1877 17.542 27.3217 17.2672Z" fill="white"/>
</svg>
