<svg width="43" height="43" viewBox="0 0 43 43" fill="none" xmlns="http://www.w3.org/2000/svg">
<path d="M10.3619 8.34074C7.32505 11.0152 5.6532 14.6181 5.52622 18.7581C5.37279 23.779 7.53668 29.0247 11.3142 32.7917C14.3643 35.8285 18.2689 37.4581 22.3427 37.4581C23.3162 37.4581 24.2976 37.3655 25.279 37.1777C30.5142 36.1751 34.9398 32.5642 37.1249 27.5168C39.802 21.3294 38.1645 13.4515 33.0457 7.90955C27.0884 1.45755 16.507 2.92571 10.3619 8.34074ZM34.6938 26.464C32.8606 30.7071 29.1518 33.7387 24.779 34.5773C20.5571 35.3841 16.3272 34.0535 13.1792 30.9135C9.95982 27.7073 8.0393 23.078 8.17156 18.8401C8.27738 15.4488 9.63709 12.5019 12.1105 10.3221C17.3192 5.73243 26.1943 4.38595 31.1014 9.6978C35.5191 14.4859 36.9635 21.2236 34.6938 26.464Z" fill="white"/>
<path d="M22.1307 16.7345C21.4614 16.79 20.7869 17.2741 20.7578 18.0042L20.361 28.0883C20.3319 28.8184 20.9006 29.4348 21.6307 29.4639C21.6492 29.4639 21.6651 29.4639 21.6836 29.4639C22.3899 29.4639 22.9772 28.9057 23.0037 28.1941L23.4005 18.11C23.4296 17.3799 22.8608 16.7636 22.1307 16.7345Z" fill="white"/>
<path d="M21.959 15.4144C22.6891 15.4144 23.2816 14.8219 23.2816 14.0918V12.8775C23.2816 12.1474 22.6891 11.5549 21.959 11.5549C21.2289 11.5549 20.6363 12.1474 20.6363 12.8775V14.0891C20.6363 14.8219 21.2289 15.4144 21.959 15.4144Z" fill="white"/>
</svg>
