<svg width="43" height="43" viewBox="0 0 43 43" fill="none" xmlns="http://www.w3.org/2000/svg">
<path d="M36.0171 13.661C34.6189 11.9172 33.0548 10.2849 31.3702 8.80944C30.8132 8.32293 30.2357 7.67272 29.897 7.15665C29.872 7.118 29.8333 7.09754 29.8061 7.06344C29.7788 7.02934 29.7651 6.99069 29.7333 6.95886C29.7106 6.93613 29.6788 6.92931 29.6537 6.90885C29.5901 6.85656 29.5242 6.81563 29.4514 6.77926C29.39 6.7497 29.3332 6.72242 29.2695 6.70196C29.1945 6.67923 29.1195 6.67013 29.0399 6.66331C28.974 6.65877 28.9103 6.65422 28.8421 6.66104C28.7671 6.66786 28.6943 6.68605 28.6216 6.70878C28.5511 6.72924 28.4852 6.75425 28.4193 6.79063C28.3897 6.80654 28.3533 6.80881 28.3261 6.82927C28.2874 6.85428 28.2669 6.89293 28.2351 6.92021C28.201 6.94749 28.1601 6.96113 28.1283 6.99296C27.0825 8.08421 25.8526 9.32324 24.6226 10.56C23.3722 11.8172 22.1218 13.0744 21.0624 14.1839C17.7432 17.6509 14.3103 21.2361 10.7796 24.6326C10.7637 24.6462 10.7614 24.6599 10.7501 24.6712C10.7001 24.7213 10.6682 24.7849 10.6273 24.8463C10.5841 24.9145 10.5364 24.9759 10.5068 25.0486C10.5046 25.0623 10.4932 25.0691 10.4886 25.0827C9.7475 27.2311 9.22006 29.4796 8.71308 31.6552C8.49256 32.5942 8.27431 33.5308 8.03787 34.4561C7.94238 34.8312 8.04241 35.2246 8.30386 35.5087C8.52211 35.7452 8.82448 35.8748 9.13821 35.8748C9.20187 35.8748 9.2678 35.8702 9.33146 35.8588C11.2571 35.5269 13.0895 34.9972 14.865 34.4857L16.1359 34.1197C16.4041 34.0446 16.6747 33.9492 16.9429 33.8537C17.2499 33.7468 17.5545 33.6331 17.8591 33.5695C18.0706 33.524 18.2661 33.4217 18.4207 33.2694C24.6135 27.2152 30.7223 20.7427 35.9625 15.1478C36.349 14.7363 36.374 14.102 36.0171 13.661ZM15.5175 31.9303L14.2353 32.2986C13.0235 32.6487 11.855 32.9852 10.6705 33.2626C10.7569 32.8988 10.841 32.5351 10.9274 32.1713C11.2934 30.6049 11.6958 29.0158 12.1528 27.463C13.3759 28.984 14.7081 30.4185 16.1768 31.7121C15.954 31.7917 15.7357 31.869 15.5175 31.9303ZM18.0524 30.4321C17.9978 30.3503 17.9501 30.2662 17.8728 30.198C16.1836 28.7362 14.6581 27.0879 13.3123 25.3146C16.5337 22.1727 19.6711 18.924 22.7016 15.7571C23.1699 15.2683 23.6837 14.7408 24.2111 14.2066L29.1058 19.0445C29.1172 19.0558 29.1331 19.0581 29.1445 19.0695C25.6184 22.7888 21.8627 26.6673 18.0524 30.4321ZM30.6995 17.4258L25.8094 12.5924C25.9503 12.4492 26.089 12.3083 26.2322 12.165C27.1393 11.2511 28.0191 10.3599 28.8558 9.50511C29.174 9.86204 29.5219 10.2099 29.8743 10.5213C31.2133 11.6922 32.4705 12.9698 33.6209 14.3248C32.6797 15.3274 31.6885 16.3777 30.6995 17.4258Z" fill="white"/>
</svg>
