<svg width="43" height="43" viewBox="0 0 43 43" fill="none" xmlns="http://www.w3.org/2000/svg">
<path d="M9.52696 23.2528C9.86951 21.587 10.3692 20.2379 11.0614 19.1305C12.699 16.5028 15.7655 14.6821 19.4701 14.1401C21.9548 13.7741 24.8758 13.7507 27.8132 14.0721C27.7945 12.899 27.8648 11.7212 28.0291 10.5552C28.0854 10.1328 28.3669 9.77857 28.7611 9.62137C29.1576 9.47122 29.6057 9.53926 29.9318 9.80672C30.8938 10.595 31.8745 11.3669 32.8575 12.1435C34.9222 13.7718 37.0572 15.4564 39.0233 17.277C39.4809 17.7017 39.5278 18.4055 39.1313 18.8842C38.9084 19.1516 38.6902 19.4402 38.4673 19.7358C37.9676 20.3928 37.4491 21.0732 36.8437 21.6433C35.7598 22.6568 34.6313 23.7596 33.5004 24.8623C32.3742 25.9626 31.2457 27.063 30.1641 28.0742C29.8239 28.3886 29.3359 28.4778 28.9159 28.3018C28.4913 28.1282 28.2074 27.7223 28.1886 27.2624C28.1581 26.4858 28.1112 25.5333 28.0596 24.576C28.0338 24.0481 28.0033 23.5155 27.9798 23.0135C27.6584 23.0064 27.3933 22.99 27.29 22.983C24.5684 22.7741 22.5671 22.8469 20.0332 23.0416C18.4097 23.1636 15.4042 23.6892 13.539 25.8172C12.6685 26.8073 12.0796 28.1141 11.5095 29.3763C11.3171 29.801 10.8948 30.0661 10.4396 30.0661C10.3763 30.0661 10.3082 30.0614 10.2449 30.0497C9.717 29.9605 9.31815 29.5288 9.27123 28.9986C9.1023 27.1217 9.08119 25.4254 9.52696 23.2528ZM11.777 24.2687C13.5695 22.2298 16.4365 20.9629 19.8549 20.7001C22.4991 20.5054 24.5966 20.4326 27.466 20.6415C27.8085 20.6696 28.6297 20.6954 28.9488 20.6485C29.2796 20.6039 29.6057 20.7025 29.8591 20.916C30.1078 21.1295 30.2603 21.4392 30.2744 21.77C30.3025 22.5466 30.3518 23.4991 30.4011 24.454C30.4034 24.501 30.4058 24.5479 30.4105 24.5971C30.8914 24.1303 31.3747 23.6587 31.8604 23.1824C33.0007 22.0679 34.1456 20.9535 35.2389 19.9282C35.7011 19.4989 36.1563 18.8982 36.5974 18.3164C36.6091 18.3023 36.6208 18.2882 36.6326 18.2765C34.9527 16.7867 33.1555 15.3672 31.4052 13.9876C30.9923 13.6592 30.577 13.3354 30.1688 13.0093C30.143 13.7788 30.1594 14.5507 30.2181 15.3179C30.2486 15.6722 30.1125 16.0218 29.8521 16.2658C29.594 16.5075 29.2327 16.6083 28.8831 16.5708C25.6946 16.111 22.4733 16.0711 19.8103 16.4629C16.7884 16.904 14.3249 18.3281 13.0509 20.3716C12.5066 21.2491 12.1172 22.3143 11.8286 23.7244C11.784 23.9355 11.7465 24.1443 11.7113 24.3484C11.73 24.3226 11.7535 24.2968 11.777 24.2687Z" fill="white"/>
</svg>
