<svg width="43" height="43" viewBox="0 0 43 43" fill="none" xmlns="http://www.w3.org/2000/svg">
<path d="M32.3873 25.7078C31.4624 26.1201 30.4862 26.1937 29.6237 26.2583C29.3785 26.2783 29.1311 26.2984 28.8882 26.3229C28.1795 26.4009 27.2545 26.6127 26.8779 27.1788C26.626 27.5576 26.5725 28.1527 26.5369 28.7277L26.5124 29.1735C26.4611 30.1608 26.4076 31.1838 26.1112 32.209C25.6788 33.7023 24.7606 34.8746 23.5883 35.4251C22.0237 36.1605 20.0825 35.6479 19.2601 34.2683C18.8767 33.622 18.7898 32.9044 18.7274 32.3784L18.2304 28.3154C18.1569 27.7137 18.0744 27.0339 17.7713 26.6193C17.5373 26.2962 17.1071 26.0376 16.4563 25.8281C14.6756 25.2487 12.6786 25.4002 10.9603 25.6298C10.753 25.6543 10.5769 25.6944 10.4187 25.7279C9.76346 25.8683 8.53989 26.129 7.8735 24.4753C7.55925 23.6953 7.49684 22.7636 7.44335 21.939C7.42775 21.6693 7.40992 21.4108 7.38318 21.1746C7.15139 19.084 7.03772 16.9667 7.03995 14.7759C7.03104 8.18997 7.27397 7.89801 8.31256 7.7264C11.357 7.21825 14.4349 7.3854 17.408 7.54364C19.4384 7.65062 21.5401 7.75983 23.5638 7.65508C24.2658 7.61496 24.9679 7.55256 25.6699 7.49015C26.7999 7.38763 27.9566 7.28065 29.1244 7.28065C29.8087 7.28065 30.4951 7.31854 31.186 7.41215C31.9482 7.51467 33.0426 7.75092 33.7647 8.6112C34.2773 9.21742 34.4444 9.96182 34.5559 10.4544C35.0573 12.6697 35.4228 14.9363 35.6479 17.1874C35.7861 18.5669 35.8976 20.1716 35.4897 21.7518C35.0194 23.5749 33.8605 25.0548 32.3873 25.7078ZM9.39795 9.81695C9.33777 10.4655 9.26423 11.8785 9.26868 14.8829C9.26645 16.8865 9.37566 18.9235 9.59854 20.9272C9.62751 21.1946 9.64757 21.4866 9.66763 21.7941C9.70551 22.3647 9.74786 23.0021 9.92616 23.5526C9.9373 23.5504 9.94845 23.5482 9.95959 23.5459C10.1646 23.5014 10.3986 23.4545 10.6683 23.4167C11.8986 23.254 13.2626 23.1537 14.6488 23.2584C14.7491 18.7207 14.7402 14.1518 14.602 9.64756C12.8324 9.58962 11.1074 9.5963 9.39795 9.81695ZM32.0575 10.0443C31.8056 9.7434 31.1147 9.64979 30.8874 9.61859C29.2671 9.39795 27.6178 9.5495 25.8705 9.70997C25.1395 9.7746 24.4107 9.84146 23.6841 9.87935C23.0489 9.91501 22.4115 9.92838 21.7763 9.92838C20.2652 9.92838 18.7608 9.84815 17.2899 9.77015C17.1339 9.76123 16.9845 9.75454 16.8285 9.74786C16.9667 14.3457 16.9779 19.0105 16.8709 23.6462C16.9623 23.6707 17.0559 23.6774 17.1472 23.7064C18.2616 24.0697 19.055 24.5912 19.5743 25.3089C20.2162 26.1914 20.3477 27.2612 20.4413 28.0457L20.9405 32.1132C20.9851 32.4787 21.0342 32.8932 21.1768 33.1339C21.4086 33.5217 22.1195 33.651 22.6388 33.4125C23.2295 33.1339 23.7153 32.4698 23.9694 31.5916C24.1945 30.8138 24.2391 29.9624 24.2859 29.0576L24.3104 28.5962C24.3594 27.756 24.4597 26.7865 25.0191 25.9463C25.7056 24.9166 26.9247 24.2992 28.643 24.1098C28.9105 24.0808 29.1824 24.0608 29.4521 24.0385C30.2009 23.9828 30.9097 23.927 31.4824 23.673C32.3383 23.2919 33.0292 22.3669 33.3301 21.1968C33.4081 20.8915 33.4616 20.5773 33.495 20.2585L31.7922 20.3321C31.2128 20.3232 30.66 19.8774 30.6333 19.2623C30.6066 18.6472 31.0857 18.1257 31.7009 18.1011L33.4838 18.0254C33.466 17.8181 33.4504 17.6086 33.4304 17.4102C33.3434 16.5433 33.2209 15.6763 33.0894 14.8093L31.4156 14.5887C30.8049 14.5062 30.377 13.9468 30.4572 13.3339C30.533 12.7745 31.01 12.3666 31.5604 12.3666C31.6095 12.3666 31.6585 12.3688 31.7075 12.3755L32.6815 12.5048C32.5812 11.9833 32.4965 11.4595 32.3784 10.9425C32.316 10.646 32.2224 10.2382 32.0575 10.0443Z" fill="white"/>
</svg>
