<svg width="43" height="43" viewBox="0 0 43 43" fill="none" xmlns="http://www.w3.org/2000/svg">
<path d="M34.4747 15.6288C33.5498 15.2165 32.5736 15.1429 31.7111 15.0783C31.4659 15.0582 31.2185 15.0382 30.9756 15.0137C30.2669 14.9356 29.3419 14.7239 28.9653 14.1578C28.7134 13.7789 28.66 13.1839 28.6243 12.6089L28.5998 12.1631C28.5485 11.1758 28.495 10.1528 28.1986 9.12758C27.7662 7.63433 26.848 6.46201 25.6757 5.91152C24.1111 5.17604 22.1699 5.68864 21.3475 7.06823C20.9641 7.71456 20.8772 8.43221 20.8148 8.95819L20.3178 13.0212C20.2443 13.6229 20.1618 14.3027 19.8587 14.7172C19.6247 15.0404 19.1945 15.2989 18.5437 15.5084C16.763 16.0879 14.766 15.9363 13.0477 15.7068C12.8404 15.6823 12.6644 15.6422 12.5061 15.6087C11.8509 15.4683 10.6273 15.2076 9.9609 16.8613C9.64665 17.6413 9.58424 18.5729 9.53075 19.3976C9.51515 19.6672 9.49732 19.9258 9.47058 20.162C9.23879 22.2526 9.12513 24.3699 9.12735 26.5607C9.11844 33.1466 9.36137 33.4386 10.4 33.6102C13.4444 34.1183 16.5223 33.9512 19.4954 33.7929C21.5258 33.686 23.6275 33.5767 25.6512 33.6815C26.3532 33.7216 27.0553 33.784 27.7573 33.8464C28.8873 33.9489 30.044 34.0559 31.2118 34.0559C31.8961 34.0559 32.5825 34.018 33.2734 33.9244C34.0356 33.8219 35.13 33.5857 35.8521 32.7254C36.3647 32.1192 36.5318 31.3748 36.6433 30.8822C37.1447 28.6669 37.5102 26.4002 37.7353 24.1492C37.8735 22.7696 37.985 21.1649 37.5771 19.5848C37.1068 17.7617 35.9479 16.2818 34.4747 15.6288ZM11.4854 31.5196C11.4252 30.8711 11.3516 29.4581 11.3561 26.4537C11.3539 24.4501 11.4631 22.413 11.6859 20.4094C11.7149 20.142 11.735 19.85 11.755 19.5424C11.7929 18.9719 11.8353 18.3345 12.0136 17.784C12.0247 17.7862 12.0358 17.7884 12.047 17.7907C12.252 17.8352 12.4861 17.882 12.7557 17.9199C13.986 18.0826 15.35 18.1829 16.7362 18.0782C16.8365 22.6159 16.8276 27.1847 16.6894 31.689C14.9198 31.747 13.1948 31.7403 11.4854 31.5196ZM34.1449 31.2923C33.893 31.5932 33.2021 31.6868 32.9748 31.718C31.3545 31.9386 29.7052 31.7871 27.9579 31.6266C27.2269 31.562 26.4981 31.4951 25.7715 31.4572C25.1363 31.4216 24.4989 31.4082 23.8637 31.4082C22.3526 31.4082 20.8482 31.4884 19.3773 31.5664C19.2213 31.5753 19.072 31.582 18.9159 31.5887C19.0541 26.9909 19.0653 22.3261 18.9583 17.6904C19.0497 17.6658 19.1433 17.6592 19.2346 17.6302C20.349 17.2669 21.1424 16.7454 21.6617 16.0277C22.3036 15.1451 22.4351 14.0754 22.5287 13.2908L23.0279 9.22341C23.0725 8.8579 23.1216 8.44336 23.2642 8.20265C23.496 7.81485 24.2069 7.68559 24.7262 7.92406C25.3169 8.20265 25.8027 8.86681 26.0568 9.74493C26.2819 10.5228 26.3265 11.3741 26.3733 12.279L26.3978 12.7403C26.4468 13.5806 26.5471 14.5501 27.1065 15.3903C27.793 16.42 29.0121 17.0373 30.7304 17.2268C30.9979 17.2558 31.2698 17.2758 31.5395 17.2981C32.2883 17.3538 32.9971 17.4095 33.5698 17.6636C34.4257 18.0447 35.1166 18.9697 35.4175 20.1397C35.4955 20.4451 35.549 20.7593 35.5824 21.078L33.8796 21.0045C33.3002 21.0134 32.7474 21.4591 32.7207 22.0743C32.694 22.6894 33.1731 23.2109 33.7883 23.2354L35.5712 23.3112C35.5534 23.5185 35.5378 23.728 35.5178 23.9263C35.4308 24.7933 35.3083 25.6603 35.1768 26.5273L33.503 26.7479C32.8923 26.8304 32.4644 27.3898 32.5446 28.0027C32.6204 28.5621 33.0974 28.97 33.6479 28.97C33.6969 28.97 33.7459 28.9677 33.7949 28.961L34.7689 28.8318C34.6686 29.3533 34.5839 29.8771 34.4658 30.3941C34.4034 30.6905 34.3098 31.0984 34.1449 31.2923Z" fill="white"/>
</svg>
