<svg width="43" height="43" viewBox="0 0 43 43" fill="none" xmlns="http://www.w3.org/2000/svg">
<path d="M37.0312 24.8833C36.6886 23.2175 36.1889 21.8685 35.4968 20.7611C33.8591 18.1333 30.7926 16.3127 27.088 15.7707C24.6034 15.4047 21.6824 15.3812 18.7449 15.7027C18.7637 14.5296 18.6933 13.3518 18.5291 12.1857C18.4728 11.7634 18.1912 11.4091 17.7971 11.2519C17.4005 11.1018 16.9524 11.1698 16.6263 11.4373C15.6644 12.2256 14.6837 12.9975 13.7006 13.7741C11.6359 15.4023 9.5009 17.0869 7.53479 18.9076C7.07728 19.3322 7.03036 20.0361 7.42687 20.5147C7.64975 20.7822 7.86795 21.0708 8.09084 21.3664C8.59058 22.0233 9.10909 22.7037 9.71441 23.2738C10.7984 24.2874 11.9269 25.3901 13.0577 26.4928C14.1839 27.5932 15.3124 28.6936 16.394 29.7048C16.7342 30.0192 17.2222 30.1083 17.6422 29.9323C18.0669 29.7587 18.3508 29.3528 18.3695 28.893C18.4 28.1164 18.447 27.1638 18.4986 26.2066C18.5244 25.6787 18.5549 25.1461 18.5783 24.644C18.8998 24.637 19.1649 24.6206 19.2681 24.6135C21.9897 24.4047 23.991 24.4774 26.5249 24.6722C28.1485 24.7942 31.154 25.3197 33.0192 27.4477C33.8896 28.4378 34.4785 29.7446 35.0486 31.0069C35.241 31.4316 35.6633 31.6967 36.1185 31.6967C36.1819 31.6967 36.2499 31.692 36.3132 31.6803C36.8411 31.5911 37.24 31.1594 37.2869 30.6292C37.4558 28.7522 37.477 27.0559 37.0312 24.8833ZM34.7812 25.8992C32.9887 23.8604 30.1216 22.5934 26.7032 22.3307C24.0591 22.1359 21.9616 22.0632 19.0922 22.272C18.7496 22.3002 17.9284 22.326 17.6094 22.279C17.2785 22.2345 16.9524 22.333 16.699 22.5465C16.4503 22.76 16.2978 23.0697 16.2838 23.4005C16.2556 24.1771 16.2063 25.1297 16.1571 26.0846C16.1547 26.1315 16.1524 26.1784 16.1477 26.2277C15.6667 25.7608 15.1834 25.2892 14.6977 24.8129C13.5575 23.6985 12.4125 22.5841 11.3192 21.5588C10.857 21.1294 10.4018 20.5288 9.96076 19.9469C9.94903 19.9329 9.9373 19.9188 9.92557 19.907C11.6054 18.4172 13.4026 16.9978 15.1529 15.6182C15.5658 15.2897 15.9811 14.966 16.3893 14.6398C16.4151 15.4094 16.3987 16.1813 16.3401 16.9485C16.3096 17.3028 16.4456 17.6524 16.7061 17.8964C16.9642 18.138 17.3255 18.2389 17.6751 18.2014C20.8635 17.7415 24.0849 17.7016 26.7478 18.0934C29.7697 18.5345 32.2332 19.9587 33.5072 22.0022C34.0515 22.8797 34.441 23.9448 34.7296 25.3549C34.7741 25.5661 34.8117 25.7749 34.8469 25.979C34.8281 25.9532 34.8046 25.9274 34.7812 25.8992Z" fill="white"/>
</svg>
