<svg width="43" height="43" viewBox="0 0 43 43" fill="none" xmlns="http://www.w3.org/2000/svg">
<path d="M24.1804 6.57305C20.6542 3.84306 16.8581 4.34567 13.6123 5.20012C11.1574 5.84558 9.01202 7.06773 7.40894 8.73165C4.58107 11.668 3.34834 15.9323 4.18691 19.8633C5.04136 23.8498 8.04912 27.2676 11.8505 28.5744C13.1811 29.032 14.6942 29.2728 16.3449 29.286C16.3952 29.286 16.4402 29.286 16.4904 29.286C18.5776 29.286 20.4346 28.9156 22.0112 28.1829C22.908 27.7649 23.7307 27.1909 24.4846 26.519C28.077 29.6008 31.4975 32.9286 34.6216 36.4681C34.8835 36.7644 35.2459 36.9152 35.6136 36.9152C35.9258 36.9152 36.2353 36.8067 36.4892 36.5845C37.0368 36.1004 37.0897 35.2645 36.6056 34.7169C33.4074 31.0928 29.9076 27.6908 26.2359 24.5349C27.7516 22.3975 28.6907 19.7045 28.7489 16.8661C28.8283 12.7579 27.0797 8.81366 24.1804 6.57305ZM20.8976 25.7836C19.641 26.3655 18.0723 26.638 16.3687 26.6406C15.0037 26.6301 13.7736 26.4369 12.7102 26.0745C9.76859 25.0614 7.43804 22.4081 6.7767 19.3104C6.12595 16.2762 7.12324 12.8452 9.31624 10.5675C10.5992 9.23427 12.2711 8.28988 14.2868 7.75817C17.4718 6.91959 20.0934 6.75558 22.5641 8.66552C24.8127 10.4035 26.1671 13.525 26.1036 16.8132C26.0216 20.768 23.9318 24.3709 20.8976 25.7836Z" fill="white"/>
<path d="M17.4106 15.6466C18.2333 15.6598 19.056 15.6122 19.8708 15.4561C20.5718 15.3212 21.2781 15.7894 21.4156 16.5116C21.5532 17.2285 21.0797 17.9216 20.3628 18.0565C19.4449 18.2311 18.5216 18.3184 17.5958 18.3184H17.4106L14.8525 18.0591L14.6012 18.0142C13.9214 17.8872 13.2812 17.7682 12.7521 17.8793C12.0511 18.03 11.3369 17.575 11.1834 16.8582C11.03 16.1439 11.4877 15.4429 12.2045 15.2895C13.1119 15.0964 13.969 15.2128 14.7494 15.3556L17.4106 15.6466Z" fill="white"/>
</svg>
